<svg id="s6_logo" xmlns="http://www.w3.org/2000/svg" xmlns:xlink="http://www.w3.org/1999/xlink" width="685.143" height="220.506" viewBox="0 0 685.143 220.506">
  <defs>
    <clipPath id="clip-path">
      <rect id="사각형_26814" data-name="사각형 26814" width="685.143" height="220.506" fill="#fff"/>
    </clipPath>
  </defs>
  <g id="그룹_53768" data-name="그룹 53768" clip-path="url(#clip-path)">
    <path id="패스_16738" data-name="패스 16738" d="M232.131,80.544c0,9.56-7.7,15.988-20.641,15.988H182.559V39.009H209.8c12.518,0,19.794,5.922,19.794,15.311,0,5.329-2.96,10.829-7.952,12.6,7.021,1.524,10.49,7.445,10.49,13.62M196.855,50.682V62.7H207.6c5.414,0,8.375-2.707,8.375-6.429,0-3.638-2.877-5.584-8.375-5.584Zm21.318,28c0-3.553-2.961-5.583-8.29-5.583H196.855V84.689h12.774c5.921,0,8.544-2.623,8.544-6.007" transform="translate(54.019 11.543)" fill="#fff"/>
    <path id="패스_16739" data-name="패스 16739" d="M266,96.532,255.091,79.867H244.178V96.532h-14.3V39.01h25.124c14.3,0,23.856,7.782,23.856,20.217A19.244,19.244,0,0,1,269.133,76.4l13.534,20.133ZM244.178,67.009h10.575c5.5,0,9.813-3.045,9.813-7.782,0-4.654-4.314-7.613-9.813-7.613H244.178Z" transform="translate(68.022 11.543)" fill="#fff"/>
    <path id="패스_16740" data-name="패스 16740" d="M291.958,51.445V61.934h25.547V74.115H291.958V84.1h29.185V96.532H277.661V39.009h43.481V51.445Z" transform="translate(82.16 11.543)" fill="#fff"/>
    <path id="패스_16741" data-name="패스 16741" d="M360.611,86.635H336.248l-3.806,9.9H317.215l24.447-57.522h13.7l24.363,57.522H364.5Zm-4.652-11.927-7.529-19.372L340.9,74.707Z" transform="translate(93.864 11.543)" fill="#fff"/>
    <path id="패스_16742" data-name="패스 16742" d="M414.353,51.782H396v44.75H381.785V51.782H363.428V39.01h50.925Z" transform="translate(107.538 11.543)" fill="#fff"/>
    <rect id="사각형_26812" data-name="사각형 26812" width="14.296" height="57.522" transform="translate(532.039 50.553)" fill="#fff"/>
    <path id="패스_16743" data-name="패스 16743" d="M492.153,68.021c0,16.749-13.112,29.861-30.452,29.861s-30.454-13.112-30.454-29.861,13.112-29.86,30.454-29.86,30.452,13.111,30.452,29.86m-14.465,0c0-9.051-6.683-16.5-15.988-16.5s-15.989,7.445-15.989,16.5,6.683,16.5,15.989,16.5,15.988-7.444,15.988-16.5" transform="translate(127.605 11.292)" fill="#fff"/>
    <path id="패스_16744" data-name="패스 16744" d="M540.773,39.01V96.532h-11L502.2,64.979V96.532H487.9V39.01h10.913l27.745,32.4V39.01Z" transform="translate(144.37 11.543)" fill="#fff"/>
    <path id="패스_16745" data-name="패스 16745" d="M184.754,112.264h5.509a10.151,10.151,0,0,1,5.426,1.14,4.089,4.089,0,0,1,1.753,3.7,4.507,4.507,0,0,1-1,2.951,4.585,4.585,0,0,1-2.865,1.558v.111a5.671,5.671,0,0,1,3.3,1.489,4.485,4.485,0,0,1,1.127,3.27,5.4,5.4,0,0,1-.877,3.172,5.208,5.208,0,0,1-2.448,1.865,9.966,9.966,0,0,1-3.632.612h-6.288Zm1.613,8.765h4.257a6.448,6.448,0,0,0,3.938-.946,3.347,3.347,0,0,0,1.21-2.811,3.022,3.022,0,0,0-1.308-2.755,8.078,8.078,0,0,0-4.2-.835h-3.9Zm0,1.392v8.32H190.9q5.4,0,5.4-4.34a3.422,3.422,0,0,0-1.378-3.019,7.556,7.556,0,0,0-4.271-.96Z" transform="translate(54.669 33.219)" fill="#fff"/>
    <path id="패스_16746" data-name="패스 16746" d="M205.314,115.979a7.02,7.02,0,0,1,2,.25l-.223,1.448a7.676,7.676,0,0,0-.89-.167,7.79,7.79,0,0,0-.946-.056,3.916,3.916,0,0,0-3.242,1.489,6.2,6.2,0,0,0-1.182,3.965v8.125h-1.586v-14.8h1.336l.166,2.784h.084a5.613,5.613,0,0,1,1.683-2.143,4.372,4.372,0,0,1,2.8-.89" transform="translate(58.957 34.318)" fill="#fff"/>
    <path id="패스_16747" data-name="패스 16747" d="M213.951,115.98a5.073,5.073,0,0,1,3.73,1.225,5.292,5.292,0,0,1,1.225,3.867v9.963h-1.2l-.3-2.5h-.056a6.465,6.465,0,0,1-1.949,2.018,5.859,5.859,0,0,1-3.228.766,4.991,4.991,0,0,1-3.352-1.057,3.835,3.835,0,0,1-1.239-3.089,3.778,3.778,0,0,1,1.795-3.367,10.509,10.509,0,0,1,5.273-1.308l2.7-.14v-1.029a4.4,4.4,0,0,0-.877-3.1,3.429,3.429,0,0,0-2.575-.9,8.236,8.236,0,0,0-2.2.293,10.641,10.641,0,0,0-2.115.849l-.5-1.28a11.46,11.46,0,0,1,2.282-.862,9.988,9.988,0,0,1,2.588-.334m3.4,7.6-2.506.111a9.005,9.005,0,0,0-4.23.96,2.787,2.787,0,0,0-1.391,2.546,2.527,2.527,0,0,0,.863,2.072,3.614,3.614,0,0,0,2.365.71,4.746,4.746,0,0,0,3.575-1.308A5.263,5.263,0,0,0,217.348,125Z" transform="translate(61.422 34.318)" fill="#fff"/>
    <path id="패스_16748" data-name="패스 16748" d="M227.773,115.958a5.311,5.311,0,0,1,3.868,1.308,5.516,5.516,0,0,1,1.336,4.091v9.684h-1.586v-9.573a4.368,4.368,0,0,0-.96-3.117,3.738,3.738,0,0,0-2.825-1q-4.9,0-4.9,5.622v8.07H221.15v-14.8h1.28l.223,2.559h.111a4.9,4.9,0,0,1,1.851-2.031,5.765,5.765,0,0,1,3.158-.807" transform="translate(65.438 34.312)" fill="#fff"/>
    <path id="패스_16749" data-name="패스 16749" d="M240.642,132.7a5.642,5.642,0,0,1-4.578-1.906,8.528,8.528,0,0,1-1.6-5.607,8.864,8.864,0,0,1,1.683-5.843,5.724,5.724,0,0,1,4.633-2,5.237,5.237,0,0,1,3.034.807,4.915,4.915,0,0,1,1.725,2.031h.111c-.019-.446-.042-.936-.07-1.475s-.042-1.011-.042-1.419v-6.01h1.586v21.148h-1.28l-.223-2.559h-.083a5.457,5.457,0,0,1-1.753,2,5.311,5.311,0,0,1-3.144.835m.194-1.363a4.125,4.125,0,0,0,3.645-1.559,7.8,7.8,0,0,0,1.086-4.48v-.279a8.452,8.452,0,0,0-1.086-4.689,3.936,3.936,0,0,0-3.534-1.628,4.188,4.188,0,0,0-3.618,1.683,8.068,8.068,0,0,0-1.225,4.8,7.583,7.583,0,0,0,1.169,4.591,4.167,4.167,0,0,0,3.562,1.559" transform="translate(69.378 32.927)" fill="#fff"/>
    <path id="패스_16750" data-name="패스 16750" d="M250.015,111.943q1.112,0,1.113,1.2,0,1.225-1.113,1.225-1.057,0-1.057-1.225,0-1.2,1.057-1.2m.779,20.285h-1.559v-14.8h1.559Z" transform="translate(73.666 33.124)" fill="#fff"/>
    <path id="패스_16751" data-name="패스 16751" d="M261.958,115.958a5.311,5.311,0,0,1,3.868,1.308,5.516,5.516,0,0,1,1.336,4.091v9.684h-1.586v-9.573a4.368,4.368,0,0,0-.96-3.117,3.738,3.738,0,0,0-2.825-1q-4.9,0-4.9,5.622v8.07h-1.559v-14.8h1.28l.223,2.559h.111a4.9,4.9,0,0,1,1.851-2.031,5.765,5.765,0,0,1,3.158-.807" transform="translate(75.553 34.312)" fill="#fff"/>
    <path id="패스_16752" data-name="패스 16752" d="M274.91,115.958a5.748,5.748,0,0,1,2.908.667,5.046,5.046,0,0,1,1.851,1.864h.084l.25-2.252h1.28v15.276a6.551,6.551,0,0,1-1.489,4.564q-1.489,1.641-4.884,1.642a14.074,14.074,0,0,1-2.95-.279,13.385,13.385,0,0,1-2.338-.724v-1.528a11.185,11.185,0,0,0,2.408.848,12.751,12.751,0,0,0,2.935.32,4.584,4.584,0,0,0,3.575-1.28A5,5,0,0,0,279.7,131.6v-.863c0-.391.009-.78.027-1.17s.038-.77.056-1.142H279.7a4.346,4.346,0,0,1-1.893,2.171,6.113,6.113,0,0,1-3.061.726,5.485,5.485,0,0,1-4.494-1.95,8.647,8.647,0,0,1-1.6-5.619,9.177,9.177,0,0,1,1.6-5.692,5.5,5.5,0,0,1,4.661-2.1m.167,1.391a4.115,4.115,0,0,0-3.59,1.685,8.091,8.091,0,0,0-1.2,4.744,7.647,7.647,0,0,0,1.182,4.619,4.024,4.024,0,0,0,3.437,1.586,4.858,4.858,0,0,0,2.881-.75,4.084,4.084,0,0,0,1.488-2.06,9.209,9.209,0,0,0,.446-2.977v-.947a7.713,7.713,0,0,0-1.043-4.367,4.044,4.044,0,0,0-3.6-1.532" transform="translate(79.493 34.312)" fill="#fff"/>
    <path id="패스_16753" data-name="패스 16753" d="M292.567,112.028a4.839,4.839,0,0,1,3.31,1.1,3.845,3.845,0,0,1,1.252,3.047,4.132,4.132,0,0,1-1.21,3.048,13.245,13.245,0,0,1-3.13,2.241l6.066,6.01a9.121,9.121,0,0,0,1.336-2.143,14.292,14.292,0,0,0,.89-2.644h1.613a13.677,13.677,0,0,1-2.838,5.845l3.673,3.673h-2.115l-2.614-2.615a11.118,11.118,0,0,1-2.9,2.086,8.917,8.917,0,0,1-4.007.807,6.9,6.9,0,0,1-4.481-1.378,4.814,4.814,0,0,1-1.7-3.965,5.343,5.343,0,0,1,.557-2.546,5.634,5.634,0,0,1,1.6-1.836,18.315,18.315,0,0,1,2.518-1.572,18.313,18.313,0,0,1-1.921-2.338,4.48,4.48,0,0,1-.75-2.561,3.93,3.93,0,0,1,1.308-3.1,5.148,5.148,0,0,1,3.535-1.155m-1.17,10.184a17.87,17.87,0,0,0-2.185,1.322,4.724,4.724,0,0,0-1.376,1.489,4.113,4.113,0,0,0-.474,2.059A3.621,3.621,0,0,0,288.614,130a4.957,4.957,0,0,0,3.311,1.057,7.506,7.506,0,0,0,3.408-.7,9.548,9.548,0,0,0,2.464-1.781Zm1.114-8.821a3.46,3.46,0,0,0-2.339.766,2.623,2.623,0,0,0-.89,2.1,3.634,3.634,0,0,0,.64,2.086,16.118,16.118,0,0,0,1.809,2.143,11.057,11.057,0,0,0,2.865-1.921,3.256,3.256,0,0,0,.976-2.394,2.6,2.6,0,0,0-.836-2.031,3.2,3.2,0,0,0-2.225-.752" transform="translate(84.544 33.149)" fill="#fff"/>
    <path id="패스_16754" data-name="패스 16754" d="M314.4,132.133l-7.124-18.143h-.111q.054.75.083,1.738t.028,2.1v14.3h-1.5V112.264h2.449l6.845,17.42h.084l6.929-17.42h2.392v19.869h-1.613v-14.47c0-.631.009-1.27.027-1.921s.047-1.234.084-1.752h-.084l-7.179,18.143Z" transform="translate(90.479 33.219)" fill="#fff"/>
    <path id="패스_16755" data-name="패스 16755" d="M330.915,115.98a5.073,5.073,0,0,1,3.73,1.225,5.292,5.292,0,0,1,1.225,3.867v9.963h-1.2l-.306-2.5h-.056a6.447,6.447,0,0,1-1.948,2.018,5.859,5.859,0,0,1-3.228.766,5,5,0,0,1-3.354-1.057,3.838,3.838,0,0,1-1.238-3.089,3.778,3.778,0,0,1,1.795-3.367,10.509,10.509,0,0,1,5.273-1.308l2.7-.14v-1.029a4.4,4.4,0,0,0-.876-3.1,3.429,3.429,0,0,0-2.575-.9,8.229,8.229,0,0,0-2.2.293,10.613,10.613,0,0,0-2.115.849l-.5-1.28a11.461,11.461,0,0,1,2.282-.862,9.988,9.988,0,0,1,2.588-.334m3.4,7.6-2.5.111a9.005,9.005,0,0,0-4.23.96,2.787,2.787,0,0,0-1.391,2.546,2.527,2.527,0,0,0,.863,2.072,3.614,3.614,0,0,0,2.365.71,4.746,4.746,0,0,0,3.575-1.308A5.257,5.257,0,0,0,334.31,125Z" transform="translate(96.032 34.318)" fill="#fff"/>
    <path id="패스_16756" data-name="패스 16756" d="M344.61,115.979a7.02,7.02,0,0,1,2,.25l-.223,1.448a7.678,7.678,0,0,0-.89-.167,7.788,7.788,0,0,0-.946-.056,3.916,3.916,0,0,0-3.242,1.489,6.2,6.2,0,0,0-1.182,3.965v8.125h-1.586v-14.8h1.336l.166,2.784h.084a5.615,5.615,0,0,1,1.683-2.143,4.372,4.372,0,0,1,2.8-.89" transform="translate(100.175 34.318)" fill="#fff"/>
    <path id="패스_16757" data-name="패스 16757" d="M349.744,111.277v10.742q0,.89-.027,1.851t-.029,1.906h.029c.24-.3.514-.635.82-1.016s.6-.719.876-1.016l5.622-6.122h1.892l-5.843,6.345,6.345,8.46h-1.893l-5.565-7.4-2.226,2.282v5.12h-1.559V111.277Z" transform="translate(103.028 32.927)" fill="#fff"/>
    <path id="패스_16758" data-name="패스 16758" d="M365.791,115.958a5.481,5.481,0,0,1,3.172.877,5.327,5.327,0,0,1,1.92,2.406,9.03,9.03,0,0,1,.64,3.507v1.113H360.95a6.661,6.661,0,0,0,1.363,4.494,4.913,4.913,0,0,0,3.924,1.572,11.533,11.533,0,0,0,2.421-.223,11.2,11.2,0,0,0,2.255-.779v1.448a10.539,10.539,0,0,1-2.2.723,12.772,12.772,0,0,1-2.532.223,6.411,6.411,0,0,1-5.093-2.032,8.108,8.108,0,0,1-1.781-5.537,10.02,10.02,0,0,1,.766-4.021,6.322,6.322,0,0,1,2.212-2.768,6,6,0,0,1,3.505-1m-.027,1.336a4.3,4.3,0,0,0-3.3,1.363,6.342,6.342,0,0,0-1.488,3.868h8.876a6.586,6.586,0,0,0-.987-3.784,3.492,3.492,0,0,0-3.1-1.448" transform="translate(106.319 34.312)" fill="#fff"/>
    <path id="패스_16759" data-name="패스 16759" d="M377.659,130.727a7.044,7.044,0,0,0,1.183-.1,5.718,5.718,0,0,0,.959-.237v1.28a6.305,6.305,0,0,1-1.043.279,7.282,7.282,0,0,1-1.322.111,3.752,3.752,0,0,1-2.838-1.043,4.728,4.728,0,0,1-1-3.354V118.26h-2.2v-.89l2.2-.5.556-3.422h1v3.534h4.563v1.28h-4.563v9.35q0,3.116,2.5,3.117" transform="translate(109.896 33.569)" fill="#fff"/>
    <path id="패스_16760" data-name="패스 16760" d="M382.333,111.943q1.112,0,1.113,1.2,0,1.225-1.113,1.225-1.057,0-1.057-1.225,0-1.2,1.057-1.2m.779,20.285h-1.559v-14.8h1.559Z" transform="translate(112.819 33.124)" fill="#fff"/>
    <path id="패스_16761" data-name="패스 16761" d="M394.275,115.958a5.311,5.311,0,0,1,3.868,1.308,5.516,5.516,0,0,1,1.336,4.091v9.684h-1.586v-9.573a4.368,4.368,0,0,0-.96-3.117,3.738,3.738,0,0,0-2.825-1q-4.9,0-4.9,5.622v8.07h-1.559v-14.8h1.28l.223,2.559h.111a4.9,4.9,0,0,1,1.85-2.031,5.765,5.765,0,0,1,3.158-.807" transform="translate(114.706 34.312)" fill="#fff"/>
    <path id="패스_16762" data-name="패스 16762" d="M407.227,115.958a5.748,5.748,0,0,1,2.908.667,5.047,5.047,0,0,1,1.851,1.864h.084l.25-2.252h1.28v15.276a6.551,6.551,0,0,1-1.489,4.564q-1.489,1.641-4.884,1.642a14.073,14.073,0,0,1-2.949-.279,13.383,13.383,0,0,1-2.338-.724v-1.528a11.183,11.183,0,0,0,2.408.848,12.75,12.75,0,0,0,2.935.32,4.584,4.584,0,0,0,3.575-1.28,5,5,0,0,0,1.156-3.477v-.863c0-.391.009-.78.027-1.17s.038-.77.056-1.142h-.083a4.346,4.346,0,0,1-1.893,2.171,6.113,6.113,0,0,1-3.061.726,5.485,5.485,0,0,1-4.494-1.95,8.647,8.647,0,0,1-1.6-5.619,9.177,9.177,0,0,1,1.6-5.692,5.5,5.5,0,0,1,4.661-2.1m.167,1.391a4.114,4.114,0,0,0-3.59,1.685,8.091,8.091,0,0,0-1.2,4.744,7.647,7.647,0,0,0,1.182,4.619,4.025,4.025,0,0,0,3.437,1.586,4.858,4.858,0,0,0,2.881-.75,4.085,4.085,0,0,0,1.488-2.06,9.207,9.207,0,0,0,.446-2.977v-.947A7.713,7.713,0,0,0,411,118.88a4.044,4.044,0,0,0-3.6-1.532" transform="translate(118.645 34.312)" fill="#fff"/>
    <path id="패스_16763" data-name="패스 16763" d="M196.065,154.936a4.912,4.912,0,0,1-.89,2.992,5.51,5.51,0,0,1-2.449,1.836,9.5,9.5,0,0,1-3.561.626,17.066,17.066,0,0,1-3.117-.25,11.751,11.751,0,0,1-2.282-.64v-1.586a17.091,17.091,0,0,0,2.462.737,13.688,13.688,0,0,0,3.047.32,6.416,6.416,0,0,0,3.715-.988,3.336,3.336,0,0,0,1.433-2.936,3.252,3.252,0,0,0-.543-1.934,4.443,4.443,0,0,0-1.669-1.336,21.7,21.7,0,0,0-2.881-1.155,17.5,17.5,0,0,1-2.865-1.266,5.01,5.01,0,0,1-1.838-1.726,4.953,4.953,0,0,1-.639-2.629,4.52,4.52,0,0,1,.82-2.755,5.138,5.138,0,0,1,2.254-1.7,8.625,8.625,0,0,1,3.271-.584,13.162,13.162,0,0,1,5.232,1.059l-.557,1.391a11.919,11.919,0,0,0-4.73-1,5.733,5.733,0,0,0-3.354.9,3.035,3.035,0,0,0-1.293,2.658,3.4,3.4,0,0,0,.556,2.045,4.337,4.337,0,0,0,1.613,1.295,21.755,21.755,0,0,0,2.588,1.057,21.132,21.132,0,0,1,3.019,1.293,5.509,5.509,0,0,1,1.962,1.683,4.442,4.442,0,0,1,.7,2.588" transform="translate(54.376 41.415)" fill="#fff"/>
    <path id="패스_16764" data-name="패스 16764" d="M209.551,151.554a9.9,9.9,0,0,1-.765,4.035,6.017,6.017,0,0,1-2.254,2.685,6.565,6.565,0,0,1-3.632.96,6.4,6.4,0,0,1-3.534-.946,6.12,6.12,0,0,1-2.268-2.672,9.645,9.645,0,0,1-.793-4.063A8.244,8.244,0,0,1,198.1,145.9a6.22,6.22,0,0,1,4.911-2.032,6.366,6.366,0,0,1,3.575.96,5.986,5.986,0,0,1,2.213,2.685,10.055,10.055,0,0,1,.75,4.035m-11.6,0a7.93,7.93,0,0,0,1.2,4.577,4.24,4.24,0,0,0,3.757,1.74,4.3,4.3,0,0,0,3.8-1.74,7.853,7.853,0,0,0,1.21-4.577,9.745,9.745,0,0,0-.5-3.255,4.294,4.294,0,0,0-4.424-3.034,4.43,4.43,0,0,0-3.785,1.67,7.548,7.548,0,0,0-1.252,4.619" transform="translate(58.087 42.572)" fill="#fff"/>
    <rect id="사각형_26813" data-name="사각형 26813" width="1.586" height="21.149" transform="translate(272.647 180.379)" fill="#fff"/>
    <path id="패스_16765" data-name="패스 16765" d="M228.265,144.088v14.8h-1.308l-.223-2.532h-.083a5.18,5.18,0,0,1-1.879,2,5.768,5.768,0,0,1-3.158.807q-5.233,0-5.232-5.4v-9.684H218v9.573a4.472,4.472,0,0,0,.946,3.131,3.7,3.7,0,0,0,2.839,1.015q4.9,0,4.9-5.648v-8.071Z" transform="translate(64.027 42.635)" fill="#fff"/>
    <path id="패스_16766" data-name="패스 16766" d="M235.184,158.642a7.044,7.044,0,0,0,1.183-.1,5.717,5.717,0,0,0,.959-.237v1.28a6.31,6.31,0,0,1-1.043.279,7.282,7.282,0,0,1-1.322.111,3.752,3.752,0,0,1-2.838-1.043,4.728,4.728,0,0,1-1-3.354v-9.406h-2.2v-.89l2.2-.5.556-3.422h1v3.534h4.563v1.28h-4.563v9.35q0,3.116,2.5,3.117" transform="translate(67.738 41.829)" fill="#fff"/>
    <path id="패스_16767" data-name="패스 16767" d="M239.858,139.858q1.114,0,1.113,1.2,0,1.225-1.113,1.225-1.057,0-1.057-1.225,0-1.2,1.057-1.2m.779,20.286h-1.559v-14.8h1.559Z" transform="translate(70.661 41.384)" fill="#fff"/>
    <path id="패스_16768" data-name="패스 16768" d="M257.758,151.554a9.9,9.9,0,0,1-.765,4.035,6.017,6.017,0,0,1-2.254,2.685,6.565,6.565,0,0,1-3.632.96,6.4,6.4,0,0,1-3.534-.946,6.12,6.12,0,0,1-2.268-2.672,9.645,9.645,0,0,1-.793-4.063,8.243,8.243,0,0,1,1.795-5.649,6.219,6.219,0,0,1,4.911-2.032,6.366,6.366,0,0,1,3.575.96,5.986,5.986,0,0,1,2.213,2.685,10.055,10.055,0,0,1,.75,4.035m-11.6,0a7.931,7.931,0,0,0,1.2,4.577,4.24,4.24,0,0,0,3.757,1.74,4.3,4.3,0,0,0,3.8-1.74,7.853,7.853,0,0,0,1.21-4.577,9.744,9.744,0,0,0-.5-3.255,4.294,4.294,0,0,0-4.424-3.034,4.43,4.43,0,0,0-3.785,1.67,7.548,7.548,0,0,0-1.252,4.619" transform="translate(72.351 42.572)" fill="#fff"/>
    <path id="패스_16769" data-name="패스 16769" d="M265.651,143.873a5.311,5.311,0,0,1,3.868,1.308,5.516,5.516,0,0,1,1.336,4.091v9.684H269.27v-9.573a4.368,4.368,0,0,0-.96-3.117,3.738,3.738,0,0,0-2.825-1q-4.9,0-4.9,5.622v8.07h-1.559v-14.8h1.28l.223,2.559h.111a4.9,4.9,0,0,1,1.851-2.031,5.765,5.765,0,0,1,3.158-.807" transform="translate(76.646 42.572)" fill="#fff"/>
    <path id="패스_16770" data-name="패스 16770" d="M289.116,149.989h7.208v9.238a15.58,15.58,0,0,1-3.062.877,19.74,19.74,0,0,1-3.505.292q-4.731,0-7.208-2.7a10.656,10.656,0,0,1-2.477-7.485,11.376,11.376,0,0,1,1.21-5.329,8.8,8.8,0,0,1,3.492-3.632,10.861,10.861,0,0,1,5.482-1.308,15.222,15.222,0,0,1,3.089.306,12.966,12.966,0,0,1,2.755.892l-.669,1.446a12.237,12.237,0,0,0-5.287-1.2,8.651,8.651,0,0,0-4.493,1.113,7.478,7.478,0,0,0-2.9,3.1,10.007,10.007,0,0,0-1.015,4.606q0,4.284,2.128,6.526t6.22,2.239a14.286,14.286,0,0,0,2.574-.209,15.48,15.48,0,0,0,2.045-.514v-6.79h-5.593Z" transform="translate(82.873 41.409)" fill="#fff"/>
    <path id="패스_16771" data-name="패스 16771" d="M303.854,143.894a7.02,7.02,0,0,1,2,.25l-.223,1.447a7.672,7.672,0,0,0-.89-.167,7.791,7.791,0,0,0-.946-.056,3.916,3.916,0,0,0-3.242,1.489,6.2,6.2,0,0,0-1.182,3.965v8.125h-1.586v-14.8h1.336l.166,2.784h.084a5.613,5.613,0,0,1,1.683-2.143,4.372,4.372,0,0,1,2.8-.89" transform="translate(88.115 42.578)" fill="#fff"/>
    <path id="패스_16772" data-name="패스 16772" d="M320.008,151.554a9.9,9.9,0,0,1-.765,4.035,6.017,6.017,0,0,1-2.254,2.685,6.565,6.565,0,0,1-3.632.96,6.4,6.4,0,0,1-3.534-.946,6.119,6.119,0,0,1-2.268-2.672,9.645,9.645,0,0,1-.793-4.063,8.244,8.244,0,0,1,1.795-5.649,6.219,6.219,0,0,1,4.911-2.032,6.366,6.366,0,0,1,3.575.96,5.986,5.986,0,0,1,2.213,2.685,10.055,10.055,0,0,1,.75,4.035m-11.6,0a7.93,7.93,0,0,0,1.2,4.577,4.24,4.24,0,0,0,3.757,1.74,4.3,4.3,0,0,0,3.8-1.74,7.853,7.853,0,0,0,1.21-4.577,9.745,9.745,0,0,0-.5-3.255,4.294,4.294,0,0,0-4.424-3.034,4.43,4.43,0,0,0-3.785,1.67,7.548,7.548,0,0,0-1.252,4.619" transform="translate(90.771 42.572)" fill="#fff"/>
    <path id="패스_16773" data-name="패스 16773" d="M333.419,144.088v14.8h-1.308l-.223-2.532h-.083a5.181,5.181,0,0,1-1.879,2,5.768,5.768,0,0,1-3.158.807q-5.233,0-5.232-5.4v-9.684h1.613v9.573a4.472,4.472,0,0,0,.946,3.131,3.7,3.7,0,0,0,2.839,1.015q4.9,0,4.9-5.648v-8.071Z" transform="translate(95.142 42.635)" fill="#fff"/>
    <path id="패스_16774" data-name="패스 16774" d="M342.74,143.873a5.485,5.485,0,0,1,4.438,1.906q1.6,1.907,1.6,5.692a8.818,8.818,0,0,1-1.656,5.773,5.57,5.57,0,0,1-4.523,1.991,5.369,5.369,0,0,1-3.158-.836,5.168,5.168,0,0,1-1.739-2h-.112c.018.483.041.993.07,1.532s.042,1.047.042,1.53v6.066h-1.586V144.152h1.308l.2,2.784h.083a5.589,5.589,0,0,1,1.768-2.143,5.283,5.283,0,0,1,3.27-.919m-.223,1.392a4.245,4.245,0,0,0-3.618,1.545,7.421,7.421,0,0,0-1.2,4.466v.279a8,8,0,0,0,1.155,4.744,4.112,4.112,0,0,0,3.548,1.573,4.061,4.061,0,0,0,3.507-1.7,7.962,7.962,0,0,0,1.225-4.73,7.739,7.739,0,0,0-1.156-4.577,3.993,3.993,0,0,0-3.464-1.6" transform="translate(99.457 42.572)" fill="#fff"/>
    <path id="패스_16775" data-name="패스 16775" d="M26.037,220.506h74.881c45.984,0,83.386-35.571,83.386-79.3,0-32.867-21.133-61.116-51.152-73.128C129.153,29.94,93.471,0,50.156,0H0V26.619H50.156c25.957,0,47.661,15.073,54.4,35.462-1.213-.051-2.408-.176-3.64-.176H0V88.524H100.918c1.182,0,2.291.259,3.46.325C97.439,108.979,75.9,123.8,50.156,123.8H26.037v-.044H0v96.752Zm74.881-26.619H26.037v-43.47H50.156c37.866,0,69.866-22.9,80.006-54.131,16.416,9.242,27.522,25.834,27.522,44.92,0,29.045-25.467,52.681-56.767,52.681" fill="#fff"/>
  </g>
</svg>
