<svg id="그룹_53766" data-name="그룹 53766" xmlns="http://www.w3.org/2000/svg" xmlns:xlink="http://www.w3.org/1999/xlink" width="205.822" height="212.031" viewBox="0 0 205.822 212.031">
  <defs>
    <clipPath id="clip-path">
      <rect id="사각형_26811" data-name="사각형 26811" width="205.822" height="212.031" fill="none"/>
    </clipPath>
  </defs>
  <g id="s4_af_logo" transform="translate(0)" clip-path="url(#clip-path)">
    <path id="패스_16705" data-name="패스 16705" d="M27.231,282.2c0,4.233-3.408,7.08-9.139,7.08H5.282v-25.47H17.343c5.543,0,8.765,2.622,8.765,6.779a5.866,5.866,0,0,1-3.521,5.581,5.886,5.886,0,0,1,4.644,6.03M11.612,268.976V274.3h4.757c2.4,0,3.708-1.2,3.708-2.847,0-1.61-1.273-2.472-3.708-2.472Zm9.439,12.4c0-1.573-1.311-2.472-3.67-2.472H11.612v5.131h5.656c2.622,0,3.783-1.161,3.783-2.659" transform="translate(-2.12 -105.905)" fill="#fff"/>
    <path id="패스_16706" data-name="패스 16706" d="M66.649,289.278,61.817,281.9H56.985v7.378h-6.33V263.809H61.78c6.33,0,10.562,3.445,10.562,8.951a8.52,8.52,0,0,1-4.307,7.6l5.993,8.914Zm-9.664-13.072h4.682c2.434,0,4.345-1.348,4.345-3.446,0-2.06-1.911-3.371-4.345-3.371H56.985Z" transform="translate(-20.335 -105.905)" fill="#fff"/>
    <path id="패스_16707" data-name="패스 16707" d="M102.8,269.314v4.644h11.311v5.394H102.8v4.419h12.922v5.506H96.467v-25.47h19.252v5.506Z" transform="translate(-38.726 -105.905)" fill="#fff"/>
    <path id="패스_16708" data-name="패스 16708" d="M153.607,284.9H142.82l-1.686,4.383h-6.742l10.825-25.47h6.068l10.787,25.47h-6.742Zm-2.06-5.281-3.333-8.577-3.333,8.577Z" transform="translate(-53.951 -105.905)" fill="#fff"/>
    <path id="패스_16709" data-name="패스 16709" d="M201.25,269.464h-8.128v19.814h-6.293V269.464H178.7v-5.656H201.25Z" transform="translate(-71.739 -105.905)" fill="#fff"/>
    <rect id="사각형_26809" data-name="사각형 26809" width="6.33" height="25.47" transform="translate(134.008 157.903)" fill="#fff"/>
    <path id="패스_16710" data-name="패스 16710" d="M270.693,276.216a13.486,13.486,0,1,1-13.484-13.221,13.139,13.139,0,0,1,13.484,13.221m-6.4,0a7.083,7.083,0,1,0-7.079,7.3,7.078,7.078,0,0,0,7.079-7.3" transform="translate(-97.843 -105.579)" fill="#fff"/>
    <path id="패스_16711" data-name="패스 16711" d="M321.457,263.808v25.47h-4.869l-12.21-13.971v13.971h-6.33v-25.47h4.832l12.285,14.346V263.808Z" transform="translate(-119.65 -105.905)" fill="#fff"/>
    <path id="패스_16712" data-name="패스 16712" d="M0,332.348H2.72a5.005,5.005,0,0,1,2.678.563,2.017,2.017,0,0,1,.866,1.827,2.223,2.223,0,0,1-.494,1.456,2.265,2.265,0,0,1-1.414.769v.055a2.8,2.8,0,0,1,1.627.735,2.214,2.214,0,0,1,.556,1.614,2.665,2.665,0,0,1-.432,1.565,2.57,2.57,0,0,1-1.209.921,4.913,4.913,0,0,1-1.793.3H0Zm.8,4.327H2.9a3.178,3.178,0,0,0,1.943-.467,1.65,1.65,0,0,0,.6-1.387,1.489,1.489,0,0,0-.645-1.36,3.981,3.981,0,0,0-2.074-.412H.8Zm0,.687v4.107H3.036q2.664,0,2.664-2.142a1.689,1.689,0,0,0-.679-1.49,3.731,3.731,0,0,0-2.109-.474Z" transform="translate(0 -133.42)" fill="#fff"/>
    <path id="패스_16713" data-name="패스 16713" d="M18.484,336.318a3.459,3.459,0,0,1,.989.124l-.11.714a3.79,3.79,0,0,0-.44-.083,3.731,3.731,0,0,0-.467-.027,1.931,1.931,0,0,0-1.6.735,3.054,3.054,0,0,0-.584,1.957v4.011H15.49v-7.307h.659l.083,1.373h.041a2.759,2.759,0,0,1,.831-1.058,2.158,2.158,0,0,1,1.38-.439" transform="translate(-6.218 -135.014)" fill="#fff"/>
    <path id="패스_16714" data-name="패스 16714" d="M27.538,336.318a2.5,2.5,0,0,1,1.841.6,2.61,2.61,0,0,1,.6,1.909v4.917h-.591l-.151-1.237h-.028a3.183,3.183,0,0,1-.961,1,2.893,2.893,0,0,1-1.594.377A2.464,2.464,0,0,1,25,343.364a1.9,1.9,0,0,1-.611-1.525,1.864,1.864,0,0,1,.886-1.662,5.193,5.193,0,0,1,2.6-.646l1.332-.069v-.508a2.17,2.17,0,0,0-.433-1.531,1.689,1.689,0,0,0-1.271-.446,4.052,4.052,0,0,0-1.085.144,5.248,5.248,0,0,0-1.043.418l-.247-.631a5.634,5.634,0,0,1,1.126-.426,4.926,4.926,0,0,1,1.277-.165m1.676,3.75-1.236.055a4.446,4.446,0,0,0-2.088.473,1.377,1.377,0,0,0-.687,1.257,1.248,1.248,0,0,0,.426,1.024,1.783,1.783,0,0,0,1.167.35,2.344,2.344,0,0,0,1.765-.646,2.592,2.592,0,0,0,.652-1.813Z" transform="translate(-9.793 -135.014)" fill="#fff"/>
    <path id="패스_16715" data-name="패스 16715" d="M42.165,336.3a2.617,2.617,0,0,1,1.909.646,2.72,2.72,0,0,1,.659,2.019v4.78H43.95v-4.726a2.157,2.157,0,0,0-.474-1.538,1.844,1.844,0,0,0-1.394-.494q-2.418,0-2.417,2.775v3.983H38.9v-7.308h.631l.11,1.264h.055a2.408,2.408,0,0,1,.913-1,2.841,2.841,0,0,1,1.559-.4" transform="translate(-15.615 -135.005)" fill="#fff"/>
    <path id="패스_16716" data-name="패스 16716" d="M56.172,341.869a2.785,2.785,0,0,1-2.26-.941,4.212,4.212,0,0,1-.789-2.768,4.379,4.379,0,0,1,.831-2.884,2.827,2.827,0,0,1,2.287-.989,2.582,2.582,0,0,1,1.5.4,2.427,2.427,0,0,1,.851,1h.055q-.013-.329-.034-.728t-.021-.7v-2.967h.783v10.439h-.631l-.11-1.264H58.59a2.692,2.692,0,0,1-.865.989,2.623,2.623,0,0,1-1.553.412m.1-.673a2.036,2.036,0,0,0,1.8-.769,3.846,3.846,0,0,0,.536-2.211v-.138a4.168,4.168,0,0,0-.536-2.315,1.941,1.941,0,0,0-1.744-.8,2.069,2.069,0,0,0-1.786.831,3.983,3.983,0,0,0-.6,2.37,3.746,3.746,0,0,0,.576,2.266,2.056,2.056,0,0,0,1.759.769" transform="translate(-21.326 -132.997)" fill="#fff"/>
    <path id="패스_16717" data-name="패스 16717" d="M69.135,332q.549,0,.549.59,0,.605-.549.6-.523,0-.522-.6t.522-.59m.384,10.013H68.75V334.71h.769Z" transform="translate(-27.545 -133.282)" fill="#fff"/>
    <path id="패스_16718" data-name="패스 16718" d="M78.7,336.3a2.617,2.617,0,0,1,1.909.646,2.72,2.72,0,0,1,.659,2.019v4.78h-.783v-4.726a2.157,2.157,0,0,0-.474-1.538,1.844,1.844,0,0,0-1.394-.494q-2.418,0-2.417,2.775v3.983h-.769v-7.308h.631l.11,1.264h.055a2.408,2.408,0,0,1,.913-1,2.841,2.841,0,0,1,1.559-.4" transform="translate(-30.281 -135.005)" fill="#fff"/>
    <path id="패스_16719" data-name="패스 16719" d="M92.745,336.3a2.834,2.834,0,0,1,1.435.329,2.492,2.492,0,0,1,.914.92h.041l.124-1.112h.631v7.541a3.231,3.231,0,0,1-.734,2.252,3.119,3.119,0,0,1-2.411.81,6.894,6.894,0,0,1-1.456-.137,6.545,6.545,0,0,1-1.154-.357v-.755a5.463,5.463,0,0,0,1.188.419,6.273,6.273,0,0,0,1.449.158,2.264,2.264,0,0,0,1.765-.632,2.468,2.468,0,0,0,.57-1.717v-.426c0-.193,0-.385.014-.577s.018-.38.027-.563h-.041a2.15,2.15,0,0,1-.934,1.071,3.027,3.027,0,0,1-1.511.357,2.709,2.709,0,0,1-2.218-.962,4.271,4.271,0,0,1-.79-2.774,4.526,4.526,0,0,1,.79-2.809,2.713,2.713,0,0,1,2.3-1.037m.083.687a2.03,2.03,0,0,0-1.772.831,4,4,0,0,0-.591,2.342,3.775,3.775,0,0,0,.584,2.28,1.986,1.986,0,0,0,1.7.783,2.393,2.393,0,0,0,1.422-.371,2.011,2.011,0,0,0,.735-1.016,4.561,4.561,0,0,0,.22-1.469v-.467a3.813,3.813,0,0,0-.515-2.157,2,2,0,0,0-1.779-.755" transform="translate(-35.992 -135.005)" fill="#fff"/>
    <path id="패스_16720" data-name="패스 16720" d="M111.278,332.1a2.39,2.39,0,0,1,1.635.543,1.9,1.9,0,0,1,.618,1.5,2.039,2.039,0,0,1-.6,1.5,6.54,6.54,0,0,1-1.545,1.106l2.995,2.967a4.515,4.515,0,0,0,.659-1.058,7.034,7.034,0,0,0,.44-1.3h.8a6.748,6.748,0,0,1-1.4,2.884l1.813,1.814h-1.044l-1.291-1.292a5.456,5.456,0,0,1-1.428,1.031,4.406,4.406,0,0,1-1.978.4,3.4,3.4,0,0,1-2.211-.68,2.373,2.373,0,0,1-.838-1.957,2.643,2.643,0,0,1,.275-1.257,2.786,2.786,0,0,1,.79-.906,9.085,9.085,0,0,1,1.243-.776,8.921,8.921,0,0,1-.948-1.153,2.21,2.21,0,0,1-.371-1.264,1.941,1.941,0,0,1,.645-1.532,2.543,2.543,0,0,1,1.745-.57m-.577,5.027a8.786,8.786,0,0,0-1.078.653,2.323,2.323,0,0,0-.68.734,2.03,2.03,0,0,0-.233,1.017,1.787,1.787,0,0,0,.618,1.442,2.451,2.451,0,0,0,1.635.522,3.7,3.7,0,0,0,1.683-.344,4.7,4.7,0,0,0,1.216-.879Zm.549-4.354a1.709,1.709,0,0,0-1.154.378,1.3,1.3,0,0,0-.439,1.037,1.8,1.8,0,0,0,.316,1.03,7.979,7.979,0,0,0,.892,1.058,5.471,5.471,0,0,0,1.415-.947,1.608,1.608,0,0,0,.481-1.182,1.281,1.281,0,0,0-.412-1,1.581,1.581,0,0,0-1.1-.371" transform="translate(-43.316 -133.319)" fill="#fff"/>
    <path id="패스_16721" data-name="패스 16721" d="M133.59,342.155l-3.516-8.956h-.054c.018.247.032.534.041.858s.013.671.013,1.037v7.06h-.742v-9.807h1.208l3.379,8.6h.041l3.42-8.6h1.182v9.807h-.8v-7.143q0-.467.014-.948t.041-.866h-.041l-3.543,8.956Z" transform="translate(-51.92 -133.42)" fill="#fff"/>
    <path id="패스_16722" data-name="패스 16722" d="M152.532,336.318a2.5,2.5,0,0,1,1.841.6,2.61,2.61,0,0,1,.6,1.909v4.917h-.591l-.151-1.237h-.028a3.184,3.184,0,0,1-.961,1,2.893,2.893,0,0,1-1.594.377,2.463,2.463,0,0,1-1.655-.522,1.9,1.9,0,0,1-.611-1.525,1.864,1.864,0,0,1,.886-1.662,5.193,5.193,0,0,1,2.6-.646l1.332-.069v-.508a2.17,2.17,0,0,0-.433-1.531,1.689,1.689,0,0,0-1.271-.446,4.052,4.052,0,0,0-1.085.144,5.248,5.248,0,0,0-1.043.418l-.247-.631a5.634,5.634,0,0,1,1.126-.426,4.926,4.926,0,0,1,1.277-.165m1.676,3.75-1.236.055a4.446,4.446,0,0,0-2.088.473,1.377,1.377,0,0,0-.687,1.257,1.248,1.248,0,0,0,.426,1.024,1.783,1.783,0,0,0,1.167.35,2.344,2.344,0,0,0,1.765-.646,2.592,2.592,0,0,0,.652-1.813Z" transform="translate(-59.971 -135.014)" fill="#fff"/>
    <path id="패스_16723" data-name="패스 16723" d="M167.344,336.318a3.46,3.46,0,0,1,.989.124l-.11.714a3.79,3.79,0,0,0-.44-.083,3.731,3.731,0,0,0-.467-.027,1.931,1.931,0,0,0-1.6.735,3.054,3.054,0,0,0-.584,1.957v4.011h-.783v-7.307h.659l.083,1.373h.041a2.759,2.759,0,0,1,.831-1.058,2.158,2.158,0,0,1,1.38-.439" transform="translate(-65.978 -135.014)" fill="#fff"/>
    <path id="패스_16724" data-name="패스 16724" d="M175.423,331.292v5.3c0,.293-.005.6-.014.913s-.013.63-.013.941h.013l.405-.5q.226-.281.432-.5l2.775-3.022h.933l-2.884,3.132,3.132,4.176h-.934l-2.747-3.654-1.1,1.126v2.527h-.769V331.292Z" transform="translate(-70.114 -132.996)" fill="#fff"/>
    <path id="패스_16725" data-name="패스 16725" d="M189.739,336.3a2.707,2.707,0,0,1,1.566.433,2.637,2.637,0,0,1,.947,1.188,4.455,4.455,0,0,1,.316,1.731v.549h-5.219a3.289,3.289,0,0,0,.673,2.218,2.426,2.426,0,0,0,1.937.776,5.692,5.692,0,0,0,1.2-.11,5.541,5.541,0,0,0,1.112-.384v.714a5.155,5.155,0,0,1-1.085.357,6.3,6.3,0,0,1-1.25.11,3.163,3.163,0,0,1-2.513-1,4,4,0,0,1-.879-2.733,4.945,4.945,0,0,1,.378-1.985,3.131,3.131,0,0,1,1.092-1.366,2.967,2.967,0,0,1,1.731-.495m-.014.66a2.119,2.119,0,0,0-1.627.673,3.125,3.125,0,0,0-.735,1.909h4.382a3.253,3.253,0,0,0-.488-1.868,1.724,1.724,0,0,0-1.532-.714" transform="translate(-74.886 -135.005)" fill="#fff"/>
    <path id="패스_16726" data-name="패스 16726" d="M202.549,342.14a3.443,3.443,0,0,0,.584-.048,2.928,2.928,0,0,0,.473-.117v.631a3.13,3.13,0,0,1-.515.138,3.6,3.6,0,0,1-.653.055,1.85,1.85,0,0,1-1.4-.515,2.329,2.329,0,0,1-.494-1.655v-4.642h-1.085v-.44l1.085-.247.275-1.689h.494v1.744h2.252v.632h-2.252V340.6q0,1.539,1.236,1.538" transform="translate(-80.072 -133.927)" fill="#fff"/>
    <path id="패스_16727" data-name="패스 16727" d="M210.537,332q.549,0,.549.59,0,.605-.549.6-.522,0-.522-.6t.522-.59m.384,10.013h-.769V334.71h.769Z" transform="translate(-84.31 -133.282)" fill="#fff"/>
    <path id="패스_16728" data-name="패스 16728" d="M220.1,336.3a2.615,2.615,0,0,1,1.909.646,2.72,2.72,0,0,1,.659,2.019v4.78h-.783v-4.726a2.157,2.157,0,0,0-.474-1.538,1.843,1.843,0,0,0-1.393-.494q-2.419,0-2.418,2.775v3.983h-.769v-7.308h.631l.111,1.264h.054a2.406,2.406,0,0,1,.914-1,2.84,2.84,0,0,1,1.559-.4" transform="translate(-87.046 -135.005)" fill="#fff"/>
    <path id="패스_16729" data-name="패스 16729" d="M234.147,336.3a2.834,2.834,0,0,1,1.435.329,2.492,2.492,0,0,1,.914.92h.041l.124-1.112h.632v7.541a3.231,3.231,0,0,1-.734,2.252,3.119,3.119,0,0,1-2.411.81,6.894,6.894,0,0,1-1.456-.137,6.545,6.545,0,0,1-1.154-.357v-.755a5.463,5.463,0,0,0,1.188.419,6.273,6.273,0,0,0,1.449.158,2.264,2.264,0,0,0,1.765-.632,2.468,2.468,0,0,0,.57-1.717v-.426c0-.193,0-.385.014-.577s.018-.38.027-.563h-.041a2.15,2.15,0,0,1-.934,1.071,3.028,3.028,0,0,1-1.511.357,2.709,2.709,0,0,1-2.218-.962,4.271,4.271,0,0,1-.79-2.774,4.526,4.526,0,0,1,.79-2.809,2.713,2.713,0,0,1,2.3-1.037m.083.687a2.03,2.03,0,0,0-1.772.831,4,4,0,0,0-.591,2.342,3.775,3.775,0,0,0,.584,2.28,1.985,1.985,0,0,0,1.7.783,2.393,2.393,0,0,0,1.422-.371,2.011,2.011,0,0,0,.735-1.016,4.561,4.561,0,0,0,.22-1.469v-.467a3.813,3.813,0,0,0-.515-2.157,2,2,0,0,0-1.779-.755" transform="translate(-92.757 -135.005)" fill="#fff"/>
    <path id="패스_16730" data-name="패스 16730" d="M259.754,339.509a2.427,2.427,0,0,1-.439,1.477,2.719,2.719,0,0,1-1.209.906,4.69,4.69,0,0,1-1.759.31,8.417,8.417,0,0,1-1.538-.124,5.766,5.766,0,0,1-1.126-.316v-.783a8.332,8.332,0,0,0,1.216.364,6.768,6.768,0,0,0,1.5.158,3.166,3.166,0,0,0,1.833-.487,1.645,1.645,0,0,0,.707-1.449,1.611,1.611,0,0,0-.268-.955,2.209,2.209,0,0,0-.824-.66,10.746,10.746,0,0,0-1.422-.57,8.613,8.613,0,0,1-1.415-.625,2.265,2.265,0,0,1-1.222-2.149,2.229,2.229,0,0,1,.405-1.36,2.529,2.529,0,0,1,1.113-.838,4.233,4.233,0,0,1,1.614-.289,6.481,6.481,0,0,1,2.582.522l-.275.687a5.888,5.888,0,0,0-2.335-.494,2.828,2.828,0,0,0-1.655.447,1.5,1.5,0,0,0-.639,1.312,1.675,1.675,0,0,0,.275,1.009,2.136,2.136,0,0,0,.8.639,10.616,10.616,0,0,0,1.277.522,10.422,10.422,0,0,1,1.49.639,2.713,2.713,0,0,1,.968.831,2.19,2.19,0,0,1,.344,1.277" transform="translate(-101.84 -133.328)" fill="#fff"/>
    <path id="패스_16731" data-name="패스 16731" d="M273.623,340.087a4.88,4.88,0,0,1-.378,1.991,2.966,2.966,0,0,1-1.113,1.326,3.237,3.237,0,0,1-1.793.473,3.158,3.158,0,0,1-1.744-.467,3.019,3.019,0,0,1-1.119-1.319,4.761,4.761,0,0,1-.391-2.005,4.066,4.066,0,0,1,.886-2.788,3.068,3.068,0,0,1,2.424-1,3.143,3.143,0,0,1,1.765.473,2.953,2.953,0,0,1,1.092,1.325,4.958,4.958,0,0,1,.371,1.992m-5.728,0a3.917,3.917,0,0,0,.59,2.26,2.093,2.093,0,0,0,1.854.858,2.126,2.126,0,0,0,1.875-.858,3.88,3.88,0,0,0,.6-2.26,4.821,4.821,0,0,0-.247-1.607,2.267,2.267,0,0,0-.783-1.1,2.293,2.293,0,0,0-1.4-.4,2.187,2.187,0,0,0-1.868.824,3.73,3.73,0,0,0-.618,2.281" transform="translate(-107.221 -135.005)" fill="#fff"/>
    <rect id="사각형_26810" data-name="사각형 26810" width="0.783" height="10.439" transform="translate(168.875 198.296)" fill="#fff"/>
    <path id="패스_16732" data-name="패스 16732" d="M294.406,336.525v7.307h-.645l-.11-1.25h-.041a2.541,2.541,0,0,1-.927.989,2.849,2.849,0,0,1-1.559.4q-2.583,0-2.582-2.665v-4.78h.8v4.725a2.2,2.2,0,0,0,.467,1.545,1.824,1.824,0,0,0,1.4.5q2.418,0,2.418-2.788v-3.983Z" transform="translate(-115.834 -135.097)" fill="#fff"/>
    <path id="패스_16733" data-name="패스 16733" d="M305.032,342.14a3.443,3.443,0,0,0,.584-.048,2.93,2.93,0,0,0,.473-.117v.631a3.131,3.131,0,0,1-.515.138,3.6,3.6,0,0,1-.653.055,1.85,1.85,0,0,1-1.4-.515,2.329,2.329,0,0,1-.494-1.655v-4.642h-1.085v-.44l1.085-.247.275-1.689h.494v1.744h2.252v.632H303.8V340.6q0,1.539,1.236,1.538" transform="translate(-121.214 -133.927)" fill="#fff"/>
    <path id="패스_16734" data-name="패스 16734" d="M313.02,332q.549,0,.549.59,0,.605-.549.6-.522,0-.522-.6t.522-.59m.385,10.013h-.769V334.71h.769Z" transform="translate(-125.452 -133.282)" fill="#fff"/>
    <path id="패스_16735" data-name="패스 16735" d="M325.14,340.087a4.88,4.88,0,0,1-.378,1.991,2.967,2.967,0,0,1-1.113,1.326,3.237,3.237,0,0,1-1.793.473,3.158,3.158,0,0,1-1.744-.467,3.018,3.018,0,0,1-1.119-1.319,4.76,4.76,0,0,1-.391-2.005,4.066,4.066,0,0,1,.886-2.788,3.069,3.069,0,0,1,2.424-1,3.143,3.143,0,0,1,1.765.473,2.953,2.953,0,0,1,1.092,1.325,4.958,4.958,0,0,1,.371,1.992m-5.728,0a3.916,3.916,0,0,0,.59,2.26,2.093,2.093,0,0,0,1.854.858,2.126,2.126,0,0,0,1.875-.858,3.881,3.881,0,0,0,.6-2.26,4.822,4.822,0,0,0-.247-1.607,2.267,2.267,0,0,0-.783-1.1,2.293,2.293,0,0,0-1.4-.4,2.187,2.187,0,0,0-1.868.824,3.729,3.729,0,0,0-.618,2.281" transform="translate(-127.902 -135.005)" fill="#fff"/>
    <path id="패스_16736" data-name="패스 16736" d="M337.384,336.3a2.617,2.617,0,0,1,1.909.646,2.72,2.72,0,0,1,.659,2.019v4.78h-.783v-4.726a2.157,2.157,0,0,0-.474-1.538,1.844,1.844,0,0,0-1.394-.494q-2.418,0-2.417,2.775v3.983h-.769v-7.308h.632l.11,1.264h.055a2.407,2.407,0,0,1,.913-1,2.841,2.841,0,0,1,1.559-.4" transform="translate(-134.13 -135.005)" fill="#fff"/>
    <path id="패스_16737" data-name="패스 16737" d="M160.527,39.5C158.207,17.372,137.5,0,112.373,0h-29.1V15.445h29.1c15.06,0,27.653,8.745,31.563,20.575-.7-.029-1.4-.1-2.112-.1H83.273V51.362h58.552c.686,0,1.329.15,2.008.189-4.026,11.678-16.525,20.277-31.459,20.277H98.38V71.8H83.273v56.2H98.38v-.069h43.445c26.679,0,48.38-20.638,48.38-46.01,0-19.069-12.262-35.459-29.679-42.428m-18.7,72.993H98.38V87.272h13.994c21.97,0,40.536-13.286,46.419-31.406,9.525,5.362,15.969,14.988,15.969,26.062,0,16.853-14.776,30.566-32.936,30.566" transform="translate(-33.43 0)" fill="#fff"/>
  </g>
</svg>
