<svg xmlns="http://www.w3.org/2000/svg" xmlns:xlink="http://www.w3.org/1999/xlink" width="614" height="450" viewBox="0 0 614 450">
  <defs>
    <clipPath id="clip-path">
      <rect id="사각형_2573" data-name="사각형 2573" width="614" height="450" transform="translate(1306 1263)" fill="#949191"/>
    </clipPath>
    <clipPath id="clip-path-2">
      <rect id="사각형_2572" data-name="사각형 2572" width="664.126" height="544.731" fill="#f5f5f5"/>
    </clipPath>
  </defs>
  <g id="img-bg-crab" transform="translate(-1306 -1263)" clip-path="url(#clip-path)">
    <g id="그룹_5795" data-name="그룹 5795" transform="matrix(0.766, -0.643, 0.643, 0.766, 1179.183, 1547.052)">
      <g id="그룹_5794" data-name="그룹 5794" clip-path="url(#clip-path-2)">
        <path id="패스_4976" data-name="패스 4976" d="M631.473,401.274c-6.757-10.609-24.368-28.1-37.515-19.973a16.975,16.975,0,0,0-9.084-7.43c-16.583-5.89-39.955-.825-57.2,5.55-1.528-5.857-6.513-10.2-12.451-11.807a64.97,64.97,0,0,0-13.445-1.722,145.957,145.957,0,0,1-15.91-2.032,42.738,42.738,0,0,0,1.811-4.412c7.949,5.681,20.1,4.734,29.343,4.231,9.2-.512,22.431-2.226,28.762-9.659.015-.015.012-.036.021-.054a20.094,20.094,0,0,0,8.464-9.3,244.36,244.36,0,0,0,31.792,4.448c5.518.429,13.461.366,18.755-2.839,12.745,4.517,23.224,6.495,32.281,17.846,6.045,7.588,11.646,12.933,21.487,14.622,2.255.381,3.763-1.454,4.245-3.384,5.613-22.425-7.973-42.175-23.283-57.277-7.165-7.073-21.847-17.2-27.15-6.331-3.265-4.484-8.071-8.011-13.142-9.129-14.006-3.084-37.763,4.949-46.316,17.763a17.065,17.065,0,0,0-7.612-6.054c-6.4-2.58-15.629.265-21.847,1.993-7.815,2.157-15.5,3.727-23.316,5.392.027-3.015-.042-5.982-.3-8.869,20.53-.456,39.666-6.009,56.106-18.5,13.037-9.9,28.071-23.691,28.145-41.347.042-11.053-8.086-18.671-19.4-23.265,2.8-3.933.381-11.28-.378-15.5-.837-4.677-1.889-10.654-4.969-14.643,21.51-28.452,7.555-70.8-10.3-99.7-18.507-29.942-57.59-64.38-95.892-54.673-2.565-1.177-4.856,1.9-3.182,4.213,13.6,18.868,27.564,34.53,35.3,57.033a86.632,86.632,0,0,1,4.484,28.512c-11.291-9.715-20.259-18.567-28.363-32.576-7.165-12.382-11.986-27.833-21.808-38.436-.423-2.366-4.058-2.455-5.13-.182-9.575,20.423-10.177,46.236-4.07,67.678,5.768,20.283,20.831,45.184,38.921,56.475a4.986,4.986,0,0,0,.45.235c2.473,6.411,11.825,12.531,16.532,15.108a112.6,112.6,0,0,0,15.233,7.013,24.211,24.211,0,0,0-.816,7.5c.063,4.242.59,9.224,3.3,12.635a21.14,21.14,0,0,0-3.471,2.386,1.346,1.346,0,0,0-.489.965A13.094,13.094,0,0,0,495,242.118c-.789,3.915-.2,7.5.212,11.426.793,7.484-5.482,14.131-9.647,20.03-9.537-14-23.066-25.69-38.466-35.549a15.839,15.839,0,0,0,.518-11.762c-2.16-6.191-7.919-10.419-13.875-12.6-4.794-1.755-10.839-2.526-15.579-.179a9.853,9.853,0,0,0-5.3,6.495c-20.155-8.872-40.888-15.57-58.662-20.792-9.838-2.887-20.405-5.634-31.3-7.88-.062-12.111-9.1-20.39-21.26-20.277-8.8.077-18.588,6.173-18.284,15.135-15.832-.67-31.491.6-45.926,4.975a3.989,3.989,0,0,0-.229-1.752c-3.879-10.821.3-21.534,8.321-29.123,4.4-4.159,7.332-7.377,7.561-13.657a13.193,13.193,0,0,0-2.461-7.99c.7-.578,1.376-1.2,2.05-1.761,1.415-1.174,2.866-2.419,4.368-3.563,13.9,7.335,39.765,3.885,48.256-6.114a3.11,3.11,0,0,0,2.583.1,8.156,8.156,0,0,0,2.327-1.531c18.54-1.585,37.113-8.741,53.5-17.265,22.4-11.655,27.269-36.181,39.523-56.121.858-1.391-1.135-3.119-2.282-1.856-21.326,23.557-59.565,30.725-90.278,28.625,4.886-10.925,14.953-18.886,24.606-25.392,19.219-12.96,40.536-14.73,61.57-22.05a1.842,1.842,0,0,0,2.55-2.458,2.073,2.073,0,0,0-1.63-1.892c-.077-.021-.158-.024-.235-.045C378.891,9.387,352.4.444,326.906.012c-23.456-.4-45.258,9.671-64.957,21.451-16.452,9.844-38.641,26.608-43.766,46.31a37.591,37.591,0,0,0,.033,17.3,56.82,56.82,0,0,0-13.237,9.838c-3.373,3.25-7.535,7.189-7.493,12.158a1.686,1.686,0,0,0,.14.521c-7.946-2.234-14.822-1.5-17.73,6.009-12.8,8.911-14.137,33.925-13.335,47.38,1.09,18.43,12.209,47.853,30.282,55.85-1.347,1.549-2.652,3.167-3.933,4.844-9.626-5.19-12.832-20.462-20.179-28.324a19.186,19.186,0,0,0-14.372-6.492,4.923,4.923,0,0,0-.554-1.493c-6.528-11.286-12.856-22.515-21.615-32.278-3.73-4.168-10.663-11.2-17.158-11.61a1.1,1.1,0,0,0-1.525-1.076,49.463,49.463,0,0,0-7.8,3.5c-5.258-13.928-16.413-15.436-30.919-11.741-20,5.086-40.906,14.747-49.915,34.5a3.7,3.7,0,0,0,1.832,4.794c9.656,5.092,20.828,2.2,30.827-.355,11.119-2.839,19.336-5.053,30.413-2.976a20.836,20.836,0,0,0,3.662,11.244c5.208,8,14.2,12.182,21.341,18.075,4.606,3.787,11.1,12.307,17.7,11.512a23.487,23.487,0,0,0,3.414,15.367c9.152,14.018,27.1,22.035,42,28.744a45.232,45.232,0,0,0-1.794,10.136c-10.338-7.43-20.736-17.673-34.071-17.545a15.612,15.612,0,0,0-6.057,1.365A154.567,154.567,0,0,1,124.1,228.86c-3.3-5.112-7.4-10.943-12.871-13.94a23.468,23.468,0,0,0-21.487-1.141c.39-11.813-17.137-14.3-27.606-11.515-21.481,5.7-46.531,17.143-61.281,34.1-1.308,1.5-1.18,4.21.831,5.112,11.849,5.315,24.2,5.264,36.958,4.669,11.756-.545,23.632,2.005,35.317,1.022,8.917,15.308,38.519,24.877,51.39,29.158a4.254,4.254,0,0,0,2.023.2c9.7,16.556,40.98,28.935,55.245,23.387a2.437,2.437,0,0,0,1.415-2.2c.652,1.889,1.311,3.784,2.014,5.655-6.534.11-12.662.831-19.356-.11-6.882-.962-13.7-2.4-20.679-2.077a16.411,16.411,0,0,0-10.636,4.8c-8.065-7.028-22.649-8.411-32.507-8.8a29.293,29.293,0,0,0-12.906,2.08c-1.076-7.493-10.544-8.884-18.26-6.921-10.782,2.744-22.473,9.605-30.991,16.732-4.633,3.873-23.262,20.685-13.675,27.579,5.089,3.659,11.884,1.138,17.369-.414,3.7-1.04,7.43-2.047,11.169-2.97,6.534-1.621,14.905,3.513,21.436,4.958a3.085,3.085,0,0,0,3.51-1.469,19.7,19.7,0,0,0,9.578,7.517c6.936,2.574,16.332,1.114,23.6,1.132,6.969.015,13.422-.6,19.345-4.484a1.846,1.846,0,0,0,.417-.384c6.125,7.007,18.966,8,27.457,7.469,6.992-.447,16.341-.518,24.972-2.074-.414.131-.849.265-1.242.4-7.109,2.386-14.682,7.287-16.121,14.891-11.446-3.965-24.609.435-33.115,8.813a28.248,28.248,0,0,0-2.482,2.884c-13.806-9.006-31.521,16.854-36.017,26.823-2.523,5.6-4.895,14.447.536,19.139,2.672,2.312,6.495,2.306,9.772,1.779,8.6-1.385,16.961-6.128,25.1-9.033a1.015,1.015,0,0,0-.018-1.865c-9.376-3.933-18.454,3.76-27.752,4.692-6.6.658-2.485-8.744-1.153-11.732,3.554-7.985,15.272-26.843,26.382-24.832-4.895,9.283-6.87,21.925,1.287,28.39a1.205,1.205,0,0,0,1.868-.888c.349-3.727-.381-7.386-.652-11.095-.465-6.373,3.182-12.51,6.963-17.316,7.919-10.073,19.485-11.2,31.217-9.507a2.252,2.252,0,0,0,.667-.036,2.6,2.6,0,0,0,1.841-.119,3.522,3.522,0,0,0,2.27-2.693c1.6-16.184,23.819-14.4,35.346-17.289l.009,0a140.631,140.631,0,0,0,13.7,14.9c2.914,2.732,6,5.363,9.167,7.94a111.764,111.764,0,0,0-32.7,10.478,85.734,85.734,0,0,1-13.306,5.8c-8.935,2.7-9.185-4.609-11.461-10.851-.423-1.153-2.169-1.916-3.063-.736-2.479,3.289-3.25,6.328-2.881,8.947-5.917,6.075-8.881,15.311-15.975,20.566-4.454,3.3-9.909,3.036-15.048,1.966-2.893-.6-6.087.116-5.938,3.578a3.5,3.5,0,0,0,2.023,2.872,24.766,24.766,0,0,0,26.662-4,54.434,54.434,0,0,0,13.049-18.168,17.062,17.062,0,0,0,11.777,2.02c7.654-1.356,15.221-5.241,22.345-8.223,9.489-3.965,20.724-4.975,29.629-10.21,37.527,28.425,89.82,46.1,137.038,43.215-2.386,5.261.149,12.007,1.51,17.357a61.6,61.6,0,0,0,11.84,23.927,23.484,23.484,0,0,0,21.4,8.589c-1.624,12.552,2.982,28.235,7.821,38.43,2.428,5.148,6.837,11,12.9,11.837a13.092,13.092,0,0,0,7.058-1.108c-.313,2.982,1.418,6.751,2.506,8.866,2.717,5.3,7.332,10.177,8.241,16.216.521,3.456,4.135,3.909,6.262,2.285,10.889,1.418,16.681-21.379,17.783-28.577,1.365-8.95-.1-31.032-12.7-31.944a27.564,27.564,0,0,0-1.975-10.013c-3.209-7.627-11.744-17.834-20.888-20.387.953-4.207-.355-8.735-1.82-12.719-2.455-6.721-6.927-12.868-11.038-18.656-1.749-2.464-4.71-7.216-7.937-9.757.882-.155,1.74-.364,2.592-.59a16.432,16.432,0,0,0,3.9-1.5c2.476,13.779,15.022,28,24.957,36.6,5.762,4.987,18.162,9.4,25.118,4.993,4.543,9.453,17.277,18.936,23.471,23.569,4.222,3.167,16.884,9.659,22.833,5.929,2.285,7.716,22.705,12.012,25.369,16.738,2.964,5.27,4.341,11.715,9.412,15.477,2.744,2.044,5.717,1.111,7.636-.953a1.2,1.2,0,0,0,.4-.006c7.1-1.683,7.7-12.15,7.943-17.935.384-9.2-2.577-19.1-6.215-27.427-2.783-6.388-7.266-13.484-13.615-16.815-3.676-1.928-8.777-2.675-12.567-.861-.194-.676-.405-1.35-.664-2.02-2.747-7.278-11.509-10.428-18.209-12.528A181.046,181.046,0,0,0,494.8,428.2c2.095-6.617-4-11.247-9.209-13.726-6.42-3.048-13.24-5.229-19.759-8.056a31.23,31.23,0,0,1-8.7-5.318c-1.883-1.719-2.735-3.79-3.739-5.9,1.6-.9,3.191-1.829,4.749-2.8-.915.885-1.481,2.133-.5,2.783,2.958,1.96,4.421,4,7.94,5.643,5.13,2.413,10.8,3.968,16.2,5.658,8.074,2.532,19.979,7.594,28.545,4.832a2.107,2.107,0,0,0,1.323-1.516,14.291,14.291,0,0,0,3.7-2c11.867,8.542,27.308,11.229,42.1,10.806a1.437,1.437,0,0,0,.706,2.181c5.056,2.264,11.861,1.794,17.316-.435a1.68,1.68,0,0,0,.807.182A17.038,17.038,0,0,0,584.573,418c4.838,9.507,24.234,11.214,31.789,17.527,3.778,3.167,16.884,18.531,24.162,16.076a6.7,6.7,0,0,0,.405.578c1.478,1.7,4,.8,5.053-.793,8.13-12.361-8.005-39.917-14.509-50.112M77.539,223.4c-4.746,5.789-6.48,11.092-6.111,15.942-8,.438-16.225-1.21-24.192-1.415-13.055-.322-25.333,1.391-37.974-1.165,10.63-10.568,26.3-16.7,39.866-22.342a83.384,83.384,0,0,1,22.136-6.283c8.6-1.013,9.9,3.7,11.446,10.028a37.729,37.729,0,0,0-5.172,5.235M124.454,267.2c.012.328.063.664.092,1-11.971-2.64-23.1-6.355-33.812-12.629-16.061-9.426-12.751-28.994,3.4-36.067,19.05-8.33,25.649,21.972,39.306,30.356-5.4,4.281-9.2,11.157-8.986,17.342M56.83,327.6c-4.573.8-9.036,2.145-13.541,3.244a44.6,44.6,0,0,1-9.37,1.222c-4.895.131-.411-5.238.891-6.957,2.866-3.787,6.528-6.983,10-10.192,5.539-5.107,13.228-8.875,19.94-12.081a45.038,45.038,0,0,1,13.076-4.284c4.114-.569,5.2,1.57,6.03,4.761a24.456,24.456,0,0,0-6.313,11.3,29.177,29.177,0,0,0-.033,15.692c-6.4-.947-14.262-3.828-20.679-2.708m530.117-17.348a18.771,18.771,0,0,1,15.9,2.726c7.112,4.85,3.513,13.031,4.406,19.854a2.614,2.614,0,0,0,4.207,1.546c5.8-4.969,6.179-11.81,3.614-17.9,9.873-7.323,22.4,10.86,27.457,16.824,9.129,10.779,14.661,23.131,13.282,36.97-9.6-3.14-14.074-12.8-21.588-19.476-5.991-5.327-15.832-9.385-24.582-10.189.56-1.615-.932-3.4-2.613-2.386-9.135,5.47-17.593,5.339-27.94,4.186-7.365-.813-16.6-3.072-23.819-.226A25.781,25.781,0,0,0,554.953,324a111.774,111.774,0,0,1,31.995-13.755M506.92,212.06c10.109,2.881,20.694,3.405,29.021-2.145a1.7,1.7,0,0,0-.417-3.1c-11.849-3.486-23.453-3.253-35.2-7.773-6.018-2.318-22.121-7.135-24.68-14.953a3.608,3.608,0,0,0-.212-1.043,6.8,6.8,0,0,1,.054-2.726c.313-1.281-1.248-2.818-2.47-1.883a12.624,12.624,0,0,0-1.1.941c-16.675-13.892-29.581-35.331-35.2-56.037-4.671-17.214-1.15-33.228,1.624-49.936,4.618,12.43,11.527,24.645,17.548,36.011,7.135,13.44,18.18,30.073,33.335,35.364-.071.635-.116,1.257-.194,1.883-1.472,11.712-7.121,19.854-13.061,29.593-.533.873.3,2.181,1.344,1.651,25.133-12.695,25.732-46.954,19.231-70.457C490.9,87.031,477.381,64.016,460.1,50.12c13.779,1.624,26.185,4.058,38.948,11.569,15.188,8.926,27.013,22.532,36.759,36.979,9.766,14.479,16.183,31.163,20.238,48.077,2.425,10.094,3.849,20.617,2.97,30.979-.927,11.02-9.325,20.575-14.742,29.674a2.539,2.539,0,0,0,3.638,3.444,58.513,58.513,0,0,0,7.165-6.286c.313,1.719.691,3.438.924,5.136.5,3.76,1.019,7.511,1.531,11.271a36.971,36.971,0,0,0,1.454,6.766c-16.139-4.779-36.407-4.388-49.426.232-.515-2.783-1.1-5.518-1.686-8.333-.5-2.455-.578-5.062-.95-7.567m-4.412,51.3c4.225-7.794-4.829-23.876,5.458-27.85a.774.774,0,0,0,.277-.209c13.475-1.171,26.119-3.069,40.012-.334,8.3,1.636,16.848,5,22.541,11.488,5.542,6.316.411,15.2-2.872,21.01-5.717,10.1-14.867,18.5-23.927,25.547-13,10.121-29.218,12.552-44.388,17.649a81.06,81.06,0,0,0-12.147-34.19c6.963-1.808,11.619-6.817,15.045-13.112M423.3,218.6c3.462-.214,6.924,1.117,9.927,2.7a14.922,14.922,0,0,1,6.858,7.5,7.882,7.882,0,0,1,.146,5.026c-7.132-4.18-14.569-7.993-22.136-11.488,1.108-2.065,1.773-3.516,5.2-3.739m-108.711-28.89a241.881,241.881,0,0,0-27.645-3.376c5.473-13.151,26.134-11.578,27.645,3.376M210.082,97.789c3.045-3.1,6.212-6.051,9-9.379,3.626,12.406,12.17,24.15,22.872,29.012a1.839,1.839,0,0,0,2.592-2.124c-4.24-18.4-24.677-28.667-14.181-50.168,8.545-17.506,28.2-29.852,44.305-39.538,37.622-22.607,78.126-22.4,114.113.608-23.638-.968-51.831,12.739-68.9,26.128-18.034,14.152-34.7,47.371-13.317,66.143a2.06,2.06,0,0,0,3.373-1.7c-.989-11.947-4.439-21.364-.962-33.067,26.081,5.822,59.014-2.249,81.183-18.957-7.493,12.876-12.37,26.989-26.545,35.832-14.953,9.337-35.48,16.717-53.112,19.362a2.161,2.161,0,0,0-1.662-.721.7.7,0,0,0-.59.405,2.842,2.842,0,0,0-.238,1.144,2.7,2.7,0,0,0-.846,1.77,7.2,7.2,0,0,1-.974.456,3.89,3.89,0,0,0-1.54,1.087c-10.18,1.46-19.056,4.642-29.629,4.192-8.8-.375-15.591-5.223-23.852-6.483a2.1,2.1,0,0,0-2.33,2.726,14.344,14.344,0,0,0,3.632,5.509,28.552,28.552,0,0,0-2.941,1.451,22.352,22.352,0,0,0-3.405,2.3c-4.219-3.5-9.54-6.114-13.529-8.038-5.83-2.818-20.247-13.234-32.742-17.462,4.24-2.258,6.9-7.106,10.228-10.49m-23.927,17.223c14.11-3.533,29.8,12.069,41.832,17.938,3.6,1.761,7.15,3.5,10.585,5.58,10.776,6.537.069,18.722-4.591,26.42-5.071,8.369-7.258,18.254-3.867,27.5a3.96,3.96,0,0,0,.551,1,85.284,85.284,0,0,0-28.422,17.736,3.673,3.673,0,0,0-1.153-1.213c-27.18-18.09-34.6-69.093-14.935-94.956m-92.45,44.9c-12.638-10.031-40.042,9.772-56.371,6.206,7.1-12.182,19.925-19.213,32.948-24.064a103.7,103.7,0,0,1,19.508-4.943c7.827-1.236,11.36,4.439,14.792,10.07-4.755,3.495-8.717,7.844-10.877,12.731m50.731,31.723a22.8,22.8,0,0,0-7.97,10.18c-12.135-6.513-24.633-13.6-33.743-24.311-12.093-14.217,6.867-21.01,14.05-31.035A25.07,25.07,0,0,0,119,148.181c4.987,3.42,8.992,7.874,12.716,12.585,6.855,8.664,11.819,18.728,17.488,28.175a30.324,30.324,0,0,0-4.77,2.7m38.248,104.07c-10.258-2.932-20.545-2.929-30.5-7.606a42.373,42.373,0,0,1-15.71-12.891,13.986,13.986,0,0,1,12.787-22.246c11.029,1.07,17.116,14.6,28.878,13.91-.021,10.013,2.392,20.369,5.235,28.974.042.131.089.253.131.384a1.74,1.74,0,0,0-.822-.524m-21.29,44.043c-9.656.515-16.875-3.7-26.087-4.591a2.977,2.977,0,0,0-2.845,2.026,1.674,1.674,0,0,0-.253-.08c-9.045-1.37-19.723-.408-28.637,1.3-5,.965-10.55.524-14.822-2.366-7.138-4.818-4.26-17.4-1.984-23.76,5.625-15.713,32.081-5.5,45.223-1.916-3.483,6.075-3.778,13.9,1.549,19.505a1.6,1.6,0,0,0,2.509-.307c3.283-5.875-.063-14.721,5.512-19.44,3.7-3.134,10.743-1.642,15.045-1.111,9,1.114,23.1,5.184,31.521-.357a166.405,166.405,0,0,0,12.969,25.056c-13.353,1.686-25.956,5.3-39.7,6.036m32.924,4a26.327,26.327,0,0,0,9.638-5.684v0c1.308,1.931,2.595,3.867,3.992,5.741-4.135-1.242-8.994-.938-13.63-.054M536.267,465.564a20.832,20.832,0,0,0,2.485-10.445c4.4-.006,7.535.2,11.408,4.472,4.68,5.175,7.049,12.37,8.947,18.933a71.421,71.421,0,0,1,2.6,20.253c-.015,2.672-.611,5.4-.873,8.113-6.808-1.379-7.982-14.843-14.029-18.9-7.949-5.339-17.637-4.117-23.015-12.945,5.559,1.049,10.031-5,12.48-9.48M492.489,432.8c10.052,6.471,23.739,6.355,33.889,13.1,5.825,3.873,4.469,11.581,1.74,16.794-1.9,3.614-5.994,5.813-6.647,9.957a2.224,2.224,0,0,0,.11,1.144.881.881,0,0,0-.593-.006c-18.242,6.039-31.229-18.308-43.3-29.364,0-.021.015-.042.021-.071a1.563,1.563,0,0,0-.372-1.46c5.789-.626,11.7-4.946,15.153-10.094M470.07,415.87c5.181,2.124,12.349,3.8,16.091,8.232,1.4,1.65-1.871,4.341-2.875,5.354-3.45,3.429-7.561,5.541-9.567,10.183a2.4,2.4,0,0,0,.194,2.089,1.965,1.965,0,0,0-2.324,1.564c-3.918.968-7.4,2.038-11.911.471-6.248-2.169-11.363-7.987-15.591-12.754-6.668-7.5-10.63-16.782-16.884-24.475a144.248,144.248,0,0,0,21.293-8.711c.355,8.64,15.635,15.62,21.573,18.049M456.71,383.711c-10.49,7.77-22.288,13.547-33.183,20.685-.069.015-.137.006-.212.024-1.934.512-3.784,1.272-5.729,1.731-2.094.489-4.085.679-5.979,1.752a1.942,1.942,0,0,0-.423,3,1.966,1.966,0,0,0-.292.673c-.587,2.9,1.88,6.17,3.292,8.533,2.83,4.71,6.173,9.111,8.994,13.839,2.595,4.353,5.089,9.054,6.206,14.029,1.081,4.841-2.69,5.795-5.369,9.06a1.81,1.81,0,0,0,.45,2.8c3.6,2.121,7.514,1.052,10.147-1.7,5,4.177,10.216,7.779,14.1,13.484a21.5,21.5,0,0,1,4.007,12.573c-.146,4.028-2.952,7.582-4,11.366a1.441,1.441,0,0,0,1.662,1.808c4.964-.5,7.713-3.6,8.983-7.594,5.258,6.718,6.9,12.659,6.242,22.413-.706,10.395-4.642,16.52-9.978,23.518-2.827-7.809-10.329-14.187-13.7-21.689a13.726,13.726,0,0,0,4.49-7.228,1.252,1.252,0,0,0-1.692-1.522c-4.314,1.412-9.212,6.706-13.958,3.989-4.237-2.422-6.426-8.294-8.119-12.558-3.971-9.972-4.886-20.59-7.18-30.907a20.151,20.151,0,0,0,7.365-5.571,1.63,1.63,0,0,0-1.537-2.72c-5.6.8-10.666,2.681-16.365,2.252-7.311-.557-12.358-8.327-15.516-14.05-2.795-5.062-4.633-10.755-6.373-16.246-1.359-4.284-1.728-8.893-4.669-12.218a146.32,146.32,0,0,0,20.614-3.06c1.895-.429,1.439-3.316-.453-3.313-27.129.006-50.976.7-77.342-7.621-25.005-7.88-48.795-18.046-70.806-32.394-41.484-27.061-73.94-79.922-61.114-130.2.271-1.064-1.165-1.32-1.743-.709a30.531,30.531,0,0,0-4.4,5.962c-12.769-5.27-26.215-11.828-35.713-22.032-11.9-12.784,2.729-37.989,18.376-26.119,6.274,4.758,14.015,28.223,24.189,29.066a2.444,2.444,0,0,0,4.269,1.141C236.532,181.307,298.272,192.483,352,208.082c56.532,16.419,139.52,47.7,136.982,119.267-.247,7.034,10.329,7.919,10.925.849.048-.506.03-.983.069-1.484,8.363,1.817,19.666-3.51,27.019-5.387,6.134-1.576,14.232-3.42,18.263,3.081,5.169,8.354,1.338,20.036-3.623,27.731-7.392.691-14.8,3.307-22.19,4.111-10.305,1.12-20.584-1.093-30.746-.238a41.2,41.2,0,0,0,1.189-7.63c.1-1.805-2.3-2.127-3.155-.813-9.126,13.988-16.291,25.973-30.019,36.142m48.431,21c-5.857-2.16-12.605-3.083-18.251-4.671-8.765-2.464-17.739-7.109-26.659-8.631a1.224,1.224,0,0,0-.569.045c9.6-6.218,18.138-13.842,23.685-22.887,3.709,2.488,8.455,3.116,12.939,3.742,6.8.95,18.192-.435,22.121,6.528,5.887,10.427-6.546,18.918-13.267,25.875m70.77,11.02c-1.373.194-2.747.372-4.132.563a1.42,1.42,0,0,0-.953-1.615c-16.9-4.77-33.976-5.375-50.353-12,4.108-5.384,6.939-12.486,7.564-17.6,11.384-.557,22.845-4.353,34.083-5.479,7.63-.781,18.6-1.332,23.513,5.851,7.138,10.41-3.846,21.865-9.721,30.276m40.206,10.4c-8.929-4.4-18.257-7-26.8-12.081,6.2-6.858,9.114-17.9,6.984-26.873,15.817.936,24.225,12.644,32.06,27.156a98.765,98.765,0,0,1,7.952,20.265,45.059,45.059,0,0,1,1.138,7.249c-6.867-5.065-19.517-14.828-21.329-15.716" transform="translate(0 0)" fill="#f5f5f5"/>
        <path id="패스_4977" data-name="패스 4977" d="M160.607,16.887l-.584-.2c-.155-.051-.229.2-.068.253l.584.194c.158.054.232-.194.068-.25" transform="translate(316.419 33.022)" fill="#f5f5f5"/>
        <path id="패스_4978" data-name="패스 4978" d="M178.519,36.123c-.176-7.785-9.73-17.682-17.083-19.443-1.1-.265-1.35,1.2-.721,1.8,2.8,2.646,6.117,4.537,8.786,7.407,3.1,3.3,4.809,7.576,7.853,10.842.456.492,1.18-.069,1.165-.6" transform="translate(317.429 32.952)" fill="#f5f5f5"/>
        <path id="패스_4979" data-name="패스 4979" d="M177.373,27.867c-2.068-3.429-6.051-8.4-10.359-8.911a.624.624,0,0,0-.629.944c2.184,3.6,5.547,6.319,7.737,10.025,2.541,4.3,4.269,9.426,5.807,14.161a1.011,1.011,0,0,0,1.925-.268c.34-5.959-1.427-10.842-4.481-15.951" transform="translate(329.136 37.511)" fill="#f5f5f5"/>
        <path id="패스_4980" data-name="패스 4980" d="M173.417,22.251c-.489-.45-1.093.113-.98.67,1.078,5.062,2.947,9.894,3.882,15.01,1,5.381.42,10.857.992,16.252.182,1.671,2.476,1.341,2.955.08,3.593-9.65.861-24.916-6.849-32.012" transform="translate(341.276 43.717)" fill="#f5f5f5"/>
        <path id="패스_4981" data-name="패스 4981" d="M185.146,38.436c-.906-3.516-3.414-11.08-7.862-11.223a.96.96,0,0,0-1.052.807c-.185,2.214.965,3.149,1.942,5.151a31.635,31.635,0,0,1,2.619,7.264c1.192,5.407.092,10.687.11,16.109a1.666,1.666,0,0,0,3.1.816c3.1-5.682,2.72-12.817,1.147-18.924" transform="translate(348.776 53.862)" fill="#f5f5f5"/>
        <path id="패스_4982" data-name="패스 4982" d="M183.3,32.29a.942.942,0,0,0-1.8.468c.355,5.291,1.067,10.41.852,15.728-.206,5.014-2.139,9.766-2.234,14.765a1.111,1.111,0,0,0,1.99.754c6.608-7.868,5.875-23.1,1.195-31.715" transform="translate(356.506 62.806)" fill="#f5f5f5"/>
        <path id="패스_4983" data-name="패스 4983" d="M188.456,37.654c-.256-.924-1.612-.617-1.74.22-.921,5.476-1.233,11.017-2.124,16.505s-2.857,10.7-3.554,16.213c-.191,1.54,1.945,1.942,2.705.825,6.119-9.1,7.633-23.316,4.713-33.764" transform="translate(358.303 73.411)" fill="#f5f5f5"/>
        <path id="패스_4984" data-name="패스 4984" d="M196.336,45.029a1.594,1.594,0,0,0-3.185-.039C192,56.591,186.465,64.68,181.7,74.947c-.337.733.563,1.74,1.32,1.3,10.684-6.191,13.887-19.669,13.314-31.22" transform="translate(359.496 86.048)" fill="#f5f5f5"/>
        <path id="패스_4985" data-name="패스 4985" d="M200.589,51.379a1.463,1.463,0,0,0-2.851-.471,78.46,78.46,0,0,1-8.229,17.59c-2.526,3.858-5.89,7.073-7.663,11.381-.423,1.019.7,1.758,1.582,1.457,10.8-3.685,16.836-19.571,17.161-29.957" transform="translate(359.744 98.79)" fill="#f5f5f5"/>
        <path id="패스_4986" data-name="패스 4986" d="M205.072,57.985c.587-1.9-2.228-2.911-3.176-1.248a60.533,60.533,0,0,1-9.531,12.9c-3.286,3.313-7.305,5.714-10.466,9.155a1.532,1.532,0,0,0,1.4,2.58c10.752-1.531,18.832-13.812,21.77-23.387" transform="translate(359.134 110.637)" fill="#f5f5f5"/>
        <path id="패스_4987" data-name="패스 4987" d="M152.819,28.125c-.268-1.335-2.425-1.317-2.44.122-.08,8.971-1.189,17.885-1.239,26.831a1.267,1.267,0,0,0,2.455.5c3.012-8.6,3.045-18.558,1.224-27.451" transform="translate(295.191 53.728)" fill="#f5f5f5"/>
        <path id="패스_4988" data-name="패스 4988" d="M155.95,33.268c.1-1.844-2.485-1.847-2.783-.134-1.662,9.364-2.884,20.676.22,29.757a1.243,1.243,0,0,0,2.285-.116c2.094-9.426-.226-19.872.277-29.507" transform="translate(299.804 63.073)" fill="#f5f5f5"/>
        <path id="패스_4989" data-name="패스 4989" d="M158.367,39.458c-.182-2.133-3.349-2.181-3.364.027-.042,4.725-.381,9.426-.542,14.155-.134,3.879-.7,7.666.509,11.414a1.2,1.2,0,0,0,2.08.173c3.861-7.18,2-17.953,1.317-25.768" transform="translate(305.228 74.903)" fill="#f5f5f5"/>
        <path id="패스_4990" data-name="패스 4990" d="M161.491,43.65c-.444-2.255-3.992-1.448-3.855.736.179,2.833.146,5.649.158,8.479.009,2.78-.372,5.565.408,8.268a1.867,1.867,0,0,0,3.414.319c2.4-5.2.947-12.409-.125-17.8" transform="translate(311.999 83.732)" fill="#f5f5f5"/>
        <path id="패스_4991" data-name="패스 4991" d="M166.153,55.29a46.419,46.419,0,0,0,.679-7.094c.1-2.774-4.159-3.548-4.35-.676-.3,4.26-1.365,8.339-1.609,12.573-.1,1.71,2.2,2.112,3.027.819a14.107,14.107,0,0,0,2.252-5.622" transform="translate(318.411 90.466)" fill="#f5f5f5"/>
        <path id="패스_4992" data-name="패스 4992" d="M197,70.875c-.182.131-2.982-.092-3.5-.018-1.359.191-2.714.372-4.073.536-2.229.28-4.371.885-6.584,1.26-.855.143-1.016,1.561-.045,1.6a62.893,62.893,0,0,0,10.267-.363,12.609,12.609,0,0,0,3.861-.79c1.132-.554.366-2.44.077-2.229" transform="translate(360.486 140.216)" fill="#f5f5f5"/>
        <path id="패스_4993" data-name="패스 4993" d="M200.036,73.977c-5.211-.974-12.37-1.71-17.482.015-1.126.378-1.615,2.211-.158,2.574,5.437,1.344,12.319-.4,17.706-1.469.593-.113.468-1.019-.066-1.12" transform="translate(359.224 144.399)" fill="#f5f5f5"/>
        <path id="패스_4994" data-name="패스 4994" d="M200.41,87.536A23.705,23.705,0,0,0,190,82.495c-2.413-.572-3.164,3.11-.792,3.745a21.207,21.207,0,0,1,8.515,4.421c2.005,1.692,2.9,4.612,5.452,5.464a1.3,1.3,0,0,0,1.639-.822c.894-3.176-2.231-5.833-4.4-7.767" transform="translate(371.634 163.163)" fill="#f5f5f5"/>
        <path id="패스_4995" data-name="패스 4995" d="M204.346,98.142c-1.948-7.457-10.55-12.117-17.357-14.119a1.269,1.269,0,0,0-.816,2.4,31.483,31.483,0,0,1,8.059,4.856c2.923,2.431,4.8,5.7,7.576,8.217a1.5,1.5,0,0,0,2.538-1.356" transform="translate(366.873 166.186)" fill="#f5f5f5"/>
        <path id="패스_4996" data-name="패스 4996" d="M196.141,94.219a22.008,22.008,0,0,0-11.491-7.4c-1.09-.328-2.1,1.186-1,1.862a34.084,34.084,0,0,1,8.816,8.229c2.2,2.857,2.824,7.737,5.97,9.546a1.533,1.533,0,0,0,2.094-.527c1.791-3.9-2.047-8.7-4.386-11.709" transform="translate(362.553 171.748)" fill="#f5f5f5"/>
        <path id="패스_4997" data-name="패스 4997" d="M192.419,100.8A39.836,39.836,0,0,0,184.2,88.866c-1.32-1.412-3.754.474-2.681,2.091a63.831,63.831,0,0,1,5.839,11c1.3,3.131,1.248,8.1,4.126,10.2a1.622,1.622,0,0,0,1.981-.271c2.512-3.027.271-7.9-1.049-11.083" transform="translate(358.756 174.909)" fill="#f5f5f5"/>
        <path id="패스_4998" data-name="패스 4998" d="M181.513,92.26c-1.195-1.365-3.125.271-2.446,1.767a52.425,52.425,0,0,1,3.4,9.882c.715,3.155.8,6.385,1.943,9.409a1.9,1.9,0,0,0,3.635-.158c1.987-7.118-1.9-15.594-6.531-20.9" transform="translate(354.146 181.597)" fill="#f5f5f5"/>
        <path id="패스_4999" data-name="패스 4999" d="M179.748,95.473A1.727,1.727,0,0,0,176.6,96.8a50.472,50.472,0,0,1,1.353,8.64c.074,2.616-.751,5.184.521,7.6a2.039,2.039,0,0,0,2.836.569c4.6-4.028,1.025-13.806-1.567-18.129" transform="translate(349.47 187.303)" fill="#f5f5f5"/>
        <path id="패스_5000" data-name="패스 5000" d="M176.166,97.206a1.457,1.457,0,0,0-2.515.941c.173,2.142.408,4.335.387,6.492-.033,2.449-.462,4.883-.5,7.344-.051,2.416,3.3,2.407,4.219.664,2.529-4.838,1.513-11.107-1.588-15.442" transform="translate(343.476 191.457)" fill="#f5f5f5"/>
        <path id="패스_5001" data-name="패스 5001" d="M175.6,107.506a14.4,14.4,0,0,0,.089-5.959c-.6-3.012-5.3-2.4-4.749.664a11.179,11.179,0,0,1-.071,4.2,9.816,9.816,0,0,1-.509,1.522,12.248,12.248,0,0,0-.435,3.072,1.636,1.636,0,0,0,2.419,1.43,7,7,0,0,0,3.256-4.928" transform="translate(336.309 197.091)" fill="#f5f5f5"/>
        <path id="패스_5002" data-name="패스 5002" d="M172.955,103.747c.072-2.312-3.867-2.538-4.046-.235-.113,1.46-.95,2.509-1.439,3.843a1.571,1.571,0,0,0,1.46,1.975c3.006.325,3.951-3.414,4.025-5.583" transform="translate(331.305 201.678)" fill="#f5f5f5"/>
        <path id="패스_5003" data-name="패스 5003" d="M146.322,6.245c-7.719-4.043-20.7-.253-27.469,4.383-.953.644-.17,2.2.9,1.993,4.588-.918,9.045-2.22,13.672-2.976,4.067-.676,8.518.006,12.427-1.165.894-.271,1.552-1.665.474-2.234" transform="translate(234.395 8.971)" fill="#f5f5f5"/>
        <path id="패스_5004" data-name="패스 5004" d="M141.4,2.891c-4.85-.947-10.6,1.615-14.989,3.432a41.582,41.582,0,0,0-13.916,9.185c-.679.691.328,1.895,1.15,1.484q7.016-3.495,14.226-6.635c4.469-1.954,9.7-2.83,13.925-5.181a1.21,1.21,0,0,0-.4-2.285" transform="translate(222.217 5.32)" fill="#f5f5f5"/>
        <path id="패스_5005" data-name="패스 5005" d="M132.617,1.627c-8.959,1.469-20.066,4.812-25.89,12.307-1.025,1.317.256,3.65,1.934,2.562,3.349-2.16,6.4-4.737,9.8-6.84a51.7,51.7,0,0,1,14.47-5.911c1.311-.337,1.07-2.345-.316-2.118" transform="translate(210.52 3.185)" fill="#f5f5f5"/>
        <path id="패스_5006" data-name="패스 5006" d="M128.182,1.445c-13.127,3.23-26.668,12.516-29.99,26.322-.265,1.073,1.213,1.373,1.8.709,8.86-9.918,16.309-19.294,28.926-24.7a1.237,1.237,0,0,0-.736-2.33" transform="translate(194.29 2.788)" fill="#f5f5f5"/>
        <path id="패스_5007" data-name="패스 5007" d="M110.923,4.148c-7.028,7.7-15.817,17.587-18.549,27.883-.462,1.749,2.071,3.17,3.221,1.674,3.063-4,5.05-8.786,7.719-13.067A113.336,113.336,0,0,1,113.753,6.722c1.609-1.865-1.165-4.4-2.83-2.574" transform="translate(182.725 6.964)" fill="#f5f5f5"/>
        <path id="패스_5008" data-name="패스 5008" d="M107.5,6.677C97.152,12.9,88.566,25.825,86.552,37.7c-.295,1.773,2.083,2.961,3.042,1.23,3.122-5.607,5.673-11.5,9.149-16.913,3.09-4.818,6.906-8.962,10.35-13.49.733-.968-.521-2.491-1.6-1.847" transform="translate(171.261 12.912)" fill="#f5f5f5"/>
        <path id="패스_5009" data-name="패스 5009" d="M95.721,10.985A31.178,31.178,0,0,0,81.769,44.672a1.6,1.6,0,0,0,3.134-.363c.778-12.638,3.7-22.377,11.926-32.158.629-.748-.36-1.615-1.108-1.165" transform="translate(160.138 21.498)" fill="#f5f5f5"/>
        <path id="패스_5010" data-name="패스 5010" d="M84.137,47.295c-.652-4.832-2.02-9.447-2.178-14.354-.17-5.121,1.132-10.344,2.765-15.156.331-.977-.977-1.838-1.621-.933-6.286,8.914-8.294,22.5-1.266,31.592.864,1.114,2.464.063,2.3-1.15" transform="translate(153.202 32.598)" fill="#f5f5f5"/>
        <path id="패스_5011" data-name="패스 5011" d="M141.878,23.157c-7.865,6.122-15.421,12.5-21.805,20.191-.76.912.587,2.151,1.481,1.424a253.557,253.557,0,0,0,21.618-19.988c.909-.933-.206-2.47-1.293-1.627" transform="translate(237.216 45.352)" fill="#f5f5f5"/>
        <path id="패스_5012" data-name="패스 5012" d="M134.391,26.352c-6.48,5.848-14.155,10.1-20.641,15.844a1.239,1.239,0,0,0,1.323,2.056c7.922-3.414,15.1-9.891,21.3-15.757a1.462,1.462,0,0,0-1.987-2.142" transform="translate(224.313 51.39)" fill="#f5f5f5"/>
        <path id="패스_5013" data-name="패스 5013" d="M124.029,28.587q-3.615,3.235-7.511,6.134c-2.494,1.865-5.434,3.411-7.481,5.792A1.468,1.468,0,0,0,110.357,43c6.355-1.43,12.153-7.448,16.824-11.715,1.984-1.8-1.2-4.442-3.152-2.7" transform="translate(215.026 55.45)" fill="#f5f5f5"/>
        <path id="패스_5014" data-name="패스 5014" d="M114.028,28.923c-2.976,2.437-6.227,4.582-8.807,7.451-1.138,1.272.289,3.542,1.877,2.529a80.142,80.142,0,0,0,9.453-7.555c1.713-1.5-.81-3.828-2.523-2.425" transform="translate(207.452 56.389)" fill="#f5f5f5"/>
        <path id="패스_5015" data-name="패스 5015" d="M83.226,50.815c-1.779-3.113-4.132-5.968-6.1-8.971A26.965,26.965,0,0,1,74.18,35.48c-.536-1.594-.644-3.322-1.689-4.677a.687.687,0,0,0-1.177.1c-1.388,3.134.474,7.824,1.5,10.871,1.522,4.5,4.308,8.941,8.777,10.955,1.079.486,2.19-.944,1.633-1.91" transform="translate(140.171 60.399)" fill="#f5f5f5"/>
        <path id="패스_5016" data-name="패스 5016" d="M79.1,45.954c-2.786-3.837-6.015-7.305-8.086-11.616-.688-1.436-3.179-.6-2.663.953,1.668,5.008,4.329,9.993,9,12.713a1.366,1.366,0,0,0,1.749-2.05" transform="translate(135.149 66.5)" fill="#f5f5f5"/>
        <path id="패스_5017" data-name="패스 5017" d="M72.835,56.232c-5.36-4.5-8.366-10.454-9.707-17.22a.847.847,0,0,0-1.671-.039c-2.142,7.9,2.577,15.79,9.569,19.434,1.326.691,3.119-1.081,1.808-2.175" transform="translate(120.611 75.768)" fill="#f5f5f5"/>
        <path id="패스_5018" data-name="패스 5018" d="M75.8,64.446C72.336,61.2,68.284,58.8,65.415,54.91c-2.664-3.62-3.8-8.056-4.35-12.436a.721.721,0,0,0-1.421-.057c-2.333,9.861,3.888,22.815,14.631,24.549,1.35.217,2.75-1.362,1.525-2.52" transform="translate(117.087 82.82)" fill="#f5f5f5"/>
        <path id="패스_5019" data-name="패스 5019" d="M78.489,66.108c-3.033-2.556-6.826-4.138-9.96-6.674-3.989-3.23-6.79-7.943-8.777-12.593-.471-1.093-2.318-.617-2.041.584,2.074,9.108,8.786,21.236,19.645,21.192,1.168,0,2.193-1.615,1.132-2.509" transform="translate(114.173 91.499)" fill="#f5f5f5"/>
        <path id="패스_5020" data-name="패스 5020" d="M79.064,69.479c-2.145-3.286-7.4-3.858-10.633-6.048C64.257,60.622,62.437,56,60.194,51.746a1.11,1.11,0,0,0-2.106.334C57.3,57.621,60,62.939,63.912,66.72c3.3,3.179,10.514,7.71,14.846,4.421a1.369,1.369,0,0,0,.307-1.662" transform="translate(114.703 101.163)" fill="#f5f5f5"/>
        <path id="패스_5021" data-name="패스 5021" d="M80.3,69.874c-2.869-2.288-6.569-3.152-9.829-4.77-4.052-2.017-7.675-5-11.312-7.657-.766-.572-2.112.316-1.564,1.239,4,6.766,13.812,15.072,22.264,13.916,1.466-.206,1.335-2.02.441-2.729" transform="translate(113.75 113.347)" fill="#f5f5f5"/>
        <path id="패스_5022" data-name="패스 5022" d="M84.58,69.911c-4.019-1.767-8.694-1.725-12.915-2.878a56.983,56.983,0,0,1-10.627-4.254c-1.373-.7-3.137,1.064-1.829,2.231,5.971,5.378,17.235,11.837,25.318,7.615a1.572,1.572,0,0,0,.054-2.714" transform="translate(116.281 123.942)" fill="#f5f5f5"/>
        <path id="패스_5023" data-name="패스 5023" d="M78.3,71.361c-1.725-.918-3.623-.53-5.509-.81a14.547,14.547,0,0,1-6.429-2.711A2.041,2.041,0,0,0,63.7,70.926c3.277,3.191,11.7,8.056,15.311,2.809a1.756,1.756,0,0,0-.7-2.374" transform="translate(124.717 133.382)" fill="#f5f5f5"/>
        <path id="패스_5024" data-name="패스 5024" d="M172.449,116.795c-.253-2.3-.649-4.6-1.016-6.888-.3-1.794-2.947-1.177-2.735.581.256,2.211.512,4.427.682,6.647.158,1.913.068,4.046,1.064,5.714a.966.966,0,0,0,1.54-.009c1.046-1.829.691-4.022.465-6.045" transform="translate(333.879 215.402)" fill="#f5f5f5"/>
        <path id="패스_5025" data-name="패스 5025" d="M176.5,113.733c-.667-2.124-2.535-5.065-4.824-5.625a1.154,1.154,0,0,0-1.516,1.251c.393,2.041,1.519,3.986,2.115,6.009.644,2.163.352,4.508.638,6.715.229,1.737,2.586,2.55,3.492.789,1.466-2.887,1.034-6.164.1-9.14" transform="translate(336.748 213.902)" fill="#f5f5f5"/>
        <path id="패스_5026" data-name="패스 5026" d="M179.078,115.347a16.707,16.707,0,0,0-3.754-7.237,1.338,1.338,0,0,0-2.3,1.135c.381,2.726,1.245,5.339,1.585,8.08.271,2.106.465,4.7,2.351,6.015a1.137,1.137,0,0,0,1.376-.057c2.288-1.916,1.433-5.44.739-7.937" transform="translate(342.444 213.132)" fill="#f5f5f5"/>
        <path id="패스_5027" data-name="패스 5027" d="M183.915,119.988c.277-2.506-.927-5.279-2.05-7.475-1.076-2.109-2.309-5.038-4.594-6.021a1.21,1.21,0,0,0-1.6,1.037c-.14,2.2,1.32,4.54,1.957,6.632.611,2.032.837,4.511,1.832,6.373,1.013,1.913,4.174,1.972,4.451-.545" transform="translate(347.692 210.621)" fill="#f5f5f5"/>
        <path id="패스_5028" data-name="패스 5028" d="M183.5,114.694a24.934,24.934,0,0,0-2.64-7.424c-.432-.742-1.928-.87-1.931.265a55.9,55.9,0,0,0,.751,7.874c.319,2.407.149,5.3,2.089,7.019a1.167,1.167,0,0,0,1.627-.292c1.549-2.124.608-5.083.1-7.442" transform="translate(354.156 211.184)" fill="#f5f5f5"/>
        <path id="패스_5029" data-name="패스 5029" d="M195.676,111.991a7.781,7.781,0,0,0-1.332-2.4,8.152,8.152,0,0,0-5.392-3.122,1.337,1.337,0,0,0-1.076,2.2,34.347,34.347,0,0,1,3.271,4.108c.775,1.344,1.082,2.938,2.565,3.7.42.217.787-.042,1.147-.2,1.4-.623,1.2-3.17.816-4.29" transform="translate(371.271 210.708)" fill="#f5f5f5"/>
        <path id="패스_5030" data-name="패스 5030" d="M198.663,112.682a71.23,71.23,0,0,0-5.592-8.321c-1.418-1.862-4.493-.063-3.137,1.94a76.323,76.323,0,0,1,4.955,8.324c.921,1.811,1.987,5.381,4.487,5.261,3.093-.137-.128-6.167-.712-7.2" transform="translate(375.267 205.015)" fill="#f5f5f5"/>
        <path id="패스_5031" data-name="패스 5031" d="M201.675,117.192c-.247-4.68-3.334-9.218-5.842-13.034-1.111-1.692-3.8-.271-2.777,1.54a60.387,60.387,0,0,1,3.218,6.423c.825,1.957,1.37,3.974,2.375,5.851a1.624,1.624,0,0,0,3.027-.781" transform="translate(381.661 204.658)" fill="#f5f5f5"/>
        <path id="패스_5032" data-name="패스 5032" d="M203.727,110.88a19.981,19.981,0,0,0-5.47-7.341,1.394,1.394,0,0,0-2.062,1.874,22.342,22.342,0,0,1,3.775,6.688c.807,2.267.888,4.847,1.913,6.986.712,1.484,2.824.87,3.215-.486.7-2.419-.459-5.479-1.37-7.722" transform="translate(387.623 204.151)" fill="#f5f5f5"/>
        <path id="패스_5033" data-name="패스 5033" d="M201.617,103.508c-.852-1.216-2.646.116-2.1,1.368a43.755,43.755,0,0,1,2.827,9.918c.489,2.756.223,5.777,1.451,8.348a1.236,1.236,0,0,0,2.133.17c3.247-5.965-.831-14.831-4.308-19.8" transform="translate(394.697 203.922)" fill="#f5f5f5"/>
        <path id="패스_5034" data-name="패스 5034" d="M211.595,104.988c-.676-1.1-2.652-.95-2.64.554.021,2.7.3,5.369.447,8.065.143,2.6-.179,5.547,1.221,7.856a1.184,1.184,0,0,0,2.017.182c3.277-4.18,1.49-12.57-1.046-16.657" transform="translate(413.583 206.384)" fill="#f5f5f5"/>
        <path id="패스_5035" data-name="패스 5035" d="M215.292,107.792c-.3-1.376-2.64-1.359-2.568.164.14,2.926.128,5.851.039,8.774-.1,2.607-.67,5.074-.149,7.657a1.211,1.211,0,0,0,2.172.474c3.194-4.743,1.662-11.887.506-17.068" transform="translate(420.396 211.361)" fill="#f5f5f5"/>
        <path id="패스_5036" data-name="패스 5036" d="M219.289,120.7a33.433,33.433,0,0,0,.453-8.905c-.212-2.729-4.323-2.357-4.2.349a31.5,31.5,0,0,1-.682,7.892c-.405,2.041-1.272,4.144-.372,6.125a1.329,1.329,0,0,0,1.779.608c2.133-1.168,2.583-3.837,3.024-6.069" transform="translate(423.752 217.563)" fill="#f5f5f5"/>
        <path id="패스_5037" data-name="패스 5037" d="M220.664,113.958a1.139,1.139,0,0,0-2.246.363c.3,4.943-1.722,9.191-2.431,13.94a1.4,1.4,0,0,0,2.327,1.1c3.676-4.147,3.849-10.311,2.351-15.4" transform="translate(427.478 223.757)" fill="#f5f5f5"/>
        <path id="패스_5038" data-name="패스 5038" d="M222.3,119.823a1.3,1.3,0,0,0-2.458-.825c-.8,2.375-2.106,4.975-1.99,7.511a.885.885,0,0,0,1.561.447c1.6-1.913,2.106-4.8,2.887-7.132" transform="translate(431.178 233.851)" fill="#f5f5f5"/>
        <path id="패스_5039" data-name="패스 5039" d="M169.461,124.376a1.334,1.334,0,0,0-2.66-.164c-.888,6.429-3.956,11.855-5.845,17.935a1.766,1.766,0,0,0,2.967,1.633c4.5-5.148,5.759-12.781,5.538-19.4" transform="translate(318.433 243.468)" fill="#f5f5f5"/>
        <path id="패스_5040" data-name="패스 5040" d="M171.182,137.92a27.22,27.22,0,0,0,.119-13.028c-.408-1.928-3.149-1.379-3.259.417a47.926,47.926,0,0,1-1.805,9.787c-.715,2.634-2.529,5.5-1.09,8.107a1.634,1.634,0,0,0,1.817.781c2.768-.623,3.536-3.617,4.219-6.063" transform="translate(325.803 244.8)" fill="#f5f5f5"/>
        <path id="패스_5041" data-name="패스 5041" d="M175.672,135.772c.891-3.075,1.913-7.687.024-10.606a1.438,1.438,0,0,0-2.628.229c-1.2,3.164-1.928,6.531-3.036,9.751-.882,2.586-2.967,5.863-1.278,8.533a1.325,1.325,0,0,0,1.415.7c3.718-.79,4.591-5.482,5.5-8.61" transform="translate(332.744 246.257)" fill="#f5f5f5"/>
        <path id="패스_5042" data-name="패스 5042" d="M183.666,127.849a1.275,1.275,0,0,0-2.154.426,56.036,56.036,0,0,0-1.174,5.717c-.512,2.538-1.445,4.558-1.129,7.207a1.377,1.377,0,0,0,1.948.947c4.254-2.553,5.538-10.43,2.509-14.3" transform="translate(354.581 252.195)" fill="#f5f5f5"/>
        <path id="패스_5043" data-name="패스 5043" d="M187.358,135.879a15.145,15.145,0,0,0-1.758-8.422c-.471-.885-2.1-.867-2.1.337a59.858,59.858,0,0,1-.518,7.413c-.277,2.208-1.2,4.4-.709,6.605a1.807,1.807,0,0,0,3.006.739c1.782-1.621,1.886-4.391,2.082-6.671" transform="translate(360.483 251.045)" fill="#f5f5f5"/>
        <path id="패스_5044" data-name="패스 5044" d="M190.3,127.933c-.721-2.237-3.8-1.23-3.429,1a16.017,16.017,0,0,1-.313,6.34c-.468,2.053-1.555,3.915-1.174,6.036a1.693,1.693,0,0,0,2.464,1.028c4.433-2.491,3.757-10.353,2.452-14.4" transform="translate(366.781 250.729)" fill="#f5f5f5"/>
        <path id="패스_5045" data-name="패스 5045" d="M194.052,128.51c-.31-2.309-3.733-2.288-3.694.14a42,42,0,0,1-.581,7.9c-.4,2.309-1.582,4.7.03,6.742a1.333,1.333,0,0,0,1.29.432c4.99-1.466,3.474-11.354,2.955-15.212" transform="translate(374.054 250.98)" fill="#f5f5f5"/>
        <path id="패스_5046" data-name="패스 5046" d="M198.008,128.2a1.849,1.849,0,0,0-3.694.131,45.089,45.089,0,0,1-.861,8.345c-.471,2.294-1.382,4.263-.95,6.632a1.339,1.339,0,0,0,1.892.927c4.889-2.83,3.983-11.274,3.614-16.035" transform="translate(380.794 250.341)" fill="#f5f5f5"/>
        <path id="패스_5047" data-name="패스 5047" d="M204.445,128.919a1.147,1.147,0,0,0-1.77,1.111,45.481,45.481,0,0,1,.682,7.856c.006,3.429-1.15,6.692-.661,10.115.182,1.308,2.083,1.63,2.887.751,4.094-4.508,4.725-16.356-1.138-19.833" transform="translate(400.956 254.832)" fill="#f5f5f5"/>
        <path id="패스_5048" data-name="패스 5048" d="M210.32,144.1a44.785,44.785,0,0,0-.366-11.724c-.226-1.767-2.678-1.263-2.89.256-.417,3.212-.781,6.417-1.144,9.629-.28,2.491-1.332,5.178-.536,7.633a1.418,1.418,0,0,0,2.3.739c2.005-1.57,2.324-4.126,2.637-6.534" transform="translate(405.935 259.79)" fill="#f5f5f5"/>
        <path id="패스_5049" data-name="패스 5049" d="M212.969,143.273c.217-2.941.358-7.874-2.33-9.757a.532.532,0,0,0-.813.155,9.084,9.084,0,0,0-.512,4.061,31.333,31.333,0,0,1-.694,5.887c-.426,2.488-1.889,5.422-.5,7.821a1.1,1.1,0,0,0,1.409.554c3.11-1.481,3.227-5.693,3.444-8.72" transform="translate(410.767 264.029)" fill="#f5f5f5"/>
        <path id="패스_5050" data-name="패스 5050" d="M215.113,138.217c-.358-1.928-3.513-1.451-3.381.474a26.451,26.451,0,0,1-.358,6.823c-.432,2.243-1.895,4.517-.858,6.745a1.263,1.263,0,0,0,1.406.7c5.151-1.382,3.9-10.886,3.191-14.745" transform="translate(415.952 271.138)" fill="#f5f5f5"/>
        <path id="패스_5051" data-name="패스 5051" d="M212.614,143.452c-.4,1.368-.944,2.744-.489,4.168.259.79,1.254,1.555,2.1.977,1.415-.977,1.85-2.363,2.452-3.906a2.131,2.131,0,1,0-4.061-1.239" transform="translate(419.517 280.594)" fill="#f5f5f5"/>
        <path id="패스_5052" data-name="패스 5052" d="M156.807,133.739c-.635-1.5-3.075-1.847-3.444.086-.447,2.285-.6,4.374-1.582,6.537-.867,1.934-2.443,3.662-2.6,5.827a1.248,1.248,0,0,0,1.445,1.308c4.728-1.046,7.952-9.528,6.185-13.758" transform="translate(295.259 262.241)" fill="#f5f5f5"/>
        <path id="패스_5053" data-name="패스 5053" d="M158.591,136.847c.646-2.1-2.538-2.851-3.265-.837-.608,1.674-1.236,3.346-1.925,4.993-.664,1.558-1.034,3.14-1.645,4.725-.563,1.481,1.606,2.407,2.449,1.147a21.344,21.344,0,0,0,2.6-4.612c.65-1.794,1.227-3.6,1.785-5.416" transform="translate(300.187 266.865)" fill="#f5f5f5"/>
        <path id="패스_5054" data-name="패스 5054" d="M161.474,137.7a1.239,1.239,0,0,0-2.4-.5c-1.037,2.75-2.211,5.449-3.2,8.211-.968,2.693-2.839,5.27-2.217,8.193a1.327,1.327,0,0,0,1.561,1.049c5.881-1.883,5.923-11.959,6.251-16.955" transform="translate(303.897 269.981)" fill="#f5f5f5"/>
        <path id="패스_5055" data-name="패스 5055" d="M165.555,140.026c-.021-2.413-3.843-2.538-4.174-.188a30.293,30.293,0,0,1-1.487,5.9c-.769,2.217-2.124,4.094-2.717,6.364-.495,1.865,2.026,3.242,3.456,2.133,4.088-3.149,4.958-9.388,4.922-14.208" transform="translate(310.974 273.428)" fill="#f5f5f5"/>
        <path id="패스_5056" data-name="패스 5056" d="M168.763,141c-.11-1.32-2.16-1.35-2.5-.167a26.977,26.977,0,0,1-3.289,7.293c-1.156,1.707-2.824,3.158-3.608,5.059a2.1,2.1,0,0,0,2.562,2.842c5.643-1.975,7.249-9.85,6.837-15.028" transform="translate(315.104 277.06)" fill="#f5f5f5"/>
        <path id="패스_5057" data-name="패스 5057" d="M174.63,144.892a79.476,79.476,0,0,1-5.616,7.082c-1.567,1.779-4.383,3.244-4.436,5.845a1.376,1.376,0,0,0,.947,1.373c3.009.816,5.294-2.354,7.046-4.391a24.348,24.348,0,0,0,4.7-8.723c.53-1.624-1.719-2.509-2.643-1.186" transform="translate(325.748 285.514)" fill="#f5f5f5"/>
        <path id="패스_5058" data-name="패스 5058" d="M174.34,147.194a33.47,33.47,0,0,1-4.847,8.3c-.959,1.248-3.078,4.281-.989,5.619,4.5,2.851,9.218-9.415,10.088-12.138.894-2.78-3.149-4.591-4.251-1.779" transform="translate(331.758 288.548)" fill="#f5f5f5"/>
        <path id="패스_5059" data-name="패스 5059" d="M181.054,148.553a1.659,1.659,0,0,0-3.25-.42,25.22,25.22,0,0,1-3.891,8.285c-1.254,1.829-4.4,4.335-1.451,6.131,2.231,1.359,5.059-2.512,6.131-3.912,2.151-2.821,2.6-6.665,2.461-10.085" transform="translate(338.931 290.815)" fill="#f5f5f5"/>
        <path id="패스_5060" data-name="패스 5060" d="M185.159,150.3a1.859,1.859,0,0,0-3.656-.334,42.55,42.55,0,0,1-2.881,7.475c-1.3,2.372-3.662,4.132-4.576,6.7a1.339,1.339,0,0,0,1.186,1.734c6.963.542,10.293-10.21,9.927-15.573" transform="translate(344.348 294.071)" fill="#f5f5f5"/>
        <path id="패스_5061" data-name="패스 5061" d="M185.4,152.133a1.469,1.469,0,0,0-2.526.938c.024,2.291.45,4.531.256,6.84-.188,2.208-1.153,4.391-1.028,6.614.06,1.09,1.35,2.193,2.419,1.427,4.171-3,4.788-12.367.879-15.82" transform="translate(360.418 300.29)" fill="#f5f5f5"/>
        <path id="패스_5062" data-name="패스 5062" d="M191.83,154.826a1.653,1.653,0,0,0-3.3-.009c-.45,5.753-2.595,10.845-4.216,16.3a1.628,1.628,0,0,0,2.7,1.57c4.418-4.728,5.095-11.673,4.818-17.861" transform="translate(364.675 303.275)" fill="#f5f5f5"/>
        <path id="패스_5063" data-name="패스 5063" d="M191.453,168.669a69.131,69.131,0,0,0,2.342-9.111c.489-2.6-3.414-3.3-4.013-.751a69.476,69.476,0,0,1-2.464,8.083c-.933,2.526-2.461,4.972-1.916,7.7a1.339,1.339,0,0,0,1.889.939c2.529-1.409,3.28-4.24,4.162-6.864" transform="translate(366.738 311.17)" fill="#f5f5f5"/>
        <path id="패스_5064" data-name="패스 5064" d="M194.08,163.143a2.116,2.116,0,0,0-2.973.247,60.875,60.875,0,0,1-4.7,6.283,1.53,1.53,0,0,0,1.77,2.443c2.878-1.186,4.529-3.471,6.149-6.006a2.15,2.15,0,0,0-.25-2.967" transform="translate(368.113 321.936)" fill="#f5f5f5"/>
        <path id="패스_5065" data-name="패스 5065" d="M147.267,138.8c-1.686-.31-3.411.6-5.008,1.171-2.5.867-4.892,2.02-7.353,2.985-1.359.533-.584,2.523.754,2.345a26.481,26.481,0,0,0,8.866-3.1c.235-.122,4.5-3.072,2.741-3.4" transform="translate(265.609 274.605)" fill="#f5f5f5"/>
        <path id="패스_5066" data-name="패스 5066" d="M148.876,140.676c-2.374,1.1-4.77,2.2-7.2,3.146-1.954.76-5.515,1.379-6.62,3.334a1.076,1.076,0,0,0,.241,1.487c2.214,1.558,5.491-.072,7.693-.947a32.046,32.046,0,0,0,7.55-4.66c1.361-1.049-.247-3.024-1.662-2.36" transform="translate(266.938 278.174)" fill="#f5f5f5"/>
        <path id="패스_5067" data-name="패스 5067" d="M151.556,142.457a35.708,35.708,0,0,1-7.987,5.687c-2.3,1.227-6.274,2.22-7.38,4.791a1.008,1.008,0,0,0,.334,1.183c2.714,1.573,6.2-.718,8.646-2.017a31.67,31.67,0,0,0,8.67-7.338c1.344-1.567-.754-3.769-2.282-2.306" transform="translate(269.418 281.014)" fill="#f5f5f5"/>
        <path id="패스_5068" data-name="패스 5068" d="M151.192,145.425a60.433,60.433,0,0,1-9.087,5.4c-1.391.676-5.985,1.984-4.809,4.418,1.347,2.783,6.176-.018,7.9-.9a30.1,30.1,0,0,0,8.142-6.209c1.332-1.391-.506-3.9-2.148-2.717" transform="translate(271.373 287.228)" fill="#f5f5f5"/>
        <path id="패스_5069" data-name="패스 5069" d="M149.933,148.452c-1.531,1.052-3.182,1.9-4.809,2.809-1.841,1.034-3.915,1.454-5.664,2.687a1.3,1.3,0,0,0,.447,2.2c4.588,1.439,9.191-2.795,11.619-6.212.757-1.055-.6-2.172-1.594-1.487" transform="translate(275.147 293.413)" fill="#f5f5f5"/>
        <path id="패스_5070" data-name="패스 5070" d="M153.284,154.987a1.15,1.15,0,0,0-1.844-.7c-1.46,1.335-2.223,3.376-3.438,4.949a33.737,33.737,0,0,1-4.689,4.534,1.537,1.537,0,0,0,1.409,2.589c4.323-1.156,9.236-6.6,8.562-11.372" transform="translate(282.723 304.87)" fill="#f5f5f5"/>
        <path id="패스_5071" data-name="패스 5071" d="M159.553,156.779c.274-1.77-2.05-2.953-3.048-1.227A73.411,73.411,0,0,1,151.232,164c-1.835,2.4-4.391,4.091-6.221,6.5-.936,1.236.632,2.672,1.862,2.416,6.9-1.442,11.667-9.62,12.68-16.139" transform="translate(286.456 306.215)" fill="#f5f5f5"/>
        <path id="패스_5072" data-name="패스 5072" d="M158.286,158.154a27.829,27.829,0,0,1-4.409,7.555c-2.014,2.482-4.88,4.2-6.62,6.867a1.7,1.7,0,0,0,1.913,2.443c6.379-1.6,10.833-9.882,12.772-15.606.7-2.083-2.854-3.3-3.656-1.26" transform="translate(290.976 310.954)" fill="#f5f5f5"/>
        <path id="패스_5073" data-name="패스 5073" d="M161.127,161.558a62.1,62.1,0,0,1-7.4,7.675c-2.074,1.808-4.532,3.364-6.3,5.476a1.568,1.568,0,0,0,1.451,2.631c6.781-1.561,11.911-8.685,14.432-14.691.572-1.365-1.353-2.124-2.181-1.09" transform="translate(290.984 318.82)" fill="#f5f5f5"/>
        <path id="패스_5074" data-name="패스 5074" d="M160.1,163.953a.8.8,0,0,0-1.067.414c-1.034,2.783-.313,5.81-1.412,8.67-1.174,3.054-3.4,5.592-5.038,8.387a.945.945,0,0,0,1.1,1.433,13.071,13.071,0,0,0,8.53-9.051c.98-3.176,1.2-8-2.115-9.852" transform="translate(301.693 324.356)" fill="#f5f5f5"/>
        <path id="패스_5075" data-name="패스 5075" d="M168.977,168.445c.274-1.239-1.5-1.451-2.005-.5a44.16,44.16,0,0,1-5.887,8.7c-2.374,2.7-6.069,4.913-7.591,8.187a1.079,1.079,0,0,0,1.159,1.439c3.5-.253,6.251-3.5,8.491-5.947a25.994,25.994,0,0,0,5.833-11.884" transform="translate(303.625 331.239)" fill="#f5f5f5"/>
        <path id="패스_5076" data-name="패스 5076" d="M160.824,174.821a20.563,20.563,0,0,1-3.852,3.376,9.614,9.614,0,0,0-3.477,3.322.834.834,0,0,0,.646,1.159c3.656.426,6.945-2.851,9.14-5.446,1.415-1.677-.968-4.064-2.458-2.41" transform="translate(303.642 344.917)" fill="#f5f5f5"/>
        <path id="패스_5077" data-name="패스 5077" d="M78.635,115.414c-7.493,2.8-11.631,12.063-10.746,19.672.185,1.573,2.458,1.4,2.884.086,2.1-6.417,3.864-13.118,9.48-17.432,1.385-1.067-.235-2.842-1.618-2.327" transform="translate(134.137 228.256)" fill="#f5f5f5"/>
        <path id="패스_5078" data-name="패스 5078" d="M77.931,116.255C70.289,119.2,63.24,127.615,63.7,136.109c.083,1.585,2.374,2.425,3.152.822,1.549-3.179,2.562-6.528,4.293-9.608,2.032-3.62,5-6.683,7.8-9.712.608-.661-.247-1.651-1.01-1.356" transform="translate(126.037 229.996)" fill="#f5f5f5"/>
        <path id="패스_5079" data-name="패스 5079" d="M75.583,116.427c-9.328-.644-17.78,13.082-14.953,21.4a1.636,1.636,0,0,0,2.976.408c1.847-3.376,2.407-7.3,4.144-10.755,1.987-3.957,5.461-6.519,8.342-9.745a.82.82,0,0,0-.509-1.308" transform="translate(118.908 230.401)" fill="#f5f5f5"/>
        <path id="패스_5080" data-name="패스 5080" d="M60.361,122.112c-3.927,3.426-9.06,11.452-6.98,16.741a1.136,1.136,0,0,0,1.755.414c2.184-1.945,2.86-5.127,3.876-7.785a78.539,78.539,0,0,1,3.766-7.448,1.565,1.565,0,0,0-2.416-1.922" transform="translate(104.707 240.876)" fill="#f5f5f5"/>
        <path id="패스_5081" data-name="패스 5081" d="M60.771,123.283a1.17,1.17,0,0,0-1.925-1.329c-4.427,4.868-10.627,12.987-9.379,19.991a1.408,1.408,0,0,0,2.541.459c2.211-2.705,2.717-6.56,3.983-9.766a54.681,54.681,0,0,1,4.779-9.355" transform="translate(97.588 240.507)" fill="#f5f5f5"/>
        <path id="패스_5082" data-name="패스 5082" d="M50.86,136.513a40.1,40.1,0,0,1,4.32-11.089,1.329,1.329,0,0,0-2.229-1.445c-4.085,5.533-8.39,13.7-5.917,20.721a1.3,1.3,0,0,0,2.392-.158c.748-2.622.885-5.366,1.433-8.029" transform="translate(91.657 244.237)" fill="#f5f5f5"/>
        <path id="패스_5083" data-name="패스 5083" d="M47.646,136.63a22.652,22.652,0,0,1-.11-7.314c.206-1.6-2.461-2.062-2.786-.477a28.6,28.6,0,0,0-.581,7.469c.137,2.422.405,5.533,2.285,7.255a1.342,1.342,0,0,0,2.318-.8c.212-2.094-.721-4.1-1.126-6.134" transform="translate(87.339 253.07)" fill="#f5f5f5"/>
        <path id="패스_5084" data-name="패스 5084" d="M48.347,125.967a18.224,18.224,0,0,0-6.063,6.489c-1.826,3.355-4.189,8.89-1.978,12.522a1.258,1.258,0,0,0,2.139.158c1.713-2,1.868-4.993,2.658-7.436a27.939,27.939,0,0,1,5.011-9.742,1.332,1.332,0,0,0-1.767-1.99" transform="translate(78.008 248.747)" fill="#f5f5f5"/>
        <path id="패스_5085" data-name="패스 5085" d="M41.467,139.072c.59-3.507,1.421-6.974,2.312-10.407.259-1.007-1.081-2.023-1.743-.965-3.307,5.246-6.718,13.279-4.871,19.544a1.406,1.406,0,0,0,2.7.128c1.031-2.649,1.132-5.509,1.606-8.3" transform="translate(72.53 251.868)" fill="#f5f5f5"/>
        <path id="패스_5086" data-name="패스 5086" d="M37.611,139.45a30.414,30.414,0,0,1-.006-5.363c.191-1.978-2.8-2-3.045-.08a29.948,29.948,0,0,0-.191,4.82c.054,1.823-.018,3.536,1,5.109.527.813,1.668.352,1.993-.355.638-1.37.375-2.675.253-4.132" transform="translate(67.984 262.427)" fill="#f5f5f5"/>
        <path id="패스_5087" data-name="패스 5087" d="M68.858,102.939c-3.608,3.667-10.311,10.967-8.831,16.63a1.244,1.244,0,0,0,2.011.718c2.1-1.582,2.884-4.323,4.028-6.614a46.275,46.275,0,0,1,5.5-8.214,1.85,1.85,0,0,0-2.705-2.52" transform="translate(118.396 202.587)" fill="#f5f5f5"/>
        <path id="패스_5088" data-name="패스 5088" d="M67.728,102.754c-5.357,4.031-13.562,11.363-12.576,18.862a1.114,1.114,0,0,0,1.785.685c3.042-2.053,4.448-5.851,6.325-8.869a48.14,48.14,0,0,1,6.4-8.113c1.227-1.269-.426-3.7-1.931-2.565" transform="translate(109.001 202.799)" fill="#f5f5f5"/>
        <path id="패스_5089" data-name="패스 5089" d="M64.432,103.354a17.682,17.682,0,0,0-8.783,6c-2.4,2.744-5.61,7.189-4.546,10.982a1.834,1.834,0,0,0,2.69,1.034c2.422-1.645,3.236-4.782,4.725-7.228a24.169,24.169,0,0,1,7.323-7.55,1.787,1.787,0,0,0-1.409-3.238" transform="translate(100.731 204.409)" fill="#f5f5f5"/>
        <path id="패스_5090" data-name="패스 5090" d="M57.207,103.161c-4.481,3.11-10.979,10.174-9.355,16.154a1.9,1.9,0,0,0,3.185.718c1.9-2.035,2.663-5.16,4.007-7.588a44.769,44.769,0,0,1,4.6-6.376c1.317-1.618-.6-4.186-2.44-2.908" transform="translate(94.209 203.503)" fill="#f5f5f5"/>
        <path id="패스_5091" data-name="패스 5091" d="M49.119,103.867a1.046,1.046,0,0,0-1.677-.93c-4.5,3.483-8.238,11.22-7.082,16.913a1.113,1.113,0,0,0,1.99.465,23.686,23.686,0,0,0,3.468-7.019c1.126-3.113,2.771-6.158,3.3-9.429" transform="translate(79.464 203.327)" fill="#f5f5f5"/>
        <path id="패스_5092" data-name="패스 5092" d="M46.413,102.057c-3.259,1.677-5.291,5.175-7.183,8.2-1.847,2.944-5.145,7.749-2.616,11a1.3,1.3,0,0,0,1.284.426c2.66-.7,3.34-3.149,4.347-5.515,1.805-4.248,4.922-8.017,6.468-12.293.489-1.362-1.165-2.4-2.3-1.811" transform="translate(70.652 201.667)" fill="#f5f5f5"/>
        <path id="패스_5093" data-name="패스 5093" d="M42.476,101.3c-5.8,3.745-11.64,10.9-10.1,18.257a1.7,1.7,0,0,0,3.1.39c1.5-2.532,2.163-5.4,3.346-8.092a27.7,27.7,0,0,1,5.8-7.836c1.385-1.391-.477-3.8-2.148-2.72" transform="translate(63.583 199.959)" fill="#f5f5f5"/>
        <path id="패스_5094" data-name="패스 5094" d="M37.327,103.566c.578-1.576-1.788-2.562-2.643-1.186a44,44,0,0,0-3.635,7.058c-.8,2.02-1.782,4.35-1.159,6.534a1.187,1.187,0,0,0,1.9.7c1.752-1.385,2.24-3.45,3.009-5.479.95-2.5,1.591-5.112,2.526-7.627" transform="translate(58.77 201.344)" fill="#f5f5f5"/>
        <path id="패스_5095" data-name="패스 5095" d="M35.54,99.86a27.1,27.1,0,0,0-8.884,8.133c-1.928,2.833-4.2,6.665-2.941,10.1a1.373,1.373,0,0,0,2.127.411c2.276-2.047,2.9-5.6,4.4-8.253a28.691,28.691,0,0,1,7.019-7.987c1.311-1.064-.286-3.262-1.719-2.4" transform="translate(46.218 197.268)" fill="#f5f5f5"/>
        <path id="패스_5096" data-name="패스 5096" d="M34.072,99.618c-6.837,3.346-15.653,11.271-14.962,19.708.1,1.138,1.478,2.142,2.452,1.114,2.806-2.947,4.1-6.852,6.411-10.177a50.772,50.772,0,0,1,7.421-8.592,1.237,1.237,0,0,0-1.323-2.053" transform="translate(37.749 196.913)" fill="#f5f5f5"/>
        <path id="패스_5097" data-name="패스 5097" d="M24.259,101.68a47.1,47.1,0,0,0-5.13,7.639c-1.415,2.684-3.6,6.209-2.69,9.31a1.252,1.252,0,0,0,2.017.712c2.273-1.645,2.777-4.674,3.846-7.156a54.575,54.575,0,0,1,4.624-8.491c1.046-1.582-1.472-3.492-2.666-2.014" transform="translate(32.107 200.203)" fill="#f5f5f5"/>
        <path id="패스_5098" data-name="패스 5098" d="M16.591,105.7c-.989,1.683-1.931,3.381-2.8,5.136-.885,1.791-2.121,3.721-1.332,5.7a1.2,1.2,0,0,0,1.594.593c1.746-.956,2.014-2.881,2.78-4.612.787-1.779,1.7-3.486,2.64-5.187a1.654,1.654,0,0,0-2.878-1.627" transform="translate(24.154 207.609)" fill="#f5f5f5"/>
        <path id="패스_5099" data-name="패스 5099" d="M69.936,89.133c-3.492,1-6.355,3.268-9.108,5.577-2.538,2.13-5.95,5.068-5.661,8.643a1,1,0,0,0,1.126.861c2.839-.67,4.725-3.539,6.605-5.6,2.47-2.705,5.607-4.627,8.136-7.231.81-.843.253-2.64-1.1-2.249" transform="translate(109.158 176.313)" fill="#f5f5f5"/>
        <path id="패스_5100" data-name="패스 5100" d="M66.1,88.249a34.865,34.865,0,0,0-8.67,3.885c-2.306,1.418-5.339,3.813-5.5,6.7a1.7,1.7,0,0,0,2.118,1.624c2.345-.572,4.394-3.072,6.331-4.5A27.064,27.064,0,0,1,67.6,92.325c2.678-.939,1.162-4.853-1.5-4.076" transform="translate(102.775 174.47)" fill="#f5f5f5"/>
        <path id="패스_5101" data-name="패스 5101" d="M66.247,86.351a23.807,23.807,0,0,0-11,2.52c-2.944,1.493-6.572,3.644-6.933,7.243a1.607,1.607,0,0,0,1.972,1.564c2.839-.48,4.978-3.191,7.314-4.716A22.984,22.984,0,0,1,66.664,89.6c1.9-.283,1.406-3.241-.417-3.247" transform="translate(95.609 170.914)" fill="#f5f5f5"/>
        <path id="패스_5102" data-name="패스 5102" d="M61.071,84.835c-5.065-.092-13.008,2.681-14.467,8.235a1.609,1.609,0,0,0,2.306,1.817c1.847-.894,3.379-2.658,4.987-3.939a24.661,24.661,0,0,1,7.654-3.65c1.248-.423.751-2.44-.48-2.464" transform="translate(92.13 167.91)" fill="#f5f5f5"/>
        <path id="패스_5103" data-name="패스 5103" d="M52.574,81.791a22.371,22.371,0,0,0-7.737,2.771,14.256,14.256,0,0,0-3.289,2.911,8.659,8.659,0,0,0-1.943,4.04c-.5,1.77,1.612,2.58,2.827,1.6,3.73-2.973,6.218-7.124,10.693-9.352,1.016-.5.652-2.184-.551-1.972" transform="translate(78.243 161.852)" fill="#f5f5f5"/>
        <path id="패스_5104" data-name="패스 5104" d="M52.8,80.231A17.337,17.337,0,0,0,43.49,82.6c-2.741,1.415-5.95,3.423-6.751,6.587a1.636,1.636,0,0,0,1.969,1.993c2.655-.831,4.371-3.11,6.578-4.71a37.926,37.926,0,0,1,7.946-3.888,1.243,1.243,0,0,0-.429-2.348" transform="translate(72.625 158.723)" fill="#f5f5f5"/>
        <path id="패스_5105" data-name="패스 5105" d="M50.279,76.971a30.158,30.158,0,0,0-9.966,4.174c-2.136,1.394-5.5,3.563-5.434,6.441A1.418,1.418,0,0,0,36.2,89.049c2.756.086,4.952-2.529,6.966-4.126,2.592-2.056,5.306-4.061,8.086-5.851,1.019-.655.125-2.348-.977-2.1" transform="translate(69.033 152.3)" fill="#f5f5f5"/>
        <path id="패스_5106" data-name="패스 5106" d="M48.545,74.963c-3.373-.241-6.349,1.311-9.179,2.961-2.9,1.686-6.9,5-6.975,8.589a1.437,1.437,0,0,0,1.728,1.448c2.872-.93,4.946-3.954,7.21-5.866,2.41-2.038,5.336-3.325,7.657-5.455.554-.5.447-1.615-.441-1.677" transform="translate(64.111 148.323)" fill="#f5f5f5"/>
        <path id="패스_5107" data-name="패스 5107" d="M46.712,73.279c-6.474.509-15.653,4.225-16.27,11.783a1.047,1.047,0,0,0,1.674.93c2.226-1.46,3.784-3.53,5.807-5.229A22.461,22.461,0,0,1,46.956,76.1c1.508-.372,1.427-2.947-.244-2.821" transform="translate(60.244 145.032)" fill="#f5f5f5"/>
        <path id="패스_5108" data-name="패스 5108" d="M36.076,69.5c-5.464,1.677-11.128,8.512-12.725,13.818-.358,1.2,1.174,2.392,2.145,1.412A84.057,84.057,0,0,0,31.226,77.5c1.865-2.357,4.317-4.383,5.7-7.07a.688.688,0,0,0-.846-.93" transform="translate(46.114 137.5)" fill="#f5f5f5"/>
        <path id="패스_5109" data-name="패스 5109" d="M33.8,68.545C28.15,71.4,17.428,79.518,19.838,87.023c.247.775,1.2.766,1.755.411,2.306-1.49,3.34-4.686,4.654-7.022A30.084,30.084,0,0,1,35.119,70.6c1.144-.816-.1-2.66-1.323-2.053" transform="translate(38.577 135.432)" fill="#f5f5f5"/>
        <path id="패스_5110" data-name="패스 5110" d="M27.527,69.84c-4.475,3.813-11.169,9.647-11.852,15.895A1.31,1.31,0,0,0,17.824,86.8c1.9-1.329,3.033-3.533,4.3-5.44A66,66,0,0,1,29.4,71.9a1.393,1.393,0,0,0-1.874-2.059" transform="translate(31.01 137.513)" fill="#f5f5f5"/>
        <path id="패스_5111" data-name="패스 5111" d="M23.766,71.423q-3.808,4.277-7.618,8.548c-2.035,2.291-4.058,4.68-4.752,7.713a.851.851,0,0,0,1.135.918c2.857-1.189,4.88-3.56,6.793-5.926q3.539-4.38,7.085-8.768c1.454-1.794-1.073-4.248-2.643-2.485" transform="translate(22.52 140.163)" fill="#f5f5f5"/>
        <path id="패스_5112" data-name="패스 5112" d="M18.41,72.873c-3.825,3.793-8.58,8.294-10.264,13.517a.95.95,0,0,0,1.442,1.1c4.707-2.705,7.746-8.25,11.461-12.126,1.627-1.692-.98-4.132-2.64-2.494" transform="translate(16.007 143.164)" fill="#f5f5f5"/>
        <path id="패스_5113" data-name="패스 5113" d="M71.667,75.384c-4.174,1.659-9.933,4.895-11.151,9.6-.325,1.245,1.1,2.6,2.3,1.811,1.737-1.141,2.875-2.908,4.278-4.4a33.626,33.626,0,0,1,5.851-5c1.192-.778-.086-2.476-1.275-2.008" transform="translate(119.684 149.049)" fill="#f5f5f5"/>
        <path id="패스_5114" data-name="패스 5114" d="M72.713,73.931a21.785,21.785,0,0,0-9.346,3.018c-2.187,1.344-5.547,3.563-5.53,6.414A1.279,1.279,0,0,0,59.33,84.7c2.47-.462,4.272-2.97,6.316-4.344A45.2,45.2,0,0,1,73.422,76.2c1.314-.536.584-2.407-.709-2.267" transform="translate(114.476 146.316)" fill="#f5f5f5"/>
        <path id="패스_5115" data-name="패스 5115" d="M70.066,71.966c-4.823.751-12.739,2.27-14.5,7.588-.429,1.3.891,2.184,2.017,2.017,2.4-.346,4.445-2.217,6.548-3.3a31.116,31.116,0,0,1,6.706-2.392c2.2-.557,1.484-4.269-.769-3.909" transform="translate(109.811 142.394)" fill="#f5f5f5"/>
        <path id="패스_5116" data-name="패스 5116" d="M68.562,69.482a17.919,17.919,0,0,0-13.913,5.553A2.621,2.621,0,0,0,58,79.06c3.632-2.476,7.043-5.22,10.988-7.237a1.239,1.239,0,0,0-.429-2.342" transform="translate(106.504 137.481)" fill="#f5f5f5"/>
        <path id="패스_5117" data-name="패스 5117" d="M67.615,68.646c-2.795-.8-5.58-1.457-8.494-.867-2.663.542-5.914,1.448-6.772,4.314a1.689,1.689,0,0,0,1.213,2.05c2.234.518,4.1-.8,6.14-1.534a20.437,20.437,0,0,1,7.412-1.57c1.353.057,1.895-1.99.5-2.392" transform="translate(103.492 133.705)" fill="#f5f5f5"/>
        <path id="패스_5118" data-name="패스 5118" d="M54.838,60.825c-2.97,1.931-6.84,4.126-8.393,7.424a1.3,1.3,0,0,0,1.478,1.686c3.349-.962,5.825-4.18,8.554-6.239,1.648-1.239.194-4.058-1.639-2.872" transform="translate(91.746 119.827)" fill="#f5f5f5"/>
        <path id="패스_5119" data-name="패스 5119" d="M53.469,58.372c-1.6,1.239-3.218,2.47-4.823,3.7-1.484,1.138-3.036,2.2-3.647,4.016a1.512,1.512,0,0,0,1.767,1.877c1.829-.319,3.075-1.737,4.394-2.95,1.552-1.421,3.063-2.884,4.591-4.338,1.552-1.475-.673-3.548-2.282-2.306" transform="translate(88.918 114.782)" fill="#f5f5f5"/>
        <path id="패스_5120" data-name="패스 5120" d="M54.871,56.261c-4.055,1.281-8.2,3.075-11.369,5.968a2.4,2.4,0,0,0,2.92,3.808c3.468-2.285,6.179-5.524,9.5-8.014,1-.742.006-2.1-1.055-1.761" transform="translate(84.369 111.253)" fill="#f5f5f5"/>
        <path id="패스_5121" data-name="패스 5121" d="M51.2,54.682a33.407,33.407,0,0,0-10.183,6c-1.972,1.642.232,5.017,2.211,3.358,2.887-2.425,5.732-4.788,9.251-6.265,1.764-.736.512-3.721-1.278-3.09" transform="translate(79.661 108.059)" fill="#f5f5f5"/>
        <path id="패스_5122" data-name="패스 5122" d="M53.874,51.83c-5.3,1.332-11.2,3.316-15,7.451-1.993,2.172,1.3,4.728,3.435,3.373,4.213-2.655,7.877-6.14,12.179-8.729.977-.587.712-2.434-.611-2.094" transform="translate(75.714 102.506)" fill="#f5f5f5"/>
        <path id="패스_5123" data-name="패스 5123" d="M48.894,49.714a19.736,19.736,0,0,0-7.266,2.941c-1.99,1.2-4.454,3.164-4.108,5.708a1.492,1.492,0,0,0,1.093,1.132c2.258.372,3.7-1.365,5.3-2.687A76.634,76.634,0,0,1,50.035,52c1.18-.79.039-2.479-1.141-2.291" transform="translate(74.196 98.369)" fill="#f5f5f5"/>
        <path id="패스_5124" data-name="패스 5124" d="M40.911,45.85a17.26,17.26,0,0,0-6.849,4.418c-1.707,1.844-4.2,5.05-3.352,7.663a1.548,1.548,0,0,0,2.2,1c1.9-1.189,2.535-3.519,3.876-5.255a27.288,27.288,0,0,1,5.693-5.544c1.388-.983-.226-2.774-1.567-2.279" transform="translate(60.442 90.583)" fill="#f5f5f5"/>
        <path id="패스_5125" data-name="패스 5125" d="M41.874,45.114A26.756,26.756,0,0,0,31.05,51.886c-2.1,2.187-5.485,5.959-4.165,9.2a.933.933,0,0,0,.986.581c3.17-.581,4.928-4.615,6.894-6.909a47.371,47.371,0,0,1,8.342-7.687c1.141-.81-.071-2.363-1.233-1.954" transform="translate(52.626 89.16)" fill="#f5f5f5"/>
        <path id="패스_5126" data-name="패스 5126" d="M38.888,45.6a42.555,42.555,0,0,0-11.479,7.213c-2.538,2.217-5.965,5.482-5.878,9.111.015.864.9,1.752,1.8,1.227,2.663-1.54,4.15-4.567,6.206-6.8a48.027,48.027,0,0,1,10.657-8.2,1.432,1.432,0,0,0-1.3-2.547" transform="translate(42.613 89.989)" fill="#f5f5f5"/>
        <path id="패스_5127" data-name="패스 5127" d="M31.419,46.672a63.445,63.445,0,0,0-8.738,7.249c-2.035,2.047-4.272,4.275-4.52,7.264a1.213,1.213,0,0,0,1.7,1.192c2.687-.935,4.356-3.623,6.146-5.7a78.872,78.872,0,0,1,7.341-7.427c1.356-1.21-.423-3.623-1.928-2.574" transform="translate(35.937 91.868)" fill="#f5f5f5"/>
        <path id="패스_5128" data-name="패스 5128" d="M20.67,50.6c-2.133,2.431-4.847,5.36-5.884,8.446-.28.834.59,1.889,1.475,1.394,2.97-1.642,4.609-5.419,6.647-8.008,1.01-1.287-1.159-3.066-2.237-1.832" transform="translate(29.159 99.337)" fill="#f5f5f5"/>
        <path id="패스_5129" data-name="패스 5129" d="M153.417,87.347c-12.093-10.669-31.038-17.682-46.736-20.256-1.174-.2-1.49,1.472-.492,1.931,6.51,3,13.168,5.711,19.741,8.583,8.765,3.834,16.928,9.316,25.869,12.638,1.624.6,2.851-1.808,1.618-2.9" transform="translate(208.999 132.76)" fill="#f5f5f5"/>
        <path id="패스_5130" data-name="패스 5130" d="M130.736,85.875c-2.005-4.576-9.361-7.618-13.443-10.01-4.111-2.413-10.955-8.208-15.784-7.961a.067.067,0,0,0,.021-.131c-.39-.128-.876-.214-.727.349.766,2.9,2.732,4.1,5.157,5.807,3.819,2.693,7.916,5.133,11.938,7.5,3.5,2.059,7.564,5.437,11.67,6.093a1.182,1.182,0,0,0,1.168-1.648" transform="translate(199.465 133.955)" fill="#f5f5f5"/>
        <path id="패스_5131" data-name="패스 5131" d="M136.35,88.124c-12-9.79-30.568-20.131-46.125-21-1.1-.06-1.814,1.484-.769,2.121,7.195,4.371,15.576,6.787,23.238,10.285,7.627,3.477,14.762,7.943,22.467,11.235,1.665.715,2.342-1.7,1.189-2.643" transform="translate(176.049 132.859)" fill="#f5f5f5"/>
        <path id="패스_5132" data-name="패스 5132" d="M127.958,80.887c-14.11-6.817-31.1-12.9-46.989-11.542-1.805.152-2.4,2.935-.411,3.322,15.921,3.072,31.044,4.243,46.262,10.6,1.379.575,2.5-1.725,1.138-2.377" transform="translate(156.987 136.875)" fill="#f5f5f5"/>
        <path id="패스_5133" data-name="패스 5133" d="M116.694,209.253c-1.385-5.616-4.275-10.627-5.4-16.359a32.3,32.3,0,0,1-.134-10.46,1.278,1.278,0,0,0,.8-1.347c-.083-.521-.22-1.025-.316-1.537a57.47,57.47,0,0,1,1.725-6.578c.593-1.82-2.252-2.938-3.1-1.242-.092.185-.176.384-.262.56-1.272-4.952-2.768-9.847-4.29-14.742.608-1.034,1.233-2.071,1.9-3.066,1.516-2.291-1.689-5.059-3.352-2.765-.074.1-.155.223-.229.325-.831-2.783-1.624-5.574-2.345-8.4q2.15-2.4,4.433-4.677a1.4,1.4,0,0,0-1.874-2.071c-1.141.968-2.294,2-3.432,3.06-.6-2.643-1.144-5.315-1.522-8.029-.057-.408-.1-.807-.143-1.213q2.829-2.369,5.8-4.52c2.091-1.522-.051-4.812-2.214-3.361-1.3.879-2.678,1.85-4.079,2.887a82.631,82.631,0,0,1-.092-10.085,72.466,72.466,0,0,1,9.963-5.282c1.648-.712.533-3.53-1.156-2.929a81.861,81.861,0,0,0-8.408,3.51q.393-3.513,1.108-6.951c6.057-2.181,12.319-3.763,18.481-5.723,1.376-.438,1.46-2.687-.2-2.693A67.133,67.133,0,0,0,101.6,97.961c.569-1.88,1.233-3.721,1.963-5.55,8.536-1.817,17.274-2.071,25.839-3.584a1.236,1.236,0,0,0-.119-2.44,88.1,88.1,0,0,0-23.069.176,65.987,65.987,0,0,1,3.727-6.37,122.756,122.756,0,0,1,27.2,1.254c1.805.3,2.714-2.419.84-2.8a152.849,152.849,0,0,0-24.66-3.075c.28-.358.545-.718.831-1.073.944-1.132-.891-2.693-1.931-1.7-.924.891-1.808,1.791-2.646,2.705-10.338-.006-20.6,1.513-29.668,5.711a1.176,1.176,0,0,0,.676,2.22c8.562-1.147,16.723-2.267,24.853-2.926a55.7,55.7,0,0,0-4.353,6.849c-12.465,2.294-24.683,6.972-32.418,14.253-1.007.941-.122,2.926,1.317,2.485,4.448-1.344,8.676-3.012,12.888-4.7-.59,2.294-1.067,4.657-1.445,7.067-6.563,4.064-12.007,9.191-14.9,15.242-.465.968.8,2.005,1.686,1.525a109.026,109.026,0,0,0,12.334-8.354c-.158,2.908-.191,5.842-.057,8.8A54.313,54.313,0,0,0,73,132.735a67.229,67.229,0,0,1-1.773-8.1c-.241-1.612-2.538-1.111-2.425.432a91.582,91.582,0,0,0,1.677,11.971c-.28.536-.6,1.052-.852,1.6-.581,1.23.652,2.723,1.776,2.348a58.1,58.1,0,0,0,4.168,11.092,26,26,0,0,0-2.184,11.184,1.243,1.243,0,0,0,2.252.781,52.811,52.811,0,0,0,3.4-6.042,40.685,40.685,0,0,0,3.057,3.837,1.592,1.592,0,0,0,2.461-.036,34.161,34.161,0,0,0-2.988,18.1,1.208,1.208,0,0,0,2.312.206c2.321-5.9,3.462-12.141,5.863-18.034.25-.617.545-1.219.825-1.823a58.829,58.829,0,0,0,5.154,7.669c-2.92,8.387-3.691,17.423.295,25.121a1.471,1.471,0,0,0,2.753-.62c.587-5.452-.161-10.916.438-16.422a41.081,41.081,0,0,1,2.369-9.772,78.807,78.807,0,0,0,5.926,12.322c-3.587,11.214-3.53,25.008,5.953,32.856a2.026,2.026,0,0,0,3.233-2.148m-23.17-90.147c-.027,1.466-.036,2.941-.006,4.433.039,1.943.137,3.959.277,6.012a91.894,91.894,0,0,0-6.9,6.358,78.538,78.538,0,0,1-2.026-9.31,93.417,93.417,0,0,1,8.652-7.493M85.612,98.328c4.091-1.627,8.2-3.23,12.51-4.5q-1.095,2.82-1.919,5.759A75.1,75.1,0,0,0,84.59,104.62c.256-2.1.608-4.2,1.022-6.292m-1.591,14.047a65.711,65.711,0,0,1,7.856-4.88q1.412-.724,2.851-1.356c-.429,2.461-.733,4.984-.933,7.55a71.245,71.245,0,0,0-9.6,6.683,78.636,78.636,0,0,1-.179-8m-9.474,25.264c2.163-2.5,4.323-4.937,6.531-7.255a89.3,89.3,0,0,0,1.788,9.987,54.671,54.671,0,0,0-4.54,6.349,96.566,96.566,0,0,1-3.778-9.081m10.621,22.836a1.816,1.816,0,0,0-.2-1.025c-1.213-2.2-2.377-4.359-3.513-6.519a68.8,68.8,0,0,1,3.235-6.1A76.322,76.322,0,0,0,88,155.25a52.2,52.2,0,0,0-2.83,5.226m6.721-10.8c-1.171-2.738-2.285-5.506-3.289-8.315a69.427,69.427,0,0,1,5.687-6.265c.361,3.265.852,6.611,1.469,9.978q-2.011,2.212-3.867,4.6m5.723,13.538c-1.183-3.051-2.473-6.06-3.784-9.069.906-1.478,1.853-2.932,2.875-4.338.739,3.331,1.618,6.641,2.625,9.882-.608,1.147-1.18,2.336-1.716,3.525" transform="translate(131.483 143.469)" fill="#f5f5f5"/>
        <path id="패스_5134" data-name="패스 5134" d="M97.553,146.085c-.971-5.109-3.989-9.656-5.363-14.7a44.347,44.347,0,0,1-.775-18.606c.45-2.854-3.668-3.39-4.356-.676-2.741,10.794-3.1,29.242,8.116,35.784a1.636,1.636,0,0,0,2.377-1.805" transform="translate(169.13 218.378)" fill="#f5f5f5"/>
        <path id="패스_5135" data-name="패스 5135" d="M104.137,138.122c-1.388-2.863-4.317-4.972-5.893-7.859A20.31,20.31,0,0,1,96.152,119c.2-3.018-4.308-3.638-4.7-.587a26.942,26.942,0,0,0,1.493,13.559c1.4,3.587,5.187,8.369,9.179,9.039a1.936,1.936,0,0,0,2.014-2.893" transform="translate(180.478 230.414)" fill="#f5f5f5"/>
        <path id="패스_5136" data-name="패스 5136" d="M112.734,141.763c-1.391-3.23-4.332-5.333-6.337-8.139a20.57,20.57,0,0,1-3.623-10.189c-.331-3.8-6.331-3.891-5.968-.066.715,7.484,5.6,20.638,15.031,20.128a1.238,1.238,0,0,0,.9-1.734" transform="translate(191.577 238.585)" fill="#f5f5f5"/>
        <path id="패스_5137" data-name="패스 5137" d="M111.551,134.683a3.421,3.421,0,0,0-.685-1.612c-.575-.661-1.058-1.373-1.57-2.068a15.8,15.8,0,0,1-2.234-4.969c-.718-2.452-4.737-1.457-4.32,1.034.632,3.676,2.345,10.165,6.933,10.347a2.118,2.118,0,0,0,1.931-2.294c.167,1.347-.027-.194-.054-.438" transform="translate(203.295 246.663)" fill="#f5f5f5"/>
      </g>
    </g>
  </g>
</svg>
