<svg id="img-sec1-wording" xmlns="http://www.w3.org/2000/svg" xmlns:xlink="http://www.w3.org/1999/xlink" width="238.224" height="1081.081" viewBox="0 0 238.224 1081.081">
  <defs>
    <clipPath id="clip-path">
      <rect id="사각형_2579" data-name="사각형 2579" width="238.224" height="1081.081" fill="none"/>
    </clipPath>
  </defs>
  <g id="그룹_5802" data-name="그룹 5802" transform="translate(0)" clip-path="url(#clip-path)">
    <path id="패스_5142" data-name="패스 5142" d="M86.5,49.633H74.209c0,63.105.238,79.41,17.721,102.337L62.624,185.056l-8.5-8.98c-8.5,13.234-14.175,20.792-25.29,30.015L0,177.492c29.782-34.739,32.145-53.174,32.145-125.967V49.633H13.477V7.093H86.5Zm7.1-42.54H165.2v42.54H147.472v1.422c0,59.553,0,87.919,25.052,118.636V0h44.9V79.177h20.8v47.265h-20.8v90.99h-44.9V179.855l-23.165,29.306c-9.45-8.033-16.3-17.251-22.446-27.176-8.033,14.651-16.078,25.046-31.431,36.632L68.533,190.964c37.113-36.4,37.578-46.563,37.578-141.331H93.6Z" fill="#1a1311"/>
    <path id="패스_5143" data-name="패스 5143" d="M134.638,184.42H103.915c-14.18,35.453-38.518,62.629-76.1,83.9L.875,232.161C55,197.184,69.413,164.807,70.359,107.616H11.509V60.345H119.036V91.068a347.652,347.652,0,0,1-3.065,46.087h18.667v-83.9H173.87V270.685H134.638ZM183.325,53.252h39.7V270.685h-39.7Z" transform="translate(3.855 234.633)" fill="#1a1311"/>
    <path id="패스_5144" data-name="패스 5144" d="M86.5,156.137H74.209c0,63.105.238,79.41,17.721,102.337L62.624,291.56l-8.5-8.979c-8.5,13.234-14.175,20.792-25.29,30.015L0,284c29.782-34.739,32.145-53.174,32.145-125.967v-1.892H13.477V113.6H86.5Zm7.1-42.54H165.2v42.54H147.472v1.422c0,59.553,0,87.919,25.052,118.636V106.5h44.9v79.177h20.8v47.265h-20.8v90.99h-44.9V286.359l-23.165,29.306c-9.45-8.034-16.3-17.251-22.446-27.176-8.033,14.65-16.078,25.046-31.431,36.632L68.533,297.468c37.113-36.4,37.578-46.563,37.578-141.331H93.6Z" transform="translate(0 469.265)" fill="#1a1311"/>
    <path id="패스_5145" data-name="패스 5145" d="M134.638,290.923H103.915c-14.18,35.453-38.518,62.629-76.1,83.9L.875,338.664C55,303.686,69.413,271.31,70.359,214.119H11.509V166.848H119.036v30.723a347.651,347.651,0,0,1-3.065,46.087h18.667v-83.9H173.87V377.188H134.638Zm48.687-131.168h39.7V377.188h-39.7Z" transform="translate(3.855 703.893)" fill="#1a1311"/>
  </g>
</svg>
