<svg xmlns="http://www.w3.org/2000/svg" xmlns:xlink="http://www.w3.org/1999/xlink" width="1000" height="346" viewBox="0 0 1000 346">
  <defs>
    <clipPath id="clip-path">
      <rect id="사각형_2588" data-name="사각형 2588" width="1000" height="346" transform="translate(-26 9112)" fill="#f8f8f8" stroke="#707070" stroke-width="1"/>
    </clipPath>
  </defs>
  <g id="img-sec10-crowdfunding" transform="translate(26 -9112)" opacity="0.74" clip-path="url(#clip-path)">
    <path id="패스_5146" data-name="패스 5146" d="M157.832-100.062c-1.09-37.5-37.5-58.86-71.068-58.86-47.088,0-77.608,35.97-77.608,81.1s30.52,81.1,77.608,81.1c39.458,0,68.888-23.544,71.068-63.656H117.284C115.758-42.51,104.858-31.61,85.892-31.61,59.732-31.61,49.7-54.718,49.7-77.826s10.028-46.216,36.188-46.216c17,0,29.212,8.284,31.392,23.98ZM179.414,0h40.548V-56.68H250.7c18.966,0,21.582,16.132,22.672,31.828.436,4.36,1.09,19.62,4.578,24.852h40.112c-5.45-5.668-6.1-28.558-6.54-35.1-1.308-14.824-6.1-33.354-22.672-37.278v-.436c16.35-6.322,24.416-22.236,24.416-39.022,0-31.392-27.032-43.818-54.5-43.818H179.414Zm40.548-123.17h32.264c11.336,0,20.492,5.232,20.492,16.786,0,11.772-6.54,18.312-18.748,18.312H219.962ZM330.924-77.826c0,45.126,27.686,81.1,76.736,81.1S484.4-32.7,484.4-77.826s-27.686-81.1-76.736-81.1S330.924-122.952,330.924-77.826Zm40.548,0c0-23.108,10.028-46.216,36.188-46.216s36.188,23.108,36.188,46.216S433.82-31.61,407.66-31.61,371.472-54.718,371.472-77.826ZM702.4-155.652H661.848L639.83-41.856h-.436l-22.89-113.8h-38.15l-22.89,113.8h-.436l-22.018-113.8H492.462L534.536,0h41.2L597.1-107.256h.436L618.9,0H659.45ZM716.348,0h66.926c47.306,0,76.3-27.468,76.3-78.48,0-48.178-28.558-77.172-76.3-77.172H716.348ZM756.9-120.772H776.08c27.686,0,42.946,13.734,42.946,42.074,0,31.174-12.208,43.164-42.946,43.818H756.9ZM13.952,195H54.5V135.05h64.092V103.658H54.5V71.83h74.12V39.348H13.952Zm267.7-155.652H241.108v93.74c0,20.056-7.412,30.3-27.25,30.3s-27.25-10.246-27.25-30.3V39.348H146.06V130.69c0,45.126,20.71,67.58,67.8,67.58s67.8-22.454,67.8-67.58ZM308.252,195H346.4V97.99h.436L400.9,195H442.54V39.348H404.39v95.92h-.436L349.89,39.348H308.252Zm161.974,0h66.926c47.306,0,76.3-27.468,76.3-78.48,0-48.178-28.558-77.172-76.3-77.172H470.226ZM510.774,74.228h19.184c27.686,0,42.946,13.734,42.946,42.074,0,31.174-12.208,43.164-42.946,43.818H510.774ZM635.688,195h40.548V39.348H635.688Zm68.234,0h38.15V97.99h.436L796.572,195H838.21V39.348H800.06v95.92h-.436L745.56,39.348H703.922Zm305.636-85.238h-65.4v30.084H972.5c-2.18,14.17-15.7,23.544-35.752,23.544-26.16,0-36.188-23.108-36.188-46.216s10.028-46.216,36.188-46.216c16.35,0,29.43,8.066,30.738,21.364h40.548c-3.706-39.022-38.15-56.244-70.414-56.244-47.088,0-77.608,35.97-77.608,81.1s30.52,81.1,77.608,81.1c14.388,0,32.7-5.232,43.382-20.274l2.4,17h26.16Z" transform="translate(-35.558 9270.624)" fill="#f8f8f8" style="mix-blend-mode: multiply;isolation: isolate"/>
  </g>
</svg>
