<svg xmlns="http://www.w3.org/2000/svg" xmlns:xlink="http://www.w3.org/1999/xlink" width="56.715" height="34.456" viewBox="0 0 56.715 34.456">
  <defs>
    <clipPath id="clip-path">
      <rect id="사각형_2623" data-name="사각형 2623" width="24.627" height="34.456" fill="#eee"/>
    </clipPath>
  </defs>
  <g id="img-sec2-mark2" transform="translate(56.715 34.456) rotate(180)">
    <g id="그룹_5832" data-name="그룹 5832" transform="translate(0 0)">
      <g id="그룹_5831" data-name="그룹 5831" transform="translate(0 0)" clip-path="url(#clip-path)">
        <path id="패스_5797" data-name="패스 5797" d="M12.367,10.8c-.186,0-.36.045-.543.052l.015-.052S13.281,2.98,20.274,0A21.769,21.769,0,0,0,4.024,8.644S-.77,15.084.107,22.627A12.049,12.049,0,0,0,12.367,34.456,12.049,12.049,0,0,0,24.626,22.627,12.049,12.049,0,0,0,12.367,10.8" transform="translate(0.001 0)" fill="#eee"/>
      </g>
    </g>
    <g id="그룹_5833" data-name="그룹 5833" transform="translate(32.088 0)">
      <g id="그룹_5831-2" data-name="그룹 5831" transform="translate(0 0)" clip-path="url(#clip-path)">
        <path id="패스_5797-2" data-name="패스 5797" d="M12.367,10.8c-.186,0-.36.045-.543.052l.015-.052S13.281,2.98,20.274,0A21.769,21.769,0,0,0,4.024,8.644S-.77,15.084.107,22.627A12.049,12.049,0,0,0,12.367,34.456,12.049,12.049,0,0,0,24.626,22.627,12.049,12.049,0,0,0,12.367,10.8" transform="translate(0.001 0)" fill="#eee"/>
      </g>
    </g>
  </g>
</svg>
