<svg xmlns="http://www.w3.org/2000/svg" xmlns:xlink="http://www.w3.org/1999/xlink" width="381" height="221" viewBox="0 0 381 221">
  <defs>
    <clipPath id="clip-path">
      <rect id="사각형_2610" data-name="사각형 2610" width="381" height="221" transform="translate(11 32.968)" fill="#fff" stroke="#707070" stroke-width="1"/>
    </clipPath>
    <clipPath id="clip-path-2">
      <rect id="사각형_2572" data-name="사각형 2572" width="415.397" height="340.718" fill="#811a20"/>
    </clipPath>
  </defs>
  <g id="img-sec9-crab-R" transform="translate(-11 -32.968)" clip-path="url(#clip-path)">
    <g id="그룹_5816" data-name="그룹 5816" transform="matrix(0.951, -0.309, 0.309, 0.951, -35.343, 101.793)">
      <g id="그룹_5794" data-name="그룹 5794" clip-path="url(#clip-path-2)">
        <path id="패스_4976" data-name="패스 4976" d="M394.973,250.989c-4.226-6.636-15.241-17.576-23.465-12.493a10.618,10.618,0,0,0-5.682-4.648c-10.372-3.684-24.991-.516-35.775,3.472a10.745,10.745,0,0,0-7.788-7.385,40.634,40.634,0,0,0-8.41-1.077,91.3,91.3,0,0,1-9.951-1.271,26.719,26.719,0,0,0,1.133-2.76c4.972,3.554,12.571,2.961,18.353,2.646,5.756-.32,14.03-1.392,17.99-6.041.009-.009.007-.022.013-.034a12.568,12.568,0,0,0,5.294-5.816,152.837,152.837,0,0,0,19.885,2.782c3.451.268,8.419.229,11.731-1.776,7.972,2.825,14.526,4.062,20.191,11.162,3.781,4.746,7.284,8.089,13.439,9.146a2.452,2.452,0,0,0,2.655-2.117c3.511-14.026-4.987-26.38-14.563-35.826-4.482-4.424-13.665-10.758-16.982-3.96a14.506,14.506,0,0,0-8.22-5.71c-8.76-1.929-23.62,3.1-28.97,11.11a10.674,10.674,0,0,0-4.761-3.787c-4-1.614-9.776.166-13.665,1.247-4.888,1.349-9.7,2.331-14.584,3.373.017-1.886-.026-3.742-.19-5.548,12.841-.285,24.81-3.759,35.093-11.569,8.155-6.194,17.558-14.818,17.6-25.861.026-6.914-5.058-11.678-12.135-14.552,1.75-2.46.238-7.055-.237-9.692-.524-2.926-1.181-6.664-3.108-9.159,13.454-17.8,4.726-44.284-6.442-62.362-11.576-18.728-36.021-40.268-59.978-34.2a1.7,1.7,0,0,0-1.99,2.635c8.5,11.8,17.241,21.6,22.08,35.673a54.187,54.187,0,0,1,2.8,17.834c-7.063-6.077-12.672-11.613-17.74-20.375-4.482-7.745-7.5-17.409-13.641-24.041-.265-1.48-2.538-1.536-3.209-.114-5.989,12.774-6.366,28.919-2.546,42.331,3.608,12.687,13.03,28.262,24.345,35.324a3.122,3.122,0,0,0,.281.147c1.547,4.01,7.4,7.838,10.34,9.45a70.431,70.431,0,0,0,9.528,4.387,15.142,15.142,0,0,0-.511,4.692c.039,2.654.369,5.769,2.061,7.9a13.226,13.226,0,0,0-2.171,1.493.842.842,0,0,0-.306.6,8.19,8.19,0,0,0-3.168,5.208,22.823,22.823,0,0,0,.132,7.146c.5,4.681-3.429,8.838-6.034,12.528-5.965-8.757-14.427-16.069-24.059-22.235a9.907,9.907,0,0,0,.324-7.357c-1.351-3.872-4.953-6.517-8.678-7.883-3-1.1-6.779-1.58-9.744-.112a6.163,6.163,0,0,0-3.313,4.062,305.154,305.154,0,0,0-36.692-13.005c-6.153-1.806-12.763-3.524-19.58-4.929-.039-7.575-5.693-12.754-13.3-12.683-5.507.048-11.626,3.861-11.436,9.467-9.9-.419-19.7.378-28.726,3.112a2.5,2.5,0,0,0-.143-1.1c-2.426-6.768.19-13.469,5.2-18.216,2.752-2.6,4.586-4.614,4.73-8.542a8.252,8.252,0,0,0-1.539-5c.438-.362.861-.751,1.282-1.1.885-.734,1.793-1.513,2.732-2.229,8.693,4.588,24.872,2.43,30.183-3.824a1.945,1.945,0,0,0,1.616.062,5.1,5.1,0,0,0,1.455-.958c11.6-.991,23.213-5.467,33.463-10.8,14.012-7.29,17.056-22.63,24.721-35.1.537-.87-.71-1.951-1.427-1.161-13.339,14.735-37.257,19.218-56.467,17.9,3.056-6.833,9.353-11.813,15.391-15.882C221.727,25.5,235.06,24.4,248.216,19.818a1.152,1.152,0,0,0,1.6-1.537,1.3,1.3,0,0,0-1.019-1.183c-.048-.013-.1-.015-.147-.028C236.989,5.871,220.417.277,204.473.007c-14.671-.248-28.308,6.049-40.63,13.417-10.29,6.157-24.169,16.643-27.375,28.966a23.513,23.513,0,0,0,.02,10.823,35.541,35.541,0,0,0-8.279,6.153c-2.109,2.033-4.713,4.5-4.687,7.6a1.055,1.055,0,0,0,.088.326c-4.97-1.4-9.271-.939-11.09,3.759-8.006,5.574-8.842,21.22-8.341,29.635.682,11.528,7.637,29.931,18.94,34.933-.842.969-1.658,1.981-2.46,3.03-6.021-3.246-8.026-12.8-12.621-17.716a12,12,0,0,0-8.989-4.061,3.079,3.079,0,0,0-.347-.934c-4.083-7.059-8.041-14.082-13.52-20.189-2.333-2.607-6.669-7-10.732-7.262a.689.689,0,0,0-.954-.673,30.938,30.938,0,0,0-4.879,2.188C65.33,81.3,58.353,80.353,49.28,82.664c-12.511,3.181-25.586,9.224-31.221,21.579a2.311,2.311,0,0,0,1.146,3c6.04,3.185,13.028,1.373,19.281-.222,6.955-1.776,12.094-3.16,19.022-1.862a13.033,13.033,0,0,0,2.29,7.033c3.257,5,8.88,7.62,13.348,11.306,2.881,2.368,6.941,7.7,11.069,7.2a14.691,14.691,0,0,0,2.136,9.612c5.725,8.768,16.952,13.782,26.271,17.979a28.291,28.291,0,0,0-1.122,6.34c-6.466-4.648-12.97-11.054-21.311-10.974a9.765,9.765,0,0,0-3.788.853,96.679,96.679,0,0,1-8.781-11.36c-2.061-3.2-4.631-6.845-8.05-8.719a14.679,14.679,0,0,0-13.439-.714c.244-7.389-10.719-8.945-17.267-7.2-13.436,3.565-29.1,10.722-38.33,21.331a2.054,2.054,0,0,0,.52,3.2c7.411,3.324,15.137,3.293,23.117,2.92,7.353-.341,14.781,1.254,22.09.639,5.577,9.575,24.093,15.56,32.143,18.238a2.661,2.661,0,0,0,1.265.125c6.068,10.355,25.632,18.1,34.555,14.628a1.524,1.524,0,0,0,.885-1.379c.408,1.181.82,2.367,1.26,3.537-4.087.069-7.92.52-12.107-.069-4.3-.6-8.568-1.5-12.934-1.3a10.265,10.265,0,0,0-6.653,3c-5.044-4.4-14.166-5.261-20.332-5.5a18.322,18.322,0,0,0-8.073,1.3c-.673-4.687-6.595-5.557-11.421-4.329-6.744,1.716-14.056,6.008-19.384,10.465-2.9,2.423-14.55,12.938-8.553,17.25,3.183,2.288,7.433.712,10.864-.259,2.314-.65,4.648-1.28,6.986-1.858,4.087-1.014,9.323,2.2,13.408,3.1a1.93,1.93,0,0,0,2.2-.919,12.322,12.322,0,0,0,5.991,4.7c4.338,1.61,10.216.7,14.759.708,4.359.009,8.4-.378,12.1-2.8a1.155,1.155,0,0,0,.261-.24c3.831,4.383,11.863,5,17.174,4.672,4.374-.28,10.221-.324,15.62-1.3-.259.082-.531.166-.777.25-4.446,1.493-9.183,4.558-10.083,9.314-7.16-2.48-15.392.272-20.713,5.512a17.664,17.664,0,0,0-1.552,1.8c-8.635-5.633-19.716,10.542-22.528,16.777-1.578,3.5-3.062,9.036.335,11.971,1.672,1.446,4.062,1.442,6.112,1.112,5.378-.866,10.609-3.833,15.7-5.65a.635.635,0,0,0-.011-1.167c-5.864-2.46-11.542,2.352-17.358,2.935-4.128.412-1.554-5.469-.721-7.338,2.223-4.994,9.552-16.79,16.5-15.532-3.062,5.807-4.3,13.713.805,17.757a.754.754,0,0,0,1.168-.555,41.633,41.633,0,0,0-.408-6.94c-.291-3.986,1.99-7.825,4.355-10.831,4.953-6.3,12.187-7.007,19.526-5.946a1.41,1.41,0,0,0,.417-.022,1.627,1.627,0,0,0,1.152-.075,2.2,2.2,0,0,0,1.42-1.685c1-10.122,14.9-9.008,22.108-10.814l.006,0a87.967,87.967,0,0,0,8.57,9.319c1.822,1.709,3.753,3.354,5.734,4.966a69.907,69.907,0,0,0-20.452,6.554,53.622,53.622,0,0,1-8.322,3.63c-5.589,1.69-5.745-2.883-7.169-6.787-.265-.721-1.357-1.2-1.916-.46a7.546,7.546,0,0,0-1.8,5.6c-3.7,3.8-5.555,9.576-9.992,12.864-2.786,2.065-6.2,1.9-9.412,1.23-1.809-.373-3.807.073-3.714,2.238a2.188,2.188,0,0,0,1.265,1.8,15.491,15.491,0,0,0,16.676-2.5,34.047,34.047,0,0,0,8.162-11.364,10.672,10.672,0,0,0,7.366,1.263c4.787-.848,9.521-3.278,13.976-5.143,5.935-2.48,12.962-3.112,18.532-6.386,23.472,17.779,56.18,28.837,85.715,27.03-1.493,3.291.093,7.51.945,10.857a38.532,38.532,0,0,0,7.405,14.966,14.689,14.689,0,0,0,13.385,5.372c-1.016,7.851,1.865,17.66,4.892,24.037,1.519,3.22,4.277,6.878,8.071,7.4a8.189,8.189,0,0,0,4.415-.693c-.2,1.865.887,4.223,1.567,5.546,1.7,3.313,4.586,6.366,5.154,10.143a2.365,2.365,0,0,0,3.917,1.429c6.811.887,10.434-13.372,11.123-17.875.854-5.6-.061-19.41-7.946-19.98a17.241,17.241,0,0,0-1.235-6.263c-2.007-4.771-7.346-11.155-13.065-12.752.6-2.631-.222-5.464-1.139-7.955-1.535-4.2-4.333-8.048-6.9-11.669-1.094-1.541-2.946-4.513-4.964-6.1.552-.1,1.088-.227,1.621-.369a10.279,10.279,0,0,0,2.441-.941c1.549,8.619,9.4,17.515,15.61,22.891,3.6,3.119,11.36,5.881,15.711,3.123,2.842,5.913,10.806,11.844,14.681,14.742,2.641,1.981,10.56,6.041,14.282,3.708,1.429,4.826,14.2,7.514,15.868,10.469,1.854,3.3,2.715,7.327,5.887,9.681a3.443,3.443,0,0,0,4.776-.6.75.75,0,0,0,.25,0c4.439-1.053,4.819-7.6,4.968-11.218.24-5.756-1.612-11.945-3.887-17.155-1.74-4-4.545-8.434-8.516-10.517-2.3-1.206-5.49-1.673-7.86-.539-.121-.423-.253-.844-.416-1.263-1.718-4.553-7.2-6.522-11.39-7.836a113.237,113.237,0,0,0-15.1-3.9c1.31-4.139-2.5-7.035-5.76-8.585-4.016-1.906-8.281-3.27-12.359-5.039a19.532,19.532,0,0,1-5.439-3.326,10.8,10.8,0,0,1-2.339-3.69c1-.565,2-1.144,2.97-1.754-.572.553-.926,1.334-.311,1.74,1.85,1.226,2.765,2.5,4.966,3.529a79.561,79.561,0,0,0,10.136,3.539c5.05,1.584,12.5,4.75,17.854,3.023a1.318,1.318,0,0,0,.827-.949,8.939,8.939,0,0,0,2.316-1.25c7.422,5.343,17.081,7.024,26.331,6.759a.9.9,0,0,0,.442,1.364c3.162,1.416,7.419,1.122,10.831-.272a1.051,1.051,0,0,0,.505.114,10.658,10.658,0,0,0,5.181-1.588c3.026,5.946,15.158,7.014,19.883,10.963,2.363,1.981,10.56,11.591,15.113,10.055a4.177,4.177,0,0,0,.253.362c.924,1.064,2.5.5,3.16-.5,5.085-7.732-5.007-24.967-9.075-31.344M48.5,139.735c-2.969,3.621-4.053,6.938-3.822,9.972-5,.274-10.149-.757-15.132-.885-8.166-.2-15.845.87-23.752-.729,6.649-6.61,16.453-10.445,24.935-13.974a52.155,52.155,0,0,1,13.846-3.93c5.376-.634,6.192,2.313,7.16,6.272a23.6,23.6,0,0,0-3.235,3.274m29.344,27.391c.007.205.039.416.058.624a71.094,71.094,0,0,1-21.149-7.9c-10.046-5.9-7.976-18.135,2.126-22.559,11.915-5.21,16.043,13.743,24.585,18.987-3.375,2.678-5.753,6.979-5.62,10.847M35.546,204.9c-2.86.5-5.652,1.342-8.47,2.029a27.9,27.9,0,0,1-5.861.764c-3.062.082-.257-3.276.557-4.351a50.91,50.91,0,0,1,6.254-6.375c3.464-3.194,8.274-5.551,12.472-7.556a28.17,28.17,0,0,1,8.179-2.68c2.573-.356,3.252.982,3.772,2.978a15.3,15.3,0,0,0-3.949,7.07,18.249,18.249,0,0,0-.02,9.815c-4-.593-8.92-2.395-12.934-1.694m331.577-10.851a11.741,11.741,0,0,1,9.947,1.705c4.448,3.034,2.2,8.151,2.756,12.418a1.635,1.635,0,0,0,2.631.967c3.628-3.108,3.865-7.387,2.26-11.2,6.176-4.58,14.01,6.792,17.174,10.523,5.71,6.742,9.17,14.468,8.307,23.124-6.006-1.964-8.8-8.009-13.5-12.182a28.805,28.805,0,0,0-15.376-6.373c.35-1.01-.583-2.126-1.634-1.493-5.714,3.421-11,3.339-17.476,2.618-4.607-.509-10.383-1.921-14.9-.142a16.125,16.125,0,0,0-.2-11.365,69.912,69.912,0,0,1,20.012-8.6m-50.055-61.415c6.323,1.8,12.944,2.13,18.152-1.342a1.063,1.063,0,0,0-.261-1.936c-7.411-2.18-14.669-2.035-22.015-4.862-3.764-1.45-13.836-4.463-15.437-9.353a2.257,2.257,0,0,0-.132-.652,4.255,4.255,0,0,1,.034-1.705c.2-.8-.781-1.763-1.545-1.178a7.892,7.892,0,0,0-.689.589c-10.43-8.689-18.5-22.1-22.017-35.05-2.922-10.767-.719-20.783,1.016-31.234,2.888,7.774,7.21,15.415,10.976,22.524,4.463,8.406,11.371,18.81,20.851,22.12-.045.4-.073.786-.121,1.178-.921,7.325-4.454,12.418-8.169,18.51-.334.546.186,1.364.84,1.032,15.72-7.94,16.095-29.369,12.029-44.07-3.531-12.774-11.986-27.17-22.8-35.861,8.619,1.016,16.378,2.538,24.361,7.236,9.5,5.583,16.9,14.094,22.992,23.13,6.109,9.057,10.122,19.492,12.659,30.071a61.309,61.309,0,0,1,1.858,19.377c-.58,6.893-5.833,12.869-9.221,18.56a1.588,1.588,0,0,0,2.275,2.154,36.6,36.6,0,0,0,4.482-3.932c.2,1.075.432,2.15.578,3.213.313,2.352.637,4.7.958,7.05a23.124,23.124,0,0,0,.909,4.232c-10.094-2.989-22.772-2.745-30.915.145-.322-1.74-.69-3.451-1.055-5.212-.311-1.536-.361-3.166-.594-4.733m-2.76,32.089c2.642-4.875-3.021-14.934,3.414-17.42a.484.484,0,0,0,.173-.13c8.429-.732,16.337-1.919,25.027-.209,5.192,1.023,10.538,3.125,14.1,7.186,3.466,3.951.257,9.507-1.8,13.141-3.576,6.315-9.3,11.57-14.966,15.979-8.132,6.33-18.275,7.851-27.764,11.039a50.7,50.7,0,0,0-7.6-21.385c4.355-1.131,7.268-4.264,9.411-8.2m-49.543-28a12.135,12.135,0,0,1,6.209,1.686,9.334,9.334,0,0,1,4.29,4.694,4.93,4.93,0,0,1,.091,3.144c-4.461-2.615-9.112-5-13.846-7.186.693-1.291,1.109-2.2,3.255-2.339m-68-18.07a151.292,151.292,0,0,0-17.291-2.111c3.423-8.225,16.346-7.241,17.291,2.111M131.4,61.165c1.9-1.938,3.885-3.785,5.628-5.866,2.268,7.76,7.612,15.105,14.306,18.147a1.151,1.151,0,0,0,1.621-1.329c-2.652-11.509-15.435-17.93-8.87-31.379,5.344-10.95,17.638-18.672,27.712-24.73,23.532-14.14,48.866-14.01,71.375.38-14.785-.606-32.419,7.968-43.093,16.343-11.28,8.852-21.7,29.629-8.33,41.371a1.288,1.288,0,0,0,2.109-1.06c-.619-7.473-2.777-13.363-.6-20.683C209.571,56,230.17,50.951,244.036,40.5c-4.687,8.054-7.737,16.881-16.6,22.412a93.332,93.332,0,0,1-33.22,12.111,1.351,1.351,0,0,0-1.04-.451.438.438,0,0,0-.369.253,1.778,1.778,0,0,0-.149.716,1.691,1.691,0,0,0-.529,1.107,4.505,4.505,0,0,1-.609.285,2.433,2.433,0,0,0-.963.68c-6.368.913-11.919,2.9-18.532,2.622-5.5-.235-9.752-3.267-14.919-4.055a1.312,1.312,0,0,0-1.457,1.705,8.972,8.972,0,0,0,2.272,3.446,17.86,17.86,0,0,0-1.839.908,13.982,13.982,0,0,0-2.13,1.437,41.764,41.764,0,0,0-8.462-5.028C141.837,76.885,132.82,70.37,125,67.726c2.652-1.413,4.314-4.444,6.4-6.561M116.436,71.938c8.825-2.21,18.64,7.549,26.165,11.22,2.255,1.1,4.472,2.188,6.621,3.49,6.74,4.088.043,11.71-2.872,16.525-3.172,5.235-4.539,11.418-2.419,17.2a2.476,2.476,0,0,0,.345.622A53.344,53.344,0,0,0,126.5,132.089a2.3,2.3,0,0,0-.721-.758c-17-11.315-21.639-43.216-9.342-59.393M58.61,100.024c-7.9-6.274-25.045,6.112-35.259,3.882,4.439-7.62,12.463-12.018,20.608-15.051a64.862,64.862,0,0,1,12.2-3.092c4.9-.773,7.105,2.777,9.252,6.3a20.643,20.643,0,0,0-6.8,7.963m31.731,19.842a14.261,14.261,0,0,0-4.985,6.368c-7.59-4.074-15.407-8.509-21.106-15.206-7.564-8.893,4.3-13.141,8.788-19.412a15.68,15.68,0,0,0,1.394,1.068,37.171,37.171,0,0,1,7.953,7.871c4.288,5.419,7.392,11.714,10.939,17.623a18.966,18.966,0,0,0-2.983,1.688m23.923,65.093c-6.416-1.834-12.851-1.832-19.077-4.757a26.5,26.5,0,0,1-9.826-8.063,8.748,8.748,0,0,1,8-13.915c6.9.669,10.706,9.133,18.063,8.7a59.241,59.241,0,0,0,3.274,18.122c.026.082.056.158.082.24a1.088,1.088,0,0,0-.514-.328m-13.316,27.548c-6.04.322-10.555-2.316-16.317-2.872a1.862,1.862,0,0,0-1.78,1.267,1.048,1.048,0,0,0-.158-.05c-5.658-.857-12.336-.255-17.912.816a12.437,12.437,0,0,1-9.271-1.48c-4.465-3.013-2.665-10.881-1.241-14.861,3.518-9.828,20.066-3.442,28.286-1.2-2.178,3.8-2.363,8.691.969,12.2a1,1,0,0,0,1.569-.192c2.054-3.675-.039-9.208,3.447-12.159,2.314-1.96,6.72-1.027,9.411-.7,5.63.7,14.448,3.242,19.716-.224a104.082,104.082,0,0,0,8.112,15.672c-8.352,1.055-16.235,3.317-24.831,3.775m20.593,2.5a16.466,16.466,0,0,0,6.028-3.556v0c.818,1.208,1.623,2.419,2.5,3.591a18.43,18.43,0,0,0-8.525-.034M335.424,291.2a13.031,13.031,0,0,0,1.554-6.533c2.752,0,4.713.127,7.135,2.8,2.927,3.237,4.409,7.737,5.6,11.842a44.67,44.67,0,0,1,1.625,12.668c-.009,1.672-.382,3.38-.546,5.074-4.258-.863-4.992-9.284-8.775-11.822-4.972-3.339-11.032-2.575-14.4-8.1,3.477.656,6.274-3.125,7.806-5.93m-27.382-20.5c6.287,4.048,14.848,3.975,21.2,8.194,3.643,2.423,2.8,7.243,1.088,10.5-1.191,2.26-3.749,3.636-4.157,6.228a1.391,1.391,0,0,0,.069.716.551.551,0,0,0-.371,0c-11.41,3.777-19.533-11.451-27.084-18.367,0-.013.009-.026.013-.045a.978.978,0,0,0-.233-.913c3.621-.391,7.32-3.093,9.478-6.313m-14.023-10.586c3.241,1.329,7.724,2.38,10.065,5.149.874,1.032-1.17,2.715-1.8,3.349-2.158,2.145-4.73,3.466-5.984,6.369a1.5,1.5,0,0,0,.121,1.306,1.229,1.229,0,0,0-1.454.978c-2.45.606-4.629,1.275-7.45.294-3.908-1.357-7.107-5-9.752-7.978-4.17-4.689-6.649-10.5-10.56-15.309a90.229,90.229,0,0,0,13.318-5.449c.222,5.4,9.78,9.77,13.494,11.289M285.663,240c-6.561,4.86-13.941,8.473-20.756,12.938-.043.009-.086,0-.132.015-1.209.32-2.367.8-3.583,1.083a13.2,13.2,0,0,0-3.74,1.1,1.215,1.215,0,0,0-.265,1.875,1.231,1.231,0,0,0-.183.421c-.367,1.817,1.176,3.859,2.059,5.337,1.77,2.946,3.861,5.7,5.626,8.656a30.793,30.793,0,0,1,3.882,8.775c.676,3.028-1.683,3.624-3.358,5.667a1.132,1.132,0,0,0,.281,1.752,5.024,5.024,0,0,0,6.347-1.066c3.129,2.613,6.39,4.866,8.822,8.434a13.449,13.449,0,0,1,2.506,7.864c-.091,2.519-1.847,4.743-2.5,7.109a.9.9,0,0,0,1.04,1.131,6.294,6.294,0,0,0,5.618-4.75c3.289,4.2,4.318,7.918,3.9,14.019-.442,6.5-2.9,10.333-6.241,14.71-1.768-4.884-6.461-8.874-8.57-13.566a8.585,8.585,0,0,0,2.808-4.521.783.783,0,0,0-1.058-.952c-2.7.883-5.762,4.195-8.73,2.5-2.65-1.515-4.02-5.188-5.078-7.855-2.484-6.237-3.056-12.879-4.491-19.332a12.6,12.6,0,0,0,4.607-3.485,1.02,1.02,0,0,0-.962-1.7c-3.5.5-6.671,1.677-10.236,1.409-4.573-.348-7.73-5.208-9.705-8.788a55.9,55.9,0,0,1-3.986-10.162c-.85-2.68-1.081-5.562-2.92-7.642a91.514,91.514,0,0,0,12.893-1.914,1.059,1.059,0,0,0-.283-2.072c-16.969,0-31.884.44-48.376-4.767-15.64-4.929-30.52-11.287-44.288-20.262-25.947-16.926-46.248-49.99-38.226-81.438.17-.665-.729-.826-1.09-.444a19.1,19.1,0,0,0-2.75,3.729c-7.987-3.3-16.4-7.4-22.338-13.78-7.445-8,1.707-23.761,11.494-16.337,3.925,2.976,8.766,17.653,15.13,18.18a1.529,1.529,0,0,0,2.67.714c26.443-29.175,65.06-22.185,98.664-12.428,35.36,10.27,87.267,29.833,85.679,74.6-.155,4.4,6.461,4.953,6.833.531.03-.317.019-.615.043-.928,5.231,1.137,12.3-2.2,16.9-3.369,3.837-.986,8.9-2.139,11.423,1.927,3.233,5.225.837,12.532-2.266,17.345-4.623.432-9.256,2.068-13.879,2.572-6.446.7-12.875-.684-19.231-.149a25.771,25.771,0,0,0,.743-4.772c.065-1.129-1.437-1.331-1.973-.509-5.708,8.749-10.19,16.246-18.776,22.606m30.293,13.136c-3.664-1.351-7.884-1.929-11.416-2.922-5.482-1.541-11.1-4.446-16.674-5.4a.766.766,0,0,0-.356.028c6-3.889,11.345-8.658,14.815-14.315,2.32,1.556,5.289,1.949,8.093,2.341,4.252.594,11.378-.272,13.836,4.083,3.682,6.522-4.094,11.833-8.3,16.184m44.265,6.893c-.859.121-1.718.233-2.585.352a.889.889,0,0,0-.6-1.01c-10.572-2.983-21.251-3.362-31.495-7.506a25.006,25.006,0,0,0,4.731-11.006c7.12-.348,14.289-2.723,21.318-3.427,4.772-.488,11.634-.833,14.707,3.66,4.465,6.511-2.406,13.676-6.081,18.937m25.148,6.5c-5.585-2.751-11.419-4.375-16.766-7.556a19.7,19.7,0,0,0,4.368-16.809c9.893.585,15.152,7.909,20.053,16.986A61.777,61.777,0,0,1,398,271.832a28.184,28.184,0,0,1,.712,4.534c-4.3-3.168-12.208-9.275-13.341-9.83" transform="translate(0 0)" fill="#811a20"/>
        <path id="패스_4977" data-name="패스 4977" d="M.464.127.1,0C0-.027-.044.127.056.163L.422.284C.52.317.567.163.464.127" transform="translate(297.906 31.09)" fill="#811a20"/>
        <path id="패스_4978" data-name="패스 4978" d="M11.348,12.181C11.239,7.312,5.262,1.121.663.02-.026-.146-.181.773.212,1.145,1.964,2.8,4.038,3.983,5.708,5.778c1.936,2.065,3.008,4.739,4.912,6.781.285.307.738-.043.729-.378" transform="translate(298.857 31.024)" fill="#811a20"/>
        <path id="패스_4979" data-name="패스 4979" d="M6.933,5.576C5.639,3.431,3.148.325.453,0A.391.391,0,0,0,.06.593C1.426,2.844,3.53,4.546,4.9,6.864a44.814,44.814,0,0,1,3.632,8.857.632.632,0,0,0,1.2-.168,16.778,16.778,0,0,0-2.8-9.977" transform="translate(309.878 35.316)" fill="#811a20"/>
        <path id="패스_4980" data-name="패스 4980" d="M.622.1C.316-.179-.062.173.009.522.683,3.688,1.852,6.71,2.437,9.91c.624,3.365.263,6.791.621,10.165.114,1.045,1.549.839,1.849.05C7.153,14.09,5.444,4.541.622.1" transform="translate(321.308 41.159)" fill="#811a20"/>
        <path id="패스_4981" data-name="패스 4981" d="M5.588,7.02C5.021,4.821,3.452.09.67,0A.6.6,0,0,0,.012.505C-.1,1.89.616,2.475,1.227,3.727A19.788,19.788,0,0,1,2.865,8.27c.745,3.382.058,6.684.069,10.076a1.042,1.042,0,0,0,1.936.511c1.936-3.554,1.7-8.017.717-11.837" transform="translate(328.369 50.711)" fill="#811a20"/>
        <path id="패스_4982" data-name="패스 4982" d="M1.992.349A.589.589,0,0,0,.865.641,90.865,90.865,0,0,1,1.4,10.479C1.269,13.615.06,16.587,0,19.714a.7.7,0,0,0,1.245.471C5.378,15.264,4.92,5.734,1.992.349" transform="translate(335.647 59.132)" fill="#811a20"/>
        <path id="패스_4983" data-name="패스 4983" d="M4.648.353c-.16-.578-1.008-.386-1.088.138-.576,3.425-.771,6.891-1.329,10.324S.444,17.507.008,20.956c-.119.963,1.217,1.215,1.692.516C5.527,15.777,6.474,6.888,4.648.353" transform="translate(337.339 69.116)" fill="#811a20"/>
        <path id="패스_4984" data-name="패스 4984" d="M9.2.972A1,1,0,0,0,7.207.948C6.486,8.2,3.025,13.264.045,19.685c-.211.458.352,1.088.826.814C7.553,16.627,9.557,8.2,9.2.972" transform="translate(338.462 81.014)" fill="#811a20"/>
        <path id="패스_4985" data-name="패스 4985" d="M11.781.918A.915.915,0,0,0,10,.623a49.075,49.075,0,0,1-5.147,11C3.27,14.038,1.166,16.049.058,18.744c-.265.637.436,1.1.99.911C7.8,17.35,11.578,7.414,11.781.918" transform="translate(338.696 93.01)" fill="#811a20"/>
        <path id="패스_4986" data-name="패스 4986" d="M14.778,1.306C15.145.117,13.384-.515,12.791.525A37.862,37.862,0,0,1,6.83,8.594C4.775,10.666,2.261,12.168.284,14.321a.958.958,0,0,0,.878,1.614C7.887,14.977,12.94,7.3,14.778,1.306" transform="translate(338.122 104.163)" fill="#811a20"/>
        <path id="패스_4987" data-name="패스 4987" d="M2.3.613C2.134-.222.785-.211.775.689.725,6.3.032,11.876,0,17.472a.793.793,0,0,0,1.535.311A33.091,33.091,0,0,0,2.3.613" transform="translate(277.92 50.585)" fill="#811a20"/>
        <path id="패스_4988" data-name="패스 4988" d="M2.8.877C2.863-.277,1.247-.279,1.061.793.021,6.65-.743,13.725,1.2,19.405a.778.778,0,0,0,1.429-.073C3.938,13.437,2.487,6.9,2.8.877" transform="translate(282.263 59.383)" fill="#811a20"/>
        <path id="패스_4989" data-name="패스 4989" d="M2.6,1.01a1.053,1.053,0,0,0-2.1.017C.47,3.982.257,6.923.157,9.88c-.084,2.426-.44,4.795.319,7.139a.753.753,0,0,0,1.3.108C4.191,12.636,3.025,5.9,2.6,1.01" transform="translate(287.37 70.52)" fill="#811a20"/>
        <path id="패스_4990" data-name="패스 4990" d="M2.414.842C2.136-.569-.083-.064,0,1.3c.112,1.772.091,3.533.1,5.3a18.536,18.536,0,0,0,.255,5.171,1.168,1.168,0,0,0,2.136.2C4,8.724,3.085,4.215,2.414.842" transform="translate(293.744 78.833)" fill="#811a20"/>
        <path id="패스_4991" data-name="패스 4991" d="M3.3,5.994a29.035,29.035,0,0,0,.425-4.437c.063-1.735-2.6-2.219-2.721-.423C.822,3.8.155,6.35,0,9A1.021,1.021,0,0,0,1.9,9.511,8.824,8.824,0,0,0,3.3,5.994" transform="translate(299.781 85.173)" fill="#811a20"/>
        <path id="패스_4992" data-name="패스 4992" d="M9.3.021C9.187.1,7.436-.037,7.109.01c-.85.119-1.7.233-2.547.335C3.168.52,1.828.9.444,1.133c-.535.089-.635.976-.028,1a39.338,39.338,0,0,0,6.422-.227,7.887,7.887,0,0,0,2.415-.494c.708-.347.229-1.526.048-1.394" transform="translate(339.395 132.013)" fill="#811a20"/>
        <path id="패스_4993" data-name="패스 4993" d="M11.6.639C8.34.03,3.862-.43.665.649c-.7.237-1.01,1.383-.1,1.61,3.4.84,7.706-.248,11.075-.919.371-.071.293-.637-.041-.7" transform="translate(338.207 135.95)" fill="#811a20"/>
        <path id="패스_4994" data-name="패스 4994" d="M7.912,3.191A14.827,14.827,0,0,0,1.4.038C-.111-.32-.58,1.983.9,2.38A13.265,13.265,0,0,1,6.229,5.145C7.483,6.2,8.046,8.03,9.639,8.563a.812.812,0,0,0,1.025-.514c.559-1.986-1.4-3.649-2.752-4.858" transform="translate(349.891 153.616)" fill="#811a20"/>
        <path id="패스_4995" data-name="패스 4995" d="M11.878,8.869C10.659,4.2,5.279,1.29,1.021.038a.794.794,0,0,0-.511,1.5A19.692,19.692,0,0,1,5.551,4.578c1.828,1.521,3,3.567,4.739,5.14a.94.94,0,0,0,1.588-.848" transform="translate(345.408 156.463)" fill="#811a20"/>
        <path id="패스_4996" data-name="패스 4996" d="M8.111,4.658A13.765,13.765,0,0,0,.924.029C.242-.176-.39.77.3,1.193A21.318,21.318,0,0,1,5.81,6.34c1.375,1.787,1.767,4.839,3.734,5.971a.959.959,0,0,0,1.31-.33c1.12-2.437-1.28-5.443-2.743-7.324" transform="translate(341.341 161.7)" fill="#811a20"/>
        <path id="패스_4997" data-name="패스 4997" d="M6.983,7.778A24.917,24.917,0,0,0,1.843.311,1.077,1.077,0,0,0,.166,1.619,39.924,39.924,0,0,1,3.819,8.5c.814,1.959.781,5.065,2.581,6.381a1.015,1.015,0,0,0,1.239-.17c1.571-1.893.17-4.94-.656-6.932" transform="translate(337.766 164.675)" fill="#811a20"/>
        <path id="패스_4998" data-name="패스 4998" d="M1.618.32C.871-.534-.337.489.088,1.425A32.792,32.792,0,0,1,2.214,7.606c.447,1.973.5,3.993,1.215,5.885a1.185,1.185,0,0,0,2.273-.1C6.946,8.94,4.516,3.639,1.618.32" transform="translate(333.425 170.972)" fill="#811a20"/>
        <path id="패스_4999" data-name="패스 4999" d="M1.992.527a1.08,1.08,0,0,0-1.966.827,31.569,31.569,0,0,1,.846,5.4C.919,8.394.4,10,1.2,11.51a1.275,1.275,0,0,0,1.774.356c2.875-2.519.641-8.635-.98-11.339" transform="translate(329.023 176.344)" fill="#811a20"/>
        <path id="패스_5000" data-name="패스 5000" d="M1.646.3A.911.911,0,0,0,.073.887C.181,2.227.328,3.6.315,4.947.295,6.479.026,8,0,9.541c-.032,1.511,2.065,1.506,2.639.416A9.55,9.55,0,0,0,1.646.3" transform="translate(323.38 180.255)" fill="#811a20"/>
        <path id="패스_5001" data-name="패스 5001" d="M3.556,4.96a9,9,0,0,0,.056-3.727C3.239-.651.295-.267.641,1.648A6.992,6.992,0,0,1,.6,4.274a6.139,6.139,0,0,1-.319.952A7.662,7.662,0,0,0,.006,7.147a1.023,1.023,0,0,0,1.513.894A4.376,4.376,0,0,0,3.556,4.96" transform="translate(316.632 185.559)" fill="#811a20"/>
        <path id="패스_5002" data-name="패스 5002" d="M3.483,1.159C3.528-.287,1.064-.429.953,1.012a8.926,8.926,0,0,1-.9,2.4A.983.983,0,0,0,.966,4.651c1.88.2,2.471-2.136,2.518-3.492" transform="translate(311.921 189.878)" fill="#811a20"/>
        <path id="패스_5003" data-name="패스 5003" d="M17.45,1.071C12.622-1.458,4.5.913.269,3.812c-.6.4-.106,1.379.561,1.247C3.7,4.485,6.487,3.671,9.381,3.2c2.544-.423,5.328,0,7.773-.729.559-.17.971-1.042.3-1.4" transform="translate(220.681 8.446)" fill="#811a20"/>
        <path id="패스_5004" data-name="패스 5004" d="M18.22.127c-3.034-.593-6.63,1.01-9.375,2.147A26.009,26.009,0,0,0,.14,8.019c-.425.432.2,1.185.719.928q4.389-2.186,8.9-4.15c2.8-1.222,6.068-1.77,8.71-3.241A.757.757,0,0,0,18.22.127" transform="translate(209.215 5.008)" fill="#811a20"/>
        <path id="패스_5005" data-name="패스 5005" d="M16.423.011C10.819.93,3.872,3.021.229,7.709c-.641.824.16,2.283,1.209,1.6,2.095-1.351,4-2.963,6.131-4.279a32.335,32.335,0,0,1,9.051-3.7c.82-.211.669-1.467-.2-1.325" transform="translate(198.202 2.998)" fill="#811a20"/>
        <path id="패스_5006" data-name="패스 5006" d="M18.778.023C10.567,2.043,2.1,7.851.02,16.487c-.166.671.758.859,1.126.444,5.542-6.2,10.2-12.068,18.093-15.45a.774.774,0,0,0-.46-1.457" transform="translate(182.922 2.625)" fill="#811a20"/>
        <path id="패스_5007" data-name="패스 5007" d="M11.637.394c-4.4,4.813-9.893,11-11.6,17.44a1.183,1.183,0,0,0,2.014,1.047c1.916-2.5,3.159-5.5,4.828-8.173A70.89,70.89,0,0,1,13.407,2a1.2,1.2,0,0,0-1.77-1.61" transform="translate(172.034 6.557)" fill="#811a20"/>
        <path id="패스_5008" data-name="패스 5008" d="M13.116.1C6.646,3.991,1.275,12.073.016,19.5a1.04,1.04,0,0,0,1.9.77c1.953-3.507,3.548-7.191,5.723-10.579,1.932-3.013,4.32-5.605,6.474-8.438.458-.606-.326-1.558-1-1.155" transform="translate(161.241 12.156)" fill="#811a20"/>
        <path id="패스_5009" data-name="패스 5009" d="M9.266.077A19.5,19.5,0,0,0,.539,21.148,1,1,0,0,0,2.5,20.92c.486-7.9,2.316-14,7.46-20.114C10.353.338,9.734-.2,9.266.077" transform="translate(150.768 20.24)" fill="#811a20"/>
        <path id="패스_5010" data-name="패스 5010" d="M4.212,19.28C3.8,16.258,2.949,13.371,2.85,10.3A27.272,27.272,0,0,1,4.579.823C4.786.211,3.968-.327,3.565.239-.366,5.815-1.622,14.312,2.774,20c.54.7,1.541.039,1.439-.719" transform="translate(144.239 30.691)" fill="#811a20"/>
        <path id="패스_5011" data-name="패스 5011" d="M13.779.153A85.488,85.488,0,0,0,.14,12.782c-.475.57.367,1.345.926.891A158.593,158.593,0,0,0,14.588,1.17c.568-.583-.129-1.545-.809-1.017" transform="translate(223.337 42.698)" fill="#811a20"/>
        <path id="패스_5012" data-name="패스 5012" d="M13.173.243C9.12,3.9,4.32,6.558.263,10.153a.775.775,0,0,0,.827,1.286C6.046,9.3,10.535,5.252,14.416,1.582A.914.914,0,0,0,13.173.243" transform="translate(211.188 48.383)" fill="#811a20"/>
        <path id="패스_5013" data-name="패스 5013" d="M9.627.358q-2.261,2.024-4.7,3.837C3.37,5.361,1.53,6.328.25,7.817a.918.918,0,0,0,.826,1.554C5.05,8.477,8.677,4.713,11.6,2.044,12.84.919,10.85-.734,9.627.358" transform="translate(202.445 52.206)" fill="#811a20"/>
        <path id="패스_5014" data-name="패스 5014" d="M5.765.271A47.44,47.44,0,0,0,.257,4.932c-.712.8.181,2.216,1.174,1.582A50.127,50.127,0,0,0,7.343,1.788C8.415.847,6.837-.607,5.765.271" transform="translate(195.314 53.09)" fill="#811a20"/>
        <path id="패스_5015" data-name="패스 5015" d="M7.76,12.7C6.648,10.749,5.176,8.964,3.942,7.086A16.866,16.866,0,0,1,2.1,3.105,9.271,9.271,0,0,0,1.046.18.43.43,0,0,0,.31.239c-.868,1.96.3,4.894.939,6.8.952,2.818,2.695,5.592,5.49,6.852.675.3,1.37-.591,1.021-1.194" transform="translate(131.969 56.865)" fill="#811a20"/>
        <path id="패스_5016" data-name="패스 5016" d="M6.767,7.728C5.025,5.328,3,3.159,1.71.463c-.43-.9-1.988-.375-1.666.6,1.044,3.133,2.708,6.25,5.63,7.951A.854.854,0,0,0,6.767,7.728" transform="translate(127.242 62.609)" fill="#811a20"/>
        <path id="패스_5017" data-name="패스 5017" d="M7.442,11.228A18.191,18.191,0,0,1,1.371.457.53.53,0,0,0,.326.433c-1.34,4.944,1.612,9.876,5.986,12.156.829.432,1.951-.676,1.131-1.36" transform="translate(113.554 71.335)" fill="#811a20"/>
        <path id="패스_5018" data-name="패스 5018" d="M10.411,14.138c-2.167-2.033-4.7-3.533-6.5-5.965A16.4,16.4,0,0,1,1.194.395.451.451,0,0,0,.305.359C-1.154,6.527,2.737,14.63,9.457,15.714c.844.136,1.72-.852.954-1.577" transform="translate(110.237 77.974)" fill="#811a20"/>
        <path id="패스_5019" data-name="패스 5019" d="M13.014,12.435c-1.9-1.6-4.269-2.588-6.23-4.174A20.3,20.3,0,0,1,1.294.383C1-.3-.156,0,.018.749c1.3,5.7,5.5,13.283,12.288,13.255.73,0,1.372-1.01.708-1.569" transform="translate(107.492 86.146)" fill="#811a20"/>
        <path id="패스_5020" data-name="패스 5020" d="M13.206,11.489C11.864,9.434,8.575,9.076,6.555,7.706,3.944,5.949,2.806,3.057,1.4.4A.694.694,0,0,0,.085.606C-.405,4.072,1.279,7.4,3.728,9.763c2.061,1.988,6.576,4.823,9.286,2.765a.856.856,0,0,0,.192-1.04" transform="translate(107.992 95.244)" fill="#811a20"/>
        <path id="패스_5021" data-name="패스 5021" d="M14.282,7.886C12.487,6.454,10.173,5.914,8.134,4.9A51.27,51.27,0,0,1,1.058.113C.579-.245-.263.311.08.888c2.5,4.232,8.639,9.427,13.926,8.7.917-.129.835-1.263.276-1.707" transform="translate(107.095 106.715)" fill="#811a20"/>
        <path id="패스_5022" data-name="패스 5022" d="M16.157,4.561c-2.514-1.105-5.438-1.079-8.078-1.8A35.642,35.642,0,0,1,1.431.1C.572-.338-.531.765.287,1.5c3.734,3.364,10.78,7.4,15.836,4.763a.984.984,0,0,0,.034-1.7" transform="translate(109.478 116.691)" fill="#811a20"/>
        <path id="패스_5023" data-name="패스 5023" d="M9.565,2.485C8.486,1.911,7.3,2.153,6.119,1.978A9.1,9.1,0,0,1,2.1.282,1.277,1.277,0,0,0,.428,2.213c2.05,2,7.32,5.039,9.576,1.757a1.1,1.1,0,0,0-.44-1.485" transform="translate(117.42 125.578)" fill="#811a20"/>
        <path id="패스_5024" data-name="패스 5024" d="M2.354,4.983C2.2,3.544,1.947,2.108,1.718.675,1.53-.447-.125-.062.008,1.038.168,2.421.328,3.807.434,5.2A8.218,8.218,0,0,0,1.1,8.769a.6.6,0,0,0,.963-.006,6.122,6.122,0,0,0,.291-3.781" transform="translate(314.344 202.799)" fill="#811a20"/>
        <path id="패스_5025" data-name="패스 5025" d="M3.979,3.542C3.561,2.213,2.393.374.962.024A.722.722,0,0,0,.013.807C.259,2.083.964,3.3,1.336,4.565a26.385,26.385,0,0,1,.4,4.2,1.168,1.168,0,0,0,2.184.494,7.525,7.525,0,0,0,.06-5.717" transform="translate(317.046 201.387)" fill="#811a20"/>
        <path id="패스_5026" data-name="패스 5026" d="M3.794,4.8A10.45,10.45,0,0,0,1.446.269.837.837,0,0,0,.009.979C.247,2.684.788,4.318,1,6.033c.17,1.317.291,2.942,1.47,3.762a.711.711,0,0,0,.861-.035c1.431-1.2.9-3.4.462-4.964" transform="translate(322.408 200.662)" fill="#811a20"/>
        <path id="패스_5027" data-name="패스 5027" d="M5.16,8.491A8.913,8.913,0,0,0,3.878,3.815C3.205,2.5,2.434.664,1,.049A.757.757,0,0,0,.006.7C-.082,2.071.831,3.538,1.23,4.846A22.07,22.07,0,0,0,2.376,8.832c.634,1.2,2.611,1.234,2.784-.341" transform="translate(327.349 198.298)" fill="#811a20"/>
        <path id="패스_5028" data-name="패스 5028" d="M2.859,5A15.6,15.6,0,0,0,1.208.358C.938-.106,0-.186,0,.524A34.967,34.967,0,0,0,.47,5.449c.2,1.506.093,3.315,1.306,4.39a.73.73,0,0,0,1.017-.183c.969-1.329.38-3.179.065-4.655" transform="translate(333.435 198.828)" fill="#811a20"/>
        <path id="패스_5029" data-name="패스 5029" d="M5.066,3.462a4.867,4.867,0,0,0-.833-1.5A5.1,5.1,0,0,0,.86.007.836.836,0,0,0,.187,1.386a21.484,21.484,0,0,1,2.046,2.57c.485.84.676,1.837,1.6,2.314.263.136.492-.026.717-.125.878-.389.753-1.983.511-2.683" transform="translate(349.548 198.379)" fill="#811a20"/>
        <path id="패스_5030" data-name="패스 5030" d="M5.671,5.693a44.555,44.555,0,0,0-3.5-5.2C1.286-.676-.637.449.211,1.7a47.742,47.742,0,0,1,3.1,5.207c.576,1.133,1.243,3.365,2.806,3.291,1.934-.086-.08-3.857-.445-4.506" transform="translate(353.311 193.02)" fill="#811a20"/>
        <path id="패스_5031" data-name="패스 5031" d="M5.534,8.627C5.379,5.7,3.449,2.861,1.88.474,1.185-.585-.5.3.143,1.437A37.768,37.768,0,0,1,2.155,5.455c.516,1.224.857,2.486,1.485,3.66a1.016,1.016,0,0,0,1.893-.488" transform="translate(359.331 192.684)" fill="#811a20"/>
        <path id="패스_5032" data-name="패스 5032" d="M4.934,4.839A12.5,12.5,0,0,0,1.512.247.872.872,0,0,0,.223,1.419,13.974,13.974,0,0,1,2.584,5.6c.505,1.418.555,3.032,1.2,4.37.445.928,1.767.544,2.011-.3.44-1.513-.287-3.427-.857-4.83" transform="translate(364.944 192.206)" fill="#811a20"/>
        <path id="패스_5033" data-name="패스 5033" d="M1.378.3C.845-.46-.276.373.063,1.155a27.368,27.368,0,0,1,1.768,6.2c.306,1.724.14,3.613.908,5.221a.773.773,0,0,0,1.334.106C6.1,8.956,3.553,3.41,1.378.3" transform="translate(371.604 191.991)" fill="#811a20"/>
        <path id="패스_5034" data-name="패스 5034" d="M1.651.448C1.228-.238-.007-.147,0,.794c.013,1.69.188,3.358.28,5.044.089,1.629-.112,3.47.764,4.914a.74.74,0,0,0,1.262.114C4.355,8.252,3.237,3,1.651.448" transform="translate(389.385 194.309)" fill="#811a20"/>
        <path id="패스_5035" data-name="패스 5035" d="M1.811.629C1.621-.232.16-.22.2.732c.088,1.83.08,3.66.024,5.488a19.822,19.822,0,0,0-.093,4.789.757.757,0,0,0,1.359.3c2-2.967,1.04-7.435.317-10.676" transform="translate(395.799 198.995)" fill="#811a20"/>
        <path id="패스_5036" data-name="패스 5036" d="M3.25,6.741a20.913,20.913,0,0,0,.283-5.57,1.319,1.319,0,0,0-2.628.218A19.7,19.7,0,0,1,.479,6.326C.226,7.6-.316,8.918.246,10.157a.831.831,0,0,0,1.112.38c1.334-.73,1.616-2.4,1.891-3.8" transform="translate(398.959 204.833)" fill="#811a20"/>
        <path id="패스_5037" data-name="패스 5037" d="M2.933.569A.712.712,0,0,0,1.528.8C1.718,3.887.451,6.545.007,9.515a.876.876,0,0,0,1.455.688c2.3-2.594,2.408-6.45,1.47-9.634" transform="translate(402.466 210.665)" fill="#811a20"/>
        <path id="패스_5038" data-name="패스 5038" d="M2.787,1.047A.811.811,0,0,0,1.249.531C.752,2.016-.068,3.643,0,5.229a.554.554,0,0,0,.976.28c1-1.2,1.317-3,1.806-4.461" transform="translate(405.95 220.169)" fill="#811a20"/>
        <path id="패스_5039" data-name="패스 5039" d="M5.366.856A.834.834,0,0,0,3.7.754C3.146,4.775,1.227,8.168.046,11.972A1.1,1.1,0,0,0,1.9,12.993C4.715,9.773,5.5,5,5.366.856" transform="translate(299.802 229.223)" fill="#811a20"/>
        <path id="패스_5040" data-name="패스 5040" d="M4.113,8.907A17.026,17.026,0,0,0,4.188.758c-.255-1.206-1.97-.863-2.039.261A29.975,29.975,0,0,1,1.02,7.14C.572,8.787-.562,10.582.338,12.211a1.022,1.022,0,0,0,1.137.488c1.731-.389,2.212-2.262,2.639-3.792" transform="translate(306.741 230.477)" fill="#811a20"/>
        <path id="패스_5041" data-name="패스 5041" d="M4.728,7.1c.557-1.923,1.2-4.808.015-6.634A.9.9,0,0,0,3.1.612C2.346,2.591,1.893,4.7,1.2,6.711.649,8.329-.656,10.378.4,12.048a.829.829,0,0,0,.885.44C3.612,11.994,4.158,9.059,4.728,7.1" transform="translate(313.276 231.849)" fill="#811a20"/>
        <path id="패스_5042" data-name="패스 5042" d="M2.828.27A.8.8,0,0,0,1.48.537,35.041,35.041,0,0,0,.746,4.113C.426,5.7-.158,6.964.04,8.62a.861.861,0,0,0,1.219.593C3.92,7.616,4.723,2.689,2.828.27" transform="translate(333.835 237.44)" fill="#811a20"/>
        <path id="패스_5043" data-name="패스 5043" d="M3.272,5.656A9.473,9.473,0,0,0,2.173.388C1.878-.165.857-.154.857.6A37.444,37.444,0,0,1,.533,5.235C.36,6.616-.22,7.989.089,9.366a1.13,1.13,0,0,0,1.88.462c1.114-1.014,1.18-2.747,1.3-4.172" transform="translate(339.391 236.357)" fill="#811a20"/>
        <path id="패스_5044" data-name="패스 5044" d="M3.125.787A1.117,1.117,0,0,0,.98,1.409a10.018,10.018,0,0,1-.2,3.965C.491,6.658-.189,7.823.05,9.15a1.059,1.059,0,0,0,1.541.643C4.364,8.235,3.941,3.317,3.125.787" transform="translate(345.321 236.059)" fill="#811a20"/>
        <path id="패스_5045" data-name="패스 5045" d="M3.17,1.068A1.157,1.157,0,0,0,.86,1.155,26.271,26.271,0,0,1,.5,6.1C.247,7.54-.493,9.036.515,10.312a.834.834,0,0,0,.807.27c3.121-.917,2.173-7.1,1.849-9.515" transform="translate(352.168 236.296)" fill="#811a20"/>
        <path id="패스_5046" data-name="패스 5046" d="M3.514,1.077A1.157,1.157,0,0,0,1.2,1.159a28.2,28.2,0,0,1-.539,5.22C.371,7.813-.2,9.045.071,10.526a.838.838,0,0,0,1.183.58c3.058-1.77,2.491-7.051,2.26-10.029" transform="translate(358.514 235.694)" fill="#811a20"/>
        <path id="패스_5047" data-name="패스 5047" d="M1.169.106A.718.718,0,0,0,.062.8,28.447,28.447,0,0,1,.489,5.715C.493,7.86-.23,9.9.075,12.042a1.083,1.083,0,0,0,1.806.47C4.442,9.692,4.837,2.281,1.169.106" transform="translate(377.497 239.922)" fill="#811a20"/>
        <path id="패스_5048" data-name="패스 5048" d="M3.27,8.034A28.013,28.013,0,0,0,3.041.7C2.9-.4,1.366-.089,1.234.861.973,2.87.745,4.875.518,6.884.343,8.442-.315,10.123.183,11.658a.887.887,0,0,0,1.439.462c1.254-.982,1.454-2.581,1.649-4.087" transform="translate(382.184 244.59)" fill="#811a20"/>
        <path id="패스_5049" data-name="패스 5049" d="M3.4,6.178c.136-1.839.224-4.925-1.457-6.1a.333.333,0,0,0-.509.1,5.682,5.682,0,0,0-.321,2.54A19.6,19.6,0,0,1,.68,6.394C.413,7.95-.5,9.786.365,11.286a.685.685,0,0,0,.881.347C3.192,10.706,3.264,8.071,3.4,6.178" transform="translate(386.733 248.581)" fill="#811a20"/>
        <path id="패스_5050" data-name="패스 5050" d="M3.1.769C2.88-.437.906-.139.988,1.065A16.545,16.545,0,0,1,.764,5.333C.494,6.736-.421,8.158.228,9.552a.79.79,0,0,0,.88.44c3.222-.865,2.437-6.809,2-9.222" transform="translate(391.615 255.274)" fill="#811a20"/>
        <path id="패스_5051" data-name="패스 5051" d="M.414,1.055A4.391,4.391,0,0,0,.108,3.662c.162.494.785.973,1.312.611A4.6,4.6,0,0,0,2.954,1.83a1.333,1.333,0,1,0-2.54-.775" transform="translate(394.971 264.176)" fill="#811a20"/>
        <path id="패스_5052" data-name="패스 5052" d="M4.774.78C4.377-.159,2.851-.376,2.62.834a17.391,17.391,0,0,1-.99,4.088C1.088,6.132.1,7.213,0,8.567a.78.78,0,0,0,.9.818C3.863,8.731,5.879,3.426,4.774.78" transform="translate(277.984 246.898)" fill="#811a20"/>
        <path id="패스_5053" data-name="패스 5053" d="M4.332,1.263C4.737-.053,2.745-.521,2.29.739c-.38,1.047-.773,2.093-1.2,3.123C.671,4.837.44,5.826.058,6.818c-.352.926,1,1.506,1.532.717A13.35,13.35,0,0,0,3.216,4.65c.406-1.122.768-2.251,1.116-3.388" transform="translate(282.624 251.251)" fill="#811a20"/>
        <path id="패스_5054" data-name="패스 5054" d="M4.964.809A.775.775,0,0,0,3.466.5c-.648,1.72-1.383,3.408-2,5.136C.859,7.319-.312,8.93.078,10.758a.83.83,0,0,0,.976.656c3.679-1.178,3.7-7.48,3.91-10.605" transform="translate(286.116 254.184)" fill="#811a20"/>
        <path id="패스_5055" data-name="패스 5055" d="M5.28,1.177C5.267-.332,2.876-.41,2.669,1.06a18.948,18.948,0,0,1-.93,3.69C1.258,6.136.41,7.31.04,8.73A1.386,1.386,0,0,0,2.2,10.064C4.758,8.095,5.3,4.192,5.28,1.177" transform="translate(292.779 257.43)" fill="#811a20"/>
        <path id="패스_5056" data-name="패스 5056" d="M5.981.64C5.912-.185,4.63-.2,4.416.536A16.873,16.873,0,0,1,2.359,5.1,19.415,19.415,0,0,0,.1,8.262,1.312,1.312,0,0,0,1.7,10.04C5.234,8.8,6.239,3.879,5.981.64" transform="translate(296.667 260.85)" fill="#811a20"/>
        <path id="패스_5057" data-name="패스 5057" d="M6.288.4a49.72,49.72,0,0,1-3.513,4.43C1.795,5.943.034,6.86,0,8.487a.861.861,0,0,0,.593.859C2.475,9.856,3.9,7.874,5,6.6A15.229,15.229,0,0,0,7.94,1.143.918.918,0,0,0,6.288.4" transform="translate(306.689 268.809)" fill="#811a20"/>
        <path id="패스_5058" data-name="패스 5058" d="M4.207.882a20.935,20.935,0,0,1-3.032,5.19C.575,6.853-.75,8.75.556,9.587,3.368,11.37,6.322,3.7,6.866,1.995,7.425.256,4.9-.877,4.207.882" transform="translate(312.347 271.665)" fill="#811a20"/>
        <path id="패스_5059" data-name="패스 5059" d="M6.139,1.015A1.038,1.038,0,0,0,4.106.753,15.775,15.775,0,0,1,1.673,5.935C.888,7.079-1.078,8.646.765,9.77c1.4.85,3.164-1.571,3.835-2.447A9.767,9.767,0,0,0,6.139,1.015" transform="translate(319.1 273.8)" fill="#811a20"/>
        <path id="패스_5060" data-name="패스 5060" d="M7,1.081A1.162,1.162,0,0,0,4.709.872a26.615,26.615,0,0,1-1.8,4.675C2.092,7.031.616,8.132.044,9.737a.838.838,0,0,0,.742,1.085C5.141,11.16,7.224,4.435,7,1.081" transform="translate(324.2 276.866)" fill="#811a20"/>
        <path id="패스_5061" data-name="패스 5061" d="M2.07.261A.919.919,0,0,0,.49.848C.5,2.281.771,3.682.65,5.126.532,6.507-.071,7.873.007,9.263c.037.682.844,1.372,1.513.893,2.609-1.875,2.995-7.735.55-9.9" transform="translate(339.33 282.721)" fill="#811a20"/>
        <path id="패스_5062" data-name="패스 5062" d="M4.744,1A1.034,1.034,0,0,0,2.677,1C2.4,4.595,1.054,7.78.041,11.192a1.018,1.018,0,0,0,1.69.982C4.494,9.216,4.917,4.873,4.744,1" transform="translate(343.338 285.531)" fill="#811a20"/>
        <path id="패스_5063" data-name="패스 5063" d="M3.856,7.165a43.236,43.236,0,0,0,1.465-5.7A1.278,1.278,0,0,0,2.811,1,43.452,43.452,0,0,1,1.27,6.053c-.583,1.58-1.539,3.11-1.2,4.819a.838.838,0,0,0,1.181.587c1.582-.881,2.052-2.652,2.6-4.294" transform="translate(345.281 292.964)" fill="#811a20"/>
        <path id="패스_5064" data-name="패스 5064" d="M5.065.307a1.324,1.324,0,0,0-1.86.155A38.075,38.075,0,0,1,.268,4.392.957.957,0,0,0,1.375,5.92,8.57,8.57,0,0,0,5.222,2.163,1.344,1.344,0,0,0,5.065.307" transform="translate(346.575 303.1)" fill="#811a20"/>
        <path id="패스_5065" data-name="패스 5065" d="M8.177.039A6.416,6.416,0,0,0,5.044.771c-1.563.542-3.06,1.263-4.6,1.867C-.4,2.972.08,4.217.916,4.105A16.563,16.563,0,0,0,6.462,2.167C6.609,2.091,9.276.246,8.177.039" transform="translate(250.069 258.538)" fill="#811a20"/>
        <path id="패스_5066" data-name="패스 5066" d="M8.764.084C7.278.769,5.78,1.457,4.26,2.051,3.037,2.527.81,2.914.119,4.137a.673.673,0,0,0,.151.93c1.385.975,3.434-.045,4.812-.593A20.044,20.044,0,0,0,9.8,1.559C10.655.9,9.649-.332,8.764.084" transform="translate(251.319 261.898)" fill="#811a20"/>
        <path id="패스_5067" data-name="패스 5067" d="M9.656.3a22.334,22.334,0,0,1-5,3.557c-1.439.768-3.924,1.388-4.616,3a.63.63,0,0,0,.209.74c1.7.984,3.878-.449,5.408-1.262a19.809,19.809,0,0,0,5.423-4.59C11.923.762,10.612-.615,9.656.3" transform="translate(253.655 264.572)" fill="#811a20"/>
        <path id="패스_5068" data-name="패스 5068" d="M8.811.193a37.8,37.8,0,0,1-5.684,3.38C2.257,4-.617,4.814.119,6.337c.842,1.741,3.863-.011,4.942-.561a18.827,18.827,0,0,0,5.093-3.884c.833-.87-.317-2.439-1.344-1.7" transform="translate(255.495 270.423)" fill="#811a20"/>
        <path id="패스_5069" data-name="패스 5069" d="M6.83.132C5.872.789,4.84,1.322,3.822,1.889A37.281,37.281,0,0,0,.28,3.57.814.814,0,0,0,.56,4.947c2.87.9,5.749-1.748,7.268-3.885C8.3.4,7.449-.3,6.83.132" transform="translate(259.048 276.246)" fill="#811a20"/>
        <path id="패스_5070" data-name="패스 5070" d="M6.532.6A.719.719,0,0,0,5.379.161a22.529,22.529,0,0,0-2.15,3.1A21.1,21.1,0,0,1,.3,6.092a.961.961,0,0,0,.881,1.619C3.88,6.989,6.953,3.586,6.532.6" transform="translate(266.181 287.032)" fill="#811a20"/>
        <path id="패스_5071" data-name="패스 5071" d="M9.274,1.295A1.041,1.041,0,0,0,7.367.527a45.918,45.918,0,0,1-3.3,5.283C2.921,7.31,1.322,8.368.178,9.878c-.585.773.4,1.672,1.165,1.511,4.318-.9,7.3-6.017,7.931-10.094" transform="translate(269.696 288.298)" fill="#811a20"/>
        <path id="패스_5072" data-name="패스 5072" d="M7.053.657A17.407,17.407,0,0,1,4.295,5.383C3.035,6.935,1.243,8.01.154,9.678a1.061,1.061,0,0,0,1.2,1.528c3.99-1,6.776-6.181,7.989-9.761C9.775.142,7.554-.622,7.053.657" transform="translate(273.951 292.76)" fill="#811a20"/>
        <path id="패스_5073" data-name="패스 5073" d="M8.827.3A38.842,38.842,0,0,1,4.2,5.1,34.11,34.11,0,0,0,.257,8.526a.981.981,0,0,0,.908,1.645c4.241-.976,7.45-5.432,9.027-9.189C10.549.129,9.345-.346,8.827.3" transform="translate(273.959 300.166)" fill="#811a20"/>
        <path id="패스_5074" data-name="패스 5074" d="M4.8.049a.5.5,0,0,0-.667.259c-.647,1.741-.2,3.634-.883,5.423C2.518,7.641,1.128,9.229.1,10.977a.591.591,0,0,0,.689.9A8.176,8.176,0,0,0,6.126,6.212c.613-1.986.753-5-1.323-6.163" transform="translate(284.041 305.378)" fill="#811a20"/>
        <path id="패스_5075" data-name="패스 5075" d="M9.742.683C9.914-.092,8.8-.224,8.488.372A27.623,27.623,0,0,1,4.806,5.815C3.321,7.5,1.01,8.888.058,10.936a.675.675,0,0,0,.725.9c2.19-.158,3.91-2.191,5.311-3.719A16.259,16.259,0,0,0,9.742.683" transform="translate(285.861 311.859)" fill="#811a20"/>
        <path id="패스_5076" data-name="패스 5076" d="M4.638.349A12.86,12.86,0,0,1,2.228,2.46,6.014,6.014,0,0,0,.054,4.538a.522.522,0,0,0,.4.725C2.745,5.53,4.8,3.48,6.175,1.857,7.06.808,5.57-.685,4.638.349" transform="translate(285.876 324.736)" fill="#811a20"/>
        <path id="패스_5077" data-name="패스 5077" d="M6.8.057C2.109,1.809-.48,7.6.074,12.362c.116.984,1.537.874,1.8.054,1.312-4.014,2.417-8.2,5.93-10.9C8.674.846,7.66-.265,6.8.057" transform="translate(126.289 214.901)" fill="#811a20"/>
        <path id="패스_5078" data-name="패스 5078" d="M8.915.034C4.135,1.873-.274,7.139.013,12.452c.052.991,1.485,1.517,1.972.514.969-1.988,1.6-4.083,2.685-6.01A33.5,33.5,0,0,1,9.547.881c.38-.414-.155-1.032-.632-.848" transform="translate(118.663 216.539)" fill="#811a20"/>
        <path id="패스_5079" data-name="패스 5079" d="M9.7.014C3.865-.389-1.422,8.2.347,13.4a1.023,1.023,0,0,0,1.862.255C3.364,11.543,3.714,9.091,4.8,6.927,6.043,4.452,8.216,2.85,10.018.832A.513.513,0,0,0,9.7.014" transform="translate(111.951 216.92)" fill="#811a20"/>
        <path id="패스_5080" data-name="패스 5080" d="M4.666.258C2.21,2.4-1,7.422.3,10.729a.711.711,0,0,0,1.1.259C2.763,9.772,3.186,7.781,3.821,6.119A49.127,49.127,0,0,1,6.177,1.46.979.979,0,0,0,4.666.258" transform="translate(98.581 226.783)" fill="#811a20"/>
        <path id="패스_5081" data-name="패스 5081" d="M7.172,1.108a.732.732,0,0,0-1.2-.831C3.2,3.322-.679,8.4.1,12.781a.881.881,0,0,0,1.59.287c1.383-1.692,1.7-4.1,2.491-6.109A34.2,34.2,0,0,1,7.172,1.108" transform="translate(91.878 226.435)" fill="#811a20"/>
        <path id="패스_5082" data-name="패스 5082" d="M2.847,8.2a25.078,25.078,0,0,1,2.7-6.936.831.831,0,0,0-1.394-.9C1.6,3.825-1.092,8.933.454,13.325a.814.814,0,0,0,1.5-.1c.468-1.64.553-3.356.9-5.022" transform="translate(86.295 229.947)" fill="#811a20"/>
        <path id="패스_5083" data-name="패스 5083" d="M2.2,5.486A14.169,14.169,0,0,1,2.133.911C2.261-.087.593-.378.39.613A17.89,17.89,0,0,0,.027,5.285C.113,6.8.28,8.746,1.456,9.823a.84.84,0,0,0,1.45-.5c.132-1.31-.451-2.564-.7-3.837" transform="translate(82.229 238.263)" fill="#811a20"/>
        <path id="패스_5084" data-name="패스 5084" d="M5.589.183A11.4,11.4,0,0,0,1.8,4.241C.654,6.34-.823,9.8.559,12.074a.787.787,0,0,0,1.338.1c1.072-1.25,1.168-3.123,1.662-4.651A17.475,17.475,0,0,1,6.694,1.427.833.833,0,0,0,5.589.183" transform="translate(73.444 234.193)" fill="#811a20"/>
        <path id="패스_5085" data-name="패스 5085" d="M3.016,7.393C3.385,5.2,3.905,3.031,4.462.884c.162-.63-.676-1.265-1.09-.6C1.3,3.562-.83,8.586.326,12.5a.88.88,0,0,0,1.686.08,26.022,26.022,0,0,0,1-5.192" transform="translate(68.286 237.131)" fill="#811a20"/>
        <path id="패스_5086" data-name="패스 5086" d="M2.041,4.293a19.023,19.023,0,0,1,0-3.354C2.157-.3.286-.31.133.888A18.732,18.732,0,0,0,.014,3.9,5.825,5.825,0,0,0,.636,7.1c.33.509,1.044.22,1.247-.222a4.769,4.769,0,0,0,.158-2.585" transform="translate(64.006 247.073)" fill="#811a20"/>
        <path id="패스_5087" data-name="패스 5087" d="M5.655.366C3.4,2.66-.795,7.226.131,10.768a.778.778,0,0,0,1.258.449c1.312-.99,1.8-2.7,2.519-4.137A28.945,28.945,0,0,1,7.347,1.943,1.157,1.157,0,0,0,5.655.366" transform="translate(111.469 190.734)" fill="#811a20"/>
        <path id="패스_5088" data-name="패스 5088" d="M7.917.184C4.566,2.705-.566,7.291.051,11.982a.7.7,0,0,0,1.116.429c1.9-1.284,2.782-3.66,3.956-5.548a30.111,30.111,0,0,1,4-5.074C9.892.994,8.858-.526,7.917.184" transform="translate(102.623 190.933)" fill="#811a20"/>
        <path id="패스_5089" data-name="패스 5089" d="M8.468.05A11.06,11.06,0,0,0,2.975,3.8C1.475,5.52-.534,8.3.131,10.672a1.147,1.147,0,0,0,1.683.647C3.329,10.29,3.838,8.328,4.769,6.8A15.117,15.117,0,0,1,9.35,2.076,1.118,1.118,0,0,0,8.468.05" transform="translate(94.838 192.45)" fill="#811a20"/>
        <path id="패스_5090" data-name="패스 5090" d="M6.011.216C3.208,2.161-.856,6.58.159,10.32a1.188,1.188,0,0,0,1.992.449C3.34,9.5,3.817,7.541,4.658,6.022A28,28,0,0,1,7.537,2.034C8.361,1.023,7.164-.584,6.011.216" transform="translate(88.697 191.597)" fill="#811a20"/>
        <path id="패스_5091" data-name="패스 5091" d="M5.611.713A.654.654,0,0,0,4.562.132C1.747,2.31-.59,7.15.133,10.711A.7.7,0,0,0,1.378,11a14.815,14.815,0,0,0,2.169-4.39A33.933,33.933,0,0,0,5.611.713" transform="translate(74.815 191.431)" fill="#811a20"/>
        <path id="패스_5092" data-name="패스 5092" d="M6.7.106C4.665,1.155,3.394,3.343,2.211,5.232,1.056,7.073-1.007,10.079.575,12.11a.811.811,0,0,0,.8.266c1.664-.438,2.089-1.97,2.719-3.449C5.226,6.27,7.175,3.913,8.142,1.239,8.448.387,7.414-.263,6.7.106" transform="translate(66.518 189.867)" fill="#811a20"/>
        <path id="패스_5093" data-name="패스 5093" d="M6.475.17C2.847,2.513-.806,6.985.156,11.59a1.064,1.064,0,0,0,1.94.244A45.577,45.577,0,0,0,4.189,6.773a17.325,17.325,0,0,1,3.63-4.9A1.1,1.1,0,0,0,6.475.17" transform="translate(59.863 188.26)" fill="#811a20"/>
        <path id="패스_5094" data-name="패스 5094" d="M4.775,1.151C5.136.165,3.657-.452,3.122.409A27.522,27.522,0,0,0,.848,4.824C.345,6.087-.266,7.545.124,8.911a.743.743,0,0,0,1.189.438c1.1-.867,1.4-2.158,1.882-3.427.594-1.565,1-3.2,1.58-4.771" transform="translate(55.332 189.564)" fill="#811a20"/>
        <path id="패스_5095" data-name="패스 5095" d="M7.624.122A16.951,16.951,0,0,0,2.067,5.209C.861,6.981-.562,9.377.228,11.526a.859.859,0,0,0,1.331.257c1.424-1.28,1.815-3.5,2.751-5.162a17.945,17.945,0,0,1,4.39-5C9.519.96,8.52-.415,7.624.122" transform="translate(43.514 185.726)" fill="#811a20"/>
        <path id="패스_5096" data-name="패스 5096" d="M9.382.082C5.106,2.175-.408,7.132.024,12.409c.06.712.924,1.34,1.534.7,1.755-1.843,2.566-4.286,4.01-6.366A31.757,31.757,0,0,1,10.21,1.366.774.774,0,0,0,9.382.082" transform="translate(35.541 185.392)" fill="#811a20"/>
        <path id="패스_5097" data-name="패스 5097" d="M5.027.332A29.456,29.456,0,0,0,1.818,5.11C.933,6.789-.437,8.994.135,10.934a.783.783,0,0,0,1.262.445C2.819,10.35,3.134,8.455,3.8,6.9A34.136,34.136,0,0,1,6.695,1.592C7.349.6,5.774-.592,5.027.332" transform="translate(30.228 188.489)" fill="#811a20"/>
        <path id="패스_5098" data-name="패스 5098" d="M2.744.508C2.126,1.561,1.537,2.623.991,3.721.437,4.841-.336,6.048.158,7.284a.753.753,0,0,0,1,.371c1.092-.6,1.26-1.8,1.739-2.885.492-1.112,1.064-2.18,1.651-3.244A1.034,1.034,0,0,0,2.744.508" transform="translate(22.741 195.462)" fill="#811a20"/>
        <path id="패스_5099" data-name="패스 5099" d="M9.248.034a16.016,16.016,0,0,0-5.7,3.488C1.964,4.855-.17,6.692.011,8.929a.624.624,0,0,0,.7.539c1.776-.419,2.955-2.214,4.131-3.5C6.391,4.272,8.354,3.07,9.936,1.441c.507-.527.158-1.651-.688-1.407" transform="translate(102.772 165.997)" fill="#811a20"/>
        <path id="패스_5100" data-name="패스 5100" d="M8.865.063a21.808,21.808,0,0,0-5.423,2.43C2,3.38.1,4.879,0,6.683A1.064,1.064,0,0,0,1.327,7.7c1.467-.358,2.749-1.921,3.96-2.814A16.928,16.928,0,0,1,9.8,2.613c1.675-.587.727-3.036-.937-2.549" transform="translate(96.762 164.262)" fill="#811a20"/>
        <path id="패스_5101" data-name="패스 5101" d="M11.223,0A14.891,14.891,0,0,0,4.341,1.577C2.5,2.51.23,3.856,0,6.107a1,1,0,0,0,1.234.978c1.776-.3,3.114-2,4.575-2.95a14.376,14.376,0,0,1,5.671-2.1C12.672,1.854,12.363,0,11.223,0" transform="translate(90.015 160.914)" fill="#811a20"/>
        <path id="패스_5102" data-name="패스 5102" d="M9.085,0C5.917-.056.949,1.679.036,5.152A1.006,1.006,0,0,0,1.478,6.289,18.7,18.7,0,0,0,4.6,3.825,15.425,15.425,0,0,1,9.385,1.543c.781-.265.47-1.526-.3-1.541" transform="translate(86.739 158.086)" fill="#811a20"/>
        <path id="패스_5103" data-name="패스 5103" d="M8.158.011A13.993,13.993,0,0,0,3.319,1.744,8.917,8.917,0,0,0,1.262,3.565,5.416,5.416,0,0,0,.047,6.092c-.311,1.107,1.008,1.614,1.768,1C4.148,5.235,5.7,2.639,8.5,1.245,9.139.932,8.911-.121,8.158.011" transform="translate(73.665 152.383)" fill="#811a20"/>
        <path id="패스_5104" data-name="패스 5104" d="M10.077.025A10.844,10.844,0,0,0,4.252,1.5C2.537,2.389.53,3.645.029,5.624A1.024,1.024,0,0,0,1.261,6.871c1.66-.52,2.734-1.945,4.115-2.946a23.722,23.722,0,0,1,4.97-2.432A.777.777,0,0,0,10.077.025" transform="translate(68.376 149.436)" fill="#811a20"/>
        <path id="패스_5105" data-name="패스 5105" d="M9.633.015A18.863,18.863,0,0,0,3.4,2.626C2.064,3.5-.042,4.855,0,6.655A.887.887,0,0,0,.83,7.57c1.724.054,3.1-1.582,4.357-2.581,1.621-1.286,3.319-2.54,5.057-3.66.637-.41.078-1.468-.611-1.314" transform="translate(64.994 143.389)" fill="#811a20"/>
        <path id="패스_5106" data-name="패스 5106" d="M10.1.016C7.995-.135,6.133.836,4.363,1.868,2.549,2.923.049,4.993,0,7.24a.9.9,0,0,0,1.081.906c1.8-.581,3.093-2.473,4.51-3.669C7.1,3.2,8.928,2.4,10.38,1.065c.347-.315.28-1.01-.276-1.049" transform="translate(60.36 139.645)" fill="#811a20"/>
        <path id="패스_5107" data-name="패스 5107" d="M10.18,0C6.13.321.389,2.645,0,7.373a.655.655,0,0,0,1.047.581,40.746,40.746,0,0,0,3.632-3.27,14.049,14.049,0,0,1,5.65-2.916c.943-.233.893-1.843-.153-1.765" transform="translate(56.72 136.546)" fill="#811a20"/>
        <path id="패스_5108" data-name="패스 5108" d="M7.992.02C4.574,1.069,1.032,5.343.033,8.662c-.224.753.734,1.5,1.342.883A52.577,52.577,0,0,0,4.958,5.023C6.125,3.549,7.659,2.282,8.521.6A.43.43,0,0,0,7.992.02" transform="translate(43.416 129.455)" fill="#811a20"/>
        <path id="패스_5109" data-name="패스 5109" d="M8.948.075C5.416,1.861-1.29,6.939.217,11.633c.155.485.753.479,1.1.257C2.757,10.958,3.4,8.959,4.226,7.5A18.817,18.817,0,0,1,9.775,1.359C10.491.849,9.71-.3,8.948.075" transform="translate(36.32 127.508)" fill="#811a20"/>
        <path id="패스_5110" data-name="패스 5110" d="M7.418.228C4.619,2.613.432,6.262.005,10.169a.82.82,0,0,0,1.344.665,11.738,11.738,0,0,0,2.687-3.4A41.282,41.282,0,0,1,8.591,1.515.871.871,0,0,0,7.418.228" transform="translate(29.195 129.467)" fill="#811a20"/>
        <path id="패스_5111" data-name="패스 5111" d="M7.749.381Q5.367,3.056,2.984,5.727A11.36,11.36,0,0,0,.012,10.551a.532.532,0,0,0,.71.574A11.414,11.414,0,0,0,4.97,7.419Q7.184,4.68,9.4,1.935C10.311.813,8.731-.723,7.749.381" transform="translate(21.202 131.962)" fill="#811a20"/>
        <path id="패스_5112" data-name="패스 5112" d="M6.456.339C4.064,2.711,1.089,5.527.037,8.794a.594.594,0,0,0,.9.689C3.883,7.791,5.784,4.323,8.107,1.9,9.125.84,7.494-.686,6.456.339" transform="translate(15.071 134.788)" fill="#811a20"/>
        <path id="패스_5113" data-name="패스 5113" d="M7,.05C4.394,1.088.791,3.112.029,6.052c-.2.779.689,1.625,1.437,1.133A16.214,16.214,0,0,0,4.142,4.431,21.033,21.033,0,0,1,7.8,1.306C8.547.82,7.748-.242,7,.05" transform="translate(112.682 140.328)" fill="#811a20"/>
        <path id="패스_5114" data-name="패스 5114" d="M9.3,0A13.626,13.626,0,0,0,3.459,1.892C2.091,2.733-.011,4.121,0,5.9a.8.8,0,0,0,.934.835C2.478,6.45,3.606,4.881,4.884,4.022a28.272,28.272,0,0,1,4.864-2.6C10.57,1.087,10.113-.083,9.3,0" transform="translate(107.778 137.755)" fill="#811a20"/>
        <path id="패스_5115" data-name="패스 5115" d="M9.123.015C6.106.485,1.155,1.435.052,4.762c-.268.811.557,1.366,1.262,1.262,1.5-.216,2.78-1.386,4.1-2.067A19.462,19.462,0,0,1,9.6,2.46c1.379-.348.928-2.67-.481-2.445" transform="translate(103.386 134.062)" fill="#811a20"/>
        <path id="패스_5116" data-name="패스 5116" d="M9.228.014a11.208,11.208,0,0,0-8.7,3.474,1.64,1.64,0,0,0,2.1,2.518A65.064,65.064,0,0,1,9.5,1.479.775.775,0,0,0,9.228.014" transform="translate(100.272 129.437)" fill="#811a20"/>
        <path id="패스_5117" data-name="패스 5117" d="M9.587.684A11.072,11.072,0,0,0,4.274.142C2.608.481.575,1.047.038,2.84A1.056,1.056,0,0,0,.8,4.122c1.4.324,2.564-.5,3.841-.96A12.783,12.783,0,0,1,9.274,2.18c.846.035,1.185-1.245.313-1.5" transform="translate(97.437 125.882)" fill="#811a20"/>
        <path id="패스_5118" data-name="패스 5118" d="M5.307.178C3.449,1.386,1.028,2.759.057,4.822A.815.815,0,0,0,.982,5.877c2.095-.6,3.643-2.614,5.35-3.9C7.362,1.2,6.453-.563,5.307.178" transform="translate(86.379 112.816)" fill="#811a20"/>
        <path id="패스_5119" data-name="패스 5119" d="M5.345.238c-1,.775-2.013,1.545-3.017,2.314A5.691,5.691,0,0,0,.047,5.064.946.946,0,0,0,1.152,6.238,5.811,5.811,0,0,0,3.9,4.394C4.871,3.5,5.816,2.59,6.772,1.68S6.351-.539,5.345.238" transform="translate(83.715 108.066)" fill="#811a20"/>
        <path id="패스_5120" data-name="패스 5120" d="M7.659.033A18.927,18.927,0,0,0,.548,3.766,1.5,1.5,0,0,0,2.375,6.147C4.544,4.718,6.239,2.692,8.319,1.134c.622-.464,0-1.312-.66-1.1" transform="translate(79.433 104.743)" fill="#811a20"/>
        <path id="패스_5121" data-name="패스 5121" d="M6.852.054A20.9,20.9,0,0,0,.482,3.806c-1.234,1.027.145,3.138,1.383,2.1A22.992,22.992,0,0,1,7.651,1.987c1.1-.46.321-2.327-.8-1.932" transform="translate(75 101.737)" fill="#811a20"/>
        <path id="패스_5122" data-name="패스 5122" d="M9.77.026C6.457.859,2.766,2.1.386,4.686-.861,6.045,1.2,7.644,2.535,6.8c2.635-1.66,4.927-3.841,7.618-5.46C10.764.969,10.6-.187,9.77.026" transform="translate(71.284 96.508)" fill="#811a20"/>
        <path id="패스_5123" data-name="패스 5123" d="M7.135.009A12.344,12.344,0,0,0,2.59,1.848C1.345,2.6-.2,3.827.02,5.419A.933.933,0,0,0,.7,6.127c1.413.233,2.313-.853,3.313-1.681a47.933,47.933,0,0,1,3.831-3c.738-.494.024-1.55-.714-1.433" transform="translate(69.855 92.614)" fill="#811a20"/>
        <path id="패스_5124" data-name="패스 5124" d="M6.488.053A10.8,10.8,0,0,0,2.2,2.817C1.136,3.97-.425,5.975.108,7.609a.968.968,0,0,0,1.375.624c1.189-.744,1.586-2.2,2.424-3.287A17.068,17.068,0,0,1,7.469,1.479C8.337.864,7.327-.256,6.488.053" transform="translate(56.906 85.283)" fill="#811a20"/>
        <path id="패스_5125" data-name="패스 5125" d="M9.561.042a16.735,16.735,0,0,0-6.77,4.236C1.477,5.646-.64,8,.186,10.03a.583.583,0,0,0,.617.363c1.983-.363,3.082-2.887,4.312-4.321a29.63,29.63,0,0,1,5.218-4.808c.714-.507-.045-1.478-.771-1.222" transform="translate(49.547 83.943)" fill="#811a20"/>
        <path id="패스_5126" data-name="패스 5126" d="M10.858.087A26.618,26.618,0,0,0,3.678,4.6C2.09,5.985-.053,8.027,0,10.3c.009.54.563,1.1,1.126.768,1.666-.963,2.6-2.857,3.882-4.256A30.04,30.04,0,0,1,11.674,1.68.9.9,0,0,0,10.858.087" transform="translate(40.12 84.724)" fill="#811a20"/>
        <path id="패스_5127" data-name="패스 5127" d="M8.3.161A39.683,39.683,0,0,0,2.83,4.695C1.557,5.975.158,7.369,0,9.238a.758.758,0,0,0,1.062.745C2.746,9.4,3.79,7.718,4.91,6.417A49.333,49.333,0,0,1,9.5,1.771C10.349,1.015,9.237-.495,8.3.161" transform="translate(33.834 86.493)" fill="#811a20"/>
        <path id="패스_5128" data-name="패스 5128" d="M3.714.26C2.38,1.781.682,3.613.033,5.543c-.175.522.369,1.181.922.872,1.858-1.027,2.883-3.39,4.157-5.009C5.745.6,4.388-.511,3.714.26" transform="translate(27.453 93.525)" fill="#811a20"/>
        <path id="패스_5129" data-name="패스 5129" d="M29.913,12.68C22.349,6.007,10.5,1.62.681.01-.054-.113-.251.931.373,1.218,4.445,3.092,8.61,4.79,12.721,6.586c5.482,2.4,10.588,5.827,16.181,7.9,1.016.375,1.783-1.131,1.012-1.811" transform="translate(196.771 124.993)" fill="#811a20"/>
        <path id="패스_5130" data-name="패스 5130" d="M18.74,11.382c-1.254-2.862-5.855-4.765-8.408-6.261C7.76,3.611,3.48-.013.459.141A.042.042,0,0,0,.472.059C.228-.021-.076-.075.017.277.5,2.092,1.726,2.843,3.243,3.909,5.632,5.594,8.194,7.12,10.71,8.6c2.191,1.288,4.731,3.4,7.3,3.811a.739.739,0,0,0,.73-1.03" transform="translate(187.794 126.117)" fill="#811a20"/>
        <path id="패스_5131" data-name="패스 5131" d="M29.651,13.135C22.147,7.011,10.531.543.8,0,.111-.036-.335.929.32,1.328c4.5,2.734,9.742,4.245,14.535,6.433,4.771,2.175,9.234,4.968,14.053,7.027,1.042.447,1.465-1.064.744-1.653" transform="translate(165.749 125.085)" fill="#811a20"/>
        <path id="패스_5132" data-name="패스 5132" d="M30.425,7.339C21.6,3.076,10.972-.731,1.034.12-.095.215-.468,1.956.777,2.2c9.958,1.921,19.418,2.654,28.936,6.628.863.36,1.563-1.079.712-1.487" transform="translate(147.802 128.867)" fill="#811a20"/>
        <path id="패스_5133" data-name="패스 5133" d="M31.44,85.545c-.867-3.513-2.674-6.647-3.377-10.232a20.2,20.2,0,0,1-.084-6.543.8.8,0,0,0,.5-.842c-.052-.326-.138-.641-.2-.962a35.948,35.948,0,0,1,1.079-4.115,1.058,1.058,0,0,0-1.94-.777c-.058.116-.11.24-.164.35-.8-3.1-1.731-6.159-2.683-9.221.38-.647.771-1.3,1.187-1.918.949-1.433-1.057-3.164-2.1-1.729-.047.063-.1.14-.143.2-.52-1.741-1.016-3.487-1.467-5.251q1.345-1.5,2.773-2.926a.874.874,0,0,0-1.172-1.3c-.714.606-1.435,1.25-2.147,1.914-.375-1.653-.716-3.324-.952-5.022-.035-.255-.06-.505-.089-.758q1.769-1.481,3.63-2.827c1.308-.952-.032-3.01-1.385-2.1-.816.55-1.675,1.157-2.551,1.806a51.685,51.685,0,0,1-.058-6.308,45.327,45.327,0,0,1,6.231-3.3c1.031-.445.334-2.208-.723-1.832a51.2,51.2,0,0,0-5.259,2.2q.246-2.2.693-4.348c3.788-1.364,7.706-2.354,11.559-3.58.861-.274.913-1.681-.125-1.685A41.99,41.99,0,0,0,22,15.935c.356-1.176.771-2.327,1.228-3.472,5.339-1.137,10.8-1.3,16.162-2.242A.773.773,0,0,0,39.317,8.7a55.106,55.106,0,0,0-14.429.11,41.272,41.272,0,0,1,2.331-3.984,76.782,76.782,0,0,1,17.012.785c1.129.186,1.7-1.513.525-1.752A95.606,95.606,0,0,0,29.332,1.931c.175-.224.341-.449.52-.671C30.443.552,29.295-.425,28.644.2c-.578.557-1.131,1.12-1.655,1.692A44.083,44.083,0,0,0,8.433,5.464a.735.735,0,0,0,.423,1.388c5.356-.717,10.46-1.418,15.545-1.83a34.836,34.836,0,0,0-2.723,4.284C13.882,10.741,6.24,13.667,1.4,18.221c-.63.589-.076,1.83.824,1.554,2.782-.84,5.426-1.884,8.061-2.939-.369,1.435-.667,2.913-.9,4.42C5.278,23.8,1.874,27.006.062,30.791c-.291.606.5,1.254,1.055.954a68.194,68.194,0,0,0,7.715-5.225c-.1,1.819-.119,3.654-.035,5.5a33.973,33.973,0,0,0-4.685,5.661A42.052,42.052,0,0,1,3,32.617c-.151-1.008-1.588-.7-1.517.27a57.285,57.285,0,0,0,1.049,7.487c-.175.335-.375.658-.533,1-.363.77.408,1.7,1.111,1.468A36.341,36.341,0,0,0,5.72,49.781a16.261,16.261,0,0,0-1.366,7,.778.778,0,0,0,1.409.488,33.03,33.03,0,0,0,2.128-3.779,25.444,25.444,0,0,0,1.912,2.4,1,1,0,0,0,1.539-.022A21.367,21.367,0,0,0,9.473,67.184a.755.755,0,0,0,1.446.129c1.452-3.693,2.165-7.594,3.667-11.28.157-.386.341-.762.516-1.14a36.8,36.8,0,0,0,3.224,4.8c-1.826,5.246-2.309,10.9.184,15.713a.92.92,0,0,0,1.722-.388c.367-3.41-.1-6.828.274-10.272a25.7,25.7,0,0,1,1.481-6.112,49.291,49.291,0,0,0,3.706,7.707c-2.244,7.014-2.208,15.642,3.723,20.551a1.267,1.267,0,0,0,2.022-1.344M16.947,29.16c-.017.917-.022,1.839,0,2.773.024,1.215.086,2.477.173,3.761A57.478,57.478,0,0,0,12.8,39.67a49.122,49.122,0,0,1-1.267-5.823,58.43,58.43,0,0,1,5.412-4.687M12,16.164c2.559-1.017,5.126-2.02,7.825-2.818q-.685,1.764-1.2,3.6A46.976,46.976,0,0,0,11.359,20.1c.16-1.316.38-2.628.639-3.936M11,24.95A41.1,41.1,0,0,1,15.917,21.9q.883-.453,1.783-.848c-.268,1.539-.458,3.118-.583,4.722a44.561,44.561,0,0,0-6,4.18,49.188,49.188,0,0,1-.112-5m-5.926,15.8c1.353-1.562,2.7-3.088,4.085-4.538a55.855,55.855,0,0,0,1.118,6.246,34.2,34.2,0,0,0-2.84,3.971,60.4,60.4,0,0,1-2.363-5.68M11.72,55.036A1.136,1.136,0,0,0,11.6,54.4c-.758-1.375-1.487-2.726-2.2-4.077A43.034,43.034,0,0,1,11.424,46.5a47.738,47.738,0,0,0,2.067,5.266,32.651,32.651,0,0,0-1.77,3.269m4.2-6.757c-.732-1.713-1.429-3.444-2.057-5.2a43.423,43.423,0,0,1,3.557-3.919c.225,2.042.533,4.135.919,6.241q-1.258,1.384-2.419,2.879m3.58,8.468c-.74-1.908-1.547-3.79-2.367-5.672.567-.924,1.159-1.834,1.8-2.713.462,2.083,1.012,4.154,1.642,6.181-.38.717-.738,1.461-1.073,2.2" transform="translate(123.791 135.075)" fill="#811a20"/>
        <path id="패스_5134" data-name="패스 5134" d="M7.57,22.363c-.607-3.2-2.5-6.04-3.354-9.193A27.738,27.738,0,0,1,3.731,1.533C4.013-.252,1.437-.588,1.007,1.11-.707,7.861-.935,19.4,6.083,23.492A1.023,1.023,0,0,0,7.57,22.363" transform="translate(159.234 205.601)" fill="#811a20"/>
        <path id="패스_5135" data-name="패스 5135" d="M8.1,13.579c-.868-1.791-2.7-3.11-3.686-4.916A12.7,12.7,0,0,1,3.108,1.621,1.483,1.483,0,0,0,.168,1.254,16.851,16.851,0,0,0,1.1,9.735c.878,2.244,3.244,5.235,5.741,5.654A1.211,1.211,0,0,0,8.1,13.579" transform="translate(169.918 216.932)" fill="#811a20"/>
        <path id="패스_5136" data-name="패스 5136" d="M9.972,13.274c-.87-2.02-2.709-3.336-3.964-5.091A12.866,12.866,0,0,1,3.742,1.81C3.536-.569-.217-.623.01,1.769c.447,4.681,3.505,12.908,9.4,12.59a.774.774,0,0,0,.561-1.085" transform="translate(180.368 224.626)" fill="#811a20"/>
        <path id="패스_5137" data-name="패스 5137" d="M5.529,6.293A2.14,2.14,0,0,0,5.1,5.285c-.36-.414-.662-.859-.982-1.293A9.884,9.884,0,0,1,2.721.884C2.272-.65-.242-.028.019,1.53.414,3.83,1.486,7.888,4.355,8A1.325,1.325,0,0,0,5.563,6.567c.1.842-.017-.121-.034-.274" transform="translate(191.4 232.231)" fill="#811a20"/>
      </g>
    </g>
  </g>
</svg>
