<svg xmlns="http://www.w3.org/2000/svg" xmlns:xlink="http://www.w3.org/1999/xlink" width="818" height="557" viewBox="0 0 818 557">
  <defs>
    <clipPath id="clip-path">
      <rect id="사각형_2643" data-name="사각형 2643" width="818" height="557" transform="translate(116.667 -1.47)" fill="#fff" stroke="#707070" stroke-width="1"/>
    </clipPath>
    <clipPath id="clip-path-2">
      <rect id="사각형_2642" data-name="사각형 2642" width="957.963" height="785.742" fill="#811a20"/>
    </clipPath>
  </defs>
  <g id="img-sec3-bg-crab" transform="translate(-116.667 1.47)" clip-path="url(#clip-path)">
    <g id="그룹_7196" data-name="그룹 7196" transform="translate(-49.818 23.212) rotate(-2)" opacity="0.85">
      <g id="그룹_7195" data-name="그룹 7195" clip-path="url(#clip-path-2)">
        <path id="패스_5806" data-name="패스 5806" d="M910.862,578.815c-9.747-15.3-35.149-40.534-54.113-28.81a24.485,24.485,0,0,0-13.1-10.718c-23.92-8.5-57.633-1.19-82.5,8.006-2.2-8.449-9.394-14.719-17.959-17.031-6.364-1.719-12.832-2.114-19.394-2.484a210.571,210.571,0,0,1-22.949-2.931,61.6,61.6,0,0,0,2.613-6.365c11.466,8.2,28.991,6.829,42.326,6.1,13.275-.739,32.356-3.21,41.488-13.932.022-.022.017-.052.03-.077a28.983,28.983,0,0,0,12.209-13.412,352.463,352.463,0,0,0,45.858,6.416c7.959.619,19.416.529,27.053-4.1,18.385,6.515,33.5,9.368,46.563,25.742,8.72,10.946,16.8,18.655,30.993,21.092,3.253.55,5.428-2.1,6.124-4.882,8.1-32.347-11.5-60.835-33.584-82.619-10.336-10.2-31.513-24.809-39.163-9.132-4.71-6.468-11.642-11.556-18.956-13.167-20.2-4.448-54.47,7.138-66.808,25.621a24.614,24.614,0,0,0-10.98-8.733c-9.231-3.722-22.544.383-31.513,2.875-11.272,3.111-22.364,5.376-33.632,7.778.039-4.349-.06-8.629-.438-12.793,29.614-.658,57.216-8.668,80.929-26.679,18.806-14.285,40.491-34.173,40.6-59.64.06-15.944-11.663-26.932-27.985-33.559,4.035-5.673.55-16.27-.546-22.351-1.208-6.747-2.725-15.368-7.168-21.122,31.028-41.041,10.9-102.125-14.856-143.814-26.7-43.189-83.07-92.864-138.318-78.863-3.7-1.7-7,2.737-4.59,6.077,19.614,27.216,39.76,49.807,50.921,82.266a124.962,124.962,0,0,1,6.468,41.127c-16.287-14.014-29.223-26.782-40.912-46.988-10.335-17.86-17.289-40.147-31.457-55.441-.61-3.412-5.853-3.541-7.4-.262-13.812,29.459-14.68,66.692-5.87,97.621,8.32,29.257,30.048,65.175,56.142,81.463a7.187,7.187,0,0,0,.649.339c3.567,9.248,17.057,18.075,23.846,21.792a162.422,162.422,0,0,0,21.973,10.116,34.915,34.915,0,0,0-1.177,10.821c.09,6.12.851,13.3,4.753,18.225a30.5,30.5,0,0,0-5.006,3.442,1.942,1.942,0,0,0-.7,1.392c-3.64,2.4-6.3,6.992-7.306,12.011-1.139,5.647-.288,10.825.305,16.481,1.143,10.8-7.907,20.383-13.915,28.892-13.756-20.194-33.271-37.057-55.484-51.277a22.846,22.846,0,0,0,.748-16.966c-3.116-8.93-11.423-15.028-20.013-18.178-6.915-2.531-15.634-3.644-22.472-.258-3.648,1.8-6.876,5.411-7.641,9.368-29.072-12.8-58.978-22.458-84.617-29.992-14.19-4.164-29.433-8.127-45.153-11.367-.09-17.469-13.129-29.412-30.667-29.249-12.7.112-26.812,8.9-26.373,21.831-22.837-.967-45.424.872-66.245,7.177a5.755,5.755,0,0,0-.331-2.527c-5.6-15.608.438-31.062,12-42.008,6.347-6,10.576-10.64,10.907-19.7a19.03,19.03,0,0,0-3.55-11.526c1.01-.834,1.985-1.732,2.957-2.54,2.041-1.693,4.134-3.49,6.3-5.14,20.048,10.58,57.358,5.6,69.606-8.818a4.486,4.486,0,0,0,3.726.142,11.764,11.764,0,0,0,3.356-2.209c26.743-2.286,53.533-12.609,77.169-24.9,32.313-16.812,39.335-52.188,57.01-80.951,1.237-2.007-1.637-4.5-3.292-2.677-30.761,33.98-85.919,44.32-130.222,41.29,7.048-15.759,21.569-27.242,35.493-36.627,27.723-18.694,58.471-21.247,88.811-31.805a2.657,2.657,0,0,0,3.679-3.545,2.99,2.99,0,0,0-2.351-2.729c-.112-.03-.228-.034-.34-.064C546.529,13.54,508.311.639,471.542.016c-33.834-.572-65.283,13.95-93.7,30.942-23.731,14.2-55.738,38.381-63.13,66.8-2.007,7.7-1.826,16.348.047,24.96a81.961,81.961,0,0,0-19.094,14.19c-4.865,4.689-10.868,10.37-10.808,17.538a2.433,2.433,0,0,0,.2.752c-11.461-3.223-21.38-2.166-25.574,8.668-18.462,12.854-20.391,48.935-19.235,68.342,1.573,26.584,17.611,69.026,43.679,80.56-1.942,2.235-3.825,4.568-5.673,6.988-13.885-7.486-18.509-29.515-29.107-40.856-6.089-6.515-13.318-9.39-20.731-9.364a7.1,7.1,0,0,0-.8-2.153c-9.416-16.279-18.544-32.476-31.178-46.559-5.38-6.012-15.381-16.15-24.749-16.747a1.59,1.59,0,0,0-2.2-1.551,71.347,71.347,0,0,0-11.251,5.045c-7.585-20.091-23.675-22.265-44.6-16.936-28.853,7.336-59,21.272-72,49.765a5.329,5.329,0,0,0,2.643,6.915c13.928,7.344,30.044,3.167,44.466-.511,16.038-4.1,27.89-7.288,43.868-4.293a30.055,30.055,0,0,0,5.282,16.219c7.512,11.539,20.477,17.572,30.783,26.073,6.644,5.462,16.008,17.753,25.527,16.605a33.879,33.879,0,0,0,4.925,22.166c13.2,20.219,39.094,31.784,60.586,41.462a65.243,65.243,0,0,0-2.587,14.62c-14.912-10.718-29.91-25.492-49.146-25.308a22.52,22.52,0,0,0-8.737,1.968,222.954,222.954,0,0,1-20.25-26.2c-4.753-7.374-10.679-15.785-18.565-20.108-10.791-5.918-21.47-5.836-30.993-1.646.563-17.039-24.719-20.628-39.82-16.61-30.985,8.221-67.118,24.728-88.394,49.193-1.887,2.162-1.7,6.072,1.2,7.374,17.091,7.667,34.908,7.594,53.31,6.734,16.958-.787,34.087,2.892,50.942,1.474,12.862,22.08,55.562,35.884,74.127,42.059a6.136,6.136,0,0,0,2.918.288c13.993,23.881,59.112,41.737,79.688,33.735a3.516,3.516,0,0,0,2.041-3.18c.941,2.725,1.891,5.458,2.905,8.157-9.424.159-18.264,1.2-27.921-.159-9.927-1.388-19.76-3.468-29.829-3a23.672,23.672,0,0,0-15.342,6.923c-11.633-10.138-32.669-12.132-46.89-12.69a42.252,42.252,0,0,0-18.617,3c-1.551-10.808-15.209-12.815-26.339-9.983-15.552,3.958-32.416,13.855-44.7,24.134C52.042,451.4,25.17,475.654,39,485.6c7.34,5.277,17.143,1.642,25.054-.6,5.337-1.5,10.718-2.952,16.111-4.285,9.424-2.338,21.5,5.067,30.92,7.151a4.45,4.45,0,0,0,5.062-2.119,28.416,28.416,0,0,0,13.816,10.843c10,3.713,23.559,1.607,34.036,1.633,10.052.022,19.36-.872,27.9-6.468a2.663,2.663,0,0,0,.6-.554c8.836,10.108,27.358,11.534,39.605,10.774,10.086-.645,23.572-.748,36.021-2.991-.6.189-1.225.382-1.792.576-10.254,3.442-21.178,10.512-23.254,21.479-16.511-5.72-35.5.627-47.766,12.712a40.735,40.735,0,0,0-3.58,4.16c-19.914-12.991-45.467,24.311-51.952,38.69-3.64,8.079-7.061,20.838.774,27.607,3.855,3.335,9.368,3.326,14.1,2.566,12.4-2,24.465-8.84,36.2-13.03a1.464,1.464,0,0,0-.026-2.69c-13.524-5.673-26.618,5.423-40.031,6.768-9.519.95-3.584-12.613-1.663-16.923,5.127-11.517,22.029-38.72,38.054-35.819-7.061,13.391-9.91,31.625,1.857,40.951a1.738,1.738,0,0,0,2.695-1.281c.5-5.376-.55-10.653-.941-16-.67-9.192,4.59-18.045,10.043-24.977,11.423-14.53,28.105-16.158,45.029-13.713a3.249,3.249,0,0,0,.963-.052,3.752,3.752,0,0,0,2.656-.172,5.08,5.08,0,0,0,3.275-3.885c2.308-23.344,34.358-20.774,50.985-24.938l.013,0A202.871,202.871,0,0,0,323.53,522.5c4.2,3.941,8.655,7.735,13.223,11.453a161.212,161.212,0,0,0-47.165,15.114c-6.287,3.133-12.437,6.326-19.192,8.371-12.888,3.9-13.249-6.648-16.532-15.651-.61-1.663-3.129-2.763-4.418-1.061-3.576,4.745-4.689,9.128-4.156,12.905-8.535,8.762-12.811,22.085-23.043,29.665-6.425,4.762-14.293,4.379-21.706,2.836-4.173-.86-8.78.168-8.565,5.161a5.046,5.046,0,0,0,2.918,4.143,35.724,35.724,0,0,0,38.458-5.771,78.519,78.519,0,0,0,18.823-26.206,24.611,24.611,0,0,0,16.988,2.914c11.04-1.955,21.956-7.559,32.231-11.861,13.687-5.72,29.893-7.177,42.738-14.727,54.131,41,129.56,66.5,197.67,62.334-3.442,7.589.215,17.319,2.179,25.037a88.86,88.86,0,0,0,17.078,34.513c7.8,9.515,19.781,14.087,30.869,12.39-2.342,18.105,4.3,40.727,11.281,55.433,3.5,7.426,9.862,15.862,18.612,17.074a18.885,18.885,0,0,0,10.181-1.6c-.451,4.3,2.046,9.738,3.614,12.789,3.919,7.641,10.576,14.68,11.887,23.391.752,4.985,5.965,5.638,9.033,3.3,15.707,2.046,24.061-30.839,25.651-41.221,1.968-12.91-.142-44.762-18.324-46.077a39.759,39.759,0,0,0-2.849-14.444c-4.628-11-16.941-25.725-30.129-29.408,1.375-6.068-.511-12.6-2.626-18.346-3.541-9.7-9.992-18.561-15.922-26.911-2.523-3.554-6.794-10.408-11.448-14.074,1.272-.223,2.51-.524,3.739-.851a23.7,23.7,0,0,0,5.63-2.17c3.571,19.876,21.668,40.392,36,52.79,8.311,7.194,26.2,13.563,36.232,7.2,6.554,13.636,24.921,27.315,33.855,34,6.09,4.568,24.354,13.932,32.936,8.552,3.3,11.13,32.751,17.327,36.593,24.143,4.276,7.6,6.261,16.9,13.576,22.325,3.958,2.948,8.247,1.6,11.015-1.375a1.728,1.728,0,0,0,.576-.009c10.237-2.428,11.113-17.525,11.457-25.871.554-13.275-3.717-27.547-8.965-39.562-4.014-9.214-10.481-19.45-19.639-24.255-5.3-2.781-12.66-3.859-18.127-1.242-.279-.975-.585-1.947-.958-2.914-3.962-10.5-16.6-15.041-26.266-18.071-11.045-3.485-23.189-7.061-34.818-8.99,3.021-9.545-5.767-16.223-13.283-19.8-9.261-4.4-19.1-7.542-28.5-11.62a45.046,45.046,0,0,1-12.544-7.671c-2.716-2.48-3.945-5.466-5.393-8.509,2.3-1.3,4.6-2.639,6.85-4.044-1.319,1.276-2.136,3.077-.718,4.014,4.267,2.828,6.377,5.767,11.453,8.139,7.4,3.481,15.583,5.724,23.374,8.161,11.646,3.653,28.819,10.954,41.174,6.971a3.038,3.038,0,0,0,1.908-2.187,20.618,20.618,0,0,0,5.342-2.884c17.117,12.321,39.39,16.2,60.723,15.587a2.073,2.073,0,0,0,1.018,3.146c7.293,3.266,17.108,2.587,24.977-.628a2.425,2.425,0,0,0,1.165.262,24.578,24.578,0,0,0,11.947-3.661c6.979,13.713,34.955,16.176,45.854,25.282,5.449,4.568,24.354,26.73,34.852,23.189a9.635,9.635,0,0,0,.584.834c2.131,2.454,5.776,1.16,7.289-1.143,11.728-17.83-11.547-57.577-20.929-72.283M111.846,322.248c-6.846,8.35-9.347,16-8.814,23-11.539.632-23.4-1.745-34.9-2.041-18.831-.464-36.541,2.007-54.775-1.68,15.333-15.243,37.942-24.087,57.5-32.227,10.262-4.267,20.864-7.757,31.93-9.063,12.4-1.461,14.28,5.333,16.511,14.465a54.423,54.423,0,0,0-7.46,7.551m67.672,63.168c.017.473.09.958.133,1.44-17.267-3.808-33.318-9.166-48.772-18.217-23.168-13.6-18.393-41.823,4.9-52.025,27.478-12.016,37,31.694,56.7,43.787-7.783,6.176-13.266,16.094-12.961,25.015M81.974,472.538c-6.6,1.147-13.034,3.094-19.532,4.68a64.327,64.327,0,0,1-13.515,1.762c-7.061.189-.593-7.555,1.285-10.035,4.134-5.462,9.416-10.073,14.422-14.7,7.989-7.366,19.081-12.8,28.763-17.426a64.964,64.964,0,0,1,18.862-6.18c5.935-.821,7.5,2.265,8.7,6.867-4.1,4-7.2,9.386-9.106,16.3a42.086,42.086,0,0,0-.047,22.635c-9.231-1.367-20.572-5.522-29.829-3.906m764.663-25.024a27.076,27.076,0,0,1,22.94,3.932c10.258,7,5.067,18.8,6.356,28.638a3.771,3.771,0,0,0,6.068,2.23c8.367-7.168,8.913-17.035,5.213-25.823,14.242-10.563,32.308,15.664,39.605,24.268,13.167,15.548,21.148,33.365,19.158,53.327-13.851-4.53-20.3-18.47-31.139-28.092C906.2,498.31,892,492.457,879.379,491.3c.808-2.329-1.345-4.9-3.769-3.442-13.176,7.89-25.377,7.7-40.3,6.038-10.623-1.173-23.945-4.431-34.358-.327,2.948-8.475,2.944-18.213-.464-26.21a161.228,161.228,0,0,1,46.15-19.841M731.2,305.883c14.581,4.156,29.85,4.912,41.862-3.094a2.452,2.452,0,0,0-.6-4.465c-17.091-5.028-33.829-4.693-50.77-11.212-8.681-3.343-31.909-10.292-35.6-21.569a5.2,5.2,0,0,0-.305-1.5,9.814,9.814,0,0,1,.077-3.932c.451-1.848-1.8-4.065-3.563-2.716a18.208,18.208,0,0,0-1.59,1.358c-24.053-20.039-42.67-50.963-50.775-80.831-6.738-24.831-1.659-47.93,2.342-72.03,6.661,17.929,16.627,35.549,25.312,51.943,10.292,19.386,26.223,43.378,48.084,51.011-.1.915-.168,1.814-.279,2.716-2.123,16.893-10.271,28.638-18.84,42.687-.769,1.259.43,3.146,1.938,2.381C724.748,238.314,725.612,188.9,716.235,155c-8.144-29.459-27.641-62.657-52.571-82.7,19.876,2.342,37.77,5.853,56.181,16.687,21.908,12.875,38.965,32.5,53.022,53.34,14.087,20.886,23.344,44.951,29.193,69.348,3.5,14.56,5.552,29.738,4.285,44.685-1.337,15.9-13.451,29.678-21.264,42.8-2.08,3.494,1.831,7.5,5.247,4.968a84.4,84.4,0,0,0,10.335-9.068c.451,2.48,1,4.959,1.332,7.409.722,5.423,1.47,10.834,2.209,16.257a53.331,53.331,0,0,0,2.1,9.759c-23.279-6.893-52.515-6.33-71.295.335-.743-4.014-1.59-7.959-2.432-12.02-.718-3.541-.834-7.3-1.371-10.916m-6.364,74c6.094-11.242-6.966-34.44,7.873-40.173a1.115,1.115,0,0,0,.4-.3c19.437-1.689,37.676-4.426,57.715-.481,11.973,2.359,24.3,7.207,32.514,16.571,7.993,9.111.593,21.926-4.143,30.306-8.247,14.564-21.444,26.683-34.513,36.851-18.754,14.6-42.145,18.105-64.028,25.458A116.924,116.924,0,0,0,703.136,398.8c10.043-2.609,16.76-9.833,21.7-18.913M610.587,315.32c4.994-.309,9.987,1.612,14.319,3.889a21.525,21.525,0,0,1,9.893,10.825,11.369,11.369,0,0,1,.211,7.25c-10.288-6.029-21.015-11.53-31.93-16.571,1.6-2.978,2.557-5.071,7.508-5.393m-156.81-41.672a348.9,348.9,0,0,0-39.876-4.869c7.894-18.969,37.7-16.7,39.876,4.869M303.031,141.054c4.392-4.469,8.96-8.728,12.978-13.528,5.23,17.895,17.555,34.835,32.992,41.849a2.653,2.653,0,0,0,3.739-3.064c-6.115-26.541-35.6-41.35-20.456-72.365,12.325-25.252,40.675-43.06,63.907-57.031,54.268-32.609,112.692-32.308,164.6.877-34.1-1.4-74.763,18.376-99.379,37.689-26.012,20.413-50.048,68.329-19.21,95.408a2.971,2.971,0,0,0,4.865-2.445c-1.427-17.233-6.4-30.817-1.388-47.7,37.62,8.4,85.124-3.245,117.1-27.345-10.808,18.574-17.843,38.931-38.29,51.685-21.569,13.468-51.178,24.113-76.611,27.929a3.116,3.116,0,0,0-2.4-1.04,1.011,1.011,0,0,0-.851.584,4.1,4.1,0,0,0-.344,1.65,3.9,3.9,0,0,0-1.22,2.553,10.39,10.39,0,0,1-1.405.658,5.611,5.611,0,0,0-2.222,1.569c-14.684,2.106-27.487,6.7-42.738,6.047-12.695-.541-22.489-7.533-34.405-9.351a3.025,3.025,0,0,0-3.361,3.932,20.69,20.69,0,0,0,5.239,7.946,41.187,41.187,0,0,0-4.242,2.093,32.245,32.245,0,0,0-4.912,3.313c-6.085-5.05-13.76-8.818-19.515-11.595-8.41-4.065-29.205-19.089-47.229-25.187,6.115-3.257,9.949-10.249,14.753-15.131M268.518,165.9c20.353-5.1,42.987,17.409,60.341,25.875,5.2,2.54,10.314,5.045,15.269,8.049,15.544,9.429.1,27.005-6.622,38.11-7.314,12.072-10.469,26.33-5.578,39.665a5.71,5.71,0,0,0,.8,1.435,123.018,123.018,0,0,0-41,25.583,5.3,5.3,0,0,0-1.663-1.749c-39.206-26.094-49.9-99.662-21.543-136.968M135.164,230.669c-18.23-14.47-57.758,14.1-81.312,8.952,10.237-17.572,28.741-27.714,47.526-34.711a149.582,149.582,0,0,1,28.14-7.129c11.289-1.783,16.386,6.4,21.337,14.525-6.859,5.041-12.574,11.315-15.69,18.363m73.177,45.759a32.887,32.887,0,0,0-11.5,14.684c-17.5-9.394-35.531-19.622-48.673-35.067-17.443-20.507,9.906-30.306,20.267-44.767a36.162,36.162,0,0,0,3.215,2.462c7.194,4.933,12.97,11.358,18.342,18.152,9.888,12.5,17.048,27.014,25.226,40.641a43.739,43.739,0,0,0-6.88,3.893m55.171,150.114c-14.8-4.229-29.635-4.224-43.993-10.971a61.121,61.121,0,0,1-22.66-18.6c-10.348-13.722.348-33.838,18.445-32.089,15.909,1.543,24.689,21.062,41.655,20.065-.03,14.444,3.451,29.382,7.551,41.793.06.189.129.365.189.554a2.51,2.51,0,0,0-1.186-.756M232.8,490.072c-13.928.743-24.341-5.342-37.629-6.622a4.294,4.294,0,0,0-4.1,2.922,2.42,2.42,0,0,0-.365-.116c-13.047-1.977-28.449-.589-41.307,1.882-7.211,1.392-15.217.756-21.38-3.412-10.3-6.949-6.145-25.093-2.862-34.272,8.114-22.665,46.275-7.937,65.231-2.763-5.024,8.763-5.449,20.043,2.235,28.135a2.312,2.312,0,0,0,3.618-.443c4.736-8.475-.09-21.234,7.95-28.041,5.337-4.521,15.5-2.368,21.7-1.6,12.983,1.607,33.318,7.478,45.467-.516a240.032,240.032,0,0,0,18.707,36.142c-19.261,2.432-37.439,7.65-57.264,8.707m47.491,5.763a37.973,37.973,0,0,0,13.9-8.2v0c1.887,2.785,3.743,5.578,5.759,8.281-5.965-1.792-12.974-1.354-19.661-.077m493.24,175.714a30.05,30.05,0,0,0,3.584-15.067c6.347-.009,10.868.292,16.455,6.451,6.751,7.465,10.168,17.843,12.905,27.31a103.015,103.015,0,0,1,3.747,29.214c-.021,3.855-.881,7.8-1.259,11.7-9.82-1.99-11.513-21.41-20.237-27.263-11.466-7.7-25.441-5.939-33.2-18.672,8.019,1.513,14.47-7.207,18-13.675m-63.147-47.268c14.5,9.334,34.242,9.166,48.884,18.9,8.4,5.587,6.446,16.7,2.51,24.225-2.746,5.213-8.647,8.385-9.588,14.362a3.209,3.209,0,0,0,.159,1.65,1.269,1.269,0,0,0-.855-.009C725.182,692.117,706.45,657,689.037,641.05c0-.03.021-.06.03-.1a2.255,2.255,0,0,0-.537-2.106c8.35-.9,16.88-7.134,21.857-14.56m-32.338-24.414c7.473,3.064,17.813,5.488,23.211,11.874,2.016,2.381-2.7,6.261-4.147,7.722-4.976,4.946-10.907,7.993-13.8,14.689a3.466,3.466,0,0,0,.279,3.013,2.834,2.834,0,0,0-3.352,2.256c-5.651,1.4-10.675,2.939-17.181.679-9.012-3.129-16.39-11.522-22.488-18.4-9.618-10.812-15.333-24.208-24.354-35.3a208.09,208.09,0,0,0,30.714-12.566c.511,12.463,22.553,22.531,31.118,26.034m-19.27-46.387c-15.131,11.208-32.149,19.54-47.865,29.837-.1.021-.2.009-.305.034-2.789.739-5.458,1.835-8.264,2.5-3.021.7-5.892.98-8.625,2.527-1.758.993-1.62,2.982-.61,4.323a2.838,2.838,0,0,0-.421.971c-.847,4.19,2.712,8.9,4.749,12.308,4.083,6.794,8.9,13.142,12.974,19.962,3.743,6.279,7.34,13.06,8.952,20.237,1.56,6.983-3.881,8.359-7.744,13.069a2.611,2.611,0,0,0,.649,4.04c5.2,3.06,10.838,1.517,14.637-2.458,7.215,6.025,14.736,11.221,20.344,19.45,3.58,5.234,6.021,11.749,5.78,18.135-.21,5.81-4.259,10.937-5.771,16.395a2.078,2.078,0,0,0,2.4,2.609c7.16-.718,11.126-5.2,12.957-10.954,7.585,9.691,9.957,18.26,9,32.33-1.019,14.994-6.7,23.829-14.392,33.924-4.078-11.264-14.9-20.464-19.764-31.285A19.8,19.8,0,0,0,643.935,731a1.805,1.805,0,0,0-2.441-2.2c-6.223,2.037-13.288,9.674-20.133,5.754-6.111-3.494-9.27-11.964-11.711-18.114-5.729-14.383-7.048-29.7-10.357-44.582a29.066,29.066,0,0,0,10.623-8.036,2.351,2.351,0,0,0-2.218-3.924c-8.071,1.156-15.385,3.868-23.606,3.249-10.546-.8-17.826-12.011-22.381-20.267-4.031-7.3-6.683-15.514-9.192-23.434-1.96-6.18-2.493-12.828-6.734-17.624a211.057,211.057,0,0,0,29.734-4.414c2.733-.619,2.076-4.783-.653-4.779-39.133.009-73.529,1.014-111.562-10.993-36.068-11.367-70.384-26.03-102.133-46.726-59.838-39.034-106.654-115.283-88.154-187.807.391-1.534-1.68-1.9-2.514-1.023a44.036,44.036,0,0,0-6.343,8.6c-18.419-7.6-37.813-17.061-51.514-31.78-17.168-18.44,3.936-54.8,26.507-37.676,9.05,6.863,20.215,40.71,34.891,41.926a3.525,3.525,0,0,0,6.158,1.646c60.981-67.281,150.037-51.161,227.533-28.66,81.544,23.683,201.25,68.8,197.588,172.036-.357,10.146,14.9,11.423,15.759,1.225.069-.731.043-1.418.1-2.14,12.063,2.621,28.368-5.062,38.974-7.77,8.848-2.273,20.529-4.933,26.343,4.444,7.456,12.05,1.93,28.9-5.226,40-10.662,1-21.345,4.77-32.007,5.93-14.865,1.616-29.691-1.577-44.35-.344a59.429,59.429,0,0,0,1.715-11.006c.15-2.6-3.313-3.068-4.551-1.173-13.163,20.177-23.5,37.465-43.3,52.132m69.859,30.293c-8.449-3.115-18.182-4.448-26.326-6.738-12.643-3.554-25.587-10.254-38.454-12.45a1.766,1.766,0,0,0-.821.064c13.842-8.969,26.163-19.966,34.165-33.013,5.35,3.588,12.2,4.5,18.664,5.4,9.807,1.371,26.24-.627,31.909,9.416,8.492,15.041-9.441,27.289-19.137,37.323m102.082,15.9c-1.981.279-3.962.537-5.961.812a2.049,2.049,0,0,0-1.375-2.329c-24.38-6.88-49.008-7.753-72.631-17.31,5.926-7.766,10.009-18.011,10.911-25.381,16.42-.8,32.953-6.279,49.163-7.9,11.006-1.126,26.829-1.921,33.915,8.44,10.3,15.015-5.548,31.539-14.023,43.671m57.994,15c-12.88-6.343-26.335-10.09-38.664-17.426,8.947-9.893,13.146-25.815,10.073-38.763,22.815,1.35,34.942,18.239,46.245,39.172a142.463,142.463,0,0,1,11.47,29.231,64.993,64.993,0,0,1,1.641,10.456c-9.906-7.306-28.153-21.388-30.765-22.669" transform="translate(0 0.001)" fill="#811a20"/>
        <path id="패스_5807" data-name="패스 5807" d="M1.071.293.229.01C.005-.063-.1.293.13.375L.972.654c.228.077.335-.279.1-.361" transform="translate(687.012 71.698)" fill="#811a20"/>
        <path id="패스_5808" data-name="패스 5808" d="M26.171,28.091C25.918,16.862,12.136,2.586,1.529.046-.061-.337-.417,1.782.489,2.641c4.04,3.816,8.823,6.545,12.673,10.683,4.465,4.762,6.936,10.928,11.328,15.638.657.709,1.7-.1,1.68-.872" transform="translate(689.205 71.546)" fill="#811a20"/>
        <path id="패스_5809" data-name="패스 5809" d="M15.988,12.86C13.005,7.913,7.26.749,1.046.006A.9.9,0,0,0,.139,1.368c3.15,5.191,8,9.115,11.161,14.461,3.666,6.206,6.158,13.6,8.376,20.426a1.458,1.458,0,0,0,2.776-.387c.49-8.595-2.059-15.638-6.463-23.009" transform="translate(714.622 81.444)" fill="#811a20"/>
        <path id="패스_5810" data-name="패스 5810" d="M1.434.236C.729-.413-.143.4.02,1.2c1.556,7.3,4.25,14.272,5.6,21.651,1.44,7.761.606,15.66,1.431,23.443.262,2.411,3.571,1.934,4.263.116C16.5,32.492,12.556,10.472,1.434.236" transform="translate(740.981 94.918)" fill="#811a20"/>
        <path id="패스_5811" data-name="패스 5811" d="M12.886,16.189C11.58,11.118,7.962.207,1.546,0A1.385,1.385,0,0,0,.028,1.165C-.238,4.358,1.421,5.708,2.83,8.6A45.633,45.633,0,0,1,6.608,19.073c1.719,7.8.133,15.415.159,23.236a2.4,2.4,0,0,0,4.465,1.178c4.465-8.2,3.924-18.488,1.654-27.3" transform="translate(757.265 116.946)" fill="#811a20"/>
        <path id="패스_5812" data-name="패스 5812" d="M4.594.8a1.359,1.359,0,0,0-2.6.675c.511,7.632,1.539,15.015,1.229,22.686C2.927,31.4.138,38.252,0,45.464a1.6,1.6,0,0,0,2.871,1.087C12.4,35.2,11.345,13.224,4.594.8" transform="translate(774.049 136.366)" fill="#811a20"/>
        <path id="패스_5813" data-name="패스 5813" d="M10.718.814c-.37-1.332-2.325-.89-2.51.318C6.88,9.031,6.429,17.024,5.144,24.94S1.023,40.372.017,48.327c-.275,2.222,2.806,2.8,3.9,1.19,8.827-13.133,11.01-33.632,6.8-48.7" transform="translate(777.951 159.39)" fill="#811a20"/>
        <path id="패스_5814" data-name="패스 5814" d="M21.214,2.242a2.3,2.3,0,0,0-4.594-.056C14.957,18.921,6.976,30.588.1,45.4c-.486,1.057.812,2.51,1.9,1.878C17.419,38.345,22.039,18.9,21.214,2.242" transform="translate(780.541 186.829)" fill="#811a20"/>
        <path id="패스_5815" data-name="패스 5815" d="M27.168,2.116a2.11,2.11,0,0,0-4.113-.679c-3.094,8.9-6.683,17.478-11.87,25.372C7.542,32.374,2.69,37.011.133,43.226c-.61,1.47,1.006,2.535,2.282,2.1C17.993,40.011,26.7,17.1,27.168,2.116" transform="translate(781.08 214.493)" fill="#811a20"/>
        <path id="패스_5816" data-name="패스 5816" d="M34.08,3.012c.847-2.742-3.214-4.2-4.581-1.8A87.316,87.316,0,0,1,15.751,19.819C11.011,24.6,5.214,28.062.654,33.026a2.209,2.209,0,0,0,2.024,3.722c15.509-2.209,27.164-19.923,31.4-33.735" transform="translate(779.755 240.215)" fill="#811a20"/>
        <path id="패스_5817" data-name="패스 5817" d="M5.307,1.413c-.387-1.925-3.5-1.9-3.52.176C1.672,14.529.073,27.387,0,40.292a1.828,1.828,0,0,0,3.541.718C7.886,28.6,7.933,14.241,5.307,1.413" transform="translate(640.922 116.655)" fill="#811a20"/>
        <path id="패스_5818" data-name="패스 5818" d="M6.461,2.022C6.6-.639,2.877-.643,2.447,1.828c-2.4,13.507-4.16,29.824.318,42.923a1.793,1.793,0,0,0,3.3-.168c3.021-13.6-.327-28.664.4-42.562" transform="translate(650.938 136.945)" fill="#811a20"/>
        <path id="패스_5819" data-name="패스 5819" d="M6,2.329c-.262-3.077-4.83-3.146-4.852.039-.06,6.816-.55,13.6-.782,20.417C.168,28.38-.653,33.842,1.1,39.248a1.736,1.736,0,0,0,3,.249C9.665,29.141,6.975,13.6,6,2.329" transform="translate(662.714 162.629)" fill="#811a20"/>
        <path id="패스_5820" data-name="패스 5820" d="M5.566,1.942C4.926-1.312-.192-.147.006,3,.263,7.09.216,11.151.233,15.234c.013,4.01-.537,8.028.589,11.925a2.693,2.693,0,0,0,4.925.46c3.468-7.5,1.367-17.9-.181-25.677" transform="translate(677.415 181.8)" fill="#811a20"/>
        <path id="패스_5821" data-name="패스 5821" d="M7.619,13.824A66.958,66.958,0,0,0,8.6,3.591c.146-4-6-5.118-6.274-.976C1.895,8.761.357,14.645,0,20.751-.133,23.218,3.18,23.8,4.37,21.933a20.349,20.349,0,0,0,3.249-8.109" transform="translate(691.336 196.421)" fill="#811a20"/>
        <path id="패스_5822" data-name="패스 5822" d="M21.449.048c-.262.189-4.3-.133-5.054-.026C14.436.3,12.48.56,10.521.8c-3.215.4-6.3,1.276-9.5,1.818C-.21,2.82-.442,4.866.959,4.926A90.719,90.719,0,0,0,15.768,4.4a18.188,18.188,0,0,0,5.569-1.139c1.633-.8.529-3.52.112-3.214" transform="translate(782.69 304.439)" fill="#811a20"/>
        <path id="패스_5823" data-name="패스 5823" d="M26.75,1.474C19.234.069,8.907-.992,1.533,1.5-.092,2.042-.8,4.685,1.3,5.209c7.843,1.938,17.77-.572,25.54-2.119.855-.163.675-1.47-.095-1.616" transform="translate(779.951 313.52)" fill="#811a20"/>
        <path id="패스_5824" data-name="패스 5824" d="M18.246,7.358C14.038,3.593,8.636,1.372,3.226.087c-3.481-.825-4.564,4.487-1.143,5.4a30.59,30.59,0,0,1,12.282,6.377c2.892,2.441,4.19,6.652,7.864,7.882a1.872,1.872,0,0,0,2.364-1.186c1.289-4.581-3.219-8.414-6.347-11.2" transform="translate(806.896 354.26)" fill="#811a20"/>
        <path id="패스_5825" data-name="패스 5825" d="M27.392,20.454C24.582,9.7,12.175,2.976,2.355.088A1.83,1.83,0,0,0,1.178,3.552a45.413,45.413,0,0,1,11.625,7c4.216,3.507,6.927,8.225,10.928,11.852,1.483,1.362,4.224.249,3.661-1.955" transform="translate(796.559 360.825)" fill="#811a20"/>
        <path id="패스_5826" data-name="패스 5826" d="M18.706,10.741C14.486,5.3,8.641,2,2.13.066.557-.407-.9,1.776.682,2.752A49.163,49.163,0,0,1,13.4,14.622c3.172,4.121,4.074,11.16,8.612,13.769a2.211,2.211,0,0,0,3.021-.761c2.583-5.621-2.952-12.553-6.326-16.889" transform="translate(787.179 372.901)" fill="#811a20"/>
        <path id="패스_5827" data-name="패스 5827" d="M16.1,17.936C13.353,11.305,9.129,5.929,4.251.716,2.347-1.321-1.164,1.4.383,3.733A92.07,92.07,0,0,1,8.806,19.6c1.878,4.517,1.8,11.681,5.952,14.714a2.34,2.34,0,0,0,2.858-.391c3.623-4.366.391-11.393-1.513-15.987" transform="translate(778.934 379.763)" fill="#811a20"/>
        <path id="패스_5828" data-name="패스 5828" d="M3.732.737C2.008-1.231-.776,1.128.2,3.286a75.623,75.623,0,0,1,4.9,14.255c1.031,4.551,1.156,9.209,2.8,13.571a2.734,2.734,0,0,0,5.243-.228C16.018,20.617,10.414,8.391,3.732.737" transform="translate(768.925 394.285)" fill="#811a20"/>
        <path id="패스_5829" data-name="패스 5829" d="M4.594,1.214C3.1-1.278-.507.419.06,3.123A72.8,72.8,0,0,1,2.011,15.585c.107,3.773-1.083,7.478.752,10.958a2.941,2.941,0,0,0,4.091.821c6.631-5.81,1.478-19.914-2.26-26.15" transform="translate(758.771 406.674)" fill="#811a20"/>
        <path id="패스_5830" data-name="패스 5830" d="M3.8.687C2.768-.77.018.283.168,2.045.418,5.135.757,8.3.727,11.409.68,14.942.061,18.453,0,22c-.073,3.485,4.762,3.472,6.085.958C9.734,15.982,8.269,6.94,3.8.687" transform="translate(745.758 415.693)" fill="#811a20"/>
        <path id="패스_5831" data-name="패스 5831" d="M8.2,11.438a20.765,20.765,0,0,0,.129-8.595C7.47-1.5.68-.617,1.479,3.8a16.124,16.124,0,0,1-.1,6.055,14.158,14.158,0,0,1-.735,2.2C.057,13.578.22,14.923.014,16.483c-.215,1.7,2.127,3,3.49,2.063a10.093,10.093,0,0,0,4.7-7.108" transform="translate(730.197 427.925)" fill="#811a20"/>
        <path id="패스_5832" data-name="패스 5832" d="M8.033,2.672c.1-3.335-5.578-3.661-5.836-.34C2.034,4.439.826,5.951.121,7.876c-.533,1.457.786,2.712,2.106,2.849,4.336.468,5.7-4.925,5.806-8.053" transform="translate(719.333 437.885)" fill="#811a20"/>
        <path id="패스_5833" data-name="패스 5833" d="M40.242,2.47C29.107-3.361,10.387,2.1.619,8.792c-1.375.928-.245,3.18,1.294,2.875,6.618-1.324,13.047-3.2,19.721-4.293C27.5,6.4,33.92,7.382,39.559,5.693c1.289-.391,2.239-2.4.683-3.223" transform="translate(508.921 19.477)" fill="#811a20"/>
        <path id="패스_5834" data-name="패스 5834" d="M42.017.294c-7-1.367-15.29,2.329-21.621,4.951A59.98,59.98,0,0,0,.323,18.494c-.98,1,.473,2.733,1.659,2.14Q12.1,15.593,22.5,11.063C28.948,8.244,36.495,6.981,42.588,3.59a1.746,1.746,0,0,0-.572-3.3" transform="translate(482.479 11.55)" fill="#811a20"/>
        <path id="패스_5835" data-name="패스 5835" d="M37.873.026C24.951,2.144,8.93,6.966.528,17.778c-1.478,1.9.37,5.264,2.789,3.7,4.83-3.116,9.231-6.833,14.139-9.867A74.569,74.569,0,0,1,38.329,3.081C40.219,2.6,39.871-.3,37.873.026" transform="translate(457.082 6.915)" fill="#811a20"/>
        <path id="패스_5836" data-name="패스 5836" d="M43.3.053C24.369,4.711,4.837,18.106.045,38.021c-.382,1.547,1.749,1.981,2.6,1.023,12.781-14.306,23.524-27.83,41.724-35.63C46.2,2.623,45.259-.437,43.3.053" transform="translate(421.844 6.054)" fill="#811a20"/>
        <path id="패스_5837" data-name="패스 5837" d="M26.836.908C16.7,12.009,4.021,26.276.08,41.128c-.666,2.523,2.987,4.572,4.646,2.415C9.144,37.776,12.01,30.87,15.86,24.695A163.483,163.483,0,0,1,30.919,4.621c2.321-2.69-1.68-6.343-4.083-3.713" transform="translate(396.734 15.121)" fill="#811a20"/>
        <path id="패스_5838" data-name="패스 5838" d="M30.247.222C15.327,9.2,2.941,27.842.036,44.967c-.425,2.557,3,4.272,4.388,1.775,4.5-8.088,8.182-16.584,13.2-24.4C22.078,15.4,27.583,9.418,32.551,2.886c1.057-1.4-.752-3.593-2.3-2.664" transform="translate(371.844 28.034)" fill="#811a20"/>
        <path id="패스_5839" data-name="패스 5839" d="M21.369.178C5.056,9.929-3.341,30.312,1.244,48.77c.645,2.6,4.358,2.028,4.521-.524,1.122-18.23,5.342-32.278,17.2-46.387.907-1.079-.52-2.329-1.6-1.68" transform="translate(347.692 46.677)" fill="#811a20"/>
        <path id="패스_5840" data-name="패스 5840" d="M9.714,44.463C8.773,37.493,6.8,30.836,6.572,23.758,6.327,16.371,8.205,8.838,10.56,1.9,11.037.488,9.151-.754,8.223.552-.845,13.41-3.742,33.006,6.4,46.122c1.246,1.607,3.554.09,3.318-1.659" transform="translate(332.634 70.777)" fill="#811a20"/>
        <path id="패스_5841" data-name="패스 5841" d="M31.776.352C20.43,9.183,9.532,18.376.323,29.476c-1.1,1.315.847,3.1,2.136,2.054A365.738,365.738,0,0,0,33.641,2.7c1.311-1.345-.3-3.563-1.865-2.346" transform="translate(515.045 98.468)" fill="#811a20"/>
        <path id="패스_5842" data-name="패스 5842" d="M30.38.559C21.033,9,9.963,15.124.607,23.413a1.788,1.788,0,0,0,1.908,2.965C13.942,21.454,24.295,12.111,33.246,3.649A2.109,2.109,0,0,0,30.38.559" transform="translate(487.029 111.578)" fill="#811a20"/>
        <path id="패스_5843" data-name="패스 5843" d="M22.2.825Q16.986,5.492,11.368,9.673c-3.6,2.69-7.839,4.921-10.791,8.354-1.289,1.5-.314,4.087,1.9,3.584,9.166-2.063,17.529-10.744,24.268-16.9C29.61,2.118,25.021-1.693,22.2.825" transform="translate(466.866 120.393)" fill="#811a20"/>
        <path id="패스_5844" data-name="패스 5844" d="M13.295.625C9,4.141,4.313,7.235.592,11.373c-1.642,1.835.417,5.11,2.707,3.649a115.6,115.6,0,0,0,13.636-10.9c2.471-2.17-1.169-5.522-3.64-3.5" transform="translate(450.422 122.432)" fill="#811a20"/>
        <path id="패스_5845" data-name="패스 5845" d="M17.9,29.28c-2.566-4.491-5.961-8.608-8.806-12.94A38.9,38.9,0,0,1,4.849,7.161C4.076,4.862,3.921,2.37,2.413.414a.991.991,0,0,0-1.7.138c-2,4.521.683,11.285,2.166,15.681,2.2,6.5,6.214,12.9,12.66,15.8,1.556.7,3.159-1.362,2.355-2.755" transform="translate(304.34 131.139)" fill="#811a20"/>
        <path id="패스_5846" data-name="패스 5846" d="M15.606,17.823C11.588,12.288,6.929,7.285,3.942,1.067,2.95-1-.643.2.1,2.442,2.507,9.666,6.345,16.856,13.083,20.78a1.97,1.97,0,0,0,2.523-2.957" transform="translate(293.437 144.385)" fill="#811a20"/>
        <path id="패스_5847" data-name="패스 5847" d="M17.163,25.894C9.432,19.409,5.1,10.814,3.162,1.055A1.221,1.221,0,0,0,.751,1c-3.09,11.4,3.717,22.777,13.8,28.032,1.912,1,4.5-1.56,2.609-3.137" transform="translate(261.871 164.509)" fill="#811a20"/>
        <path id="패스_5848" data-name="패스 5848" d="M24.009,32.6c-5-4.689-10.842-8.148-14.981-13.756C5.186,13.626,3.553,7.227,2.754.91A1.04,1.04,0,0,0,.7.828c-3.365,14.225,5.608,32.91,21.1,35.411,1.947.314,3.967-1.964,2.2-3.636" transform="translate(254.221 179.819)" fill="#811a20"/>
        <path id="패스_5849" data-name="패스 5849" d="M30.011,28.676c-4.375-3.687-9.845-5.969-14.366-9.626C9.89,14.391,5.851,7.593,2.984.884,2.305-.693-.359-.005.041,1.727,3.032,14.864,12.714,32.359,28.378,32.294c1.685,0,3.163-2.329,1.633-3.618" transform="translate(247.892 198.664)" fill="#811a20"/>
        <path id="패스_5850" data-name="패스 5850" d="M30.454,26.5c-3.094-4.74-10.679-5.565-15.338-8.724C9.1,13.719,6.47,7.049,3.234.917A1.6,1.6,0,0,0,.2,1.4C-.934,9.391,2.951,17.062,8.6,22.516,13.35,27.1,23.763,33.637,30.012,28.893a1.974,1.974,0,0,0,.443-2.4" transform="translate(249.043 219.646)" fill="#811a20"/>
        <path id="패스_5851" data-name="패스 5851" d="M32.935,18.185c-4.138-3.3-9.476-4.547-14.177-6.88C12.913,8.4,7.688,4.09,2.44.261,1.336-.564-.606.716.184,2.048,5.96,11.808,20.107,23.789,32.3,22.122c2.114-.3,1.925-2.914.636-3.936" transform="translate(246.975 246.099)" fill="#811a20"/>
        <path id="패스_5852" data-name="패스 5852" d="M37.259,10.518C31.462,7.97,24.719,8.03,18.63,6.367A82.2,82.2,0,0,1,3.3.23C1.32-.78-1.224,1.764.662,3.449c8.612,7.757,24.861,17.074,36.52,10.984,1.392-.731,1.68-3.2.077-3.915" transform="translate(252.471 269.104)" fill="#811a20"/>
        <path id="패스_5853" data-name="패스 5853" d="M22.058,5.73c-2.488-1.324-5.226-.765-7.946-1.169A20.983,20.983,0,0,1,4.838.65,2.945,2.945,0,0,0,.988,5.1c4.727,4.6,16.88,11.62,22.085,4.052A2.533,2.533,0,0,0,22.058,5.73" transform="translate(270.787 289.6)" fill="#811a20"/>
        <path id="패스_5854" data-name="패스 5854" d="M5.428,11.491C5.062,8.174,4.491,4.86,3.962,1.556c-.434-2.587-4.25-1.7-3.945.838C.387,5.582.756,8.78,1,11.981c.228,2.759.1,5.836,1.534,8.242a1.393,1.393,0,0,0,2.222-.013c1.508-2.639,1-5.8.67-8.719" transform="translate(724.92 467.683)" fill="#811a20"/>
        <path id="패스_5855" data-name="패스 5855" d="M9.176,8.169C8.213,5.1,5.519.863,2.218.055A1.664,1.664,0,0,0,.031,1.86C.6,4.8,2.223,7.61,3.082,10.528c.928,3.12.507,6.5.92,9.687.331,2.505,3.73,3.679,5.037,1.139,2.114-4.164,1.491-8.891.138-13.185" transform="translate(731.151 464.427)" fill="#811a20"/>
        <path id="패스_5856" data-name="패스 5856" d="M8.749,11.058C7.722,7.345,6.063,3.4,3.334.62A1.929,1.929,0,0,0,.021,2.257c.55,3.932,1.8,7.7,2.286,11.655C2.7,16.95,2.977,20.7,5.7,22.588a1.639,1.639,0,0,0,1.985-.082c3.3-2.763,2.067-7.847,1.066-11.448" transform="translate(743.516 462.753)" fill="#811a20"/>
        <path id="패스_5857" data-name="패스 5857" d="M11.9,19.581c.4-3.614-1.337-7.615-2.957-10.782C7.392,5.756,5.613,1.532,2.317.114a1.746,1.746,0,0,0-2.3,1.5c-.2,3.167,1.9,6.549,2.823,9.566.881,2.931,1.208,6.506,2.643,9.192,1.461,2.759,6.021,2.845,6.42-.786" transform="translate(754.911 457.303)" fill="#811a20"/>
        <path id="패스_5858" data-name="패스 5858" d="M6.593,11.535A35.966,35.966,0,0,0,2.785.825C2.162-.245,0-.429,0,1.208A80.638,80.638,0,0,0,1.083,12.566c.46,3.472.215,7.645,3.013,10.125a1.684,1.684,0,0,0,2.346-.421c2.235-3.064.877-7.331.15-10.735" transform="translate(768.947 458.525)" fill="#811a20"/>
        <path id="패스_5859" data-name="패스 5859" d="M11.682,7.984A11.224,11.224,0,0,0,9.761,4.521,11.759,11.759,0,0,0,1.983.017C.225-.215-.553,1.985.431,3.2A49.544,49.544,0,0,1,5.15,9.123c1.117,1.938,1.56,4.237,3.7,5.337.606.314,1.135-.06,1.655-.288,2.024-.9,1.736-4.572,1.178-6.188" transform="translate(806.106 457.49)" fill="#811a20"/>
        <path id="패스_5860" data-name="패스 5860" d="M13.078,13.129a102.749,102.749,0,0,0-8.066-12C2.966-1.56-1.469,1.036.487,3.924A110.1,110.1,0,0,1,7.633,15.931c1.328,2.613,2.866,7.761,6.472,7.589,4.461-.2-.185-8.9-1.027-10.391" transform="translate(814.784 445.13)" fill="#811a20"/>
        <path id="패스_5861" data-name="패스 5861" d="M12.762,19.894c-.357-6.751-4.809-13.3-8.427-18.8C2.732-1.348-1.149.7.33,3.314A87.1,87.1,0,0,1,4.971,12.58C6.161,15.4,6.948,18.313,8.4,21.02c1.066,2.024,4.5,1.242,4.366-1.126" transform="translate(828.666 444.356)" fill="#811a20"/>
        <path id="패스_5862" data-name="패스 5862" d="M11.378,11.159A28.823,28.823,0,0,0,3.488.57a2.011,2.011,0,0,0-2.974,2.7,32.227,32.227,0,0,1,5.445,9.648C7.123,16.192,7.239,19.913,8.718,23c1.027,2.14,4.074,1.255,4.637-.7,1.014-3.49-.662-7.9-1.977-11.139" transform="translate(841.611 443.254)" fill="#811a20"/>
        <path id="패스_5863" data-name="패스 5863" d="M3.179.692C1.95-1.062-.637.859.145,2.664A63.114,63.114,0,0,1,4.223,16.971c.7,3.975.322,8.333,2.093,12.041a1.782,1.782,0,0,0,3.077.245c4.684-8.6-1.2-21.393-6.214-28.565" transform="translate(856.97 442.758)" fill="#811a20"/>
        <path id="패스_5864" data-name="패스 5864" d="M3.808,1.033C2.832-.549-.017-.338,0,1.832c.03,3.9.434,7.744.645,11.633.206,3.756-.258,8,1.762,11.332a1.708,1.708,0,0,0,2.909.262C10.043,19.031,7.465,6.929,3.808,1.033" transform="translate(897.974 448.103)" fill="#811a20"/>
        <path id="패스_5865" data-name="패스 5865" d="M4.176,1.451C3.737-.534.368-.508.471,1.688c.2,4.22.185,8.44.056,12.656C.385,18.1-.44,21.662.312,25.388a1.746,1.746,0,0,0,3.133.683c4.607-6.842,2.4-17.147.731-24.62" transform="translate(912.768 458.909)" fill="#811a20"/>
        <path id="패스_5866" data-name="패스 5866" d="M7.5,15.546A48.228,48.228,0,0,0,8.149,2.7C7.844-1.236,1.913-.7,2.09,3.2a45.433,45.433,0,0,1-.984,11.384C.521,17.531-.729,20.565.568,23.423a1.917,1.917,0,0,0,2.566.877C6.211,22.615,6.86,18.765,7.5,15.546" transform="translate(920.054 472.374)" fill="#811a20"/>
        <path id="패스_5867" data-name="패스 5867" d="M6.764,1.311a1.643,1.643,0,0,0-3.24.524C3.962,8.965,1.04,15.093.017,21.943c-.245,1.676,2.23,2.871,3.356,1.586,5.3-5.982,5.552-14.873,3.391-22.218" transform="translate(928.143 485.822)" fill="#811a20"/>
        <path id="패스_5868" data-name="패스 5868" d="M6.426,2.415C7.191.138,3.642-1.053,2.881,1.225,1.734,4.65-.157,8.4.01,12.059a1.277,1.277,0,0,0,2.252.645C4.574,9.944,5.3,5.776,6.426,2.415" transform="translate(936.177 507.74)" fill="#811a20"/>
        <path id="패스_5869" data-name="패스 5869" d="M12.374,1.974a1.924,1.924,0,0,0-3.838-.236C7.256,11.012,2.83,18.837.105,27.608c-.743,2.385,2.643,4.211,4.28,2.355,6.489-7.426,8.307-18.436,7.989-27.989" transform="translate(691.385 528.62)" fill="#811a20"/>
        <path id="패스_5870" data-name="패스 5870" d="M9.485,20.54A39.263,39.263,0,0,0,9.657,1.747c-.589-2.78-4.542-1.99-4.7.6a69.127,69.127,0,0,1-2.6,14.117C1.32,20.265-1.3,24.4.779,28.159A2.357,2.357,0,0,0,3.4,29.285c3.992-.9,5.1-5.217,6.085-8.745" transform="translate(707.386 531.511)" fill="#811a20"/>
        <path id="패스_5871" data-name="패스 5871" d="M10.9,16.379c1.285-4.435,2.759-11.087.034-15.3a2.075,2.075,0,0,0-3.79.331c-1.736,4.564-2.78,9.42-4.379,14.066C1.5,19.207-1.512,23.934.924,27.784A1.911,1.911,0,0,0,2.966,28.8c5.363-1.139,6.622-7.907,7.937-12.42" transform="translate(722.458 534.675)" fill="#811a20"/>
        <path id="패스_5872" data-name="패스 5872" d="M6.521.623a1.839,1.839,0,0,0-3.107.615A80.81,80.81,0,0,0,1.721,9.484C.982,13.146-.364,16.059.092,19.88A1.986,1.986,0,0,0,2.9,21.246C9.039,17.563,10.892,6.2,6.521.623" transform="translate(769.87 547.569)" fill="#811a20"/>
        <path id="패스_5873" data-name="패스 5873" d="M7.546,13.044A21.845,21.845,0,0,0,5.011.9C4.332-.381,1.977-.355,1.977,1.381a86.351,86.351,0,0,1-.748,10.692C.829,15.257-.507,18.424.206,21.6c.46,2.037,2.987,2.273,4.336,1.066,2.57-2.338,2.72-6.334,3-9.622" transform="translate(782.683 545.071)" fill="#811a20"/>
        <path id="패스_5874" data-name="패스 5874" d="M7.206,1.814C6.166-1.413,1.726.039,2.259,3.249a23.1,23.1,0,0,1-.451,9.145C1.133,15.355-.435,18.041.115,21.1a2.442,2.442,0,0,0,3.554,1.483C10.063,18.991,9.088,7.65,7.206,1.814" transform="translate(796.358 544.384)" fill="#811a20"/>
        <path id="패스_5875" data-name="패스 5875" d="M7.311,2.462c-.447-3.331-5.385-3.3-5.329.2a60.585,60.585,0,0,1-.838,11.393c-.576,3.33-2.282,6.781.043,9.725a1.924,1.924,0,0,0,1.861.623c7.2-2.114,5.011-16.378,4.263-21.943" transform="translate(812.149 544.93)" fill="#811a20"/>
        <path id="패스_5876" data-name="패스 5876" d="M8.1,2.483a2.668,2.668,0,0,0-5.329.189A65.042,65.042,0,0,1,1.534,14.709C.855,18.018-.46,20.859.163,24.275a1.932,1.932,0,0,0,2.729,1.337C9.944,21.529,8.638,9.35,8.1,2.483" transform="translate(826.783 543.543)" fill="#811a20"/>
        <path id="패스_5877" data-name="패스 5877" d="M2.7.245a1.655,1.655,0,0,0-2.553,1.6A65.6,65.6,0,0,1,1.128,13.18c.009,4.946-1.659,9.652-.954,14.59.262,1.887,3,2.351,4.164,1.083C10.243,22.351,11.154,5.26,2.7.245" transform="translate(870.559 553.293)" fill="#811a20"/>
        <path id="패스_5878" data-name="패스 5878" d="M7.542,18.527c.756-5.673.2-11.285-.529-16.91C6.687-.932,3.15-.206,2.845,1.986c-.6,4.633-1.126,9.257-1.65,13.889-.4,3.593-1.921,7.469-.774,11.01a2.046,2.046,0,0,0,3.318,1.066c2.892-2.265,3.352-5.952,3.8-9.424" transform="translate(881.369 564.058)" fill="#811a20"/>
        <path id="패스_5879" data-name="패스 5879" d="M7.841,14.247C8.155,10.006,8.357,2.889,4.481.173A.768.768,0,0,0,3.308.4c-.855,1.942-.769,3.756-.739,5.857a45.2,45.2,0,0,1-1,8.492C.953,18.334-1.157,22.567.841,26.027a1.581,1.581,0,0,0,2.033.8C7.36,24.69,7.528,18.614,7.841,14.247" transform="translate(891.861 573.262)" fill="#811a20"/>
        <path id="패스_5880" data-name="패스 5880" d="M7.156,1.773c-.516-2.78-5.067-2.093-4.878.683A38.155,38.155,0,0,1,1.763,12.3C1.14,15.534-.97,18.813.525,22.027a1.823,1.823,0,0,0,2.028,1.014c7.43-1.994,5.621-15.7,4.6-21.268" transform="translate(903.118 588.697)" fill="#811a20"/>
        <path id="패스_5881" data-name="패스 5881" d="M.954,2.434C.378,4.406-.408,6.392.249,8.446c.374,1.139,1.809,2.243,3.025,1.41,2.041-1.41,2.669-3.408,3.537-5.634C8.389.066,2.213-1.885.954,2.434" transform="translate(910.858 609.227)" fill="#811a20"/>
        <path id="패스_5882" data-name="패스 5882" d="M11.009,1.8c-.915-2.166-4.435-2.664-4.968.125-.645,3.3-.872,6.309-2.282,9.429C2.509,14.141.236,16.633,0,19.758a1.8,1.8,0,0,0,2.084,1.887C8.908,20.136,13.558,7.9,11.009,1.8" transform="translate(641.069 569.38)" fill="#811a20"/>
        <path id="패스_5883" data-name="패스 5883" d="M9.991,2.912C10.924-.122,6.33-1.2,5.281,1.7,4.4,4.119,3.5,6.53,2.5,8.907c-.958,2.248-1.491,4.53-2.372,6.816-.812,2.136,2.316,3.472,3.532,1.654a30.788,30.788,0,0,0,3.752-6.652c.937-2.587,1.771-5.191,2.574-7.813" transform="translate(651.769 579.419)" fill="#811a20"/>
        <path id="패스_5884" data-name="패스 5884" d="M11.447,1.866a1.788,1.788,0,0,0-3.455-.718C6.5,5.115,4.8,9.009,3.377,12.993c-1.4,3.885-4.1,7.6-3.2,11.818a1.914,1.914,0,0,0,2.252,1.513c8.483-2.716,8.543-17.25,9.016-24.457" transform="translate(659.824 586.184)" fill="#811a20"/>
        <path id="패스_5885" data-name="패스 5885" d="M12.176,2.715c-.03-3.481-5.544-3.661-6.021-.271a43.7,43.7,0,0,1-2.144,8.509C2.9,14.15.947,16.858.091,20.133c-.713,2.69,2.922,4.676,4.985,3.077,5.9-4.542,7.151-13.541,7.1-20.495" transform="translate(675.189 593.668)" fill="#811a20"/>
        <path id="패스_5886" data-name="패스 5886" d="M13.794,1.476c-.159-1.9-3.116-1.947-3.61-.241A38.912,38.912,0,0,1,5.44,11.756c-1.667,2.462-4.074,4.555-5.2,7.3a3.025,3.025,0,0,0,3.7,4.1C12.071,20.3,14.387,8.945,13.794,1.476" transform="translate(684.156 601.555)" fill="#811a20"/>
        <path id="패스_5887" data-name="패스 5887" d="M14.5.925A114.66,114.66,0,0,1,6.4,11.14C4.139,13.706.078,15.82,0,19.572a1.985,1.985,0,0,0,1.366,1.981C5.707,22.73,9,18.158,11.53,15.219A35.12,35.12,0,0,0,18.312,2.636C19.077.293,15.832-.983,14.5.925" transform="translate(707.266 619.911)" fill="#811a20"/>
        <path id="패스_5888" data-name="패스 5888" d="M9.7,2.035A48.278,48.278,0,0,1,2.71,14c-1.384,1.8-4.439,6.175-1.427,8.1C7.768,26.221,14.579,8.528,15.834,4.6,17.123.591,11.292-2.022,9.7,2.035" transform="translate(720.316 626.498)" fill="#811a20"/>
        <path id="패스_5889" data-name="패스 5889" d="M14.158,2.342C14.051-.314,10.14-.972,9.47,1.736A36.378,36.378,0,0,1,3.857,13.687c-1.809,2.639-6.343,6.253-2.093,8.844,3.219,1.96,7.3-3.623,8.844-5.643,3.1-4.07,3.752-9.613,3.55-14.547" transform="translate(735.889 631.421)" fill="#811a20"/>
        <path id="패스_5890" data-name="패스 5890" d="M16.132,2.492a2.681,2.681,0,0,0-5.273-.481A61.377,61.377,0,0,1,6.7,12.793C4.825,16.214,1.421,18.754.1,22.454a1.931,1.931,0,0,0,1.71,2.5c10.043.782,14.848-14.727,14.319-22.463" transform="translate(747.65 638.49)" fill="#811a20"/>
        <path id="패스_5891" data-name="패스 5891" d="M4.773.6C3.5-.533,1.1-.052,1.129,1.955c.034,3.3.649,6.536.37,9.867-.271,3.184-1.663,6.334-1.483,9.54.086,1.573,1.947,3.163,3.49,2.059C9.522,19.1,10.412,5.582,4.773.6" transform="translate(782.542 651.993)" fill="#811a20"/>
        <path id="패스_5892" data-name="패스 5892" d="M10.94,2.311A2.384,2.384,0,0,0,6.174,2.3C5.526,10.6,2.431,17.941.094,25.809a2.348,2.348,0,0,0,3.9,2.265c6.373-6.82,7.349-16.837,6.949-25.763" transform="translate(791.785 658.474)" fill="#811a20"/>
        <path id="패스_5893" data-name="패스 5893" d="M8.893,16.524A99.709,99.709,0,0,0,12.271,3.383c.7-3.747-4.925-4.766-5.789-1.083A100.207,100.207,0,0,1,2.928,13.959C1.583,17.6-.621,21.131.165,25.072A1.932,1.932,0,0,0,2.89,26.426c3.649-2.033,4.731-6.115,6-9.9" transform="translate(796.265 675.615)" fill="#811a20"/>
        <path id="패스_5894" data-name="패스 5894" d="M11.68.708C10.537-.259,8.3-.323,7.392,1.065A87.806,87.806,0,0,1,.619,10.128a2.206,2.206,0,0,0,2.553,3.524c4.151-1.71,6.532-5.006,8.87-8.663A3.1,3.1,0,0,0,11.68.708" transform="translate(799.249 698.99)" fill="#811a20"/>
        <path id="패스_5895" data-name="패스 5895" d="M18.856.09c-2.432-.447-4.921.872-7.224,1.689C8.027,3.03,4.576,4.693,1.026,6.085c-1.96.769-.842,3.64,1.087,3.382A38.2,38.2,0,0,0,14.9,5C15.242,4.822,21.392.567,18.856.09" transform="translate(576.693 596.224)" fill="#811a20"/>
        <path id="패스_5896" data-name="패스 5896" d="M20.21.193C16.785,1.774,13.33,3.36,9.823,4.731,7,5.827,1.868,6.721.274,9.54a1.553,1.553,0,0,0,.348,2.144c3.193,2.248,7.92-.1,11.1-1.367A46.223,46.223,0,0,0,22.608,3.6c1.964-1.513-.357-4.362-2.4-3.4" transform="translate(579.577 603.973)" fill="#811a20"/>
        <path id="패스_5897" data-name="패스 5897" d="M22.267.693A51.5,51.5,0,0,1,10.746,8.9C7.428,10.667,1.7,12.1.1,15.807a1.454,1.454,0,0,0,.481,1.706C4.5,19.782,9.525,16.477,13.053,14.6A45.681,45.681,0,0,0,25.559,4.019C27.5,1.758,24.472-1.418,22.267.693" transform="translate(584.963 610.139)" fill="#811a20"/>
        <path id="패스_5898" data-name="패스 5898" d="M20.319.444A87.17,87.17,0,0,1,7.211,8.24C5.2,9.215-1.422,11.1.275,14.613c1.942,4.014,8.909-.026,11.4-1.293A43.417,43.417,0,0,0,23.417,4.364c1.921-2.007-.731-5.625-3.1-3.919" transform="translate(589.206 623.632)" fill="#811a20"/>
        <path id="패스_5899" data-name="패스 5899" d="M15.751.3c-2.209,1.517-4.59,2.746-6.936,4.053C6.159,5.847,3.168,6.453.646,8.233a1.878,1.878,0,0,0,.645,3.176c6.618,2.076,13.258-4.031,16.76-8.96C19.142.927,17.178-.685,15.751.3" transform="translate(597.401 637.06)" fill="#811a20"/>
        <path id="패스_5900" data-name="패스 5900" d="M15.064,1.381A1.659,1.659,0,0,0,12.4.371C10.3,2.3,9.2,5.24,7.445,7.509A48.661,48.661,0,0,1,.68,14.05a2.217,2.217,0,0,0,2.033,3.735c6.236-1.667,13.322-9.515,12.351-16.4" transform="translate(613.851 661.935)" fill="#811a20"/>
        <path id="패스_5901" data-name="패스 5901" d="M21.386,2.986c.4-2.553-2.957-4.259-4.4-1.771A105.894,105.894,0,0,1,9.384,13.4C6.736,16.858,3.049,19.3.411,22.78c-1.349,1.784.911,3.855,2.686,3.485,9.957-2.08,16.829-13.877,18.29-23.279" transform="translate(621.955 664.856)" fill="#811a20"/>
        <path id="패스_5902" data-name="패스 5902" d="M16.265,1.514a40.143,40.143,0,0,1-6.36,10.9C7,15.993,2.866,18.472.356,22.318c-1.19,1.822.829,4.014,2.759,3.524,9.2-2.308,15.626-14.255,18.423-22.51,1.006-3-4.117-4.766-5.273-1.818" transform="translate(631.769 675.145)" fill="#811a20"/>
        <path id="패스_5903" data-name="패스 5903" d="M20.357.693A89.575,89.575,0,0,1,9.686,11.763c-2.991,2.608-6.536,4.852-9.093,7.9C-.774,21.3.348,24,2.685,23.457,12.466,21.2,19.867,10.93,23.5,2.266,24.327.3,21.551-.8,20.357.693" transform="translate(631.786 692.224)" fill="#811a20"/>
        <path id="패스_5904" data-name="패스 5904" d="M11.076.113a1.158,1.158,0,0,0-1.538.6C8.047,4.725,9.087,9.091,7.5,13.216c-1.693,4.4-4.9,8.066-7.267,12.1a1.363,1.363,0,0,0,1.59,2.067c6.2-1.887,10.4-6.9,12.3-13.056C15.541,9.744,15.864,2.786,11.076.113" transform="translate(655.038 704.244)" fill="#811a20"/>
        <path id="패스_5905" data-name="패스 5905" d="M22.467,1.576c.4-1.788-2.166-2.093-2.892-.718a63.7,63.7,0,0,1-8.492,12.553C7.658,17.3,2.329,20.5.133,25.22A1.557,1.557,0,0,0,1.8,27.3c5.05-.365,9.016-5.054,12.248-8.578A37.495,37.495,0,0,0,22.467,1.576" transform="translate(659.234 719.189)" fill="#811a20"/>
        <path id="패스_5906" data-name="패스 5906" d="M10.7.805A29.658,29.658,0,0,1,5.139,5.674C3.025,7.105,1.387,8.222.124,10.466a1.2,1.2,0,0,0,.933,1.672c5.273.615,10.017-4.113,13.185-7.856C16.282,1.862,12.844-1.58,10.7.805" transform="translate(659.269 748.886)" fill="#811a20"/>
        <path id="패스_5907" data-name="패스 5907" d="M15.671.132C4.863,4.172-1.106,17.533.17,28.508c.266,2.269,3.545,2.015,4.16.125C7.356,19.376,9.9,9.711,18,3.489c2-1.538-.34-4.1-2.334-3.356" transform="translate(291.24 495.592)" fill="#811a20"/>
        <path id="패스_5908" data-name="패스 5908" d="M20.56.077C9.537,4.319-.631,16.463.031,28.716.151,31,3.456,32.214,4.577,29.9c2.235-4.585,3.7-9.416,6.193-13.859C13.7,10.821,17.977,6.4,22.016,2.033c.877-.954-.357-2.381-1.457-1.955" transform="translate(273.653 499.369)" fill="#811a20"/>
        <path id="패스_5909" data-name="패스 5909" d="M22.368.032C8.913-.9-3.279,18.9.8,30.9c.627,1.852,3.24,2.514,4.293.589C7.757,26.62,8.565,20.964,11.07,15.975c2.866-5.707,7.877-9.4,12.033-14.057A1.182,1.182,0,0,0,22.368.032" transform="translate(258.174 500.248)" fill="#811a20"/>
        <path id="패스_5910" data-name="패스 5910" d="M10.759.6C5.1,5.538-2.309,17.116.691,24.744a1.639,1.639,0,0,0,2.531.6c3.15-2.806,4.126-7.4,5.591-11.229,1.448-3.8,3.61-7.151,5.432-10.744A2.258,2.258,0,0,0,10.759.6" transform="translate(227.341 522.993)" fill="#811a20"/>
        <path id="패스_5911" data-name="패스 5911" d="M16.539,2.555C17.734.677,15.19-.939,13.763.638,7.377,7.66-1.566,19.371.235,29.474.579,31.4,2.878,31.4,3.9,30.136c3.189-3.9,3.919-9.463,5.746-14.087A78.875,78.875,0,0,1,16.539,2.555" transform="translate(211.883 522.19)" fill="#811a20"/>
        <path id="패스_5912" data-name="패스 5912" d="M6.566,18.92a57.834,57.834,0,0,1,6.231-16A1.917,1.917,0,0,0,9.583.841C3.691,8.821-2.519,20.6,1.048,30.73,1.6,32.294,4.082,31.989,4.5,30.5c1.079-3.782,1.276-7.74,2.067-11.582" transform="translate(199.007 530.29)" fill="#811a20"/>
        <path id="패스_5913" data-name="패스 5913" d="M5.077,12.652A32.675,32.675,0,0,1,4.918,2.1C5.214-.2,1.368-.872.9,1.414A41.257,41.257,0,0,0,.062,12.188c.2,3.494.584,7.98,3.3,10.464A1.936,1.936,0,0,0,6.7,21.5c.305-3.021-1.04-5.913-1.624-8.848" transform="translate(189.632 549.468)" fill="#811a20"/>
        <path id="패스_5914" data-name="패스 5914" d="M12.888.421a26.287,26.287,0,0,0-8.745,9.36C1.509,14.62-1.9,22.6,1.29,27.843a1.814,1.814,0,0,0,3.086.228c2.471-2.884,2.695-7.2,3.833-10.726C9.816,12.424,11.99,7.228,15.437,3.292A1.921,1.921,0,0,0,12.888.421" transform="translate(169.371 540.082)" fill="#811a20"/>
        <path id="패스_5915" data-name="패스 5915" d="M6.956,17.05c.851-5.058,2.05-10.06,3.335-15.011C10.665.586,8.731-.879,7.777.647,3.007,8.214-1.914,19.8.751,28.838a2.029,2.029,0,0,0,3.889.185C6.127,25.2,6.273,21.077,6.956,17.05" transform="translate(157.477 546.858)" fill="#811a20"/>
        <path id="패스_5916" data-name="패스 5916" d="M4.707,9.9A43.869,43.869,0,0,1,4.7,2.165C4.974-.689.659-.715.306,2.049A43.2,43.2,0,0,0,.031,9c.077,2.63-.026,5.1,1.435,7.37.761,1.173,2.407.507,2.875-.511.92-1.977.541-3.859.365-5.961" transform="translate(147.608 569.783)" fill="#811a20"/>
        <path id="패스_5917" data-name="패스 5917" d="M13.041.845C7.837,6.135-1.833,16.664.3,24.834a1.794,1.794,0,0,0,2.9,1.036c3.025-2.282,4.16-6.236,5.81-9.54A66.75,66.75,0,0,1,16.943,4.481c2.144-2.656-1.474-6.1-3.9-3.636" transform="translate(257.063 439.859)" fill="#811a20"/>
        <path id="패스_5918" data-name="패스 5918" d="M18.257.424C10.53,6.238-1.305,16.814.117,27.631a1.607,1.607,0,0,0,2.574.988c4.388-2.961,6.416-8.44,9.124-12.794a69.44,69.44,0,0,1,9.227-11.7c1.771-1.831-.615-5.337-2.785-3.7" transform="translate(236.664 440.319)" fill="#811a20"/>
        <path id="패스_5919" data-name="패스 5919" d="M19.529.116C14.127,1.7,10.547,4.547,6.86,8.771,3.4,12.729-1.232,19.141.3,24.612A2.645,2.645,0,0,0,4.183,26.1C7.677,23.731,8.85,19.205,11,15.677A34.862,34.862,0,0,1,21.562,4.787C24.02,3.24,22.37-.726,19.529.116" transform="translate(218.709 443.815)" fill="#811a20"/>
        <path id="패스_5920" data-name="패스 5920" d="M13.861.5C7.4,4.984-1.975,15.173.367,23.8a2.74,2.74,0,0,0,4.594,1.036C7.7,21.9,8.8,17.391,10.741,13.888a64.576,64.576,0,0,1,6.64-9.2c1.9-2.334-.859-6.038-3.52-4.194" transform="translate(204.548 441.848)" fill="#811a20"/>
        <path id="패스_5921" data-name="패스 5921" d="M12.941,1.644A1.509,1.509,0,0,0,10.521.3C4.028,5.327-1.361,16.488.306,24.7a1.605,1.605,0,0,0,2.871.67c2.437-3.094,3.666-6.429,5-10.125,1.624-4.491,4-8.883,4.762-13.6" transform="translate(172.533 441.466)" fill="#811a20"/>
        <path id="패스_5922" data-name="패스 5922" d="M15.46.244C10.759,2.663,7.828,7.708,5.1,12.066,2.434,16.312-2.323,23.244,1.326,27.928a1.87,1.87,0,0,0,1.852.615C7.016,27.532,8,24,9.448,20.588c2.6-6.128,7.1-11.564,9.33-17.731C19.482.893,17.1-.607,15.46.244" transform="translate(153.4 437.86)" fill="#811a20"/>
        <path id="패스_5923" data-name="패스 5923" d="M14.932.393C6.565,5.795-1.858,16.108.36,26.727c.46,2.183,3.442,2.3,4.474.563,2.162-3.653,3.12-7.8,4.826-11.672,1.835-4.181,5.17-8.071,8.371-11.3,2-2.007-.688-5.488-3.1-3.924" transform="translate(138.053 434.153)" fill="#811a20"/>
        <path id="패스_5924" data-name="패스 5924" d="M11.011,2.655C11.845.381,8.433-1.041,7.2.944A63.47,63.47,0,0,0,1.957,11.125C.8,14.038-.613,17.4.285,20.549a1.712,1.712,0,0,0,2.742,1.01c2.527-2,3.232-4.976,4.34-7.9,1.371-3.61,2.295-7.374,3.644-11" transform="translate(127.603 437.16)" fill="#811a20"/>
        <path id="패스_5925" data-name="패스 5925" d="M17.582.28A39.091,39.091,0,0,0,4.767,12.012C1.987,16.1-1.3,21.626.525,26.581a1.98,1.98,0,0,0,3.068.593C6.877,24.221,7.78,19.1,9.937,15.27A41.385,41.385,0,0,1,20.062,3.748c1.891-1.534-.413-4.706-2.48-3.468" transform="translate(100.349 428.309)" fill="#811a20"/>
        <path id="패스_5926" data-name="패스 5926" d="M21.637.19C11.774,5.016-.942,16.447.055,28.618c.138,1.642,2.132,3.09,3.537,1.607,4.048-4.25,5.918-9.884,9.248-14.68a73.235,73.235,0,0,1,10.7-12.394A1.784,1.784,0,0,0,21.637.19" transform="translate(81.962 427.54)" fill="#811a20"/>
        <path id="패스_5927" data-name="패스 5927" d="M11.593.766a67.931,67.931,0,0,0-7.4,11.019c-2.041,3.872-5.2,8.956-3.881,13.43a1.807,1.807,0,0,0,2.909,1.027C6.5,23.869,7.227,19.5,8.77,15.919a78.721,78.721,0,0,1,6.67-12.248c1.508-2.282-2.123-5.037-3.846-2.905" transform="translate(69.71 434.682)" fill="#811a20"/>
        <path id="패스_5928" data-name="패스 5928" d="M6.329,1.172C4.9,3.6,3.544,6.049,2.285,8.581,1.009,11.163-.775,13.948.364,16.8a1.736,1.736,0,0,0,2.3.855C5.181,16.273,5.568,13.5,6.673,11,7.807,8.434,9.126,5.972,10.48,3.518c1.483-2.686-2.587-5-4.151-2.346" transform="translate(52.443 450.761)" fill="#811a20"/>
        <path id="패스_5929" data-name="패스 5929" d="M21.327.079C16.291,1.523,12.161,4.793,8.19,8.124,4.529,11.2-.392,15.434.025,20.591a1.438,1.438,0,0,0,1.624,1.242c4.1-.967,6.816-5.105,9.527-8.079,3.563-3.9,8.088-6.674,11.736-10.43,1.169-1.216.365-3.808-1.586-3.245" transform="translate(237.006 382.811)" fill="#811a20"/>
        <path id="패스_5930" data-name="패스 5930" d="M20.443.146A50.291,50.291,0,0,0,7.937,5.75C4.611,7.8.236,11.251,0,15.411A2.454,2.454,0,0,0,3.06,17.753c3.382-.825,6.339-4.431,9.132-6.489A39.039,39.039,0,0,1,22.6,6.025c3.863-1.354,1.676-7-2.162-5.879" transform="translate(223.145 378.812)" fill="#811a20"/>
        <path id="패스_5931" data-name="패스 5931" d="M25.881,0A34.341,34.341,0,0,0,10.01,3.636C5.764,5.789.53,8.892.01,14.083c-.155,1.569,1.5,2.484,2.845,2.256,4.1-.692,7.181-4.6,10.55-6.8A33.153,33.153,0,0,1,26.482,4.685c2.742-.408,2.028-4.676-.6-4.684" transform="translate(207.587 371.089)" fill="#811a20"/>
        <path id="패스_5932" data-name="패스 5932" d="M20.951,0C13.645-.13,2.188,3.871.082,11.881A2.321,2.321,0,0,0,3.408,14.5c2.664-1.289,4.873-3.833,7.194-5.681,3.223-2.57,7.185-3.958,11.04-5.264,1.8-.61,1.083-3.52-.692-3.554" transform="translate(200.033 364.567)" fill="#811a20"/>
        <path id="패스_5933" data-name="패스 5933" d="M18.814.026a32.269,32.269,0,0,0-11.16,4,20.565,20.565,0,0,0-4.744,4.2,12.49,12.49,0,0,0-2.8,5.827C-.61,16.6,2.433,17.771,4.186,16.361c5.38-4.289,8.969-10.275,15.424-13.49,1.465-.722.941-3.15-.8-2.845" transform="translate(169.882 351.415)" fill="#811a20"/>
        <path id="패스_5934" data-name="패스 5934" d="M23.239.057C18.512-.33,13.956,1.307,9.8,3.469,5.851,5.51,1.223,8.407.067,12.971a2.36,2.36,0,0,0,2.841,2.875c3.829-1.2,6.3-4.487,9.489-6.794,3.511-2.535,7.5-3.962,11.461-5.608A1.793,1.793,0,0,0,23.239.057" transform="translate(157.684 344.62)" fill="#811a20"/>
        <path id="패스_5935" data-name="패스 5935" d="M22.215.035A43.5,43.5,0,0,0,7.84,6.056C4.759,8.067-.1,11.2,0,15.347a2.046,2.046,0,0,0,1.912,2.11c3.975.125,7.142-3.649,10.047-5.952C15.7,8.54,19.615,5.648,23.625,3.065c1.47-.945.181-3.386-1.41-3.03" transform="translate(149.885 330.675)" fill="#811a20"/>
        <path id="패스_5936" data-name="패스 5936" d="M23.3.036c-4.865-.348-9.158,1.891-13.24,4.272C5.879,6.74.112,11.514,0,16.7a2.073,2.073,0,0,0,2.493,2.089c4.143-1.341,7.134-5.7,10.4-8.462,3.477-2.939,7.7-4.8,11.044-7.869.8-.726.645-2.329-.636-2.419" transform="translate(139.198 322.041)" fill="#811a20"/>
        <path id="패스_5937" data-name="패스 5937" d="M23.475.006C14.137.741.9,6.1.007,17a1.51,1.51,0,0,0,2.415,1.341C5.632,16.238,7.88,13.251,10.8,10.8a32.4,32.4,0,0,1,13.03-6.726C26,3.539,25.886-.174,23.475.006" transform="translate(130.803 314.894)" fill="#811a20"/>
        <path id="패스_5938" data-name="패스 5938" d="M18.431.045C10.549,2.464,2.38,12.323.077,19.977c-.516,1.736,1.693,3.451,3.094,2.037,3.116-3.159,5.518-6.953,8.264-10.43,2.69-3.4,6.227-6.322,8.217-10.2A.992.992,0,0,0,18.431.045" transform="translate(100.123 298.542)" fill="#811a20"/>
        <path id="패스_5939" data-name="패스 5939" d="M20.635.174C12.491,4.291-2.976,16,.5,26.827c.357,1.117,1.736,1.1,2.531.593,3.326-2.149,4.817-6.76,6.713-10.129a43.394,43.394,0,0,1,12.8-14.156c1.65-1.178-.15-3.838-1.908-2.961" transform="translate(83.759 294.051)" fill="#811a20"/>
        <path id="패스_5940" data-name="패스 5940" d="M17.108.525C10.653,6.026,1,14.44.013,23.452c-.193,1.779,1.874,2.4,3.1,1.534,2.746-1.917,4.375-5.1,6.2-7.847a95.2,95.2,0,0,1,10.5-13.644,2.009,2.009,0,0,0-2.7-2.97" transform="translate(67.328 298.569)" fill="#811a20"/>
        <path id="패스_5941" data-name="패스 5941" d="M17.87.878Q12.377,7.047,6.881,13.207c-2.935,3.3-5.853,6.751-6.854,11.126a1.227,1.227,0,0,0,1.637,1.324c4.121-1.715,7.039-5.135,9.8-8.548q5.105-6.317,10.219-12.647c2.1-2.587-1.547-6.128-3.812-3.584" transform="translate(48.896 304.323)" fill="#811a20"/>
        <path id="패스_5942" data-name="패스 5942" d="M14.889.782C9.371,6.253,2.513,12.746.084,20.28a1.371,1.371,0,0,0,2.08,1.59c6.79-3.9,11.173-11.9,16.532-17.491,2.346-2.441-1.414-5.961-3.808-3.6" transform="translate(34.755 310.839)" fill="#811a20"/>
        <path id="패스_5943" data-name="패스 5943" d="M16.153.116C10.132,2.509,1.825,7.176.068,13.958c-.468,1.8,1.59,3.747,3.313,2.613,2.505-1.646,4.147-4.194,6.171-6.352a48.5,48.5,0,0,1,8.44-7.207c1.719-1.122-.125-3.571-1.839-2.9" transform="translate(259.86 323.616)" fill="#811a20"/>
        <path id="패스_5944" data-name="패스 5944" d="M21.457.011A31.424,31.424,0,0,0,7.976,4.364C4.822,6.3-.026,9.5,0,13.616a1.845,1.845,0,0,0,2.153,1.925c3.563-.666,6.163-4.285,9.111-6.266A65.2,65.2,0,0,1,22.48,3.281c1.9-.774.842-3.472-1.023-3.27" transform="translate(248.552 317.683)" fill="#811a20"/>
        <path id="패스_5945" data-name="패스 5945" d="M21.04.035C14.082,1.118,2.664,3.31.12,10.981-.5,12.85,1.4,14.131,3.029,13.891c3.455-.5,6.412-3.2,9.446-4.766a44.883,44.883,0,0,1,9.674-3.451c3.18-.8,2.14-6.158-1.109-5.638" transform="translate(238.423 309.166)" fill="#811a20"/>
        <path id="패스_5946" data-name="패스 5946" d="M21.281.032A25.847,25.847,0,0,0,1.212,8.043c-3.3,3.541.752,8.6,4.839,5.806C11.289,10.278,16.21,6.32,21.9,3.41A1.787,1.787,0,0,0,21.281.032" transform="translate(231.242 298.499)" fill="#811a20"/>
        <path id="패스_5947" data-name="패스 5947" d="M22.109,1.577C18.078.426,14.06-.524,9.857.327,6.015,1.109,1.326,2.415.089,6.55A2.436,2.436,0,0,0,1.838,9.506c3.223.748,5.913-1.156,8.857-2.213,3.326-1.2,7.121-2.407,10.692-2.265,1.951.082,2.733-2.871.722-3.451" transform="translate(224.702 290.301)" fill="#811a20"/>
        <path id="패스_5948" data-name="패스 5948" d="M12.238.411C7.954,3.2,2.371,6.363.132,11.12a1.879,1.879,0,0,0,2.132,2.432c4.83-1.388,8.4-6.029,12.338-9,2.376-1.788.279-5.853-2.364-4.143" transform="translate(199.201 260.169)" fill="#811a20"/>
        <path id="패스_5949" data-name="패스 5949" d="M12.325.549C10.018,2.336,7.684,4.111,5.368,5.886,3.228,7.528.989,9.058.108,11.679a2.181,2.181,0,0,0,2.548,2.707c2.639-.46,4.435-2.505,6.339-4.254,2.239-2.05,4.418-4.16,6.622-6.257,2.239-2.127-.971-5.118-3.292-3.326" transform="translate(193.059 249.215)" fill="#811a20"/>
        <path id="패스_5950" data-name="패스 5950" d="M17.664.076C11.815,1.924,5.841,4.511,1.264,8.684a3.463,3.463,0,0,0,4.212,5.492c5-3.3,8.913-7.967,13.709-11.56,1.435-1.07.009-3.025-1.521-2.54" transform="translate(183.182 241.553)" fill="#811a20"/>
        <path id="패스_5951" data-name="패스 5951" d="M15.8.126A48.187,48.187,0,0,0,1.112,8.776c-2.845,2.368.335,7.237,3.189,4.843,4.164-3.5,8.268-6.906,13.344-9.038C20.189,3.521,18.384-.785,15.8.126" transform="translate(172.96 234.618)" fill="#811a20"/>
        <path id="패스_5952" data-name="패스 5952" d="M22.532.06C14.891,1.981,6.378,4.843.89,10.808c-2.875,3.133,1.869,6.82,4.955,4.865,6.077-3.829,11.362-8.857,17.568-12.592C24.823,2.234,24.44-.43,22.532.06" transform="translate(164.39 222.561)" fill="#811a20"/>
        <path id="패스_5953" data-name="패스 5953" d="M16.455.021A28.467,28.467,0,0,0,5.973,4.262C3.1,5.99-.451,8.826.047,12.5a2.153,2.153,0,0,0,1.577,1.633c3.257.537,5.333-1.968,7.641-3.876A110.54,110.54,0,0,1,18.1,3.326c1.7-1.139.056-3.575-1.646-3.3" transform="translate(161.094 213.58)" fill="#811a20"/>
        <path id="패스_5954" data-name="패스 5954" d="M14.963.122A24.9,24.9,0,0,0,5.083,6.5C2.621,9.155-.98,13.779.249,17.548a2.233,2.233,0,0,0,3.172,1.44c2.742-1.715,3.657-5.075,5.591-7.581a39.361,39.361,0,0,1,8.212-8c2-1.418-.327-4-2.26-3.288" transform="translate(131.232 196.675)" fill="#811a20"/>
        <path id="패스_5955" data-name="패스 5955" d="M22.049.1A38.593,38.593,0,0,0,6.436,9.865C3.406,13.019-1.475,18.46.428,23.131a1.345,1.345,0,0,0,1.422.838C6.423,23.131,8.959,17.312,11.8,14A68.331,68.331,0,0,1,23.828,2.916c1.646-1.169-.1-3.408-1.779-2.819" transform="translate(114.262 193.585)" fill="#811a20"/>
        <path id="패스_5956" data-name="패스 5956" d="M25.039.2A61.384,61.384,0,0,0,8.481,10.6C4.82,13.8-.122,18.512,0,23.746c.021,1.246,1.3,2.527,2.6,1.771C6.44,23.295,8.584,18.929,11.55,15.7c4.3-4.693,9.957-8.569,15.372-11.827A2.066,2.066,0,0,0,25.039.2" transform="translate(92.522 195.385)" fill="#811a20"/>
        <path id="패스_5957" data-name="패스 5957" d="M19.131.372a91.514,91.514,0,0,0-12.6,10.456C3.591,13.78.364,16.994.007,21.3a1.749,1.749,0,0,0,2.45,1.719C6.333,21.674,8.74,17.8,11.323,14.8A113.769,113.769,0,0,1,21.912,4.085c1.955-1.745-.61-5.226-2.78-3.713" transform="translate(78.026 199.464)" fill="#811a20"/>
        <path id="패스_5958" data-name="패스 5958" d="M8.565.6C5.488,4.107,1.573,8.331.077,12.783c-.4,1.2.851,2.725,2.127,2.011,4.285-2.368,6.648-7.817,9.588-11.552C13.249,1.387,10.12-1.179,8.565.6" transform="translate(63.31 215.682)" fill="#811a20"/>
        <path id="패스_5959" data-name="패스 5959" d="M68.984,29.241C51.54,13.852,24.213,3.736,1.569.023-.124-.261-.579,2.146.86,2.808c9.39,4.323,18.995,8.238,28.475,12.381C41.978,20.72,53.753,28.627,66.65,33.419c2.342.864,4.113-2.609,2.333-4.177" transform="translate(453.78 288.25)" fill="#811a20"/>
        <path id="패스_5960" data-name="패스 5960" d="M43.216,26.248c-2.892-6.6-13.5-10.989-19.39-14.439C17.9,8.328,8.024-.031,1.058.326a.1.1,0,0,0,.03-.189C.525-.048-.175-.173.04.64c1.1,4.186,3.941,5.918,7.439,8.376C12.988,12.9,18.9,16.42,24.7,19.836c5.054,2.97,10.911,7.843,16.833,8.788a1.7,1.7,0,0,0,1.685-2.376" transform="translate(433.079 290.844)" fill="#811a20"/>
        <path id="패스_5961" data-name="패스 5961" d="M68.379,30.291C51.073,16.169,24.287,1.253,1.846,0,.256-.084-.772,2.143.737,3.062c10.378,6.3,22.467,9.79,33.52,14.835,11,5.015,21.294,11.457,32.407,16.206,2.4,1.031,3.378-2.454,1.715-3.812" transform="translate(382.239 288.464)" fill="#811a20"/>
        <path id="패스_5962" data-name="패스 5962" d="M70.165,16.926C49.812,7.093,25.3-1.687,2.385.277-.219.5-1.079,4.51,1.792,5.069,24.758,9.5,46.572,11.188,68.523,20.355c1.99.829,3.606-2.488,1.642-3.429" transform="translate(340.852 297.184)" fill="#811a20"/>
        <path id="패스_5963" data-name="패스 5963" d="M72.5,197.279c-2-8.1-6.167-15.329-7.787-23.6a46.589,46.589,0,0,1-.193-15.088,1.844,1.844,0,0,0,1.16-1.942c-.12-.752-.318-1.478-.456-2.218a82.9,82.9,0,0,1,2.488-9.489c.855-2.626-3.249-4.237-4.474-1.792-.133.266-.254.554-.378.808-1.835-7.142-3.992-14.2-6.188-21.264.877-1.491,1.779-2.987,2.737-4.422,2.187-3.3-2.437-7.3-4.835-3.988-.107.146-.223.322-.331.468-1.2-4.014-2.342-8.041-3.382-12.11q3.1-3.468,6.395-6.747a2.015,2.015,0,0,0-2.7-2.987c-1.646,1.4-3.309,2.884-4.951,4.413-.864-3.812-1.65-7.667-2.2-11.582-.082-.589-.138-1.165-.206-1.749q4.08-3.416,8.371-6.519c3.017-2.2-.073-6.94-3.193-4.848C50.5,73.9,48.52,75.3,46.5,76.792a119.194,119.194,0,0,1-.133-14.547,104.53,104.53,0,0,1,14.371-7.619c2.376-1.027.769-5.092-1.667-4.224a118.079,118.079,0,0,0-12.127,5.062q.567-5.067,1.6-10.026c8.737-3.146,17.77-5.428,26.657-8.255,1.985-.632,2.106-3.876-.288-3.885a96.835,96.835,0,0,0-24.173,3.451c.821-2.712,1.779-5.368,2.832-8.006,12.312-2.621,24.917-2.987,37.272-5.17a1.783,1.783,0,0,0-.172-3.52,127.082,127.082,0,0,0-33.275.254,95.179,95.179,0,0,1,5.376-9.188A177.069,177.069,0,0,1,102,12.927c2.6.43,3.915-3.49,1.212-4.04a220.48,220.48,0,0,0-35.57-4.435c.4-.516.786-1.036,1.2-1.547C70.205,1.272,67.558-.979,66.058.46c-1.332,1.285-2.609,2.583-3.816,3.9C47.33,4.354,32.534,6.545,19.448,12.6a1.7,1.7,0,0,0,.976,3.2c12.351-1.655,24.122-3.27,35.849-4.22a80.338,80.338,0,0,0-6.279,9.88C32.014,24.771,14.39,31.518,3.234,42.021c-1.453,1.358-.176,4.22,1.9,3.584,6.416-1.938,12.514-4.345,18.591-6.777-.851,3.309-1.538,6.717-2.084,10.194C12.172,54.883,4.321,62.279.144,71.007c-.67,1.4,1.152,2.892,2.432,2.2C8.9,69.757,14.6,65.416,20.368,61.157c-.228,4.194-.275,8.427-.082,12.695a78.345,78.345,0,0,0-10.8,13.056A96.977,96.977,0,0,1,6.925,75.219c-.348-2.325-3.661-1.6-3.5.623A132.106,132.106,0,0,0,5.846,93.109c-.4.774-.864,1.517-1.229,2.308-.838,1.775.941,3.928,2.561,3.386a83.808,83.808,0,0,0,6.012,16,37.5,37.5,0,0,0-3.15,16.133c.077,1.655,2.162,2.742,3.249,1.126a76.17,76.17,0,0,0,4.908-8.715,58.677,58.677,0,0,0,4.409,5.535,2.3,2.3,0,0,0,3.55-.052c-3.623,8.3-5.466,17.13-4.31,26.107.232,1.8,2.733,1.831,3.335.3,3.348-8.518,4.994-17.512,8.457-26.012.361-.89.786-1.758,1.19-2.63a84.857,84.857,0,0,0,7.435,11.062c-4.212,12.1-5.325,25.132.425,36.236a2.121,2.121,0,0,0,3.971-.894c.847-7.864-.232-15.746.632-23.688a59.256,59.256,0,0,1,3.416-14.1,113.672,113.672,0,0,0,8.548,17.774c-5.174,16.176-5.093,36.073,8.586,47.392a2.922,2.922,0,0,0,4.663-3.1M39.083,67.247c-.039,2.114-.052,4.242-.009,6.395.056,2.8.2,5.711.4,8.672a132.551,132.551,0,0,0-9.949,9.171A113.283,113.283,0,0,1,26.6,78.055a134.747,134.747,0,0,1,12.48-10.808M27.669,37.276c5.9-2.346,11.822-4.658,18.045-6.5q-1.579,4.068-2.768,8.307a108.334,108.334,0,0,0-16.751,7.267c.37-3.034.877-6.059,1.474-9.076M25.374,57.539A94.785,94.785,0,0,1,36.706,50.5q2.037-1.044,4.113-1.955c-.619,3.55-1.057,7.19-1.345,10.89a102.765,102.765,0,0,0-13.842,9.639,113.433,113.433,0,0,1-.258-11.534M11.708,93.981c3.12-3.6,6.236-7.121,9.42-10.464a128.809,128.809,0,0,0,2.578,14.405,78.86,78.86,0,0,0-6.549,9.158,139.283,139.283,0,0,1-5.449-13.1m15.32,32.94a2.619,2.619,0,0,0-.284-1.478c-1.749-3.172-3.429-6.287-5.067-9.4a99.241,99.241,0,0,1,4.667-8.8,110.091,110.091,0,0,0,4.766,12.145,75.3,75.3,0,0,0-4.083,7.538m9.7-15.583c-1.689-3.949-3.3-7.942-4.744-11.994a100.14,100.14,0,0,1,8.2-9.038c.52,4.71,1.229,9.536,2.119,14.392q-2.9,3.191-5.578,6.64m8.255,19.528c-1.706-4.4-3.567-8.741-5.458-13.081,1.306-2.131,2.673-4.229,4.147-6.257,1.066,4.8,2.334,9.579,3.786,14.255-.877,1.655-1.7,3.369-2.475,5.084" transform="translate(285.478 311.501)" fill="#811a20"/>
        <path id="패스_5964" data-name="패스 5964" d="M17.458,51.572c-1.4-7.37-5.754-13.928-7.735-21.2A63.968,63.968,0,0,1,8.605,3.535c.649-4.117-5.29-4.891-6.283-.976-3.954,15.57-4.478,42.179,11.706,51.617a2.359,2.359,0,0,0,3.429-2.6" transform="translate(367.216 474.144)" fill="#811a20"/>
        <path id="패스_5965" data-name="패스 5965" d="M18.685,31.315c-2-4.13-6.227-7.172-8.5-11.337C7.447,14.963,6.8,9.377,7.168,3.738,7.451-.615.954-1.509.386,2.892A38.861,38.861,0,0,0,2.539,22.449c2.024,5.174,7.482,12.072,13.24,13.038,2.527.425,3.928-2.054,2.905-4.173" transform="translate(391.855 500.276)" fill="#811a20"/>
        <path id="패스_5966" data-name="패스 5966" d="M23,30.613c-2.007-4.658-6.248-7.692-9.141-11.741a29.672,29.672,0,0,1-5.226-14.7C8.154-1.313-.5-1.438.023,4.08,1.054,14.875,8.106,33.849,21.7,33.114A1.786,1.786,0,0,0,23,30.613" transform="translate(415.953 518.017)" fill="#811a20"/>
        <path id="패스_5967" data-name="패스 5967" d="M12.751,14.513a4.935,4.935,0,0,0-.988-2.325c-.829-.954-1.526-1.981-2.265-2.982A22.793,22.793,0,0,1,6.275,2.038C5.239-1.5-.558-.064.044,3.529c.911,5.3,3.382,14.663,10,14.925,1.629.065,2.965-1.809,2.785-3.309.241,1.942-.039-.279-.077-.632" transform="translate(441.395 535.557)" fill="#811a20"/>
      </g>
    </g>
  </g>
</svg>
