<svg xmlns="http://www.w3.org/2000/svg" xmlns:xlink="http://www.w3.org/1999/xlink" width="175" height="101" viewBox="0 0 175 101">
  <defs>
    <clipPath id="clip-path">
      <rect id="사각형_3420" data-name="사각형 3420" width="175" height="101" transform="translate(10.704 33.305)" fill="#f5f5f5" stroke="#707070" stroke-width="1"/>
    </clipPath>
    <clipPath id="clip-path-2">
      <rect id="사각형_3419" data-name="사각형 3419" width="190.477" height="156.233" fill="#f5f5f5"/>
    </clipPath>
  </defs>
  <g id="m-img-sec9-crab-W" transform="translate(-10.704 -33.305)" clip-path="url(#clip-path)">
    <g id="그룹_7510" data-name="그룹 7510" transform="matrix(0.951, -0.309, 0.309, 0.951, -10.25, 64.527)">
      <g id="그룹_7509" data-name="그룹 7509" clip-path="url(#clip-path-2)">
        <path id="패스_8946" data-name="패스 8946" d="M181.112,115.089c-1.938-3.043-6.989-8.06-10.76-5.728a4.869,4.869,0,0,0-2.605-2.131c-4.756-1.689-11.46-.237-16.4,1.592a4.927,4.927,0,0,0-3.571-3.386,18.632,18.632,0,0,0-3.856-.494,41.868,41.868,0,0,1-4.563-.583,12.253,12.253,0,0,0,.52-1.266c2.28,1.63,5.764,1.358,8.416,1.213s6.433-.638,8.249-2.77c0,0,0-.01.006-.015a5.763,5.763,0,0,0,2.428-2.667,70.082,70.082,0,0,0,9.118,1.276c1.583.123,3.861.105,5.379-.814,3.655,1.3,6.661,1.863,9.258,5.118,1.734,2.176,3.34,3.709,6.163,4.194a1.124,1.124,0,0,0,1.218-.971c1.61-6.432-2.287-12.1-6.678-16.427-2.055-2.029-6.266-4.933-7.787-1.816a6.652,6.652,0,0,0-3.769-2.618c-4.017-.884-10.831,1.419-13.284,5.094a4.894,4.894,0,0,0-2.183-1.736c-1.835-.74-4.483.076-6.266.572-2.241.619-4.447,1.069-6.687,1.547.008-.865-.012-1.716-.087-2.544a26.942,26.942,0,0,0,16.092-5.3c3.739-2.84,8.051-6.795,8.072-11.859.012-3.17-2.319-5.355-5.564-6.673.8-1.128.109-3.235-.109-4.444a9.872,9.872,0,0,0-1.425-4.2c6.169-8.16,2.167-20.306-2.954-28.6-5.308-8.588-16.517-18.465-27.5-15.681a.781.781,0,0,0-.913,1.208c3.9,5.411,7.906,9.9,10.125,16.357a24.847,24.847,0,0,1,1.286,8.177,34.415,34.415,0,0,1-8.135-9.343c-2.055-3.551-3.438-7.983-6.255-11.024-.121-.678-1.164-.7-1.471-.052-2.746,5.857-2.919,13.261-1.167,19.41,1.654,5.817,5.975,12.959,11.163,16.2a1.43,1.43,0,0,0,.129.068c.709,1.839,3.391,3.594,4.742,4.333a32.3,32.3,0,0,0,4.369,2.011,6.943,6.943,0,0,0-.234,2.152,6.04,6.04,0,0,0,.945,3.624,6.065,6.065,0,0,0-1,.684.386.386,0,0,0-.14.277,3.756,3.756,0,0,0-1.453,2.388,10.465,10.465,0,0,0,.061,3.277c.227,2.146-1.572,4.053-2.767,5.745a37.717,37.717,0,0,0-11.032-10.2,4.543,4.543,0,0,0,.149-3.373,6.383,6.383,0,0,0-3.979-3.614,5.878,5.878,0,0,0-4.468-.051,2.826,2.826,0,0,0-1.519,1.863,139.926,139.926,0,0,0-16.825-5.963c-2.821-.828-5.852-1.616-8.978-2.26a5.724,5.724,0,0,0-6.1-5.816c-2.525.022-5.331,1.771-5.244,4.341A39.791,39.791,0,0,0,68.1,54.819a1.144,1.144,0,0,0-.066-.5c-1.113-3.1.087-6.176,2.387-8.353,1.262-1.193,2.1-2.116,2.169-3.917a3.784,3.784,0,0,0-.706-2.292c.2-.166.395-.344.588-.5.406-.337.822-.694,1.253-1.022,3.986,2.1,11.4,1.114,13.84-1.753a.892.892,0,0,0,.741.028,2.339,2.339,0,0,0,.667-.439,41.978,41.978,0,0,0,15.344-4.952c6.425-3.343,7.821-10.377,11.336-16.1.246-.4-.326-.895-.655-.532C108.878,21.241,97.91,23.3,89.1,22.694c1.4-3.133,4.289-5.417,7.057-7.283,5.512-3.717,11.626-4.225,17.659-6.324a.528.528,0,0,0,.731-.7.6.6,0,0,0-.467-.543c-.022-.006-.045-.007-.068-.013C108.669,2.692,101.07.127,93.759,0c-6.727-.114-12.98,2.774-18.63,6.152C70.41,8.979,64.046,13.787,62.577,19.438a10.782,10.782,0,0,0,.009,4.963,16.3,16.3,0,0,0-3.8,2.822c-.967.932-2.161,2.062-2.149,3.487a.484.484,0,0,0,.04.15c-2.279-.641-4.251-.431-5.085,1.724-3.671,2.556-4.055,9.73-3.825,13.589.313,5.286,3.5,13.725,8.685,16.018-.386.444-.76.908-1.128,1.389-2.761-1.489-3.68-5.869-5.787-8.124a5.5,5.5,0,0,0-4.122-1.862,1.412,1.412,0,0,0-.159-.428,53.554,53.554,0,0,0-6.2-9.257c-1.07-1.2-3.058-3.211-4.921-3.33a.316.316,0,0,0-.437-.308,14.186,14.186,0,0,0-2.237,1c-1.508-3.995-4.707-4.427-8.868-3.368C16.86,39.363,10.865,42.134,8.281,47.8a1.06,1.06,0,0,0,.526,1.375c2.769,1.46,5.974.63,8.841-.1,3.189-.814,5.546-1.449,8.723-.854a5.976,5.976,0,0,0,1.05,3.225c1.494,2.294,4.072,3.494,6.121,5.184,1.321,1.086,3.183,3.53,5.076,3.3a6.736,6.736,0,0,0,.979,4.407c2.625,4.02,7.773,6.32,12.047,8.244a12.973,12.973,0,0,0-.514,2.907c-2.965-2.131-5.947-5.069-9.772-5.032a4.478,4.478,0,0,0-1.737.391,44.332,44.332,0,0,1-4.026-5.209,11.518,11.518,0,0,0-3.691-4,6.731,6.731,0,0,0-6.163-.327c.112-3.388-4.915-4.1-7.918-3.3C11.66,59.645,4.476,62.928.245,67.792a.942.942,0,0,0,.238,1.466c3.4,1.524,6.941,1.51,10.6,1.339,3.372-.156,6.778.575,10.129.293,2.557,4.39,11.048,7.135,14.739,8.363a1.22,1.22,0,0,0,.58.057c2.782,4.748,11.753,8.3,15.845,6.708a.7.7,0,0,0,.406-.632c.187.542.376,1.085.578,1.622a34.146,34.146,0,0,1-5.552-.032,32,32,0,0,0-5.931-.6,4.707,4.707,0,0,0-3.051,1.377c-2.313-2.016-6.5-2.412-9.323-2.523a8.4,8.4,0,0,0-3.7.6c-.308-2.149-3.024-2.548-5.237-1.985a24.308,24.308,0,0,0-8.888,4.8C10.348,89.755,5,94.577,7.754,96.554c1.459,1.049,3.409.326,4.982-.119,1.061-.3,2.131-.587,3.2-.852,1.874-.465,4.275,1.007,6.148,1.422a.885.885,0,0,0,1.007-.421,5.65,5.65,0,0,0,2.747,2.156c1.989.738,4.684.32,6.768.325a9.572,9.572,0,0,0,5.548-1.286.529.529,0,0,0,.12-.11c1.757,2.01,5.44,2.293,7.875,2.142a61.846,61.846,0,0,0,7.162-.595c-.119.038-.244.076-.356.115-2.039.684-4.211,2.09-4.624,4.271-3.283-1.137-7.058.125-9.5,2.528a8.1,8.1,0,0,0-.712.827c-3.96-2.583-9.04,4.834-10.33,7.693-.724,1.606-1.4,4.143.154,5.489a3.406,3.406,0,0,0,2.8.51c2.466-.4,4.865-1.758,7.2-2.591a.291.291,0,0,0-.005-.535c-2.689-1.128-5.293,1.078-7.96,1.346-1.893.189-.713-2.508-.331-3.365,1.019-2.29,4.38-7.7,7.566-7.122-1.4,2.663-1.97,6.288.369,8.142a.346.346,0,0,0,.536-.255,19.091,19.091,0,0,0-.187-3.182,7.6,7.6,0,0,1,2-4.966c2.271-2.889,5.588-3.213,8.953-2.727a.646.646,0,0,0,.191-.01.746.746,0,0,0,.528-.034,1.01,1.01,0,0,0,.651-.772c.459-4.642,6.832-4.131,10.138-4.959h0a40.336,40.336,0,0,0,3.93,4.273c.836.784,1.721,1.538,2.629,2.277a32.055,32.055,0,0,0-9.378,3.005,24.588,24.588,0,0,1-3.816,1.665c-2.563.775-2.634-1.322-3.287-3.112-.121-.331-.622-.549-.878-.211a3.46,3.46,0,0,0-.826,2.566c-1.7,1.742-2.547,4.391-4.582,5.9a5.217,5.217,0,0,1-4.316.564c-.83-.171-1.746.033-1.7,1.026a1,1,0,0,0,.58.824,7.1,7.1,0,0,0,7.647-1.148,15.612,15.612,0,0,0,3.743-5.211,4.893,4.893,0,0,0,3.378.579,31.79,31.79,0,0,0,6.409-2.358c2.722-1.137,5.944-1.427,8.5-2.928,10.763,8.153,25.761,13.223,39.3,12.394-.684,1.509.043,3.444.433,4.978a17.668,17.668,0,0,0,3.4,6.862,6.735,6.735,0,0,0,6.138,2.464c-.466,3.6.855,8.1,2.243,11.022.7,1.477,1.961,3.154,3.7,3.395a3.755,3.755,0,0,0,2.024-.318,5.2,5.2,0,0,0,.719,2.543c.779,1.519,2.1,2.919,2.364,4.651a1.084,1.084,0,0,0,1.8.655c3.123.407,4.784-6.132,5.1-8.2.391-2.567-.028-8.9-3.644-9.162a7.905,7.905,0,0,0-.567-2.872c-.92-2.188-3.368-5.115-5.991-5.847a6.634,6.634,0,0,0-.522-3.648,23.74,23.74,0,0,0-3.166-5.351,13.792,13.792,0,0,0-2.276-2.8c.253-.044.5-.1.743-.169a4.713,4.713,0,0,0,1.119-.432c.71,3.952,4.308,8.031,7.158,10.5,1.653,1.43,5.209,2.7,7.2,1.432,1.3,2.711,4.955,5.431,6.732,6.76,1.211.908,4.842,2.77,6.549,1.7.655,2.213,6.512,3.445,7.276,4.8.85,1.512,1.245,3.36,2.7,4.439a1.579,1.579,0,0,0,2.19-.273.344.344,0,0,0,.114,0c2.035-.483,2.21-3.485,2.278-5.144a18.593,18.593,0,0,0-1.782-7.866,9.784,9.784,0,0,0-3.9-4.823,4.256,4.256,0,0,0-3.6-.247c-.056-.194-.116-.387-.191-.579-.788-2.088-3.3-2.991-5.223-3.593a51.923,51.923,0,0,0-6.923-1.788c.6-1.9-1.147-3.226-2.641-3.937-1.841-.874-3.8-1.5-5.667-2.311a8.956,8.956,0,0,1-2.494-1.525,4.953,4.953,0,0,1-1.072-1.692c.458-.259.915-.525,1.362-.8-.262.254-.425.612-.143.8a15.615,15.615,0,0,0,2.277,1.618,36.484,36.484,0,0,0,4.648,1.623c2.316.726,5.73,2.178,8.187,1.386a.6.6,0,0,0,.379-.435,4.1,4.1,0,0,0,1.062-.573c3.4,2.45,7.832,3.221,12.074,3.1a.412.412,0,0,0,.2.626,6.639,6.639,0,0,0,4.966-.125.482.482,0,0,0,.232.052,4.887,4.887,0,0,0,2.375-.728c1.388,2.727,6.95,3.216,9.117,5.027,1.083.908,4.842,5.315,6.93,4.611a1.919,1.919,0,0,0,.116.166.931.931,0,0,0,1.449-.227c2.332-3.545-2.3-11.448-4.161-14.372M22.239,64.074a6.432,6.432,0,0,0-1.753,4.572c-2.294.126-4.654-.347-6.938-.406-3.744-.092-7.266.4-10.891-.334C5.705,64.876,10.2,63.117,14.09,61.5a23.915,23.915,0,0,1,6.349-1.8c2.465-.291,2.839,1.06,3.283,2.876a10.821,10.821,0,0,0-1.483,1.5m13.456,12.56c0,.094.018.191.026.286a32.6,32.6,0,0,1-9.7-3.622c-4.607-2.7-3.657-8.316.975-10.344,5.464-2.389,7.356,6.3,11.273,8.706a6.538,6.538,0,0,0-2.577,4.974M16.3,93.957c-1.312.228-2.592.615-3.884.931a12.791,12.791,0,0,1-2.687.35c-1.4.038-.118-1.5.255-2a23.344,23.344,0,0,1,2.868-2.923,23.383,23.383,0,0,1,5.719-3.465,12.917,12.917,0,0,1,3.75-1.229c1.18-.163,1.491.45,1.729,1.365a7.014,7.014,0,0,0-1.811,3.242,8.368,8.368,0,0,0-.009,4.5c-1.835-.272-4.09-1.1-5.931-.777m152.042-4.976a5.384,5.384,0,0,1,4.561.782c2.04,1.391,1.007,3.738,1.264,5.694a.75.75,0,0,0,1.207.443,4.238,4.238,0,0,0,1.036-5.135c2.832-2.1,6.424,3.115,7.875,4.825,2.618,3.092,4.2,6.634,3.809,10.6-2.754-.9-4.037-3.673-6.192-5.586a13.208,13.208,0,0,0-7.05-2.922c.161-.463-.267-.975-.749-.684-2.62,1.569-5.046,1.531-8.013,1.2-2.112-.233-4.761-.881-6.832-.065a7.394,7.394,0,0,0-.092-5.212,32.057,32.057,0,0,1,9.176-3.945M145.389,60.82c2.9.826,5.935.977,8.324-.615a.487.487,0,0,0-.12-.888c-3.4-1-6.726-.933-10.095-2.229-1.726-.665-6.345-2.046-7.079-4.289a1.035,1.035,0,0,0-.061-.3,1.951,1.951,0,0,1,.015-.782c.09-.367-.358-.808-.708-.54a3.619,3.619,0,0,0-.316.27,32.937,32.937,0,0,1-10.1-16.072c-1.34-4.937-.33-9.53.466-14.322a88.906,88.906,0,0,0,5.033,10.328c2.047,3.855,5.214,8.625,9.561,10.143-.021.182-.033.361-.056.54-.422,3.359-2.042,5.694-3.746,8.488-.153.25.085.625.385.473,7.208-3.641,7.38-13.467,5.516-20.208-1.619-5.858-5.5-12.458-10.453-16.444a26.917,26.917,0,0,1,11.171,3.318c4.356,2.56,7.748,6.462,10.543,10.606a42.235,42.235,0,0,1,5.8,13.789,28.113,28.113,0,0,1,.852,8.885c-.266,3.161-2.675,5.9-4.228,8.511a.728.728,0,0,0,1.043.988,16.784,16.784,0,0,0,2.055-1.8c.09.493.2.986.265,1.473.144,1.078.292,2.154.439,3.233a10.6,10.6,0,0,0,.417,1.941,25.264,25.264,0,0,0-14.176.067c-.148-.8-.316-1.582-.484-2.39-.143-.7-.166-1.452-.273-2.17m-1.265,14.714c1.212-2.235-1.385-6.848,1.565-7.988a.222.222,0,0,0,.079-.06c3.865-.336,7.491-.88,11.476-.1a11.4,11.4,0,0,1,6.465,3.295c1.589,1.812.118,4.36-.824,6.026a26.138,26.138,0,0,1-6.862,7.327c-3.729,2.9-8.38,3.6-12.731,5.062a23.249,23.249,0,0,0-3.484-9.806,6.979,6.979,0,0,0,4.315-3.761M121.406,62.7a5.565,5.565,0,0,1,2.847.773,4.28,4.28,0,0,1,1.967,2.152,2.261,2.261,0,0,1,.042,1.442c-2.046-1.2-4.178-2.293-6.349-3.295a1.521,1.521,0,0,1,1.493-1.072M90.227,54.411a69.373,69.373,0,0,0-7.929-.968c1.57-3.772,7.5-3.321,7.929.968M60.253,28.047c.873-.889,1.782-1.735,2.581-2.69,1.04,3.558,3.491,6.926,6.56,8.321a.528.528,0,0,0,.743-.609c-1.216-5.277-7.078-8.222-4.067-14.389,2.451-5.021,8.088-8.562,12.707-11.34,10.79-6.484,22.407-6.424,32.728.174-6.78-.278-14.865,3.654-19.76,7.494-5.172,4.059-9.951,13.586-3.82,18.97a.591.591,0,0,0,.967-.486c-.284-3.426-1.273-6.128-.276-9.484,7.48,1.67,16.926-.645,23.284-5.437-2.149,3.693-3.548,7.741-7.613,10.277A42.8,42.8,0,0,1,89.054,34.4a.62.62,0,0,0-.477-.207.2.2,0,0,0-.169.116.815.815,0,0,0-.068.328.775.775,0,0,0-.243.508,2.066,2.066,0,0,1-.279.131,1.116,1.116,0,0,0-.442.312c-2.92.419-5.465,1.331-8.5,1.2-2.524-.108-4.472-1.5-6.841-1.859a.6.6,0,0,0-.668.782,4.114,4.114,0,0,0,1.042,1.58,8.189,8.189,0,0,0-.843.416,6.412,6.412,0,0,0-.977.659,19.151,19.151,0,0,0-3.88-2.305c-1.672-.808-5.807-3.8-9.391-5.008,1.216-.648,1.978-2.038,2.933-3.009m-6.862,4.94c4.047-1.013,8.547,3.462,12,5.145,1.034.505,2.051,1,3.036,1.6,3.091,1.875.02,5.37-1.317,7.578A9.129,9.129,0,0,0,66,55.2a1.136,1.136,0,0,0,.158.285,24.46,24.46,0,0,0-8.152,5.087,1.053,1.053,0,0,0-.331-.348c-7.8-5.188-9.922-19.816-4.284-27.234M26.875,45.865c-3.625-2.877-11.484,2.8-16.168,1.78,2.035-3.494,5.715-5.511,9.45-6.9a29.742,29.742,0,0,1,5.6-1.418C28,38.971,29.011,40.6,30,42.214a9.466,9.466,0,0,0-3.12,3.651m14.55,9.1a6.539,6.539,0,0,0-2.286,2.92c-3.48-1.868-7.065-3.9-9.678-6.973-3.468-4.078,1.97-6.026,4.03-8.9a7.189,7.189,0,0,0,.639.49,17.044,17.044,0,0,1,3.647,3.609,74.077,74.077,0,0,1,5.016,8.081,8.7,8.7,0,0,0-1.368.774M52.4,84.812c-2.942-.841-5.893-.84-8.747-2.181a12.153,12.153,0,0,1-4.506-3.7,4.011,4.011,0,0,1,3.667-6.38c3.163.307,4.909,4.188,8.283,3.99a27.164,27.164,0,0,0,1.5,8.31c.012.038.026.073.038.11a.5.5,0,0,0-.236-.15M46.289,97.444c-2.769.148-4.84-1.062-7.482-1.317a.854.854,0,0,0-.816.581.48.48,0,0,0-.073-.023,25.621,25.621,0,0,0-8.213.374,5.7,5.7,0,0,1-4.251-.678c-2.047-1.382-1.222-4.989-.569-6.815,1.613-4.507,9.2-1.578,12.97-.549a4.624,4.624,0,0,0,.444,5.594.46.46,0,0,0,.719-.088C39.961,92.838,39,90.3,40.6,88.947c1.061-.9,3.081-.471,4.315-.319,2.581.32,6.625,1.487,9.04-.1a47.727,47.727,0,0,0,3.72,7.186c-3.83.484-7.444,1.521-11.386,1.731m9.443,1.146a7.55,7.55,0,0,0,2.764-1.63h0c.375.554.744,1.109,1.145,1.647a8.451,8.451,0,0,0-3.909-.015m98.074,34.938a5.975,5.975,0,0,0,.713-3,3.651,3.651,0,0,1,3.272,1.283,13.652,13.652,0,0,1,2.566,5.43,20.483,20.483,0,0,1,.745,5.809c0,.766-.175,1.55-.25,2.327-1.952-.4-2.289-4.257-4.024-5.421-2.28-1.531-5.059-1.181-6.6-3.713,1.594.3,2.877-1.433,3.579-2.719m-12.556-9.4c2.883,1.856,6.809,1.823,9.72,3.757,1.671,1.111,1.282,3.321.5,4.817-.546,1.037-1.719,1.667-1.906,2.856a.638.638,0,0,0,.032.328.253.253,0,0,0-.17,0c-5.232,1.732-8.957-5.251-12.419-8.422,0-.006,0-.012.006-.02a.448.448,0,0,0-.107-.419,6.532,6.532,0,0,0,4.346-2.895m-6.43-4.854c1.486.609,3.542,1.091,4.615,2.361.4.473-.537,1.245-.825,1.535-.989.984-2.169,1.589-2.744,2.921a.689.689,0,0,0,.056.6.563.563,0,0,0-.666.449,5.446,5.446,0,0,1-3.416.135c-1.792-.622-3.259-2.291-4.472-3.658-1.912-2.15-3.049-4.813-4.842-7.02a41.373,41.373,0,0,0,6.107-2.5c.1,2.478,4.484,4.48,6.187,5.176m-3.832-9.223c-3.009,2.229-6.392,3.885-9.517,5.933-.02,0-.039,0-.061.007-.555.147-1.085.365-1.643.5a6.053,6.053,0,0,0-1.715.5.557.557,0,0,0-.121.86.564.564,0,0,0-.084.193c-.168.833.539,1.77.944,2.447.812,1.351,1.771,2.613,2.58,3.969a14.12,14.12,0,0,1,1.78,4.024c.31,1.389-.772,1.662-1.54,2.6a.519.519,0,0,0,.129.8,2.3,2.3,0,0,0,2.91-.489,19.515,19.515,0,0,1,4.045,3.867,6.167,6.167,0,0,1,1.149,3.606c-.042,1.155-.847,2.175-1.148,3.26a.413.413,0,0,0,.477.519,2.886,2.886,0,0,0,2.576-2.178,8.278,8.278,0,0,1,1.79,6.428,11.45,11.45,0,0,1-2.862,6.745c-.811-2.24-2.962-4.069-3.93-6.221a3.937,3.937,0,0,0,1.288-2.073.359.359,0,0,0-.485-.437c-1.237.405-2.642,1.923-4,1.144-1.215-.695-1.843-2.379-2.328-3.6-1.139-2.86-1.4-5.905-2.059-8.864a5.78,5.78,0,0,0,2.112-1.6.467.467,0,0,0-.441-.78,21.224,21.224,0,0,1-4.694.646c-2.1-.16-3.544-2.388-4.45-4.03a25.634,25.634,0,0,1-1.828-4.66c-.39-1.229-.5-2.551-1.339-3.5a41.963,41.963,0,0,0,5.912-.878.485.485,0,0,0-.13-.95c-7.781,0-14.62.2-22.182-2.186a81.706,81.706,0,0,1-20.308-9.291C59.916,98.6,50.607,83.439,54.285,69.018c.078-.305-.334-.379-.5-.2a8.756,8.756,0,0,0-1.261,1.71c-3.662-1.512-7.519-3.392-10.243-6.319-3.414-3.667.783-10.9,5.27-7.491,1.8,1.365,4.02,8.095,6.938,8.336a.7.7,0,0,0,1.224.327C67.839,52,85.547,55.206,100.956,59.68c16.214,4.709,40.016,13.679,39.288,34.207a1.572,1.572,0,0,0,3.133.244c.014-.145.009-.282.02-.426,2.4.521,5.64-1.007,7.749-1.545,1.759-.452,4.082-.981,5.238.884,1.483,2.4.384,5.746-1.039,7.954-2.12.2-4.244.948-6.364,1.179-2.956.321-5.9-.314-8.818-.068a11.817,11.817,0,0,0,.341-2.188c.03-.518-.659-.61-.9-.233-2.617,4.012-4.672,7.449-8.61,10.366m13.89,6.023c-1.68-.619-3.615-.884-5.235-1.34-2.514-.707-5.088-2.039-7.646-2.475a.351.351,0,0,0-.163.013,21.649,21.649,0,0,0,6.793-6.564,8.762,8.762,0,0,0,3.711,1.073c1.95.273,5.217-.125,6.345,1.872,1.688,2.991-1.877,5.426-3.805,7.421m20.3,3.161c-.394.056-.788.107-1.185.162a.407.407,0,0,0-.273-.463c-4.848-1.368-9.745-1.541-14.442-3.442a11.467,11.467,0,0,0,2.17-5.047c3.265-.16,6.552-1.248,9.775-1.571,2.188-.224,5.335-.382,6.744,1.678,2.047,2.986-1.1,6.271-2.788,8.683m11.531,2.982c-2.561-1.261-5.236-2.006-7.688-3.465a9.035,9.035,0,0,0,2-7.707c4.536.268,6.948,3.626,9.2,7.789a28.327,28.327,0,0,1,2.281,5.812,12.923,12.923,0,0,1,.326,2.079c-1.97-1.453-5.6-4.253-6.117-4.507" transform="translate(0 0)" fill="#f5f5f5"/>
        <path id="패스_8947" data-name="패스 8947" d="M.213.058.045,0C0-.013-.02.058.026.075L.193.13C.239.146.26.075.213.058" transform="translate(136.602 14.256)" fill="#f5f5f5"/>
        <path id="패스_8948" data-name="패스 8948" d="M5.2,5.585C5.153,3.353,2.413.514.3.009-.012-.067-.083.354.1.525c.8.759,1.754,1.3,2.52,2.124C3.505,3.6,4,4.822,4.87,5.759c.131.141.338-.02.334-.173" transform="translate(137.038 14.226)" fill="#f5f5f5"/>
        <path id="패스_8949" data-name="패스 8949" d="M3.179,2.557C2.586,1.573,1.443.149.208,0a.179.179,0,0,0-.18.271C.654,1.3,1.619,2.084,2.247,3.147A20.549,20.549,0,0,1,3.912,7.209a.29.29,0,0,0,.552-.077A7.694,7.694,0,0,0,3.179,2.557" transform="translate(142.092 16.194)" fill="#f5f5f5"/>
        <path id="패스_8950" data-name="패스 8950" d="M.285.047C.145-.082-.029.079,0,.239c.309,1.452.845,2.838,1.113,4.3.286,1.543.12,3.114.285,4.661.052.479.71.385.848.023C3.28,6.461,2.5,2.082.285.047" transform="translate(147.333 18.873)" fill="#f5f5f5"/>
        <path id="패스_8951" data-name="패스 8951" d="M2.562,3.219C2.3,2.211,1.583.041.307,0a.275.275,0,0,0-.3.232c-.053.635.277.9.557,1.477a9.073,9.073,0,0,1,.751,2.083,21.2,21.2,0,0,1,.032,4.62.478.478,0,0,0,.888.234,7.586,7.586,0,0,0,.329-5.428" transform="translate(150.571 23.253)" fill="#f5f5f5"/>
        <path id="패스_8952" data-name="패스 8952" d="M.914.16A.27.27,0,0,0,.4.294,41.665,41.665,0,0,1,.641,4.8C.582,6.243.027,7.606,0,9.04a.319.319,0,0,0,.571.216C2.466,7,2.256,2.629.914.16" transform="translate(153.908 27.114)" fill="#f5f5f5"/>
        <path id="패스_8953" data-name="패스 8953" d="M2.131.162c-.073-.265-.462-.177-.5.063-.264,1.571-.354,3.16-.609,4.734S.2,8.027,0,9.609c-.055.442.558.557.776.237A12.651,12.651,0,0,0,2.131.162" transform="translate(154.684 31.692)" fill="#f5f5f5"/>
        <path id="패스_8954" data-name="패스 8954" d="M4.218.446A.457.457,0,0,0,3.3.435C2.974,3.762,1.387,6.082.021,9.027c-.1.21.161.5.379.373C3.464,7.624,4.382,3.759,4.218.446" transform="translate(155.199 37.148)" fill="#f5f5f5"/>
        <path id="패스_8955" data-name="패스 8955" d="M5.4.421A.42.42,0,0,0,4.584.286a22.5,22.5,0,0,1-2.36,5.045,20.58,20.58,0,0,0-2.2,3.264c-.121.292.2.5.454.418C3.578,7.956,5.309,3.4,5.4.421" transform="translate(155.306 42.649)" fill="#f5f5f5"/>
        <path id="패스_8956" data-name="패스 8956" d="M6.776.6c.168-.545-.639-.835-.911-.358a17.361,17.361,0,0,1-2.733,3.7c-.942.95-2.1,1.639-3,2.626a.439.439,0,0,0,.4.74C3.616,6.867,5.934,3.345,6.776.6" transform="translate(155.043 47.763)" fill="#f5f5f5"/>
        <path id="패스_8957" data-name="패스 8957" d="M1.055.281C.978-.1.36-.1.355.316.332,2.889.015,5.446,0,8.012a.363.363,0,0,0,.7.143A15.173,15.173,0,0,0,1.055.281" transform="translate(127.438 23.195)" fill="#f5f5f5"/>
        <path id="패스_8958" data-name="패스 8958" d="M1.285.4c.028-.529-.713-.53-.8-.038C.01,3.049-.341,6.294.55,8.9a.357.357,0,0,0,.655-.033c.6-2.7-.065-5.7.079-8.463" transform="translate(129.429 27.23)" fill="#f5f5f5"/>
        <path id="패스_8959" data-name="패스 8959" d="M1.192.463A.483.483,0,0,0,.227.471C.215,1.826.118,3.174.072,4.53A9.308,9.308,0,0,0,.218,7.8a.345.345,0,0,0,.6.05c1.107-2.059.573-5.149.378-7.39" transform="translate(131.771 32.336)" fill="#f5f5f5"/>
        <path id="패스_8960" data-name="패스 8960" d="M1.107.386C.98-.261-.038-.029,0,.6c.051.813.042,1.62.045,2.432A8.5,8.5,0,0,0,.163,5.4a.535.535,0,0,0,.979.091C1.832,4,1.414,1.933,1.107.386" transform="translate(134.694 36.148)" fill="#f5f5f5"/>
        <path id="패스_8961" data-name="패스 8961" d="M1.515,2.749A13.314,13.314,0,0,0,1.71.714C1.739-.081.517-.3.462.52.377,1.742.071,2.912,0,4.126a.468.468,0,0,0,.868.235,4.046,4.046,0,0,0,.646-1.612" transform="translate(137.462 39.055)" fill="#f5f5f5"/>
        <path id="패스_8962" data-name="패스 8962" d="M4.265.01c-.052.038-.855-.026-1-.005-.39.055-.778.107-1.168.154C1.453.239.838.412.2.52-.042.561-.088.967.191.979a18.038,18.038,0,0,0,2.945-.1A3.616,3.616,0,0,0,4.243.649c.325-.159.105-.7.022-.639" transform="translate(155.626 60.533)" fill="#f5f5f5"/>
        <path id="패스_8963" data-name="패스 8963" d="M5.319.293A10.97,10.97,0,0,0,.3.3c-.323.109-.463.634-.045.738C1.819,1.421,3.793.922,5.338.614c.17-.032.134-.292-.019-.321" transform="translate(155.082 62.339)" fill="#f5f5f5"/>
        <path id="패스_8964" data-name="패스 8964" d="M3.628,1.463A6.8,6.8,0,0,0,.641.017C-.051-.147-.266.909.414,1.091A6.082,6.082,0,0,1,2.856,2.359c.575.485.833,1.323,1.564,1.567a.372.372,0,0,0,.47-.236c.256-.911-.64-1.673-1.262-2.228" transform="translate(160.439 70.439)" fill="#f5f5f5"/>
        <path id="패스_8965" data-name="패스 8965" d="M5.447,4.067C4.888,1.928,2.421.592.468.017A.364.364,0,0,0,.234.706,9.03,9.03,0,0,1,2.546,2.1c.838.7,1.377,1.635,2.173,2.357a.431.431,0,0,0,.728-.389" transform="translate(158.384 71.745)" fill="#f5f5f5"/>
        <path id="패스_8966" data-name="패스 8966" d="M3.719,2.136A6.312,6.312,0,0,0,.424.013c-.313-.094-.6.34-.288.534a9.775,9.775,0,0,1,2.528,2.36c.631.819.81,2.219,1.712,2.738a.44.44,0,0,0,.6-.151C5.491,4.376,4.39,3,3.719,2.136" transform="translate(156.519 74.146)" fill="#f5f5f5"/>
        <path id="패스_8967" data-name="패스 8967" d="M3.2,3.566A11.425,11.425,0,0,0,.845.142a.494.494,0,0,0-.769.6A18.307,18.307,0,0,1,1.751,3.9c.373.9.358,2.322,1.183,2.926A.465.465,0,0,0,3.5,6.745c.72-.868.078-2.265-.3-3.179" transform="translate(154.88 75.51)" fill="#f5f5f5"/>
        <path id="패스_8968" data-name="패스 8968" d="M.742.147C.4-.245-.154.224.04.653a15.036,15.036,0,0,1,.975,2.834,19.906,19.906,0,0,0,.557,2.7.544.544,0,0,0,1.042-.045C3.185,4.1,2.071,1.668.742.147" transform="translate(152.889 78.398)" fill="#f5f5f5"/>
        <path id="패스_8969" data-name="패스 8969" d="M.913.241a.5.5,0,0,0-.9.379A14.476,14.476,0,0,1,.4,3.1a4.651,4.651,0,0,0,.15,2.179.585.585,0,0,0,.813.163c1.318-1.155.294-3.96-.449-5.2" transform="translate(150.87 80.861)" fill="#f5f5f5"/>
        <path id="패스_8970" data-name="패스 8970" d="M.755.137a.418.418,0,0,0-.721.27c.05.614.117,1.243.111,1.862-.009.7-.132,1.4-.144,2.106s.947.69,1.21.191A4.379,4.379,0,0,0,.755.137" transform="translate(148.283 82.654)" fill="#f5f5f5"/>
        <path id="패스_8971" data-name="패스 8971" d="M1.631,2.274A4.129,4.129,0,0,0,1.656.565C1.485-.3.135-.123.294.756a3.206,3.206,0,0,1-.021,1.2A2.815,2.815,0,0,1,.127,2.4,3.513,3.513,0,0,0,0,3.277a.469.469,0,0,0,.694.41,2.007,2.007,0,0,0,.934-1.413" transform="translate(145.189 85.087)" fill="#f5f5f5"/>
        <path id="패스_8972" data-name="패스 8972" d="M1.6.531C1.618-.132.488-.2.437.464a4.093,4.093,0,0,1-.413,1.1.451.451,0,0,0,.419.567C1.3,2.226,1.576,1.153,1.6.531" transform="translate(143.029 87.067)" fill="#f5f5f5"/>
        <path id="패스_8973" data-name="패스 8973" d="M8,.491C5.788-.668,2.065.419.123,1.748c-.273.185-.049.632.257.572C1.7,2.057,2.975,1.683,4.3,1.466a29.392,29.392,0,0,0,3.564-.334c.256-.078.445-.478.136-.641" transform="translate(101.191 3.873)" fill="#f5f5f5"/>
        <path id="패스_8974" data-name="패스 8974" d="M8.354.058c-1.391-.272-3.04.463-4.3.984A11.926,11.926,0,0,0,.064,3.677c-.195.2.094.543.33.426q2.012-1,4.08-1.9C5.756,1.639,7.256,1.388,8.468.714A.347.347,0,0,0,8.354.058" transform="translate(95.934 2.297)" fill="#f5f5f5"/>
        <path id="패스_8975" data-name="패스 8975" d="M7.53.005C4.961.426,1.776,1.385.105,3.535c-.294.378.073,1.047.555.735C1.62,3.65,2.5,2.911,3.471,2.308a14.827,14.827,0,0,1,4.15-1.7C8,.516,7.928-.06,7.53.005" transform="translate(90.884 1.375)" fill="#f5f5f5"/>
        <path id="패스_8976" data-name="패스 8976" d="M8.61.01C4.845.937.962,3.6.009,7.56c-.076.308.348.394.516.2C3.066,4.919,5.2,2.23,8.821.679A.355.355,0,0,0,8.61.01" transform="translate(83.877 1.204)" fill="#f5f5f5"/>
        <path id="패스_8977" data-name="패스 8977" d="M5.336.181C3.32,2.388.8,5.225.016,8.178a.543.543,0,0,0,.924.48c.878-1.147,1.448-2.52,2.214-3.748A32.506,32.506,0,0,1,6.148.919.549.549,0,0,0,5.336.181" transform="translate(78.885 3.007)" fill="#f5f5f5"/>
        <path id="패스_8978" data-name="패스 8978" d="M6.014.044a13.851,13.851,0,0,0-6.007,8.9.477.477,0,0,0,.872.353C1.775,7.686,2.507,6,3.5,4.443,4.39,3.061,5.484,1.873,6.472.574c.21-.278-.15-.714-.458-.53" transform="translate(73.936 5.574)" fill="#f5f5f5"/>
        <path id="패스_8979" data-name="패스 8979" d="M4.249.035a8.942,8.942,0,0,0-4,9.662.458.458,0,0,0,.9-.1A14.533,14.533,0,0,1,4.567.37c.18-.214-.1-.463-.318-.334" transform="translate(69.133 9.281)" fill="#f5f5f5"/>
        <path id="패스_8980" data-name="패스 8980" d="M1.931,8.841a40.321,40.321,0,0,1-.625-4.117A12.505,12.505,0,0,1,2.1.377C2.195.1,1.82-.15,1.635.11c-1.8,2.557-2.379,6.453-.363,9.061.248.32.707.018.66-.33" transform="translate(66.139 14.073)" fill="#f5f5f5"/>
        <path id="패스_8981" data-name="패스 8981" d="M6.318.07A39.2,39.2,0,0,0,.064,5.861c-.218.261.168.617.425.408A72.722,72.722,0,0,0,6.689.537C6.95.269,6.63-.172,6.318.07" transform="translate(102.409 19.579)" fill="#f5f5f5"/>
        <path id="패스_8982" data-name="패스 8982" d="M6.041.111c-1.859,1.677-4.06,2.9-5.92,4.544a.355.355,0,0,0,.379.59A22.6,22.6,0,0,0,6.611.726a.419.419,0,0,0-.57-.614" transform="translate(96.839 22.186)" fill="#f5f5f5"/>
        <path id="패스_8983" data-name="패스 8983" d="M4.414.164Q3.378,1.092,2.26,1.923A12.6,12.6,0,0,0,.115,3.585.421.421,0,0,0,.493,4.3c1.823-.41,3.485-2.136,4.825-3.36.569-.516-.344-1.274-.9-.773" transform="translate(92.829 23.938)" fill="#f5f5f5"/>
        <path id="패스_8984" data-name="패스 8984" d="M2.644.124A21.753,21.753,0,0,0,.118,2.261c-.326.365.083,1.016.538.725A22.985,22.985,0,0,0,3.367.82c.491-.432-.232-1.1-.724-.7" transform="translate(89.56 24.344)" fill="#f5f5f5"/>
        <path id="패스_8985" data-name="패스 8985" d="M3.558,5.822c-.51-.893-1.185-1.712-1.751-2.573A7.734,7.734,0,0,1,.964,1.424,4.251,4.251,0,0,0,.48.082.2.2,0,0,0,.142.11c-.4.9.136,2.244.431,3.118A5.092,5.092,0,0,0,3.09,6.37c.309.139.628-.271.468-.548" transform="translate(60.513 26.075)" fill="#f5f5f5"/>
        <path id="패스_8986" data-name="패스 8986" d="M3.1,3.544A22.38,22.38,0,0,1,.784.212C.587-.2-.128.04.02.486A6.35,6.35,0,0,0,2.6,4.132a.392.392,0,0,0,.5-.588" transform="translate(58.346 28.709)" fill="#f5f5f5"/>
        <path id="패스_8987" data-name="패스 8987" d="M3.413,5.149A8.341,8.341,0,0,1,.629.21.243.243,0,0,0,.149.2,4.994,4.994,0,0,0,2.894,5.772c.38.2.895-.31.519-.624" transform="translate(52.069 32.71)" fill="#f5f5f5"/>
        <path id="패스_8988" data-name="패스 8988" d="M4.774,6.483A21.829,21.829,0,0,1,1.8,3.748,7.522,7.522,0,0,1,.548.181.207.207,0,0,0,.14.165c-.669,2.828,1.115,6.544,4.2,7.041.387.062.789-.391.437-.723" transform="translate(50.548 35.754)" fill="#f5f5f5"/>
        <path id="패스_8989" data-name="패스 8989" d="M5.967,5.7C5.1,4.969,4.01,4.515,3.111,3.788A9.308,9.308,0,0,1,.593.176C.458-.138-.071,0,.008.343.6,2.955,2.528,6.434,5.643,6.421c.335,0,.629-.463.325-.719" transform="translate(49.29 39.501)" fill="#f5f5f5"/>
        <path id="패스_8990" data-name="패스 8990" d="M6.055,5.268c-.615-.943-2.123-1.107-3.05-1.735A8.242,8.242,0,0,1,.643.182a.318.318,0,0,0-.6.1,5,5,0,0,0,1.671,4.2c.945.912,3.015,2.211,4.258,1.268a.393.393,0,0,0,.088-.477" transform="translate(49.519 43.673)" fill="#f5f5f5"/>
        <path id="패스_8991" data-name="패스 8991" d="M6.549,3.616A14.794,14.794,0,0,0,3.73,2.248,23.509,23.509,0,0,1,.485.052C.266-.112-.121.142.037.407,1.185,2.348,4,4.73,6.422,4.4c.42-.059.383-.579.126-.783" transform="translate(49.107 48.933)" fill="#f5f5f5"/>
        <path id="패스_8992" data-name="패스 8992" d="M7.408,2.091a26.062,26.062,0,0,0-3.7-.825A16.343,16.343,0,0,1,.656.046c-.394-.2-.9.305-.525.64C1.844,2.228,5.075,4.081,7.393,2.87a.451.451,0,0,0,.015-.778" transform="translate(50.2 53.507)" fill="#f5f5f5"/>
        <path id="패스_8993" data-name="패스 8993" d="M4.386,1.139A4.565,4.565,0,0,0,2.806.907,4.172,4.172,0,0,1,.962.129.586.586,0,0,0,.2,1.015c.94.915,3.356,2.311,4.391.806a.5.5,0,0,0-.2-.681" transform="translate(53.842 57.583)" fill="#f5f5f5"/>
        <path id="패스_8994" data-name="패스 8994" d="M1.079,2.285C1.007,1.625.893.966.788.309.7-.205-.057-.028,0,.476c.073.634.147,1.27.2,1.906A3.768,3.768,0,0,0,.5,4.021a.277.277,0,0,0,.442,0,2.807,2.807,0,0,0,.133-1.734" transform="translate(144.14 92.992)" fill="#f5f5f5"/>
        <path id="패스_8995" data-name="패스 8995" d="M1.825,1.624A2.455,2.455,0,0,0,.441.011.331.331,0,0,0,.006.37C.119.955.442,1.513.613,2.093A12.1,12.1,0,0,1,.8,4.019a.536.536,0,0,0,1,.226,3.451,3.451,0,0,0,.027-2.622" transform="translate(145.379 92.344)" fill="#f5f5f5"/>
        <path id="패스_8996" data-name="패스 8996" d="M1.74,2.2A4.792,4.792,0,0,0,.663.123.384.384,0,0,0,0,.449c.109.782.357,1.531.455,2.317.078.6.133,1.349.674,1.725a.326.326,0,0,0,.395-.016c.656-.549.411-1.56.212-2.276" transform="translate(147.837 92.012)" fill="#f5f5f5"/>
        <path id="패스_8997" data-name="패스 8997" d="M2.366,3.893A4.087,4.087,0,0,0,1.778,1.75C1.47,1.145,1.116.3.461.023A.347.347,0,0,0,0,.32a5.936,5.936,0,0,0,.561,1.9A10.12,10.12,0,0,0,1.09,4.05a.67.67,0,0,0,1.277-.156" transform="translate(150.103 90.928)" fill="#f5f5f5"/>
        <path id="패스_8998" data-name="패스 8998" d="M1.311,2.293A7.151,7.151,0,0,0,.554.164C.43-.049,0-.085,0,.24A16.034,16.034,0,0,0,.215,2.5c.091.69.043,1.52.6,2.013a.335.335,0,0,0,.467-.084c.444-.609.174-1.458.03-2.135" transform="translate(152.894 91.171)" fill="#f5f5f5"/>
        <path id="패스_8999" data-name="패스 8999" d="M2.323,1.588A2.232,2.232,0,0,0,1.941.9,2.338,2.338,0,0,0,.394,0,.383.383,0,0,0,.086.636a9.851,9.851,0,0,1,.938,1.178c.222.385.31.843.736,1.061.12.062.226-.012.329-.057.4-.179.345-.909.234-1.23" transform="translate(160.282 90.965)" fill="#f5f5f5"/>
        <path id="패스_9000" data-name="패스 9000" d="M2.6,2.611A20.43,20.43,0,0,0,1,.224C.59-.31-.292.206.1.78A21.892,21.892,0,0,1,1.518,3.168c.264.52.57,1.543,1.287,1.509.887-.039-.037-1.769-.2-2.066" transform="translate(162.008 88.508)" fill="#f5f5f5"/>
        <path id="패스_9001" data-name="패스 9001" d="M2.538,3.956A8.2,8.2,0,0,0,.862.217C.543-.268-.228.14.066.659A17.318,17.318,0,0,1,.988,2.5c.237.561.393,1.14.681,1.678a.466.466,0,0,0,.868-.224" transform="translate(164.768 88.354)" fill="#f5f5f5"/>
        <path id="패스_9002" data-name="패스 9002" d="M2.262,2.219A5.731,5.731,0,0,0,.693.113.4.4,0,0,0,.1.651,6.408,6.408,0,0,1,1.185,2.569a20.6,20.6,0,0,0,.549,2c.2.426.81.25.922-.139a3.716,3.716,0,0,0-.393-2.215" transform="translate(167.342 88.134)" fill="#f5f5f5"/>
        <path id="패스_9003" data-name="패스 9003" d="M.632.138C.388-.211-.127.171.029.53A12.549,12.549,0,0,1,.84,3.374a9.076,9.076,0,0,0,.416,2.394.354.354,0,0,0,.612.049C2.8,4.107,1.629,1.564.632.138" transform="translate(170.396 88.036)" fill="#f5f5f5"/>
        <path id="패스_9004" data-name="패스 9004" d="M.757.205C.563-.109,0-.067,0,.364c.006.775.086,1.54.128,2.313a4.762,4.762,0,0,0,.35,2.253.34.34,0,0,0,.578.052c.94-1.2.427-3.605-.3-4.777" transform="translate(178.549 89.099)" fill="#f5f5f5"/>
        <path id="패스_9005" data-name="패스 9005" d="M.83.289C.743-.106.073-.1.094.336.134,1.175.13,2.014.1,2.852a9.089,9.089,0,0,0-.043,2.2.347.347,0,0,0,.623.136c.916-1.36.477-3.409.145-4.9" transform="translate(181.49 91.247)" fill="#f5f5f5"/>
        <path id="패스_9006" data-name="패스 9006" d="M1.49,3.091A9.589,9.589,0,0,0,1.62.537a.6.6,0,0,0-1.2.1A9.034,9.034,0,0,1,.22,2.9,2.841,2.841,0,0,0,.113,4.657a.381.381,0,0,0,.51.174c.612-.335.741-1.1.867-1.741" transform="translate(182.939 93.925)" fill="#f5f5f5"/>
        <path id="패스_9007" data-name="패스 9007" d="M1.345.261A.327.327,0,0,0,.7.365C.788,1.783.207,3,0,4.363a.4.4,0,0,0,.667.315A4.7,4.7,0,0,0,1.345.261" transform="translate(184.548 96.599)" fill="#f5f5f5"/>
        <path id="패스_9008" data-name="패스 9008" d="M1.278.48a.372.372,0,0,0-.7-.237A6.306,6.306,0,0,0,0,2.4a.254.254,0,0,0,.448.128A6.21,6.21,0,0,0,1.278.48" transform="translate(186.145 100.957)" fill="#f5f5f5"/>
        <path id="패스_9009" data-name="패스 9009" d="M2.46.393A.382.382,0,0,0,1.7.346C1.443,2.19.563,3.746.021,5.49a.507.507,0,0,0,.851.468A8.142,8.142,0,0,0,2.46.393" transform="translate(137.472 105.108)" fill="#f5f5f5"/>
        <path id="패스_9010" data-name="패스 9010" d="M1.886,4.084A7.807,7.807,0,0,0,1.92.347c-.117-.553-.9-.4-.935.12A13.745,13.745,0,0,1,.468,3.274C.262,4.029-.258,4.852.155,5.6a.469.469,0,0,0,.521.224c.794-.179,1.014-1.037,1.21-1.739" transform="translate(140.653 105.683)" fill="#f5f5f5"/>
        <path id="패스_9011" data-name="패스 9011" d="M2.168,3.257c.255-.882.549-2.2.007-3.042a.413.413,0,0,0-.754.066c-.345.907-.553,1.873-.871,2.8C.3,3.819-.3,4.759.184,5.525a.38.38,0,0,0,.406.2C1.656,5.5,1.906,4.154,2.168,3.257" transform="translate(143.65 106.312)" fill="#f5f5f5"/>
        <path id="패스_9012" data-name="패스 9012" d="M1.3.124A.366.366,0,0,0,.679.246a16.068,16.068,0,0,0-.337,1.64A6.134,6.134,0,0,0,.018,3.953a.4.4,0,0,0,.559.272A3.12,3.12,0,0,0,1.3.124" transform="translate(153.077 108.876)" fill="#f5f5f5"/>
        <path id="패스_9013" data-name="패스 9013" d="M1.5,2.594A4.344,4.344,0,0,0,1,.178c-.135-.254-.6-.249-.6.1A17.17,17.17,0,0,1,.244,2.4a5.544,5.544,0,0,0-.2,1.894A.518.518,0,0,0,.9,4.507a2.823,2.823,0,0,0,.6-1.913" transform="translate(155.625 108.379)" fill="#f5f5f5"/>
        <path id="패스_9014" data-name="패스 9014" d="M1.433.361A.512.512,0,0,0,.449.646a4.594,4.594,0,0,1-.09,1.818A4.315,4.315,0,0,0,.023,4.2a.486.486,0,0,0,.707.295C2,3.776,1.807,1.521,1.433.361" transform="translate(158.344 108.243)" fill="#f5f5f5"/>
        <path id="패스_9015" data-name="패스 9015" d="M1.454.49A.531.531,0,0,0,.394.53,12.046,12.046,0,0,1,.228,2.795c-.114.662-.454,1.348.009,1.934a.382.382,0,0,0,.37.124c1.431-.42,1-3.256.848-4.363" transform="translate(161.484 108.351)" fill="#f5f5f5"/>
        <path id="패스_9016" data-name="패스 9016" d="M1.612.494A.53.53,0,0,0,.552.531,12.933,12.933,0,0,1,.305,2.925a4.794,4.794,0,0,0-.273,1.9.384.384,0,0,0,.543.266c1.4-.812,1.142-3.233,1.036-4.6" transform="translate(164.394 108.075)" fill="#f5f5f5"/>
        <path id="패스_9017" data-name="패스 9017" d="M.536.049A.329.329,0,0,0,.029.367a13.044,13.044,0,0,1,.2,2.253,20.437,20.437,0,0,0-.19,2.9.5.5,0,0,0,.828.215C2.037,4.444,2.218,1.046.536.049" transform="translate(173.098 110.014)" fill="#f5f5f5"/>
        <path id="패스_9018" data-name="패스 9018" d="M1.5,3.684A12.845,12.845,0,0,0,1.395.321C1.33-.185.626-.041.566.395.446,1.316.342,2.235.238,3.157A5.287,5.287,0,0,0,.084,5.346a.407.407,0,0,0,.66.212A2.621,2.621,0,0,0,1.5,3.684" transform="translate(175.247 112.155)" fill="#f5f5f5"/>
        <path id="패스_9019" data-name="패스 9019" d="M1.559,2.833c.062-.843.1-2.258-.668-2.8A.153.153,0,0,0,.658.079,2.605,2.605,0,0,0,.511,1.244a8.987,8.987,0,0,1-.2,1.688C.189,3.645-.23,4.487.167,5.175a.314.314,0,0,0,.4.159c.892-.425.925-1.633.988-2.5" transform="translate(177.333 113.985)" fill="#f5f5f5"/>
        <path id="패스_9020" data-name="패스 9020" d="M1.423.353C1.32-.2.415-.064.453.488a7.587,7.587,0,0,1-.1,1.957C.227,3.089-.193,3.741.1,4.38a.362.362,0,0,0,.4.2c1.477-.4,1.118-3.122.915-4.229" transform="translate(179.572 117.054)" fill="#f5f5f5"/>
        <path id="패스_9021" data-name="패스 9021" d="M.19.484a2.013,2.013,0,0,0-.14,1.2c.074.226.36.446.6.28a2.107,2.107,0,0,0,.7-1.12A.611.611,0,1,0,.19.484" transform="translate(181.111 121.136)" fill="#f5f5f5"/>
        <path id="패스_9022" data-name="패스 9022" d="M2.189.358c-.182-.431-.882-.53-.988.025A7.975,7.975,0,0,1,.748,2.257,5.307,5.307,0,0,0,0,3.928.358.358,0,0,0,.415,4.3C1.771,4,2.7,1.571,2.189.358" transform="translate(127.467 113.213)" fill="#f5f5f5"/>
        <path id="패스_9023" data-name="패스 9023" d="M1.987.579c.185-.6-.728-.818-.936-.24C.876.819.7,1.3.5,1.771c-.191.447-.3.9-.472,1.355-.162.425.461.69.7.329a6.122,6.122,0,0,0,.746-1.323c.186-.514.352-1.032.512-1.553" transform="translate(129.595 115.209)" fill="#f5f5f5"/>
        <path id="패스_9024" data-name="패스 9024" d="M2.276.371A.355.355,0,0,0,1.589.228c-.3.789-.634,1.563-.918,2.355-.278.772-.814,1.512-.636,2.35a.381.381,0,0,0,.448.3C2.17,4.694,2.182,1.8,2.276.371" transform="translate(131.196 116.554)" fill="#f5f5f5"/>
        <path id="패스_9025" data-name="패스 9025" d="M2.421.54a.606.606,0,0,0-1.2-.054A8.688,8.688,0,0,1,.8,2.178C.577,2.814.188,3.352.018,4a.636.636,0,0,0,.991.612C2.182,3.712,2.431,1.922,2.421.54" transform="translate(134.251 118.042)" fill="#f5f5f5"/>
        <path id="패스_9026" data-name="패스 9026" d="M2.743.293c-.032-.379-.62-.387-.718-.048a7.737,7.737,0,0,1-.943,2.092A8.9,8.9,0,0,0,.047,3.788.6.6,0,0,0,.782,4.6C2.4,4.037,2.861,1.779,2.743.293" transform="translate(136.034 119.61)" fill="#f5f5f5"/>
        <path id="패스_9027" data-name="패스 9027" d="M2.883.184A22.8,22.8,0,0,1,1.272,2.215C.823,2.725.015,3.146,0,3.892a.4.4,0,0,0,.272.394c.863.234,1.518-.675,2.021-1.26A6.983,6.983,0,0,0,3.641.524a.421.421,0,0,0-.758-.34" transform="translate(140.629 123.26)" fill="#f5f5f5"/>
        <path id="패스_9028" data-name="패스 9028" d="M1.929.4a9.6,9.6,0,0,1-1.39,2.38C.264,3.142-.344,4.012.255,4.4,1.544,5.214,2.9,1.7,3.148.915,3.4.117,2.245-.4,1.929.4" transform="translate(143.224 124.57)" fill="#f5f5f5"/>
        <path id="패스_9029" data-name="패스 9029" d="M2.815.466a.476.476,0,0,0-.932-.12A7.233,7.233,0,0,1,.767,2.721C.407,3.246-.494,3.965.351,4.48c.64.39,1.451-.72,1.759-1.122A4.478,4.478,0,0,0,2.815.466" transform="translate(146.321 125.549)" fill="#f5f5f5"/>
        <path id="패스_9030" data-name="패스 9030" d="M3.208.5A.533.533,0,0,0,2.159.4a12.2,12.2,0,0,1-.826,2.144C.959,3.224.283,3.729.02,4.465a.384.384,0,0,0,.34.5c2,.156,2.952-2.928,2.847-4.466" transform="translate(148.659 126.954)" fill="#f5f5f5"/>
        <path id="패스_9031" data-name="패스 9031" d="M.949.12A.421.421,0,0,0,.225.389c.007.657.129,1.3.073,1.962A13.771,13.771,0,0,0,0,4.248c.017.313.387.629.694.409A3.4,3.4,0,0,0,.949.12" transform="translate(155.597 129.639)" fill="#f5f5f5"/>
        <path id="패스_9032" data-name="패스 9032" d="M2.175.46a.474.474,0,0,0-.948,0A22.494,22.494,0,0,1,.019,5.132a.467.467,0,0,0,.775.45C2.061,4.226,2.255,2.234,2.175.46" transform="translate(157.435 130.928)" fill="#f5f5f5"/>
        <path id="패스_9033" data-name="패스 9033" d="M1.768,3.286A19.826,19.826,0,0,0,2.44.673.586.586,0,0,0,1.289.457,19.925,19.925,0,0,1,.582,2.776a4.14,4.14,0,0,0-.549,2.21.384.384,0,0,0,.542.269A3.13,3.13,0,0,0,1.768,3.286" transform="translate(158.325 134.336)" fill="#f5f5f5"/>
        <path id="패스_9034" data-name="패스 9034" d="M2.322.141A.607.607,0,0,0,1.47.212a17.459,17.459,0,0,1-1.347,1.8.439.439,0,0,0,.508.7A3.93,3.93,0,0,0,2.394.992.617.617,0,0,0,2.322.141" transform="translate(158.919 138.984)" fill="#f5f5f5"/>
        <path id="패스_9035" data-name="패스 9035" d="M3.749.018A2.942,2.942,0,0,0,2.313.354C1.6.6.91.933.2,1.21c-.39.153-.167.724.216.672A7.6,7.6,0,0,0,2.963.994c.067-.035,1.29-.881.786-.976" transform="translate(114.667 118.55)" fill="#f5f5f5"/>
        <path id="패스_9036" data-name="패스 9036" d="M4.018.038c-.681.314-1.368.63-2.065.9-.561.218-1.582.4-1.9.956a.309.309,0,0,0,.069.426C.759,2.77,1.7,2.3,2.33,2.051A9.191,9.191,0,0,0,4.5.715c.39-.3-.071-.867-.477-.677" transform="translate(115.24 120.091)" fill="#f5f5f5"/>
        <path id="패스_9037" data-name="패스 9037" d="M4.427.138A10.241,10.241,0,0,1,2.137,1.769c-.66.352-1.8.637-2.117,1.374a.289.289,0,0,0,.1.339c.778.451,1.778-.206,2.48-.578A9.083,9.083,0,0,0,5.082.8C5.467.35,4.866-.282,4.427.138" transform="translate(116.311 121.317)" fill="#f5f5f5"/>
        <path id="패스_9038" data-name="패스 9038" d="M4.04.088a17.333,17.333,0,0,1-2.606,1.55c-.4.194-1.717.569-1.379,1.267.386.8,1.771-.005,2.266-.257A8.633,8.633,0,0,0,4.656.868c.382-.4-.145-1.119-.616-.779" transform="translate(117.155 124)" fill="#f5f5f5"/>
        <path id="패스_9039" data-name="패스 9039" d="M3.132.06c-.439.3-.913.546-1.379.806a17.1,17.1,0,0,0-1.624.771.373.373,0,0,0,.128.631c1.316.413,2.636-.8,3.332-1.782.217-.3-.173-.623-.457-.426" transform="translate(118.784 126.67)" fill="#f5f5f5"/>
        <path id="패스_9040" data-name="패스 9040" d="M3,.275a.33.33,0,0,0-.529-.2A10.33,10.33,0,0,0,1.48,1.493a9.675,9.675,0,0,1-1.345,1.3.441.441,0,0,0,.4.743C1.779,3.2,3.188,1.644,3,.275" transform="translate(122.055 131.616)" fill="#f5f5f5"/>
        <path id="패스_9041" data-name="패스 9041" d="M4.252.594A.478.478,0,0,0,3.378.242,21.055,21.055,0,0,1,1.866,2.664C1.339,3.352.606,3.837.082,4.529c-.268.355.181.766.534.693C2.6,4.809,3.962,2.463,4.252.594" transform="translate(123.667 132.197)" fill="#f5f5f5"/>
        <path id="패스_9042" data-name="패스 9042" d="M3.234.3A7.982,7.982,0,0,1,1.969,2.468a26.739,26.739,0,0,0-1.9,1.97.487.487,0,0,0,.549.7C2.449,4.68,3.726,2.3,4.283.663c.2-.6-.819-.948-1.048-.361" transform="translate(125.618 134.243)" fill="#f5f5f5"/>
        <path id="패스_9043" data-name="패스 9043" d="M4.048.138a17.811,17.811,0,0,1-2.122,2.2A15.641,15.641,0,0,0,.118,3.91a.45.45,0,0,0,.416.755C2.479,4.216,3.95,2.173,4.673.451c.164-.391-.388-.609-.625-.313" transform="translate(125.621 137.639)" fill="#f5f5f5"/>
        <path id="패스_9044" data-name="패스 9044" d="M2.2.023A.23.23,0,0,0,1.9.141c-.3.8-.09,1.666-.405,2.487A17.151,17.151,0,0,1,.046,5.033a.271.271,0,0,0,.316.411,3.749,3.749,0,0,0,2.446-2.6C3.09,1.937,3.154.554,2.2.023" transform="translate(130.245 140.028)" fill="#f5f5f5"/>
        <path id="패스_9045" data-name="패스 9045" d="M4.467.313C4.546-.042,4.036-.1,3.892.171A12.666,12.666,0,0,1,2.2,2.667C1.523,3.441.463,4.076.026,5.015a.31.31,0,0,0,.332.413c1-.073,1.793-1,2.435-1.706A7.455,7.455,0,0,0,4.467.313" transform="translate(131.079 143)" fill="#f5f5f5"/>
        <path id="패스_9046" data-name="패스 9046" d="M2.127.16a5.9,5.9,0,0,1-1.1.968,2.757,2.757,0,0,0-1,.953.239.239,0,0,0,.185.332C1.258,2.536,2.2,1.6,2.832.851,3.237.37,2.554-.314,2.127.16" transform="translate(131.086 148.905)" fill="#f5f5f5"/>
        <path id="패스_9047" data-name="패스 9047" d="M3.116.026C.967.83-.22,3.486.034,5.668c.053.451.7.4.827.025.6-1.841,1.108-3.762,2.719-5,.4-.306-.068-.815-.464-.667" transform="translate(57.909 98.541)" fill="#f5f5f5"/>
        <path id="패스_9048" data-name="패스 9048" d="M4.088.015C1.9.859-.126,3.274.006,5.71c.024.455.681.7.9.236.444-.912.735-1.872,1.231-2.756A15.361,15.361,0,0,1,4.378.4c.174-.19-.071-.473-.29-.389" transform="translate(54.412 99.292)" fill="#f5f5f5"/>
        <path id="패스_9049" data-name="패스 9049" d="M4.448.006C1.772-.178-.652,3.758.159,6.144a.469.469,0,0,0,.854.117c.53-.968.69-2.093,1.189-3.085A13.7,13.7,0,0,1,4.594.381.235.235,0,0,0,4.448.006" transform="translate(51.334 99.467)" fill="#f5f5f5"/>
        <path id="패스_9050" data-name="패스 9050" d="M2.139.119c-1.126.983-2.6,3.285-2,4.8a.326.326,0,0,0,.5.119A5.378,5.378,0,0,0,1.752,2.806,22.527,22.527,0,0,1,2.832.67.449.449,0,0,0,2.139.119" transform="translate(45.203 103.989)" fill="#f5f5f5"/>
        <path id="패스_9051" data-name="패스 9051" d="M3.289.508A.336.336,0,0,0,2.737.127C1.467,1.523-.311,3.852.047,5.86a.4.4,0,0,0,.729.132,10.057,10.057,0,0,0,1.142-2.8A15.683,15.683,0,0,1,3.289.508" transform="translate(42.13 103.83)" fill="#f5f5f5"/>
        <path id="패스_9052" data-name="패스 9052" d="M1.306,3.762A11.5,11.5,0,0,1,2.545.582.381.381,0,0,0,1.905.167C.734,1.754-.5,4.1.208,6.11a.373.373,0,0,0,.686-.045c.214-.752.254-1.539.411-2.3" transform="translate(39.57 105.44)" fill="#f5f5f5"/>
        <path id="패스_9053" data-name="패스 9053" d="M1.009,2.516A6.5,6.5,0,0,1,.978.418C1.037-.04.272-.173.179.281A8.2,8.2,0,0,0,.012,2.423,3.053,3.053,0,0,0,.668,4.5a.385.385,0,0,0,.665-.229,6.057,6.057,0,0,0-.323-1.759" transform="translate(37.706 109.254)" fill="#f5f5f5"/>
        <path id="패스_9054" data-name="패스 9054" d="M2.563.084A5.227,5.227,0,0,0,.824,1.945C.3,2.907-.378,4.495.256,5.536a.361.361,0,0,0,.614.045,5.9,5.9,0,0,0,.762-2.133A8.013,8.013,0,0,1,3.069.655.382.382,0,0,0,2.563.084" transform="translate(33.677 107.387)" fill="#f5f5f5"/>
        <path id="패스_9055" data-name="패스 9055" d="M1.383,3.39c.169-1.006.408-2,.663-2.985.074-.289-.31-.58-.5-.277C.6,1.633-.38,3.937.149,5.734a.4.4,0,0,0,.773.037A11.932,11.932,0,0,0,1.383,3.39" transform="translate(31.312 108.735)" fill="#f5f5f5"/>
        <path id="패스_9056" data-name="패스 9056" d="M.936,1.968A8.723,8.723,0,0,1,.934.43C.989-.137.131-.142.061.407A8.589,8.589,0,0,0,.006,1.79,2.671,2.671,0,0,0,.292,3.255c.151.233.479.1.572-.1A2.187,2.187,0,0,0,.936,1.968" transform="translate(29.35 113.293)" fill="#f5f5f5"/>
        <path id="패스_9057" data-name="패스 9057" d="M2.593.168C1.558,1.22-.364,3.313.06,4.938a.357.357,0,0,0,.577.206,4.909,4.909,0,0,0,1.155-1.9A13.272,13.272,0,0,1,3.369.891.531.531,0,0,0,2.593.168" transform="translate(51.113 87.459)" fill="#f5f5f5"/>
        <path id="패스_9058" data-name="패스 9058" d="M3.63.084C2.094,1.24-.26,3.343.023,5.494a.32.32,0,0,0,.512.2A7.6,7.6,0,0,0,2.349,3.147,13.807,13.807,0,0,1,4.184.82C4.536.456,4.062-.241,3.63.084" transform="translate(47.057 87.551)" fill="#f5f5f5"/>
        <path id="패스_9059" data-name="패스 9059" d="M3.883.023A5.071,5.071,0,0,0,1.364,1.744C.676,2.531-.245,3.806.06,4.894a.526.526,0,0,0,.772.3c.695-.472.928-1.371,1.355-2.073A6.932,6.932,0,0,1,4.287.952a.513.513,0,0,0-.4-.929" transform="translate(43.487 88.246)" fill="#f5f5f5"/>
        <path id="패스_9060" data-name="패스 9060" d="M2.756.1C1.471.991-.393,3.017.073,4.732a.545.545,0,0,0,.913.206A10.445,10.445,0,0,0,2.136,2.761,12.84,12.84,0,0,1,3.456.933c.378-.464-.171-1.2-.7-.834" transform="translate(40.671 87.855)" fill="#f5f5f5"/>
        <path id="패스_9061" data-name="패스 9061" d="M2.573.327A.3.3,0,0,0,2.092.06,5.62,5.62,0,0,0,.061,4.911a.319.319,0,0,0,.571.133,6.793,6.793,0,0,0,.995-2.013,15.56,15.56,0,0,0,.947-2.7" transform="translate(34.306 87.779)" fill="#f5f5f5"/>
        <path id="패스_9062" data-name="패스 9062" d="M3.074.048A6.035,6.035,0,0,0,1.014,2.4c-.53.844-1.476,2.223-.75,3.154a.372.372,0,0,0,.368.122c.763-.2.958-.9,1.247-1.582C2.4,2.875,3.29,1.794,3.734.568c.14-.391-.334-.689-.66-.52" transform="translate(30.501 87.062)" fill="#f5f5f5"/>
        <path id="패스_9063" data-name="패스 9063" d="M2.969.078C1.305,1.152-.369,3.2.072,5.314a.488.488,0,0,0,.89.112,20.9,20.9,0,0,0,.96-2.321A7.944,7.944,0,0,1,3.585.858a.5.5,0,0,0-.616-.78" transform="translate(27.45 86.325)" fill="#f5f5f5"/>
        <path id="패스_9064" data-name="패스 9064" d="M2.189.528c.166-.452-.513-.735-.758-.34A12.62,12.62,0,0,0,.389,2.212,3.013,3.013,0,0,0,.057,4.086a.34.34,0,0,0,.545.2,3.251,3.251,0,0,0,.863-1.571C1.737,2,1.921,1.249,2.189.528" transform="translate(25.372 86.923)" fill="#f5f5f5"/>
        <path id="패스_9065" data-name="패스 9065" d="M3.5.056A7.773,7.773,0,0,0,.948,2.388C.4,3.2-.258,4.3.1,5.285a.394.394,0,0,0,.61.118c.653-.587.832-1.606,1.261-2.367A8.229,8.229,0,0,1,3.989.745C4.365.44,3.907-.19,3.5.056" transform="translate(19.953 85.163)" fill="#f5f5f5"/>
        <path id="패스_9066" data-name="패스 9066" d="M4.3.038C2.341,1-.187,3.27.011,5.69c.027.326.424.614.7.32A22.248,22.248,0,0,0,2.553,3.091,14.562,14.562,0,0,1,4.682.626.355.355,0,0,0,4.3.038" transform="translate(16.297 85.01)" fill="#f5f5f5"/>
        <path id="패스_9067" data-name="패스 9067" d="M2.305.152A13.507,13.507,0,0,0,.834,2.343C.428,3.113-.2,4.124.062,5.014a.359.359,0,0,0,.578.2c.652-.472.8-1.341,1.1-2.052A15.653,15.653,0,0,1,3.07.73c.3-.454-.422-1-.765-.578" transform="translate(13.861 86.43)" fill="#f5f5f5"/>
        <path id="패스_9068" data-name="패스 9068" d="M1.258.233C.975.716.7,1.2.454,1.706S-.154,2.773.072,3.34a.345.345,0,0,0,.457.17c.5-.274.578-.826.8-1.323s.488-1,.757-1.488A.474.474,0,0,0,1.258.233" transform="translate(10.428 89.627)" fill="#f5f5f5"/>
        <path id="패스_9069" data-name="패스 9069" d="M4.241.016a7.344,7.344,0,0,0-2.612,1.6C.9,2.226-.078,3.069,0,4.094a.286.286,0,0,0,.323.247c.814-.192,1.355-1.015,1.894-1.606C2.931,1.959,3.83,1.408,4.556.661,4.788.419,4.629-.1,4.241.016" transform="translate(47.125 76.116)" fill="#f5f5f5"/>
        <path id="패스_9070" data-name="패스 9070" d="M4.065.029A10,10,0,0,0,1.578,1.143C.917,1.55.047,2.237,0,3.064a.488.488,0,0,0,.608.466c.672-.164,1.26-.881,1.816-1.29A7.762,7.762,0,0,1,4.495,1.2c.768-.269.333-1.392-.43-1.169" transform="translate(44.369 75.321)" fill="#f5f5f5"/>
        <path id="패스_9071" data-name="패스 9071" d="M5.146,0A6.828,6.828,0,0,0,1.99.723C1.146,1.151.105,1.768,0,2.8a.461.461,0,0,0,.566.449C1.382,3.111,2,2.334,2.665,1.9a6.592,6.592,0,0,1,2.6-.965C5.811.85,5.669,0,5.146,0" transform="translate(41.276 73.786)" fill="#f5f5f5"/>
        <path id="패스_9072" data-name="패스 9072" d="M4.166,0C2.713-.026.435.77.016,2.362a.461.461,0,0,0,.661.521,8.572,8.572,0,0,0,1.43-1.13A7.073,7.073,0,0,1,4.3.707c.358-.121.215-.7-.138-.707" transform="translate(39.774 72.489)" fill="#f5f5f5"/>
        <path id="패스_9073" data-name="패스 9073" d="M3.741.005A6.416,6.416,0,0,0,1.522.8a4.089,4.089,0,0,0-.943.835A2.483,2.483,0,0,0,.021,2.793c-.143.508.462.74.811.46C1.9,2.4,2.616,1.21,3.9.571c.291-.144.187-.626-.158-.566" transform="translate(33.779 69.874)" fill="#f5f5f5"/>
        <path id="패스_9074" data-name="패스 9074" d="M4.621.011A4.972,4.972,0,0,0,1.95.69,3.4,3.4,0,0,0,.013,2.579a.469.469,0,0,0,.565.572A7.118,7.118,0,0,0,2.465,1.8,10.877,10.877,0,0,1,4.744.685.356.356,0,0,0,4.621.011" transform="translate(31.353 68.523)" fill="#f5f5f5"/>
        <path id="패스_9075" data-name="패스 9075" d="M4.417.007A8.65,8.65,0,0,0,1.559,1.2C.946,1.6-.019,2.226,0,3.052a.407.407,0,0,0,.38.42c.79.025,1.42-.725,2-1.183C3.122,1.7,3.9,1.123,4.7.609c.292-.188.036-.673-.28-.6" transform="translate(29.802 65.75)" fill="#f5f5f5"/>
        <path id="패스_9076" data-name="패스 9076" d="M4.633.007A4.627,4.627,0,0,0,2,.856C1.169,1.34.022,2.289,0,3.32a.412.412,0,0,0,.5.415C1.319,3.469,1.914,2.6,2.564,2.053c.691-.584,1.53-.954,2.2-1.565.159-.144.128-.463-.126-.481" transform="translate(27.678 64.033)" fill="#f5f5f5"/>
        <path id="패스_9077" data-name="패스 9077" d="M4.668,0C2.811.147.178,1.213,0,3.381a.3.3,0,0,0,.48.267,18.684,18.684,0,0,0,1.665-1.5A6.442,6.442,0,0,1,4.738.81C5.17.7,5.147-.035,4.668,0" transform="translate(26.008 62.612)" fill="#f5f5f5"/>
        <path id="패스_9078" data-name="패스 9078" d="M3.665.009A6.647,6.647,0,0,0,.015,3.972c-.1.345.337.686.615.405A24.109,24.109,0,0,0,2.274,2.3,13.487,13.487,0,0,0,3.907.276.2.2,0,0,0,3.665.009" transform="translate(19.908 59.361)" fill="#f5f5f5"/>
        <path id="패스_9079" data-name="패스 9079" d="M4.1.035C2.484.853-.592,3.182.1,5.334c.071.222.345.22.5.118.661-.427.958-1.344,1.335-2.014A8.628,8.628,0,0,1,4.482.623C4.81.389,4.452-.14,4.1.035" transform="translate(16.654 58.468)" fill="#f5f5f5"/>
        <path id="패스_9080" data-name="패스 9080" d="M3.4.1C2.118,1.2.2,2.871,0,4.663a.376.376,0,0,0,.616.305,5.382,5.382,0,0,0,1.232-1.56A18.93,18.93,0,0,1,3.939.695.4.4,0,0,0,3.4.1" transform="translate(13.387 59.366)" fill="#f5f5f5"/>
        <path id="패스_9081" data-name="패스 9081" d="M3.553.175,1.368,2.626A5.209,5.209,0,0,0,.005,4.838.244.244,0,0,0,.331,5.1,5.234,5.234,0,0,0,2.279,3.4L4.311.887C4.728.373,4-.331,3.553.175" transform="translate(9.722 60.51)" fill="#f5f5f5"/>
        <path id="패스_9082" data-name="패스 9082" d="M2.96.155A10.85,10.85,0,0,0,.017,4.032a.273.273,0,0,0,.414.316C1.78,3.573,2.652,1.982,3.718.871,4.184.385,3.436-.314,2.96.155" transform="translate(6.911 61.806)" fill="#f5f5f5"/>
        <path id="패스_9083" data-name="패스 9083" d="M3.212.023C2.015.5.363,1.427.013,2.775c-.093.357.316.745.659.52A7.435,7.435,0,0,0,1.9,2.032,9.644,9.644,0,0,1,3.577.6c.342-.223-.025-.71-.366-.576" transform="translate(51.669 64.346)" fill="#f5f5f5"/>
        <path id="패스_9084" data-name="패스 9084" d="M4.266,0A6.248,6.248,0,0,0,1.586.868C.959,1.253-.005,1.89,0,2.707a.367.367,0,0,0,.428.383c.708-.132,1.225-.852,1.812-1.246A12.964,12.964,0,0,1,4.47.652c.377-.154.167-.69-.2-.65" transform="translate(49.421 63.167)" fill="#f5f5f5"/>
        <path id="패스_9085" data-name="패스 9085" d="M4.183.007C2.8.222.53.658.024,2.183c-.123.372.255.626.578.578A6.522,6.522,0,0,0,2.48,1.814,8.924,8.924,0,0,1,4.4,1.128C5.036.968,4.829-.1,4.183.007" transform="translate(47.407 61.473)" fill="#f5f5f5"/>
        <path id="패스_9086" data-name="패스 9086" d="M4.231.006A5.139,5.139,0,0,0,.241,1.6.752.752,0,0,0,1.2,2.754,29.835,29.835,0,0,1,4.354.678.355.355,0,0,0,4.231.006" transform="translate(45.979 59.352)" fill="#f5f5f5"/>
        <path id="패스_9087" data-name="패스 9087" d="M4.4.314A5.077,5.077,0,0,0,1.96.065C1.2.221.264.48.018,1.3a.484.484,0,0,0,.348.588c.641.149,1.176-.23,1.761-.44A5.862,5.862,0,0,1,4.252,1C4.64,1.016,4.8.429,4.4.314" transform="translate(44.679 57.722)" fill="#f5f5f5"/>
        <path id="패스_9088" data-name="패스 9088" d="M2.433.082A6.217,6.217,0,0,0,.026,2.211a.374.374,0,0,0,.424.484C1.411,2.419,2.121,1.5,2.9.905c.473-.355.056-1.164-.47-.824" transform="translate(39.608 51.731)" fill="#f5f5f5"/>
        <path id="패스_9089" data-name="패스 9089" d="M2.451.109C1.992.465,1.528.817,1.067,1.17A2.61,2.61,0,0,0,.021,2.322a.434.434,0,0,0,.507.538,2.665,2.665,0,0,0,1.26-.846c.445-.408.878-.827,1.317-1.244S2.912-.247,2.451.109" transform="translate(38.387 49.553)" fill="#f5f5f5"/>
        <path id="패스_9090" data-name="패스 9090" d="M3.512.015A8.679,8.679,0,0,0,.251,1.727a.688.688,0,0,0,.837,1.092c.995-.655,1.772-1.584,2.726-2.3.285-.213,0-.6-.3-.505" transform="translate(36.423 48.029)" fill="#f5f5f5"/>
        <path id="패스_9091" data-name="패스 9091" d="M3.142.025A9.581,9.581,0,0,0,.221,1.745c-.566.471.067,1.439.634.963A10.543,10.543,0,0,1,3.508.911C4.014.7,3.655-.156,3.142.025" transform="translate(34.391 46.65)" fill="#f5f5f5"/>
        <path id="패스_9092" data-name="패스 9092" d="M4.48.012a8.621,8.621,0,0,0-4.3,2.137c-.572.623.372,1.356.985.967C2.37,2.355,3.421,1.355,4.655.613c.28-.168.2-.7-.175-.6" transform="translate(32.687 44.253)" fill="#f5f5f5"/>
        <path id="패스_9093" data-name="패스 9093" d="M3.272,0A5.66,5.66,0,0,0,1.188.848C.617,1.191-.09,1.755.009,2.485a.428.428,0,0,0,.314.325c.648.107,1.06-.391,1.519-.771A21.979,21.979,0,0,1,3.6.661C3.937.435,3.61-.05,3.272,0" transform="translate(32.031 42.467)" fill="#f5f5f5"/>
        <path id="패스_9094" data-name="패스 9094" d="M2.975.024A4.95,4.95,0,0,0,1.011,1.291C.521,1.82-.195,2.74.049,3.489a.444.444,0,0,0,.631.286c.545-.341.727-1.009,1.112-1.507A7.826,7.826,0,0,1,3.425.678c.4-.282-.065-.8-.449-.654" transform="translate(26.094 39.106)" fill="#f5f5f5"/>
        <path id="패스_9095" data-name="패스 9095" d="M4.384.019a7.674,7.674,0,0,0-3.1,1.942C.677,2.589-.293,3.67.085,4.6a.267.267,0,0,0,.283.167C1.277,4.6,1.781,3.442,2.345,2.784A13.587,13.587,0,0,1,4.738.58C5.065.347,4.717-.1,4.384.019" transform="translate(22.719 38.492)" fill="#f5f5f5"/>
        <path id="패스_9096" data-name="패스 9096" d="M4.979.04A12.205,12.205,0,0,0,1.686,2.109C.958,2.744-.024,3.681,0,4.722c0,.248.258.5.516.352.764-.442,1.19-1.31,1.78-1.952A13.775,13.775,0,0,1,5.353.77.411.411,0,0,0,4.979.04" transform="translate(18.397 38.85)" fill="#f5f5f5"/>
        <path id="패스_9097" data-name="패스 9097" d="M3.8.074A18.2,18.2,0,0,0,1.3,2.153,3.58,3.58,0,0,0,0,4.236a.348.348,0,0,0,.487.342c.771-.268,1.249-1.039,1.763-1.635A22.621,22.621,0,0,1,4.357.812C4.746.465,4.235-.227,3.8.074" transform="translate(15.514 39.661)" fill="#f5f5f5"/>
        <path id="패스_9098" data-name="패스 9098" d="M1.7.119A8.018,8.018,0,0,0,.015,2.542c-.08.239.169.542.423.4C1.29,2.471,1.76,1.387,2.345.645,2.634.276,2.012-.234,1.7.119" transform="translate(12.588 42.885)" fill="#f5f5f5"/>
        <path id="패스_9099" data-name="패스 9099" d="M13.716,5.814C10.248,2.754,4.814.743.312,0-.025-.052-.115.427.171.558,2.038,1.418,3.948,2.2,5.833,3.02c2.514,1.1,4.855,2.672,7.419,3.625.466.172.818-.519.464-.831" transform="translate(90.227 57.314)" fill="#f5f5f5"/>
        <path id="패스_9100" data-name="패스 9100" d="M8.593,5.219C8.018,3.907,5.908,3.034,4.737,2.348S1.6-.006.21.065A.019.019,0,0,0,.216.027C.1-.01-.035-.034.008.127.228.959.791,1.3,1.487,1.793c1.1.772,2.27,1.472,3.424,2.152A10.964,10.964,0,0,0,8.258,5.692a.339.339,0,0,0,.335-.473" transform="translate(86.111 57.83)" fill="#f5f5f5"/>
        <path id="패스_9101" data-name="패스 9101" d="M13.6,6.023C10.155,3.215,4.829.249.367,0,.051-.017-.153.426.147.609a62.571,62.571,0,0,0,6.665,2.95c2.187,1,4.234,2.278,6.444,3.222.478.205.672-.488.341-.758" transform="translate(76.003 57.357)" fill="#f5f5f5"/>
        <path id="패스_9102" data-name="패스 9102" d="M13.951,3.365C9.9,1.41,5.031-.335.474.055-.044.1-.214.9.356,1.008c4.566.881,8.9,1.217,13.268,3.039.4.165.717-.495.326-.682" transform="translate(67.773 59.091)" fill="#f5f5f5"/>
        <path id="패스_9103" data-name="패스 9103" d="M14.416,39.226c-.4-1.611-1.226-3.048-1.548-4.692a9.264,9.264,0,0,1-.038-3,.367.367,0,0,0,.231-.386c-.024-.15-.063-.294-.091-.441a16.483,16.483,0,0,1,.495-1.887.485.485,0,0,0-.89-.356c-.027.053-.05.11-.075.161-.365-1.42-.794-2.824-1.23-4.228.174-.3.354-.594.544-.879.435-.657-.484-1.451-.961-.793-.021.029-.044.064-.066.093-.238-.8-.466-1.6-.672-2.408q.617-.69,1.271-1.342a.4.4,0,0,0-.537-.594c-.327.278-.658.573-.984.878-.172-.758-.328-1.524-.437-2.3-.016-.117-.027-.232-.041-.348q.811-.679,1.665-1.3c.6-.437-.015-1.38-.635-.964-.374.252-.768.531-1.17.828a23.7,23.7,0,0,1-.026-2.892,20.784,20.784,0,0,1,2.857-1.515c.473-.2.153-1.013-.332-.84a23.479,23.479,0,0,0-2.411,1.007q.113-1.007.318-1.994c1.737-.625,3.533-1.079,5.3-1.641.395-.126.419-.771-.057-.772a19.254,19.254,0,0,0-4.806.686c.163-.539.354-1.067.563-1.592,2.448-.521,4.954-.594,7.411-1.028a.354.354,0,0,0-.034-.7,25.268,25.268,0,0,0-6.616.05,18.925,18.925,0,0,1,1.069-1.827,35.208,35.208,0,0,1,7.8.36c.518.085.778-.694.241-.8A43.839,43.839,0,0,0,13.45.885c.08-.1.156-.206.238-.308.271-.325-.255-.772-.554-.486-.265.255-.519.514-.759.776A20.214,20.214,0,0,0,3.867,2.505a.337.337,0,0,0,.194.637c2.456-.329,4.8-.65,7.128-.839A15.974,15.974,0,0,0,9.941,4.267c-3.575.658-7.079,2-9.3,4.088-.289.27-.035.839.378.713C2.3,8.683,3.509,8.2,4.717,7.72c-.169.658-.306,1.336-.414,2.027A11.028,11.028,0,0,0,.029,14.119c-.133.278.229.575.484.437a31.27,31.27,0,0,0,3.538-2.4C4,12.994,4,13.836,4.034,14.684a15.578,15.578,0,0,0-2.148,2.6,19.282,19.282,0,0,1-.508-2.324c-.069-.462-.728-.319-.7.124a26.267,26.267,0,0,0,.481,3.433c-.08.154-.172.3-.244.459-.167.353.187.781.509.673a16.664,16.664,0,0,0,1.2,3.181A7.456,7.456,0,0,0,2,26.035a.357.357,0,0,0,.646.224,15.146,15.146,0,0,0,.976-1.733,11.667,11.667,0,0,0,.877,1.1.456.456,0,0,0,.706-.01,9.8,9.8,0,0,0-.857,5.191.346.346,0,0,0,.663.059c.666-1.694.993-3.482,1.682-5.172.072-.177.156-.349.237-.523A16.873,16.873,0,0,0,8.4,27.37a9.1,9.1,0,0,0,.085,7.205.422.422,0,0,0,.79-.178c.168-1.564-.046-3.131.126-4.71a11.782,11.782,0,0,1,.679-2.8,22.6,22.6,0,0,0,1.7,3.534c-1.029,3.216-1.013,7.173,1.707,9.423a.581.581,0,0,0,.927-.616M7.771,13.371c-.008.42-.01.843,0,1.271.011.557.039,1.136.079,1.724A26.356,26.356,0,0,0,5.871,18.19a22.525,22.525,0,0,1-.581-2.67,26.792,26.792,0,0,1,2.481-2.149M5.5,7.412C6.675,6.945,7.852,6.486,9.09,6.12q-.314.809-.55,1.652A21.541,21.541,0,0,0,5.208,9.217c.073-.6.174-1.2.293-1.8m-.456,4.029a18.847,18.847,0,0,1,2.253-1.4q.405-.208.818-.389c-.123.706-.21,1.43-.267,2.165A20.433,20.433,0,0,0,5.1,13.734a22.555,22.555,0,0,1-.051-2.293M2.328,18.687c.62-.716,1.24-1.416,1.873-2.081a25.612,25.612,0,0,0,.513,2.864,15.68,15.68,0,0,0-1.3,1.821,27.694,27.694,0,0,1-1.083-2.6m3.046,6.55a.521.521,0,0,0-.056-.294c-.348-.631-.682-1.25-1.007-1.87a19.733,19.733,0,0,1,.928-1.75,21.89,21.89,0,0,0,.948,2.415,14.972,14.972,0,0,0-.812,1.5m1.928-3.1c-.336-.785-.655-1.579-.943-2.385a19.911,19.911,0,0,1,1.631-1.8c.1.937.244,1.9.421,2.862q-.577.634-1.109,1.32m1.641,3.883c-.339-.875-.709-1.738-1.085-2.6.26-.424.531-.841.825-1.244.212.955.464,1.9.753,2.834-.174.329-.338.67-.492,1.011" transform="translate(56.763 61.937)" fill="#f5f5f5"/>
        <path id="패스_9104" data-name="패스 9104" d="M3.471,10.254C3.193,8.789,2.327,7.485,1.933,6.039A12.719,12.719,0,0,1,1.711.7.632.632,0,0,0,.462.509C-.324,3.6-.429,8.9,2.789,10.772a.469.469,0,0,0,.682-.518" transform="translate(73.015 94.277)" fill="#f5f5f5"/>
        <path id="패스_9105" data-name="패스 9105" d="M3.715,6.227c-.4-.821-1.238-1.426-1.69-2.254a5.825,5.825,0,0,1-.6-3.229A.68.68,0,0,0,.077.575,7.727,7.727,0,0,0,.5,4.464,4.283,4.283,0,0,0,3.138,7.056a.555.555,0,0,0,.578-.83" transform="translate(77.915 99.472)" fill="#f5f5f5"/>
        <path id="패스_9106" data-name="패스 9106" d="M4.573,6.087A13.71,13.71,0,0,0,2.755,3.752,5.9,5.9,0,0,1,1.716.83C1.621-.261-.1-.286,0,.811.21,2.958,1.612,6.73,4.315,6.584a.355.355,0,0,0,.257-.5" transform="translate(82.706 103)" fill="#f5f5f5"/>
        <path id="패스_9107" data-name="패스 9107" d="M2.535,2.886a.981.981,0,0,0-.2-.462c-.165-.19-.3-.394-.45-.593A4.532,4.532,0,0,1,1.248.405.645.645,0,0,0,.009.7C.19,1.756.681,3.617,2,3.669a.608.608,0,0,0,.554-.658c.048.386-.008-.056-.015-.126" transform="translate(87.765 106.488)" fill="#f5f5f5"/>
      </g>
    </g>
  </g>
</svg>
