<svg xmlns="http://www.w3.org/2000/svg" xmlns:xlink="http://www.w3.org/1999/xlink" width="319.477" height="114.618" viewBox="0 0 319.477 114.618">
  <defs>
    <linearGradient id="linear-gradient" x1="0.491" y1="-0.931" x2="0.5" y2="1.12" gradientUnits="objectBoundingBox">
      <stop offset="0" stop-color="#eee"/>
      <stop offset="1" stop-color="#f9f9f9"/>
    </linearGradient>
  </defs>
  <g id="그룹_7515" data-name="그룹 7515" transform="translate(-6608.066 3801.162)">
    <path id="패스_9109" data-name="패스 9109" d="M76.443-140.035c-.35-12.032-12.032-18.887-22.8-18.887-15.11,0-24.9,11.542-24.9,26.023s9.793,26.023,24.9,26.023c12.662,0,22.105-7.555,22.8-20.426H63.432c-.49,5.736-3.987,9.234-10.073,9.234-8.394,0-11.612-7.415-11.612-14.83s3.218-14.83,11.612-14.83c5.456,0,9.374,2.658,10.073,7.695Zm6.925,32.109H96.38v-18.188h9.863c6.086,0,6.925,5.177,7.275,10.213.14,1.4.35,6.3,1.469,7.975h12.871c-1.749-1.819-1.959-9.164-2.1-11.262-.42-4.757-1.959-10.7-7.275-11.962v-.14c5.246-2.029,7.835-7.135,7.835-12.522,0-10.073-8.674-14.061-17.488-14.061H83.368ZM96.38-147.45h10.353c3.638,0,6.576,1.679,6.576,5.386,0,3.777-2.1,5.876-6.016,5.876H96.38Zm35.606,14.55c0,14.48,8.884,26.023,24.624,26.023s24.624-11.542,24.624-26.023-8.884-26.023-24.624-26.023S131.986-147.38,131.986-132.9Zm13.011,0c0-7.415,3.218-14.83,11.612-14.83s11.612,7.415,11.612,14.83-3.218,14.83-11.612,14.83S145-125.484,145-132.9Zm106.189-24.973H238.175l-7.065,36.516h-.14l-7.345-36.516H211.383l-7.345,36.516h-.14l-7.065-36.516H183.821l13.5,49.947h13.221l6.855-34.417h.14l6.855,34.417h13.011Zm4.477,49.947h21.476c15.18,0,24.484-8.814,24.484-25.183,0-15.46-9.164-24.764-24.484-24.764H255.663Zm13.011-38.754h6.156c8.884,0,13.781,4.407,13.781,13.5,0,10-3.917,13.851-13.781,14.061h-6.156ZM7.508-45.353H20.519V-64.59H41.086V-74.663H20.519V-84.877H44.3V-95.3H7.508ZM93.411-95.3H80.4v30.08c0,6.436-2.378,9.724-8.744,9.724s-8.744-3.288-8.744-9.724V-95.3H49.9v29.31c0,14.48,6.646,21.686,21.755,21.686s21.756-7.205,21.756-21.686Zm8.534,49.947h12.242V-76.482h.14l17.348,31.129h13.361V-95.3H132.795v30.78h-.14L115.306-95.3H101.945Zm51.975,0H175.4c15.18,0,24.484-8.814,24.484-25.183C199.88-86,190.716-95.3,175.4-95.3H153.92Zm13.011-38.754h6.156c8.884,0,13.781,4.407,13.781,13.5,0,10-3.917,13.851-13.781,14.061h-6.156Zm40.083,38.754h13.011V-95.3H207.015Zm21.9,0h12.242V-76.482h.14l17.348,31.129H272V-95.3H259.76v30.78h-.14L242.272-95.3H228.91ZM326.985-72.7H306v9.654h9.094c-.7,4.547-5.037,7.555-11.472,7.555-8.394,0-11.612-7.415-11.612-14.83s3.218-14.83,11.612-14.83c5.246,0,9.444,2.588,9.863,6.855H326.5c-1.189-12.522-12.242-18.048-22.595-18.048-15.11,0-24.9,11.542-24.9,26.023S288.79-44.3,303.9-44.3c4.617,0,10.493-1.679,13.921-6.506l.77,5.456h8.394Z" transform="translate(6600.558 -3642.24)" fill="url(#linear-gradient)" style="mix-blend-mode: multiply;isolation: isolate"/>
  </g>
</svg>
