<svg xmlns="http://www.w3.org/2000/svg" xmlns:xlink="http://www.w3.org/1999/xlink" width="375" height="127" viewBox="0 0 375 127">
  <defs>
    <clipPath id="clip-path">
      <rect id="사각형_3408" data-name="사각형 3408" width="375" height="127" transform="translate(0 1079)" fill="#fff"/>
    </clipPath>
    <clipPath id="clip-path-2">
      <rect id="사각형_2618" data-name="사각형 2618" width="239.977" height="196.834" fill="#f5f5f5"/>
    </clipPath>
  </defs>
  <g id="m-img-bg-crab" transform="translate(0 -1079)" clip-path="url(#clip-path)">
    <g id="그룹_5824" data-name="그룹 5824" transform="matrix(0.951, -0.309, 0.309, 0.951, 36.119, 1121.666)">
      <g id="그룹_5823" data-name="그룹 5823" clip-path="url(#clip-path-2)">
        <path id="패스_5633" data-name="패스 5633" d="M228.178,145c-2.442-3.834-8.805-10.154-13.556-7.217a6.134,6.134,0,0,0-3.282-2.685c-5.992-2.128-14.438-.3-20.667,2.006a6.207,6.207,0,0,0-4.5-4.266,23.474,23.474,0,0,0-4.858-.622,52.747,52.747,0,0,1-5.749-.734,15.432,15.432,0,0,0,.655-1.594c2.872,2.053,7.262,1.711,10.6,1.529,3.325-.185,8.105-.8,10.393-3.49.005-.005,0-.013.008-.019a7.261,7.261,0,0,0,3.059-3.36,88.294,88.294,0,0,0,11.488,1.607c1.994.155,4.864.132,6.777-1.026,4.605,1.632,8.392,2.347,11.664,6.448,2.184,2.742,4.208,4.673,7.764,5.284a1.416,1.416,0,0,0,1.534-1.223c2.028-8.1-2.881-15.24-8.413-20.7-2.589-2.556-7.894-6.215-9.811-2.288a8.38,8.38,0,0,0-4.749-3.3c-5.061-1.114-13.645,1.788-16.736,6.418a6.166,6.166,0,0,0-2.751-2.188c-2.312-.932-5.648.1-7.894.72-2.824.779-5.6,1.347-8.425,1.949.01-1.089-.015-2.162-.11-3.2a33.944,33.944,0,0,0,20.273-6.683c4.711-3.578,10.143-8.561,10.17-14.94.015-3.994-2.922-6.747-7.01-8.407,1.011-1.421.138-4.076-.137-5.6-.3-1.69-.683-3.85-1.8-5.291,7.773-10.281,2.73-25.583-3.722-36.027-6.687-10.819-20.81-23.263-34.65-19.756a.983.983,0,0,0-1.15,1.522c4.913,6.818,9.96,12.477,12.756,20.608a31.3,31.3,0,0,1,1.62,10.3c-4.08-3.511-7.32-6.709-10.249-11.771-2.589-4.474-4.331-10.057-7.88-13.889-.153-.855-1.466-.887-1.854-.066-3.46,7.38-3.677,16.707-1.471,24.455,2.084,7.329,7.527,16.327,14.064,20.407a1.8,1.8,0,0,0,.163.085c.894,2.317,4.273,4.528,5.974,5.459a40.688,40.688,0,0,0,5.5,2.534,8.747,8.747,0,0,0-.295,2.711,7.609,7.609,0,0,0,1.191,4.566,7.64,7.64,0,0,0-1.254.862.487.487,0,0,0-.177.349,4.731,4.731,0,0,0-1.83,3.009,13.185,13.185,0,0,0,.076,4.129c.286,2.7-1.981,5.106-3.486,7.238a47.518,47.518,0,0,0-13.9-12.845,5.723,5.723,0,0,0,.187-4.25,8.042,8.042,0,0,0-5.013-4.554,7.406,7.406,0,0,0-5.629-.065,3.561,3.561,0,0,0-1.914,2.347,176.291,176.291,0,0,0-21.2-7.513c-3.555-1.043-7.373-2.036-11.311-2.847-.023-4.376-3.289-7.368-7.682-7.327-3.181.028-6.717,2.231-6.607,5.469a50.131,50.131,0,0,0-16.595,1.8,1.442,1.442,0,0,0-.083-.633c-1.4-3.91.11-7.781,3.007-10.523,1.59-1.5,2.649-2.666,2.732-4.935a4.767,4.767,0,0,0-.889-2.887c.253-.209.5-.434.741-.636.511-.424,1.036-.874,1.578-1.288,5.022,2.65,14.369,1.4,17.437-2.209a1.124,1.124,0,0,0,.933.036,2.947,2.947,0,0,0,.841-.553c6.7-.573,13.411-3.159,19.332-6.239,8.095-4.211,9.854-13.074,14.281-20.279.31-.5-.41-1.127-.825-.671-7.706,8.512-21.523,11.1-32.621,10.343,1.766-3.948,5.4-6.824,8.891-9.175,6.945-4.683,14.648-5.322,22.248-7.968a.666.666,0,0,0,.922-.888.749.749,0,0,0-.589-.684c-.028-.008-.057-.009-.085-.016C136.91,3.392,127.336.16,118.125,0,109.649-.139,101.771,3.5,94.653,7.755,88.708,11.312,80.69,17.37,78.839,24.489a13.584,13.584,0,0,0,.012,6.253A20.532,20.532,0,0,0,74.067,34.3c-1.219,1.175-2.723,2.6-2.708,4.393a.609.609,0,0,0,.051.188c-2.871-.807-5.356-.543-6.407,2.171-4.625,3.22-5.108,12.259-4.819,17.12.394,6.66,4.412,17.291,10.942,20.181-.487.56-.958,1.144-1.421,1.75-3.478-1.875-4.637-7.394-7.291-10.235a6.933,6.933,0,0,0-5.193-2.346,1.779,1.779,0,0,0-.2-.539c-2.359-4.078-4.645-8.135-7.81-11.663-1.348-1.506-3.853-4.046-6.2-4.2a.4.4,0,0,0-.551-.389A17.873,17.873,0,0,0,39.642,52c-1.9-5.033-5.931-5.578-11.172-4.243-7.228,1.838-14.781,5.329-18.036,12.466a1.335,1.335,0,0,0,.662,1.732c3.489,1.84,7.526.793,11.139-.128C26.252,60.8,29.221,60,33.223,60.75a7.529,7.529,0,0,0,1.323,4.063c1.882,2.891,5.13,4.4,7.711,6.531,1.664,1.368,4.01,4.447,6.395,4.16a8.487,8.487,0,0,0,1.234,5.553c3.307,5.065,9.793,7.962,15.177,10.386a16.344,16.344,0,0,0-.648,3.662c-3.736-2.685-7.493-6.386-12.311-6.34a5.641,5.641,0,0,0-2.189.493A55.852,55.852,0,0,1,44.842,82.7c-1.191-1.847-2.675-3.954-4.651-5.037a8.48,8.48,0,0,0-7.764-.412c.141-4.269-6.192-5.167-9.975-4.161C14.691,75.146,5.639,79.281.309,85.41a1.187,1.187,0,0,0,.3,1.847c4.281,1.921,8.745,1.9,13.355,1.687,4.248-.2,8.539.725,12.761.369,3.222,5.531,13.919,8.989,18.569,10.536a1.537,1.537,0,0,0,.731.072c3.505,5.982,14.808,10.455,19.962,8.451a.881.881,0,0,0,.511-.8c.236.683.474,1.367.728,2.043a43.02,43.02,0,0,1-6.994-.04,40.311,40.311,0,0,0-7.472-.75,5.93,5.93,0,0,0-3.843,1.734c-2.914-2.54-8.184-3.039-11.746-3.179a10.585,10.585,0,0,0-4.664.751c-.389-2.708-3.81-3.21-6.6-2.5a30.625,30.625,0,0,0-11.2,6.046c-1.674,1.4-8.406,7.474-4.941,9.966,1.839,1.322,4.294.411,6.276-.15,1.337-.376,2.685-.74,4.036-1.073,2.361-.586,5.386,1.269,7.746,1.791a1.115,1.115,0,0,0,1.268-.531,7.118,7.118,0,0,0,3.461,2.716c2.506.93,5.9.4,8.526.409,2.518.005,4.85-.219,6.99-1.62a.667.667,0,0,0,.151-.139c2.213,2.532,6.853,2.889,9.921,2.7A77.919,77.919,0,0,0,67.169,125c-.15.047-.307.1-.449.144-2.569.862-5.305,2.633-5.825,5.381-4.136-1.433-8.892.157-11.966,3.184a10.205,10.205,0,0,0-.9,1.042c-4.989-3.254-11.39,6.09-13.014,9.692-.912,2.024-1.769,5.22.194,6.916a4.292,4.292,0,0,0,3.531.643c3.107-.5,6.129-2.214,9.069-3.264a.367.367,0,0,0-.006-.674c-3.388-1.421-6.668,1.359-10.028,1.7-2.385.238-.9-3.16-.417-4.239,1.284-2.885,5.518-9.7,9.533-8.973-1.769,3.354-2.483,7.922.465,10.258a.435.435,0,0,0,.675-.321,24.051,24.051,0,0,0-.236-4.009c-.168-2.3,1.15-4.52,2.516-6.257,2.861-3.64,7.041-4.048,11.28-3.435a.814.814,0,0,0,.241-.013.94.94,0,0,0,.665-.043,1.273,1.273,0,0,0,.82-.973c.578-5.848,8.607-5.2,12.772-6.247h0a50.818,50.818,0,0,0,4.951,5.384c1.053.987,2.168,1.938,3.313,2.869a40.386,40.386,0,0,0-11.815,3.786,30.978,30.978,0,0,1-4.808,2.1c-3.229.976-3.319-1.665-4.141-3.921-.153-.417-.784-.692-1.107-.266a4.36,4.36,0,0,0-1.041,3.233c-2.138,2.2-3.209,5.532-5.772,7.431-1.609,1.193-3.581,1.1-5.438.711-1.045-.215-2.2.042-2.146,1.293a1.264,1.264,0,0,0,.731,1.038,8.949,8.949,0,0,0,9.634-1.446,19.67,19.67,0,0,0,4.715-6.565,6.165,6.165,0,0,0,4.256.73c2.766-.49,5.5-1.894,8.074-2.971,3.429-1.433,7.488-1.8,10.706-3.689,13.56,10.271,32.456,16.66,49.518,15.615-.862,1.9.054,4.339.546,6.272a22.26,22.26,0,0,0,4.278,8.646,8.486,8.486,0,0,0,7.733,3.1c-.587,4.535,1.078,10.2,2.826,13.886.877,1.86,2.471,3.974,4.663,4.277a4.731,4.731,0,0,0,2.55-.4,6.557,6.557,0,0,0,.905,3.2c.982,1.914,2.649,3.677,2.978,5.86a1.366,1.366,0,0,0,2.263.826c3.935.512,6.028-7.725,6.426-10.326.493-3.234-.036-11.213-4.59-11.543a9.96,9.96,0,0,0-.714-3.618c-1.159-2.756-4.244-6.444-7.548-7.367a8.359,8.359,0,0,0-.658-4.6,29.91,29.91,0,0,0-3.989-6.741,17.377,17.377,0,0,0-2.868-3.526c.319-.056.629-.131.937-.213a5.938,5.938,0,0,0,1.41-.544c.895,4.979,5.428,10.118,9.018,13.224,2.082,1.8,6.563,3.4,9.076,1.8,1.642,3.416,6.243,6.842,8.481,8.517,1.525,1.144,6.1,3.49,8.251,2.142.826,2.788,8.2,4.341,9.167,6.048,1.071,1.9,1.569,4.233,3.4,5.593a1.989,1.989,0,0,0,2.759-.344.433.433,0,0,0,.144,0c2.564-.608,2.784-4.39,2.87-6.481a23.425,23.425,0,0,0-2.246-9.911c-1.005-2.308-2.626-4.872-4.92-6.076a5.362,5.362,0,0,0-4.541-.311c-.07-.244-.146-.488-.24-.73-.993-2.63-4.159-3.768-6.58-4.527a65.417,65.417,0,0,0-8.722-2.252c.757-2.391-1.445-4.064-3.328-4.96-2.32-1.1-4.784-1.889-7.14-2.911a11.284,11.284,0,0,1-3.142-1.922,6.239,6.239,0,0,1-1.351-2.132c.577-.326,1.153-.661,1.716-1.013-.33.32-.535.771-.18,1.005a19.672,19.672,0,0,0,2.869,2.039,45.964,45.964,0,0,0,5.855,2.044c2.917.915,7.219,2.744,10.314,1.746a.761.761,0,0,0,.478-.548,5.165,5.165,0,0,0,1.338-.722c4.288,3.086,9.868,4.058,15.212,3.9a.519.519,0,0,0,.255.788,8.364,8.364,0,0,0,6.257-.157.607.607,0,0,0,.292.066,6.157,6.157,0,0,0,2.993-.917c1.748,3.435,8.757,4.052,11.487,6.333,1.365,1.144,6.1,6.7,8.731,5.809a2.41,2.41,0,0,0,.146.209,1.173,1.173,0,0,0,1.826-.286c2.938-4.467-2.893-14.424-5.243-18.107M28.018,80.726a8.1,8.1,0,0,0-2.208,5.761c-2.891.158-5.863-.437-8.742-.511-4.717-.116-9.154.5-13.722-.421,3.841-3.819,9.5-6.034,14.405-8.073a30.13,30.13,0,0,1,8-2.27c3.106-.366,3.577,1.336,4.136,3.624a13.633,13.633,0,0,0-1.869,1.891M44.971,96.55c0,.118.023.24.033.361a41.071,41.071,0,0,1-12.218-4.563c-5.8-3.406-4.608-10.477,1.228-13.033,6.883-3.01,9.268,7.94,14.2,10.969a8.237,8.237,0,0,0-3.247,6.267M20.535,118.375c-1.652.287-3.265.775-4.893,1.172a16.115,16.115,0,0,1-3.386.441c-1.769.047-.149-1.893.322-2.514a29.411,29.411,0,0,1,3.613-3.683,29.459,29.459,0,0,1,7.205-4.365,16.274,16.274,0,0,1,4.725-1.548c1.487-.206,1.879.567,2.179,1.72a8.837,8.837,0,0,0-2.281,4.084,10.543,10.543,0,0,0-.012,5.67c-2.312-.342-5.153-1.383-7.472-.979m191.554-6.269a6.783,6.783,0,0,1,5.747.985c2.57,1.753,1.269,4.709,1.592,7.174a.945.945,0,0,0,1.52.559,5.339,5.339,0,0,0,1.306-6.469c3.568-2.646,8.093,3.924,9.921,6.079,3.3,3.895,5.3,8.358,4.8,13.359-3.47-1.135-5.086-4.627-7.8-7.037a16.641,16.641,0,0,0-8.883-3.682c.2-.583-.337-1.228-.944-.862-3.3,1.977-6.357,1.929-10.1,1.513-2.661-.294-6-1.11-8.607-.082a9.316,9.316,0,0,0-.116-6.566,40.389,40.389,0,0,1,11.561-4.97m-28.917-35.48c3.653,1.041,7.478,1.23,10.487-.775a.614.614,0,0,0-.151-1.119c-4.281-1.26-8.475-1.176-12.718-2.809-2.175-.838-7.993-2.578-8.918-5.4a1.3,1.3,0,0,0-.076-.377,2.458,2.458,0,0,1,.019-.985c.113-.463-.451-1.018-.892-.68a4.56,4.56,0,0,0-.4.34A41.5,41.5,0,0,1,157.8,44.57c-1.688-6.22-.416-12.007.587-18.044a112.013,112.013,0,0,0,6.341,13.012c2.578,4.856,6.569,10.867,12.045,12.779-.026.229-.042.454-.07.68-.532,4.232-2.573,7.174-4.72,10.693-.193.315.108.788.486.6,9.082-4.587,9.3-16.966,6.949-25.459-2.04-7.38-6.924-15.7-13.169-20.717,4.979.587,9.462,1.466,14.074,4.18,5.488,3.225,9.761,8.142,13.282,13.362a53.21,53.21,0,0,1,7.313,17.372A35.418,35.418,0,0,1,202,64.219c-.335,3.982-3.37,7.435-5.327,10.722a.918.918,0,0,0,1.314,1.244,21.145,21.145,0,0,0,2.589-2.271c.113.621.25,1.242.334,1.856.181,1.359.368,2.714.553,4.073a13.359,13.359,0,0,0,.525,2.445c-5.832-1.727-13.155-1.586-17.86.084-.186-1.005-.4-1.994-.609-3.011-.18-.887-.209-1.829-.343-2.734m-1.594,18.538c1.527-2.816-1.745-8.627,1.972-10.064a.28.28,0,0,0,.1-.075c4.869-.423,9.438-1.109,14.458-.121a14.364,14.364,0,0,1,8.145,4.151c2,2.282.149,5.493-1.038,7.592-2.066,3.648-5.372,6.684-8.646,9.231-4.7,3.657-10.558,4.535-16.039,6.377A29.29,29.29,0,0,0,176.141,99.9a8.793,8.793,0,0,0,5.437-4.738M152.957,78.99a7.011,7.011,0,0,1,3.587.974,5.392,5.392,0,0,1,2.478,2.712,2.848,2.848,0,0,1,.053,1.816c-2.577-1.51-5.264-2.888-8-4.151a1.916,1.916,0,0,1,1.881-1.351M113.675,68.551a87.4,87.4,0,0,0-9.989-1.22c1.978-4.752,9.443-4.183,9.989,1.22M75.912,35.335c1.1-1.12,2.245-2.186,3.251-3.389,1.31,4.483,4.4,8.726,8.265,10.483a.665.665,0,0,0,.937-.768C86.832,35.013,79.447,31.3,83.24,23.534c3.088-6.326,10.19-10.787,16.009-14.287,13.595-8.169,28.23-8.093,41.234.22-8.541-.35-18.729,4.6-24.9,9.441-6.516,5.114-12.537,17.117-4.812,23.9a.744.744,0,0,0,1.219-.613c-.357-4.317-1.6-7.72-.348-11.949,9.424,2.1,21.324-.813,29.335-6.85-2.708,4.653-4.47,9.752-9.592,12.948a53.919,53.919,0,0,1-19.192,7,.781.781,0,0,0-.6-.261.253.253,0,0,0-.213.146,1.027,1.027,0,0,0-.086.413.977.977,0,0,0-.306.639,2.6,2.6,0,0,1-.352.165,1.405,1.405,0,0,0-.557.393c-3.679.528-6.886,1.677-10.706,1.515-3.18-.136-5.634-1.887-8.619-2.343a.758.758,0,0,0-.842.985,5.183,5.183,0,0,0,1.312,1.991,10.318,10.318,0,0,0-1.063.524,8.078,8.078,0,0,0-1.23.83,24.127,24.127,0,0,0-4.889-2.9c-2.107-1.018-7.316-4.782-11.831-6.31,1.532-.816,2.492-2.568,3.7-3.791m-8.646,6.224c5.1-1.277,10.769,4.361,15.116,6.482,1.3.636,2.584,1.264,3.825,2.016,3.894,2.362.025,6.765-1.659,9.547a11.5,11.5,0,0,0-1.4,9.937,1.43,1.43,0,0,0,.2.36,30.817,30.817,0,0,0-10.27,6.409,1.327,1.327,0,0,0-.417-.438c-9.821-6.537-12.5-24.966-5.4-34.312M33.86,57.784c-4.567-3.625-14.469,3.531-20.369,2.242,2.564-4.4,7.2-6.943,11.906-8.7a37.471,37.471,0,0,1,7.049-1.786c2.828-.447,4.1,1.6,5.345,3.639a11.926,11.926,0,0,0-3.93,4.6M52.191,69.247a8.238,8.238,0,0,0-2.88,3.679c-4.385-2.353-8.9-4.916-12.193-8.785C32.749,59,39.6,56.55,42.2,52.927a9.058,9.058,0,0,0,.805.617A21.474,21.474,0,0,1,47.6,58.091c2.477,3.131,4.271,6.767,6.319,10.181a10.957,10.957,0,0,0-1.724.975m13.821,37.6c-3.707-1.059-7.424-1.058-11.021-2.748a15.311,15.311,0,0,1-5.677-4.658,5.054,5.054,0,0,1,4.621-8.039c3.985.386,6.185,5.276,10.435,5.026A34.224,34.224,0,0,0,66.261,106.9c.015.047.032.091.047.139a.629.629,0,0,0-.3-.189m-7.693,15.915c-3.489.186-6.1-1.338-9.426-1.659a1.076,1.076,0,0,0-1.028.732.605.605,0,0,0-.092-.029,32.28,32.28,0,0,0-10.348.472,7.185,7.185,0,0,1-5.356-.855c-2.579-1.741-1.539-6.286-.717-8.585,2.033-5.678,11.592-1.988,16.341-.692a5.826,5.826,0,0,0,.56,7.048.579.579,0,0,0,.906-.111c1.186-2.123-.023-5.319,1.992-7.024,1.337-1.133,3.882-.593,5.437-.4,3.252.4,8.346,1.873,11.39-.129a60.128,60.128,0,0,0,4.686,9.054c-4.825.609-9.379,1.916-14.345,2.181m11.9,1.444a9.512,9.512,0,0,0,3.483-2.054h0c.473.7.938,1.4,1.443,2.075a10.647,10.647,0,0,0-4.925-.019m123.56,44.018a7.528,7.528,0,0,0,.9-3.774,4.6,4.6,0,0,1,4.122,1.616c1.691,1.87,2.547,4.47,3.233,6.841a25.806,25.806,0,0,1,.939,7.318c-.005.966-.221,1.953-.315,2.931-2.46-.5-2.884-5.363-5.069-6.83-2.872-1.929-6.373-1.488-8.316-4.678,2.009.379,3.625-1.805,4.51-3.426m-15.819-11.841c3.632,2.338,8.578,2.3,12.246,4.734,2.1,1.4,1.615,4.185.629,6.069-.688,1.306-2.166,2.1-2.4,3.6a.8.8,0,0,0,.04.413.318.318,0,0,0-.214,0c-6.592,2.182-11.284-6.615-15.647-10.61,0-.008.005-.015.008-.026a.565.565,0,0,0-.135-.528,8.229,8.229,0,0,0,5.475-3.647m-8.1-6.116c1.872.768,4.462,1.375,5.814,2.975.5.6-.676,1.568-1.039,1.935-1.247,1.239-2.732,2-3.457,3.68a.868.868,0,0,0,.07.755.71.71,0,0,0-.84.565,6.861,6.861,0,0,1-4.3.17c-2.258-.784-4.106-2.886-5.634-4.609-2.409-2.709-3.841-6.064-6.1-8.844a52.127,52.127,0,0,0,7.694-3.148c.128,3.122,5.65,5.644,7.8,6.522m-4.827-11.62c-3.791,2.808-8.054,4.9-11.991,7.474-.025.005-.05,0-.076.009-.7.185-1.367.46-2.07.625a7.626,7.626,0,0,0-2.161.633.7.7,0,0,0-.153,1.083.711.711,0,0,0-.106.243c-.212,1.05.679,2.23,1.19,3.083,1.023,1.7,2.231,3.292,3.25,5a17.789,17.789,0,0,1,2.242,5.069c.391,1.749-.972,2.094-1.94,3.274a.654.654,0,0,0,.163,1.012,2.9,2.9,0,0,0,3.667-.616c1.807,1.509,3.691,2.811,5.1,4.872a7.77,7.77,0,0,1,1.448,4.543c-.053,1.455-1.067,2.74-1.446,4.107a.521.521,0,0,0,.6.653,3.636,3.636,0,0,0,3.246-2.744c1.9,2.428,2.494,4.574,2.255,8.1-.255,3.756-1.677,5.969-3.605,8.5-1.022-2.822-3.732-5.126-4.951-7.837a4.96,4.96,0,0,0,1.622-2.612.452.452,0,0,0-.611-.55c-1.559.51-3.329,2.423-5.044,1.441-1.531-.875-2.322-3-2.934-4.538-1.435-3.6-1.766-7.44-2.594-11.168a7.281,7.281,0,0,0,2.661-2.013.589.589,0,0,0-.556-.983c-2.022.29-3.854.969-5.913.814-2.642-.2-4.465-3.009-5.607-5.077a32.3,32.3,0,0,1-2.3-5.87c-.491-1.548-.624-3.213-1.687-4.415a52.867,52.867,0,0,0,7.449-1.106.612.612,0,0,0-.164-1.2c-9.8,0-18.42.254-27.947-2.754A102.939,102.939,0,0,1,90.476,134c-14.99-9.778-26.718-28.879-22.083-47.047.1-.384-.421-.477-.63-.256a11.032,11.032,0,0,0-1.589,2.154c-4.614-1.9-9.473-4.274-12.9-7.961-4.3-4.619.986-13.727,6.64-9.438,2.267,1.719,5.064,10.2,8.74,10.5a.883.883,0,0,0,1.543.412c15.276-16.854,37.585-12.816,57-7.179,20.427,5.933,50.415,17.234,49.5,43.1-.089,2.542,3.732,2.861,3.948.307.017-.183.011-.355.025-.536,3.022.657,7.106-1.268,9.763-1.946,2.217-.57,5.143-1.236,6.6,1.113,1.868,3.019.483,7.24-1.309,10.02-2.671.25-5.347,1.195-8.018,1.486-3.724.4-7.438-.4-11.11-.086a14.888,14.888,0,0,0,.43-2.757c.038-.652-.83-.769-1.14-.294-3.3,5.054-5.887,9.385-10.847,13.06m17.5,7.589c-2.116-.78-4.555-1.114-6.595-1.688-3.167-.89-6.41-2.569-9.633-3.119a.442.442,0,0,0-.206.016,27.275,27.275,0,0,0,8.559-8.27,11.039,11.039,0,0,0,4.675,1.352c2.457.343,6.573-.157,7.993,2.359,2.127,3.768-2.365,6.836-4.794,9.35m25.572,3.982c-.5.07-.993.135-1.493.2a.513.513,0,0,0-.344-.584c-6.107-1.724-12.277-1.942-18.195-4.336a14.446,14.446,0,0,0,2.733-6.358c4.113-.2,8.255-1.573,12.316-1.98,2.757-.282,6.721-.481,8.5,2.114,2.579,3.761-1.39,7.9-3.513,10.94m14.528,3.757c-3.226-1.589-6.6-2.528-9.686-4.365a11.383,11.383,0,0,0,2.523-9.71c5.715.338,8.753,4.569,11.585,9.813a35.69,35.69,0,0,1,2.873,7.323,16.283,16.283,0,0,1,.411,2.619c-2.481-1.83-7.052-5.358-7.707-5.679" transform="translate(0 0)" fill="#f5f5f5"/>
        <path id="패스_5634" data-name="패스 5634" d="M.268.074.057,0C0-.016-.026.074.033.094l.211.07C.3.183.328.094.268.074" transform="translate(172.102 17.961)" fill="#f5f5f5"/>
        <path id="패스_5635" data-name="패스 5635" d="M6.556,7.037C6.493,4.224,3.04.648.383.011c-.4-.1-.488.435-.261.65C1.135,1.618,2.333,2.3,3.3,3.338,4.416,4.531,5.035,6.076,6.135,7.256c.165.178.426-.025.421-.219" transform="translate(172.651 17.923)" fill="#f5f5f5"/>
        <path id="패스_5636" data-name="패스 5636" d="M4.005,3.221C3.258,1.982,1.819.188.262,0A.226.226,0,0,0,.035.343c.789,1.3,2,2.283,2.8,3.623a25.889,25.889,0,0,1,2.1,5.117.365.365,0,0,0,.7-.1A9.693,9.693,0,0,0,4.005,3.221" transform="translate(179.018 20.402)" fill="#f5f5f5"/>
        <path id="패스_5637" data-name="패스 5637" d="M.359.059C.183-.1-.036.1.005.3c.39,1.829,1.065,3.575,1.4,5.424.361,1.944.152,3.923.358,5.873.066.6.895.484,1.068.029,1.3-3.487.311-9-2.475-11.567" transform="translate(185.622 23.778)" fill="#f5f5f5"/>
        <path id="패스_5638" data-name="패스 5638" d="M3.228,4.055C2.9,2.785,1.994.052.387,0a.347.347,0,0,0-.38.292c-.067.8.349,1.138.7,1.861a11.431,11.431,0,0,1,.946,2.625c.431,1.954.033,3.862.04,5.821a.6.6,0,0,0,1.119.295,9.557,9.557,0,0,0,.414-6.838" transform="translate(189.701 29.296)" fill="#f5f5f5"/>
        <path id="패스_5639" data-name="패스 5639" d="M1.151.2A.341.341,0,0,0,.5.371,52.493,52.493,0,0,1,.807,6.054C.733,7.865.035,9.583,0,11.389a.4.4,0,0,0,.719.272C3.107,8.818,2.842,3.313,1.151.2" transform="translate(193.905 34.161)" fill="#f5f5f5"/>
        <path id="패스_5640" data-name="패스 5640" d="M2.685.2C2.592-.13,2.1-.019,2.056.284c-.333,1.979-.446,3.981-.768,5.964S.256,10.114,0,12.106c-.069.557.7.7.978.3C3.193,9.115,3.74,3.979,2.685.2" transform="translate(194.883 39.929)" fill="#f5f5f5"/>
        <path id="패스_5641" data-name="패스 5641" d="M5.314.562A.576.576,0,0,0,4.163.548C3.747,4.74,1.748,7.663.026,11.372c-.122.265.2.629.477.47C4.364,9.606,5.521,4.735,5.314.562" transform="translate(195.531 46.802)" fill="#f5f5f5"/>
        <path id="패스_5642" data-name="패스 5642" d="M6.806.53A.529.529,0,0,0,5.776.36,28.351,28.351,0,0,1,2.8,6.716C1.889,8.11.674,9.272.033,10.828c-.153.368.252.635.572.526,3.9-1.332,6.084-7.072,6.2-10.825" transform="translate(195.666 53.732)" fill="#f5f5f5"/>
        <path id="패스_5643" data-name="패스 5643" d="M8.537.755C8.749.068,7.732-.3,7.39.3A21.873,21.873,0,0,1,3.946,4.965C2.758,6.162,1.306,7.03.164,8.273a.553.553,0,0,0,.507.932c3.885-.553,6.8-4.991,7.866-8.451" transform="translate(195.335 60.176)" fill="#f5f5f5"/>
        <path id="패스_5644" data-name="패스 5644" d="M1.33.354C1.233-.128.453-.122.448.4.419,3.64.018,6.861,0,10.094a.458.458,0,0,0,.887.18A19.117,19.117,0,0,0,1.33.354" transform="translate(160.556 29.223)" fill="#f5f5f5"/>
        <path id="패스_5645" data-name="패스 5645" d="M1.619.506C1.654-.16.721-.161.613.458c-.6,3.384-1.042,7.471.08,10.753a.449.449,0,0,0,.826-.042c.757-3.406-.082-7.181.1-10.662" transform="translate(163.065 34.306)" fill="#f5f5f5"/>
        <path id="패스_5646" data-name="패스 5646" d="M1.5.583A.608.608,0,0,0,.286.593C.271,2.3.149,4,.091,5.708A11.727,11.727,0,0,0,.275,9.832a.435.435,0,0,0,.751.062C2.421,7.3,1.747,3.407,1.5.583" transform="translate(166.015 40.74)" fill="#f5f5f5"/>
        <path id="패스_5647" data-name="패스 5647" d="M1.394.486C1.234-.329-.048-.037,0,.752.066,1.776.054,2.793.058,3.816A10.708,10.708,0,0,0,.206,6.8a.675.675,0,0,0,1.234.115c.869-1.879.342-4.484-.045-6.432" transform="translate(169.698 45.542)" fill="#f5f5f5"/>
        <path id="패스_5648" data-name="패스 5648" d="M1.909,3.463A16.773,16.773,0,0,0,2.154.9C2.191-.1.651-.382.582.655.475,2.195.089,3.669,0,5.2a.59.59,0,0,0,1.094.3,5.1,5.1,0,0,0,.814-2.031" transform="translate(173.185 49.205)" fill="#f5f5f5"/>
        <path id="패스_5649" data-name="패스 5649" d="M5.373.012C5.307.059,4.3-.021,4.107.006,3.616.075,3.126.14,2.635.2,1.83.3,1.056.519.256.655c-.309.052-.367.564-.016.579A22.726,22.726,0,0,0,3.95,1.1a4.556,4.556,0,0,0,1.4-.285c.409-.2.132-.882.028-.805" transform="translate(196.07 76.264)" fill="#f5f5f5"/>
        <path id="패스_5650" data-name="패스 5650" d="M6.7.369A13.821,13.821,0,0,0,.384.375c-.407.137-.583.8-.057.93,1.965.486,4.452-.143,6.4-.531.214-.041.169-.368-.024-.4" transform="translate(195.384 78.539)" fill="#f5f5f5"/>
        <path id="패스_5651" data-name="패스 5651" d="M4.571,1.843A8.566,8.566,0,0,0,.808.022C-.064-.185-.335,1.146.522,1.375A7.663,7.663,0,0,1,3.6,2.973c.725.611,1.05,1.666,1.97,1.974a.469.469,0,0,0,.592-.3c.323-1.148-.806-2.108-1.59-2.807" transform="translate(202.134 88.745)" fill="#f5f5f5"/>
        <path id="패스_5652" data-name="패스 5652" d="M6.862,5.124C6.158,2.429,3.05.745.59.022A.459.459,0,0,0,.3.89,11.376,11.376,0,0,1,3.207,2.644C4.263,3.523,4.942,4.7,5.945,5.614a.543.543,0,0,0,.917-.49" transform="translate(199.544 90.389)" fill="#f5f5f5"/>
        <path id="패스_5653" data-name="패스 5653" d="M4.686,2.691A7.952,7.952,0,0,0,.534.017C.14-.1-.225.445.171.689A12.316,12.316,0,0,1,3.356,3.663c.795,1.032,1.021,2.8,2.157,3.449a.554.554,0,0,0,.757-.191c.647-1.408-.74-3.145-1.585-4.231" transform="translate(197.194 93.415)" fill="#f5f5f5"/>
        <path id="패스_5654" data-name="패스 5654" d="M4.034,4.493A14.394,14.394,0,0,0,1.065.179.622.622,0,0,0,.1.935,23.064,23.064,0,0,1,2.206,4.91C2.676,6.041,2.657,7.836,3.7,8.6a.586.586,0,0,0,.716-.1c.908-1.094.1-2.854-.379-4" transform="translate(195.129 95.134)" fill="#f5f5f5"/>
        <path id="패스_5655" data-name="패스 5655" d="M.935.185C.5-.308-.194.283.051.823A18.944,18.944,0,0,1,1.279,4.394a25.079,25.079,0,0,0,.7,3.4.685.685,0,0,0,1.313-.057C4.013,5.165,2.609,2.1.935.185" transform="translate(192.622 98.771)" fill="#f5f5f5"/>
        <path id="패스_5656" data-name="패스 5656" d="M1.151.3A.624.624,0,0,0,.015.782,18.237,18.237,0,0,1,.5,3.9c.027.945-.271,1.873.188,2.745a.737.737,0,0,0,1.025.206C3.378,5.4,2.087,1.866,1.151.3" transform="translate(190.078 101.875)" fill="#f5f5f5"/>
        <path id="패스_5657" data-name="패스 5657" d="M.951.172a.526.526,0,0,0-.909.34C.1,1.286.19,2.079.182,2.858.17,3.743.015,4.623,0,5.512c-.018.873,1.193.87,1.524.24A5.517,5.517,0,0,0,.951.172" transform="translate(186.818 104.134)" fill="#f5f5f5"/>
        <path id="패스_5658" data-name="패스 5658" d="M2.054,2.865A5.2,5.2,0,0,0,2.087.712C1.871-.376.17-.154.371.952A4.039,4.039,0,0,1,.345,2.469a3.547,3.547,0,0,1-.184.55A4.426,4.426,0,0,0,0,4.129a.591.591,0,0,0,.874.517A2.528,2.528,0,0,0,2.054,2.865" transform="translate(182.92 107.199)" fill="#f5f5f5"/>
        <path id="패스_5659" data-name="패스 5659" d="M2.012.669C2.038-.166.615-.248.55.584A5.157,5.157,0,0,1,.03,1.973a.568.568,0,0,0,.528.714C1.644,2.8,1.985,1.453,2.012.669" transform="translate(180.198 109.694)" fill="#f5f5f5"/>
        <path id="패스_5660" data-name="패스 5660" d="M10.081.619C7.292-.842,2.6.527.155,2.2c-.344.233-.061.8.324.72,1.658-.332,3.268-.8,4.94-1.075,1.469-.244,3.078,0,4.49-.421.323-.1.561-.6.171-.807" transform="translate(127.489 4.879)" fill="#f5f5f5"/>
        <path id="패스_5661" data-name="패스 5661" d="M10.526.074C8.773-.269,6.7.657,5.109,1.314A15.026,15.026,0,0,0,.081,4.633c-.245.25.118.685.416.536q2.535-1.263,5.14-2.4C7.252,2.065,9.142,1.749,10.669.9a.437.437,0,0,0-.143-.826" transform="translate(120.865 2.893)" fill="#f5f5f5"/>
        <path id="패스_5662" data-name="패스 5662" d="M9.487.006C6.25.537,2.237,1.745.132,4.454c-.37.476.093,1.319.7.926,1.21-.78,2.312-1.712,3.542-2.472A18.68,18.68,0,0,1,9.6.772c.474-.122.386-.847-.114-.765" transform="translate(114.503 1.732)" fill="#f5f5f5"/>
        <path id="패스_5663" data-name="패스 5663" d="M10.848.013C6.1,1.18,1.212,4.536.011,9.525c-.1.388.438.5.65.256C3.863,6.2,6.555,2.809,11.114.855a.447.447,0,0,0-.266-.842" transform="translate(105.675 1.517)" fill="#f5f5f5"/>
        <path id="패스_5664" data-name="패스 5664" d="M6.723.228C4.183,3.008,1.007,6.582.02,10.3a.684.684,0,0,0,1.164.605C2.291,9.463,3.009,7.733,3.973,6.186A40.954,40.954,0,0,1,7.745,1.158.692.692,0,0,0,6.723.228" transform="translate(99.385 3.788)" fill="#f5f5f5"/>
        <path id="패스_5665" data-name="패스 5665" d="M7.577.056A17.45,17.45,0,0,0,.009,11.265a.6.6,0,0,0,1.1.445C2.236,9.683,3.158,7.555,4.414,5.6,5.531,3.857,6.91,2.359,8.154.723c.265-.35-.188-.9-.577-.667" transform="translate(93.15 7.023)" fill="#f5f5f5"/>
        <path id="패스_5666" data-name="패스 5666" d="M5.353.045A11.266,11.266,0,0,0,.312,12.217a.577.577,0,0,0,1.133-.131C1.725,7.519,2.782,4,5.754.466c.227-.27-.13-.583-.4-.421" transform="translate(87.1 11.693)" fill="#f5f5f5"/>
        <path id="패스_5667" data-name="패스 5667" d="M2.433,11.138a50.8,50.8,0,0,1-.787-5.187,15.755,15.755,0,0,1,1-5.476c.12-.353-.353-.664-.586-.337-2.272,3.221-3,8.13-.458,11.416.312.4.89.023.831-.416" transform="translate(83.327 17.73)" fill="#f5f5f5"/>
        <path id="패스_5668" data-name="패스 5668" d="M7.96.088a49.387,49.387,0,0,0-7.879,7.3c-.275.329.212.777.535.515A91.62,91.62,0,0,0,8.427.676C8.756.339,8.353-.216,7.96.088" transform="translate(129.023 24.667)" fill="#f5f5f5"/>
        <path id="패스_5669" data-name="패스 5669" d="M7.61.14C5.269,2.253,2.5,3.789.152,5.865a.448.448,0,0,0,.478.743C3.493,5.374,6.086,3.034,8.328.914A.528.528,0,0,0,7.61.14" transform="translate(122.005 27.951)" fill="#f5f5f5"/>
        <path id="패스_5670" data-name="패스 5670" d="M5.562.207Q4.255,1.376,2.848,2.423a15.875,15.875,0,0,0-2.7,2.093.53.53,0,0,0,.477.9C2.918,4.9,5.013,2.723,6.7,1.181,7.418.531,6.268-.424,5.562.207" transform="translate(116.954 30.159)" fill="#f5f5f5"/>
        <path id="패스_5671" data-name="패스 5671" d="M3.33.157A27.406,27.406,0,0,0,.148,2.849c-.411.46.1,1.28.678.914a28.958,28.958,0,0,0,3.416-2.73C4.861.489,3.95-.35,3.33.157" transform="translate(112.834 30.67)" fill="#f5f5f5"/>
        <path id="패스_5672" data-name="패스 5672" d="M4.483,7.335C3.84,6.21,2.99,5.179,2.277,4.093a9.744,9.744,0,0,1-1.063-2.3A5.356,5.356,0,0,0,.6.1.248.248,0,0,0,.179.138c-.5,1.133.171,2.827.543,3.928A6.415,6.415,0,0,0,3.893,8.025c.39.175.791-.341.59-.69" transform="translate(76.239 32.851)" fill="#f5f5f5"/>
        <path id="패스_5673" data-name="패스 5673" d="M3.909,4.465A28.2,28.2,0,0,1,.988.267C.739-.252-.161.051.025.612A8,8,0,0,0,3.277,5.205a.493.493,0,0,0,.632-.741" transform="translate(73.508 36.169)" fill="#f5f5f5"/>
        <path id="패스_5674" data-name="패스 5674" d="M4.3,6.487A10.509,10.509,0,0,1,.792.264.306.306,0,0,0,.188.25,6.291,6.291,0,0,0,3.646,7.272c.479.25,1.127-.391.653-.786" transform="translate(65.601 41.211)" fill="#f5f5f5"/>
        <path id="패스_5675" data-name="패스 5675" d="M6.014,8.168C4.762,6.993,3.3,6.126,2.262,4.721A9.477,9.477,0,0,1,.69.228.26.26,0,0,0,.176.208c-.843,3.563,1.4,8.244,5.287,8.871.488.079.994-.492.551-.911" transform="translate(63.684 45.046)" fill="#f5f5f5"/>
        <path id="패스_5676" data-name="패스 5676" d="M7.518,7.184c-1.1-.924-2.466-1.5-3.6-2.411A11.726,11.726,0,0,1,.748.222C.578-.174-.09,0,.01.433c.749,3.291,3.175,7.674,7.1,7.657.422,0,.792-.583.409-.906" transform="translate(62.099 49.767)" fill="#f5f5f5"/>
        <path id="패스_5677" data-name="패스 5677" d="M7.629,6.637C6.854,5.45,4.954,5.243,3.787,4.452,2.279,3.437,1.621,1.766.81.23A.4.4,0,0,0,.049.35a6.3,6.3,0,0,0,2.1,5.29c1.191,1.149,3.8,2.786,5.364,1.6a.5.5,0,0,0,.111-.6" transform="translate(62.387 55.023)" fill="#f5f5f5"/>
        <path id="패스_5678" data-name="패스 5678" d="M8.251,4.556A18.638,18.638,0,0,0,4.7,2.832,29.619,29.619,0,0,1,.611.065C.335-.141-.152.179.046.513,1.493,2.958,5.037,5.959,8.091,5.542c.53-.074.482-.73.159-.986" transform="translate(61.869 61.65)" fill="#f5f5f5"/>
        <path id="패스_5679" data-name="패스 5679" d="M9.334,2.635C7.882,2,6.192,2.012,4.667,1.595A20.59,20.59,0,0,1,.827.058C.331-.2-.307.442.166.864,2.323,2.807,6.394,5.141,9.314,3.616a.568.568,0,0,0,.019-.981" transform="translate(63.246 67.413)" fill="#f5f5f5"/>
        <path id="패스_5680" data-name="패스 5680" d="M5.526,1.435a5.752,5.752,0,0,0-1.991-.293A5.256,5.256,0,0,1,1.212.163.738.738,0,0,0,.247,1.278C1.432,2.431,4.476,4.189,5.78,2.293a.635.635,0,0,0-.254-.858" transform="translate(67.834 72.547)" fill="#f5f5f5"/>
        <path id="패스_5681" data-name="패스 5681" d="M1.36,2.879C1.268,2.048,1.125,1.218.993.39.884-.258-.072-.036,0,.6.1,1.4.189,2.2.251,3A4.747,4.747,0,0,0,.635,5.066a.349.349,0,0,0,.557,0A3.537,3.537,0,0,0,1.36,2.879" transform="translate(181.598 117.158)" fill="#f5f5f5"/>
        <path id="패스_5682" data-name="패스 5682" d="M2.3,2.046A3.093,3.093,0,0,0,.556.014.417.417,0,0,0,.008.466C.15,1.2.557,1.906.772,2.637A15.243,15.243,0,0,1,1,5.064a.675.675,0,0,0,1.262.285,4.347,4.347,0,0,0,.034-3.3" transform="translate(183.159 116.342)" fill="#f5f5f5"/>
        <path id="패스_5683" data-name="패스 5683" d="M2.192,2.77A6.037,6.037,0,0,0,.835.155a.483.483,0,0,0-.83.41c.138.985.45,1.929.573,2.92.1.761.168,1.7.849,2.174a.411.411,0,0,0,.5-.02c.827-.692.518-1.966.267-2.868" transform="translate(186.257 115.923)" fill="#f5f5f5"/>
        <path id="패스_5684" data-name="패스 5684" d="M2.981,4.905A5.149,5.149,0,0,0,2.24,2.2C1.852,1.442,1.406.384.58.029A.437.437,0,0,0,0,.4,7.479,7.479,0,0,0,.711,2.8a12.75,12.75,0,0,0,.662,2.3.844.844,0,0,0,1.608-.2" transform="translate(189.111 114.558)" fill="#f5f5f5"/>
        <path id="패스_5685" data-name="패스 5685" d="M1.652,2.89A9.01,9.01,0,0,0,.7.207C.542-.061,0-.108,0,.3A20.2,20.2,0,0,0,.271,3.148c.115.87.054,1.915.755,2.536a.422.422,0,0,0,.588-.105c.56-.768.22-1.837.038-2.689" transform="translate(192.627 114.864)" fill="#f5f5f5"/>
        <path id="패스_5686" data-name="패스 5686" d="M2.926,2a2.812,2.812,0,0,0-.481-.868A2.946,2.946,0,0,0,.5,0,.483.483,0,0,0,.108.8,12.411,12.411,0,0,1,1.29,2.285c.28.486.391,1.061.927,1.337.152.079.284-.015.414-.072.507-.225.435-1.145.295-1.55" transform="translate(201.936 114.605)" fill="#f5f5f5"/>
        <path id="패스_5687" data-name="패스 5687" d="M3.276,3.289A25.739,25.739,0,0,0,1.255.282C.743-.391-.368.26.122.983a27.581,27.581,0,0,1,1.79,3.008c.333.655.718,1.944,1.621,1.9,1.117-.05-.046-2.228-.257-2.6" transform="translate(204.11 111.508)" fill="#f5f5f5"/>
        <path id="패스_5688" data-name="패스 5688" d="M3.2,4.984c-.089-1.691-1.2-3.331-2.111-4.71-.4-.611-1.374-.1-1,.557A21.819,21.819,0,0,1,1.245,3.151c.3.707.5,1.436.858,2.114A.587.587,0,0,0,3.2,4.984" transform="translate(207.587 111.314)" fill="#f5f5f5"/>
        <path id="패스_5689" data-name="패스 5689" d="M2.85,2.8A7.22,7.22,0,0,0,.874.143.5.5,0,0,0,.129.82,8.073,8.073,0,0,1,1.493,3.237a25.959,25.959,0,0,0,.691,2.524c.257.536,1.021.314,1.162-.175a4.681,4.681,0,0,0-.5-2.79" transform="translate(210.83 111.038)" fill="#f5f5f5"/>
        <path id="패스_5690" data-name="패스 5690" d="M.8.173C.488-.266-.16.215.036.667A15.811,15.811,0,0,1,1.058,4.251a11.434,11.434,0,0,0,.524,3.016.446.446,0,0,0,.771.061C3.526,5.174,2.053,1.97.8.173" transform="translate(214.677 110.914)" fill="#f5f5f5"/>
        <path id="패스_5691" data-name="패스 5691" d="M.954.259C.709-.137,0-.085,0,.459c.008.976.109,1.94.161,2.914A6,6,0,0,0,.6,6.212a.428.428,0,0,0,.729.066C2.516,4.767,1.87,1.736.954.259" transform="translate(224.949 112.253)" fill="#f5f5f5"/>
        <path id="패스_5692" data-name="패스 5692" d="M1.046.364C.936-.134.092-.127.118.423.169,1.48.164,2.537.132,3.593A11.451,11.451,0,0,0,.078,6.36a.437.437,0,0,0,.785.171c1.154-1.714.6-4.3.183-6.168" transform="translate(228.655 114.96)" fill="#f5f5f5"/>
        <path id="패스_5693" data-name="패스 5693" d="M1.878,3.894A12.081,12.081,0,0,0,2.041.677.762.762,0,0,0,.523.8,11.381,11.381,0,0,1,.277,3.654,3.579,3.579,0,0,0,.142,5.868a.48.48,0,0,0,.643.22c.771-.422.933-1.387,1.093-2.193" transform="translate(230.48 118.333)" fill="#f5f5f5"/>
        <path id="패스_5694" data-name="패스 5694" d="M1.694.328A.411.411,0,0,0,.883.46C.993,2.246.26,3.781,0,5.5a.506.506,0,0,0,.841.4A5.917,5.917,0,0,0,1.694.328" transform="translate(232.507 121.702)" fill="#f5f5f5"/>
        <path id="패스_5695" data-name="패스 5695" d="M1.61.605a.469.469,0,0,0-.888-.3A7.945,7.945,0,0,0,0,3.021a.32.32,0,0,0,.564.161A7.824,7.824,0,0,0,1.61.605" transform="translate(234.52 127.193)" fill="#f5f5f5"/>
        <path id="패스_5696" data-name="패스 5696" d="M3.1.495A.482.482,0,0,0,2.139.435C1.818,2.759.709,4.719.026,6.916a.638.638,0,0,0,1.072.59C2.724,5.646,3.18,2.888,3.1.495" transform="translate(173.197 132.423)" fill="#f5f5f5"/>
        <path id="패스_5697" data-name="패스 5697" d="M2.376,5.145A9.836,9.836,0,0,0,2.419.438c-.147-.7-1.138-.5-1.178.151A17.317,17.317,0,0,1,.589,4.125C.331,5.076-.325,6.113.2,7.054a.591.591,0,0,0,.657.282c1-.225,1.278-1.307,1.524-2.191" transform="translate(177.206 133.148)" fill="#f5f5f5"/>
        <path id="패스_5698" data-name="패스 5698" d="M2.731,4.1c.322-1.111.691-2.777.009-3.832a.52.52,0,0,0-.95.083c-.435,1.143-.7,2.36-1.1,3.524C.375,4.811-.379,6,.232,6.96a.479.479,0,0,0,.511.254C2.086,6.929,2.4,5.233,2.731,4.1" transform="translate(180.981 133.94)" fill="#f5f5f5"/>
        <path id="패스_5699" data-name="패스 5699" d="M1.634.156A.461.461,0,0,0,.855.31,20.243,20.243,0,0,0,.431,2.376a7.729,7.729,0,0,0-.408,2.6.5.5,0,0,0,.7.342A3.93,3.93,0,0,0,1.634.156" transform="translate(192.858 137.17)" fill="#f5f5f5"/>
        <path id="패스_5700" data-name="패스 5700" d="M1.89,3.268A5.472,5.472,0,0,0,1.255.224C1.085-.1.5-.089.5.346A21.632,21.632,0,0,1,.308,3.024,6.985,6.985,0,0,0,.052,5.411a.653.653,0,0,0,1.086.267,3.556,3.556,0,0,0,.752-2.41" transform="translate(196.068 136.544)" fill="#f5f5f5"/>
        <path id="패스_5701" data-name="패스 5701" d="M1.805.454A.646.646,0,0,0,.566.814,5.788,5.788,0,0,1,.453,3.1,5.437,5.437,0,0,0,.029,5.286a.612.612,0,0,0,.89.371c1.6-.9,1.358-3.741.886-5.2" transform="translate(199.494 136.372)" fill="#f5f5f5"/>
        <path id="패스_5702" data-name="패스 5702" d="M1.832.617A.668.668,0,0,0,.5.667a15.177,15.177,0,0,1-.21,2.854C.142,4.356-.285,5.22.3,5.958a.482.482,0,0,0,.466.156c1.8-.53,1.255-4.1,1.068-5.5" transform="translate(203.449 136.509)" fill="#f5f5f5"/>
        <path id="패스_5703" data-name="패스 5703" d="M2.03.622A.668.668,0,0,0,.7.669,16.293,16.293,0,0,1,.384,3.685a6.04,6.04,0,0,0-.343,2.4.484.484,0,0,0,.684.335C2.491,5.393,2.164,2.342,2.03.622" transform="translate(207.115 136.162)" fill="#f5f5f5"/>
        <path id="패스_5704" data-name="패스 5704" d="M.675.061a.415.415,0,0,0-.639.4A16.434,16.434,0,0,1,.283,3.3,25.748,25.748,0,0,0,.044,6.957a.625.625,0,0,0,1.043.271C2.566,5.6,2.794,1.318.675.061" transform="translate(218.082 138.604)" fill="#f5f5f5"/>
        <path id="패스_5705" data-name="패스 5705" d="M1.889,4.641A16.183,16.183,0,0,0,1.757.4C1.675-.234.789-.052.713.5.562,1.658.431,2.816.3,3.977A6.66,6.66,0,0,0,.105,6.735.513.513,0,0,0,.937,7a3.3,3.3,0,0,0,.953-2.361" transform="translate(220.79 141.301)" fill="#f5f5f5"/>
        <path id="패스_5706" data-name="패스 5706" d="M1.964,3.569C2.043,2.507,2.094.724,1.123.043A.192.192,0,0,0,.829.1,3.282,3.282,0,0,0,.643,1.567,11.323,11.323,0,0,1,.393,3.694C.239,4.593-.29,5.653.211,6.52a.4.4,0,0,0,.509.2c1.124-.535,1.166-2.057,1.244-3.151" transform="translate(223.418 143.606)" fill="#f5f5f5"/>
        <path id="패스_5707" data-name="패스 5707" d="M1.793.444C1.664-.252.523-.08.571.615A9.558,9.558,0,0,1,.442,3.081c-.156.811-.685,1.632-.31,2.437a.457.457,0,0,0,.508.254C2.5,5.273,2.048,1.838,1.793.444" transform="translate(226.238 147.473)" fill="#f5f5f5"/>
        <path id="패스_5708" data-name="패스 5708" d="M.239.61A2.537,2.537,0,0,0,.062,2.116c.094.285.453.562.758.353a2.655,2.655,0,0,0,.886-1.411A.77.77,0,1,0,.239.61" transform="translate(228.177 152.616)" fill="#f5f5f5"/>
        <path id="패스_5709" data-name="패스 5709" d="M2.758.451C2.529-.092,1.647-.217,1.513.482A10.047,10.047,0,0,1,.942,2.844,6.686,6.686,0,0,0,0,4.949a.451.451,0,0,0,.522.473C2.231,5.044,3.4,1.979,2.758.451" transform="translate(160.593 142.634)" fill="#f5f5f5"/>
        <path id="패스_5710" data-name="패스 5710" d="M2.5.729c.234-.76-.917-1.03-1.18-.3-.22.605-.447,1.209-.7,1.8C.387,2.794.254,3.366.033,3.939c-.2.535.58.87.885.414a7.713,7.713,0,0,0,.94-1.666c.235-.648.444-1.3.645-1.957" transform="translate(163.273 145.149)" fill="#f5f5f5"/>
        <path id="패스_5711" data-name="패스 5711" d="M2.868.468A.448.448,0,0,0,2,.288c-.375.994-.8,1.969-1.156,2.967-.35.973-1.026,1.9-.8,2.961a.479.479,0,0,0,.564.379c2.125-.68,2.14-4.321,2.259-6.127" transform="translate(165.291 146.844)" fill="#f5f5f5"/>
        <path id="패스_5712" data-name="패스 5712" d="M3.05.68A.764.764,0,0,0,1.542.612,10.946,10.946,0,0,1,1,2.744c-.278.8-.768,1.479-.982,2.3a.8.8,0,0,0,1.249.771C2.749,4.676,3.063,2.422,3.05.68" transform="translate(169.14 148.718)" fill="#f5f5f5"/>
        <path id="패스_5713" data-name="패스 5713" d="M3.455.37c-.04-.477-.781-.488-.9-.06A9.748,9.748,0,0,1,1.363,2.945a11.216,11.216,0,0,0-1.3,1.828A.758.758,0,0,0,.985,5.8C3.024,5.086,3.6,2.241,3.455.37" transform="translate(171.386 150.694)" fill="#f5f5f5"/>
        <path id="패스_5714" data-name="패스 5714" d="M3.632.232A28.723,28.723,0,0,1,1.6,2.791C1.037,3.433.019,3.963,0,4.9a.5.5,0,0,0,.342.5c1.087.295,1.913-.85,2.546-1.587A8.8,8.8,0,0,0,4.587.66.53.53,0,0,0,3.632.232" transform="translate(177.176 155.292)" fill="#f5f5f5"/>
        <path id="패스_5715" data-name="패스 5715" d="M2.43.51a12.094,12.094,0,0,1-1.752,3C.332,3.959-.433,5.055.321,5.538c1.625,1.03,3.331-3.4,3.645-4.386C4.29.148,2.829-.507,2.43.51" transform="translate(180.445 156.943)" fill="#f5f5f5"/>
        <path id="패스_5716" data-name="패스 5716" d="M3.547.587A.6.6,0,0,0,2.372.435,9.113,9.113,0,0,1,.966,3.429C.513,4.09-.623,5,.442,5.644c.806.491,1.828-.908,2.216-1.413A5.642,5.642,0,0,0,3.547.587" transform="translate(184.346 158.176)" fill="#f5f5f5"/>
        <path id="패스_5717" data-name="패스 5717" d="M4.041.624A.672.672,0,0,0,2.72.5,15.375,15.375,0,0,1,1.679,3.2C1.209,4.062.356,4.7.026,5.625a.484.484,0,0,0,.428.627c2.516.2,3.719-3.689,3.587-5.627" transform="translate(187.292 159.947)" fill="#f5f5f5"/>
        <path id="패스_5718" data-name="패스 5718" d="M1.2.151A.531.531,0,0,0,.283.49c.009.828.163,1.637.093,2.472A17.349,17.349,0,0,0,0,5.351c.022.394.488.792.874.516C2.385,4.784,2.608,1.4,1.2.151" transform="translate(196.033 163.329)" fill="#f5f5f5"/>
        <path id="패스_5719" data-name="패스 5719" d="M2.741.579a.6.6,0,0,0-1.194,0A28.34,28.34,0,0,1,.023,6.465.588.588,0,0,0,1,7.033C2.6,5.324,2.841,2.815,2.741.579" transform="translate(198.348 164.953)" fill="#f5f5f5"/>
        <path id="패스_5720" data-name="패스 5720" d="M2.228,4.139A24.978,24.978,0,0,0,3.074.847.738.738,0,0,0,1.624.576,25.1,25.1,0,0,1,.734,3.5,5.216,5.216,0,0,0,.041,6.281a.484.484,0,0,0,.683.339,3.944,3.944,0,0,0,1.5-2.48" transform="translate(199.47 169.247)" fill="#f5f5f5"/>
        <path id="패스_5721" data-name="패스 5721" d="M2.926.177A.765.765,0,0,0,1.852.267a22,22,0,0,1-1.7,2.27.553.553,0,0,0,.639.883A4.951,4.951,0,0,0,3.016,1.25.777.777,0,0,0,2.926.177" transform="translate(200.218 175.102)" fill="#f5f5f5"/>
        <path id="패스_5722" data-name="패스 5722" d="M4.724.023a3.707,3.707,0,0,0-1.81.423c-.9.313-1.768.73-2.657,1.079-.491.193-.211.912.272.847a9.569,9.569,0,0,0,3.2-1.12c.085-.044,1.626-1.11.99-1.229" transform="translate(144.466 149.359)" fill="#f5f5f5"/>
        <path id="패스_5723" data-name="패스 5723" d="M5.063.048c-.858.4-1.724.793-2.6,1.137-.706.275-1.993.5-2.392,1.2a.389.389,0,0,0,.087.537c.8.563,1.984-.026,2.78-.342A11.579,11.579,0,0,0,5.663.9c.492-.379-.089-1.093-.6-.853" transform="translate(145.188 151.3)" fill="#f5f5f5"/>
        <path id="패스_5724" data-name="패스 5724" d="M5.578.173A12.9,12.9,0,0,1,2.692,2.229c-.831.444-2.267.8-2.667,1.731a.364.364,0,0,0,.121.427c.981.568,2.24-.259,3.124-.729A11.444,11.444,0,0,0,6.4,1.007C6.888.44,6.13-.355,5.578.173" transform="translate(146.538 152.844)" fill="#f5f5f5"/>
        <path id="패스_5725" data-name="패스 5725" d="M5.09.111A21.837,21.837,0,0,1,1.807,2.064c-.5.244-2.163.717-1.738,1.6C.556,4.666,2.3,3.654,2.924,3.337A10.876,10.876,0,0,0,5.866,1.093C6.347.59,5.683-.316,5.09.111" transform="translate(147.601 156.225)" fill="#f5f5f5"/>
        <path id="패스_5726" data-name="패스 5726" d="M3.946.076C3.392.456,2.8.764,2.208,1.091a21.537,21.537,0,0,0-2.047.971.47.47,0,0,0,.161.8c1.658.52,3.321-1.01,4.2-2.245C4.8.232,4.3-.172,3.946.076" transform="translate(149.654 159.588)" fill="#f5f5f5"/>
        <path id="패스_5727" data-name="패스 5727" d="M3.774.346A.416.416,0,0,0,3.107.093,13.015,13.015,0,0,0,1.865,1.881,12.19,12.19,0,0,1,.17,3.52a.555.555,0,0,0,.509.936C2.242,4.037,4.017,2.072,3.774.346" transform="translate(153.774 165.82)" fill="#f5f5f5"/>
        <path id="패스_5728" data-name="패스 5728" d="M5.357.748A.6.6,0,0,0,4.256.3,26.527,26.527,0,0,1,2.351,3.356C1.688,4.223.764,4.834.1,5.706c-.338.447.228.966.673.873C3.27,6.059,4.991,3.1,5.357.748" transform="translate(155.805 166.551)" fill="#f5f5f5"/>
        <path id="패스_5729" data-name="패스 5729" d="M4.075.379A10.056,10.056,0,0,1,2.481,3.11,33.688,33.688,0,0,0,.089,5.591a.613.613,0,0,0,.691.883C3.085,5.9,4.695,2.9,5.4.835,5.647.082,4.364-.359,4.075.379" transform="translate(158.263 169.129)" fill="#f5f5f5"/>
        <path id="패스_5730" data-name="패스 5730" d="M5.1.174A22.439,22.439,0,0,1,2.426,2.947,19.706,19.706,0,0,0,.148,4.925a.567.567,0,0,0,.524.951c2.45-.564,4.3-3.138,5.215-5.308C6.094.075,5.4-.2,5.1.174" transform="translate(158.267 173.407)" fill="#f5f5f5"/>
        <path id="패스_5731" data-name="패스 5731" d="M2.775.028a.29.29,0,0,0-.385.15c-.374,1.006-.113,2.1-.51,3.133a21.608,21.608,0,0,1-1.82,3.03.341.341,0,0,0,.4.518A4.723,4.723,0,0,0,3.539,3.589C3.893,2.441,3.974.7,2.775.028" transform="translate(164.092 176.418)" fill="#f5f5f5"/>
        <path id="패스_5732" data-name="패스 5732" d="M5.628.395c.1-.448-.543-.524-.725-.18A15.958,15.958,0,0,1,2.776,3.36C1.918,4.335.583,5.135.033,6.318a.39.39,0,0,0,.419.52C1.717,6.746,2.711,5.572,3.52,4.689A9.393,9.393,0,0,0,5.628.395" transform="translate(165.143 180.162)" fill="#f5f5f5"/>
        <path id="패스_5733" data-name="패스 5733" d="M2.679.2a7.429,7.429,0,0,1-1.392,1.22,3.474,3.474,0,0,0-1.256,1.2.3.3,0,0,0,.234.419c1.321.154,2.509-1.03,3.3-1.968C4.079.467,3.218-.4,2.679.2" transform="translate(165.152 187.602)" fill="#f5f5f5"/>
        <path id="패스_5734" data-name="패스 5734" d="M3.926.033C1.218,1.045-.277,4.392.043,7.142c.067.568.888.5,1.042.031.758-2.319,1.4-4.74,3.426-6.3.5-.385-.085-1.027-.585-.841" transform="translate(72.958 124.15)" fill="#f5f5f5"/>
        <path id="패스_5735" data-name="패스 5735" d="M5.15.019C2.389,1.082-.158,4.124.008,7.193c.03.573.858.876,1.139.3.56-1.149.926-2.359,1.551-3.472A19.353,19.353,0,0,1,5.515.509c.22-.239-.089-.6-.365-.49" transform="translate(68.552 125.096)" fill="#f5f5f5"/>
        <path id="패스_5736" data-name="패스 5736" d="M5.6.008C2.233-.225-.821,4.735.2,7.741a.591.591,0,0,0,1.075.147c.667-1.22.87-2.636,1.5-3.886C3.491,2.572,4.746,1.646,5.787.48A.3.3,0,0,0,5.6.008" transform="translate(64.675 125.316)" fill="#f5f5f5"/>
        <path id="패스_5737" data-name="패스 5737" d="M2.7.149C1.276,1.387-.578,4.288.173,6.2a.411.411,0,0,0,.634.15,6.776,6.776,0,0,0,1.4-2.813A28.381,28.381,0,0,1,3.568.844.566.566,0,0,0,2.7.149" transform="translate(56.951 131.014)" fill="#f5f5f5"/>
        <path id="패스_5738" data-name="패스 5738" d="M4.143.64a.423.423,0,0,0-.7-.48C1.848,1.919-.392,4.853.059,7.383a.509.509,0,0,0,.918.166c.8-.978.982-2.371,1.439-3.529A19.759,19.759,0,0,1,4.143.64" transform="translate(53.078 130.813)" fill="#f5f5f5"/>
        <path id="패스_5739" data-name="패스 5739" d="M1.645,4.74A14.488,14.488,0,0,1,3.206.733.48.48,0,0,0,2.4.211C.925,2.21-.631,5.161.263,7.7a.47.47,0,0,0,.864-.057c.27-.947.32-1.939.518-2.9" transform="translate(49.853 132.842)" fill="#f5f5f5"/>
        <path id="패스_5740" data-name="패스 5740" d="M1.272,3.169A8.185,8.185,0,0,1,1.232.527C1.306-.05.343-.218.225.354a10.335,10.335,0,0,0-.21,2.7A3.847,3.847,0,0,0,.841,5.675a.485.485,0,0,0,.838-.289,7.631,7.631,0,0,0-.407-2.217" transform="translate(47.504 137.646)" fill="#f5f5f5"/>
        <path id="패스_5741" data-name="패스 5741" d="M3.229.106A6.585,6.585,0,0,0,1.038,2.45C.378,3.662-.476,5.663.323,6.975a.455.455,0,0,0,.773.057,7.439,7.439,0,0,0,.96-2.687A10.1,10.1,0,0,1,3.867.825.481.481,0,0,0,3.229.106" transform="translate(42.429 135.295)" fill="#f5f5f5"/>
        <path id="패스_5742" data-name="패스 5742" d="M1.743,4.271c.213-1.267.514-2.52.835-3.76.094-.364-.391-.731-.63-.349C.753,2.058-.479,4.96.188,7.224a.508.508,0,0,0,.974.046,15.033,15.033,0,0,0,.58-3" transform="translate(39.449 136.992)" fill="#f5f5f5"/>
        <path id="패스_5743" data-name="패스 5743" d="M1.179,2.48a10.99,10.99,0,0,1,0-1.938C1.246-.173.165-.179.077.513A10.821,10.821,0,0,0,.008,2.255,3.365,3.365,0,0,0,.367,4.1c.191.294.6.127.72-.128A2.755,2.755,0,0,0,1.179,2.48" transform="translate(36.977 142.735)" fill="#f5f5f5"/>
        <path id="패스_5744" data-name="패스 5744" d="M3.267.212C1.963,1.537-.459,4.174.076,6.221A.449.449,0,0,0,.8,6.48a6.185,6.185,0,0,0,1.455-2.39A16.721,16.721,0,0,1,4.244,1.122.668.668,0,0,0,3.267.212" transform="translate(64.396 110.188)" fill="#f5f5f5"/>
        <path id="패스_5745" data-name="패스 5745" d="M4.573.106C2.638,1.563-.327,4.212.029,6.922a.4.4,0,0,0,.645.248c1.1-.742,1.607-2.114,2.286-3.2A17.4,17.4,0,0,1,5.271,1.033C5.715.575,5.117-.3,4.573.106" transform="translate(59.286 110.303)" fill="#f5f5f5"/>
        <path id="패스_5746" data-name="패스 5746" d="M4.892.029A6.389,6.389,0,0,0,1.719,2.2C.852,3.189-.309,4.795.076,6.165a.663.663,0,0,0,.972.374c.875-.594,1.169-1.728,1.707-2.612A8.733,8.733,0,0,1,5.4,1.2.646.646,0,0,0,4.892.029" transform="translate(54.788 111.179)" fill="#f5f5f5"/>
        <path id="패스_5747" data-name="패스 5747" d="M3.472.125C1.853,1.249-.495,3.8.092,5.962a.686.686,0,0,0,1.151.259A13.16,13.16,0,0,0,2.691,3.479a16.177,16.177,0,0,1,1.663-2.3C4.83.591,4.139-.337,3.472.125" transform="translate(51.241 110.686)" fill="#f5f5f5"/>
        <path id="패스_5748" data-name="패스 5748" d="M3.242.412A.378.378,0,0,0,2.636.076C1.009,1.335-.341,4.13.077,6.188A.4.4,0,0,0,.8,6.356,8.559,8.559,0,0,0,2.049,3.819,19.6,19.6,0,0,0,3.242.412" transform="translate(43.221 110.591)" fill="#f5f5f5"/>
        <path id="패스_5749" data-name="패스 5749" d="M3.873.061a7.6,7.6,0,0,0-2.6,2.962C.61,4.086-.582,5.823.332,7A.469.469,0,0,0,.8,7.15C1.757,6.9,2,6.012,2.367,5.157,3.019,3.622,4.145,2.26,4.7.716c.177-.492-.421-.868-.831-.655" transform="translate(38.428 109.687)" fill="#f5f5f5"/>
        <path id="패스_5750" data-name="패스 5750" d="M3.741.1C1.645,1.452-.465,4.035.09,6.7a.615.615,0,0,0,1.121.141A26.33,26.33,0,0,0,2.42,3.913a10.009,10.009,0,0,1,2.1-2.831A.634.634,0,0,0,3.741.1" transform="translate(34.583 108.759)" fill="#f5f5f5"/>
        <path id="패스_5751" data-name="패스 5751" d="M2.758.665C2.967.1,2.113-.261,1.8.237A15.9,15.9,0,0,0,.49,2.787,3.8,3.8,0,0,0,.071,5.148.429.429,0,0,0,.758,5.4a4.1,4.1,0,0,0,1.087-1.98c.343-.9.575-1.847.913-2.756" transform="translate(31.966 109.512)" fill="#f5f5f5"/>
        <path id="패스_5752" data-name="패스 5752" d="M4.4.07a9.793,9.793,0,0,0-3.21,2.939C.5,4.033-.325,5.417.132,6.659A.5.5,0,0,0,.9,6.807c.822-.74,1.049-2.023,1.589-2.982A10.367,10.367,0,0,1,5.026.939C5.5.555,4.922-.24,4.4.07" transform="translate(25.138 107.295)" fill="#f5f5f5"/>
        <path id="패스_5753" data-name="패스 5753" d="M5.42.048C2.95,1.257-.236,4.12.014,7.169c.034.411.534.774.886.4C1.914,6.507,2.382,5.1,3.217,3.894A18.346,18.346,0,0,1,5.9.789.447.447,0,0,0,5.42.048" transform="translate(20.532 107.102)" fill="#f5f5f5"/>
        <path id="패스_5754" data-name="패스 5754" d="M2.9.192A17.017,17.017,0,0,0,1.05,2.952C.539,3.922-.252,5.2.078,6.316a.453.453,0,0,0,.729.257c.821-.594,1-1.689,1.39-2.586A19.72,19.72,0,0,1,3.868.92C4.246.348,3.336-.342,2.9.192" transform="translate(17.463 108.891)" fill="#f5f5f5"/>
        <path id="패스_5755" data-name="패스 5755" d="M1.585.294C1.228.9.888,1.515.572,2.149S-.194,3.494.091,4.208a.435.435,0,0,0,.576.214c.631-.346.728-1.041,1-1.667.284-.643.615-1.26.954-1.874A.6.6,0,0,0,1.585.294" transform="translate(13.137 112.919)" fill="#f5f5f5"/>
        <path id="패스_5756" data-name="패스 5756" d="M5.343.02A9.252,9.252,0,0,0,2.052,2.035C1.134,2.8-.1,3.866.006,5.158a.36.36,0,0,0,.407.311C1.439,5.227,2.121,4.19,2.8,3.445,3.692,2.468,4.826,1.773,5.74.833c.293-.3.092-.954-.4-.813" transform="translate(59.372 95.897)" fill="#f5f5f5"/>
        <path id="패스_5757" data-name="패스 5757" d="M5.121.037a12.6,12.6,0,0,0-3.133,1.4C1.155,1.953.059,2.818,0,3.861a.615.615,0,0,0,.765.587c.847-.207,1.588-1.11,2.288-1.626A9.779,9.779,0,0,1,5.663,1.509c.968-.339.42-1.754-.542-1.473" transform="translate(55.9 94.895)" fill="#f5f5f5"/>
        <path id="패스_5758" data-name="패스 5758" d="M6.483,0A8.6,8.6,0,0,0,2.508.911C1.444,1.45.133,2.227,0,3.528a.581.581,0,0,0,.713.565c1.026-.173,1.8-1.153,2.643-1.7A8.305,8.305,0,0,1,6.634,1.174C7.321,1.071,7.142,0,6.483,0" transform="translate(52.002 92.961)" fill="#f5f5f5"/>
        <path id="패스_5759" data-name="패스 5759" d="M5.248,0C3.418-.033.548.97.021,2.976a.581.581,0,0,0,.833.657,10.8,10.8,0,0,0,1.8-1.423A8.911,8.911,0,0,1,5.422.891C5.873.738,5.693.009,5.248,0" transform="translate(50.11 91.327)" fill="#f5f5f5"/>
        <path id="패스_5760" data-name="패스 5760" d="M4.713.007a8.084,8.084,0,0,0-2.8,1A5.152,5.152,0,0,0,.729,2.06a3.129,3.129,0,0,0-.7,1.46c-.18.639.582.932,1.022.579C2.4,3.024,3.3,1.525,4.912.719c.367-.181.236-.789-.2-.713" transform="translate(42.557 88.032)" fill="#f5f5f5"/>
        <path id="패스_5761" data-name="패스 5761" d="M5.821.014A6.265,6.265,0,0,0,2.456.869,4.288,4.288,0,0,0,.017,3.249a.591.591,0,0,0,.712.72,8.967,8.967,0,0,0,2.377-1.7A13.7,13.7,0,0,1,5.976.863.449.449,0,0,0,5.821.014" transform="translate(39.501 86.33)" fill="#f5f5f5"/>
        <path id="패스_5762" data-name="패스 5762" d="M5.565.009a10.9,10.9,0,0,0-3.6,1.508C1.192,2.021-.024,2.8,0,3.845a.512.512,0,0,0,.479.529C1.475,4.4,2.269,3.459,3,2.882,3.933,2.139,4.914,1.415,5.918.768c.368-.237.045-.848-.353-.759" transform="translate(37.547 82.837)" fill="#f5f5f5"/>
        <path id="패스_5763" data-name="패스 5763" d="M5.837.009A5.83,5.83,0,0,0,2.52,1.079C1.473,1.688.028,2.884,0,4.183a.519.519,0,0,0,.624.523C1.662,4.37,2.412,3.277,3.23,2.586,4.1,1.85,5.158,1.385,6,.615c.2-.182.161-.583-.159-.606" transform="translate(34.87 80.674)" fill="#f5f5f5"/>
        <path id="패스_5764" data-name="패스 5764" d="M5.881,0C3.541.186.225,1.528,0,4.259A.378.378,0,0,0,.607,4.6,23.539,23.539,0,0,0,2.7,2.706,8.116,8.116,0,0,1,5.969,1.021C6.514.887,6.485-.044,5.881,0" transform="translate(32.767 78.883)" fill="#f5f5f5"/>
        <path id="패스_5765" data-name="패스 5765" d="M4.617.011C2.643.617.6,3.087.019,5c-.129.435.424.864.775.51A30.374,30.374,0,0,0,2.864,2.9,16.992,16.992,0,0,0,4.923.347.248.248,0,0,0,4.617.011" transform="translate(25.082 74.787)" fill="#f5f5f5"/>
        <path id="패스_5766" data-name="패스 5766" d="M5.169.044C3.129,1.075-.745,4.009.126,6.72.215,7,.56,7,.76,6.869c.833-.538,1.207-1.693,1.682-2.537A10.87,10.87,0,0,1,5.647.785C6.061.49,5.609-.176,5.169.044" transform="translate(20.982 73.662)" fill="#f5f5f5"/>
        <path id="패스_5767" data-name="패스 5767" d="M4.286.131C2.669,1.509.25,3.617,0,5.875a.473.473,0,0,0,.776.384A6.781,6.781,0,0,0,2.332,4.293,23.849,23.849,0,0,1,4.963.875.5.5,0,0,0,4.286.131" transform="translate(16.866 74.794)" fill="#f5f5f5"/>
        <path id="패스_5768" data-name="패스 5768" d="M4.476.22Q3.1,1.765,1.724,3.308A6.563,6.563,0,0,0,.007,6.1a.307.307,0,0,0,.41.332A6.594,6.594,0,0,0,2.871,4.286l2.56-3.168C5.957.47,5.044-.417,4.476.22" transform="translate(12.249 76.235)" fill="#f5f5f5"/>
        <path id="패스_5769" data-name="패스 5769" d="M3.73.2c-1.382,1.37-3.1,3-3.709,4.884a.343.343,0,0,0,.521.4C2.243,4.5,3.341,2.5,4.684,1.1,5.271.486,4.329-.4,3.73.2" transform="translate(8.706 77.868)" fill="#f5f5f5"/>
        <path id="패스_5770" data-name="패스 5770" d="M4.046.029C2.538.629.457,1.8.017,3.5c-.117.45.4.939.83.655A9.367,9.367,0,0,0,2.393,2.56,12.151,12.151,0,0,1,4.507.755C4.938.474,4.476-.14,4.046.029" transform="translate(65.097 81.068)" fill="#f5f5f5"/>
        <path id="패스_5771" data-name="패스 5771" d="M5.375,0A7.872,7.872,0,0,0,2,1.093c-.79.486-2,1.288-2,2.318a.462.462,0,0,0,.539.482c.892-.167,1.544-1.073,2.282-1.57a16.333,16.333,0,0,1,2.81-1.5c.475-.194.211-.87-.256-.819" transform="translate(62.264 79.582)" fill="#f5f5f5"/>
        <path id="패스_5772" data-name="패스 5772" d="M5.271.009C3.528.28.667.829.03,2.751c-.155.468.322.789.729.729A8.217,8.217,0,0,0,3.125,2.286a11.244,11.244,0,0,1,2.423-.864c.8-.2.536-1.543-.278-1.412" transform="translate(59.727 77.449)" fill="#f5f5f5"/>
        <path id="패스_5773" data-name="패스 5773" d="M5.331.008A6.475,6.475,0,0,0,.3,2.015.947.947,0,0,0,1.516,3.469,37.588,37.588,0,0,1,5.486.854.448.448,0,0,0,5.331.008" transform="translate(57.928 74.776)" fill="#f5f5f5"/>
        <path id="패스_5774" data-name="패스 5774" d="M5.538.4A6.4,6.4,0,0,0,2.469.082C1.507.278.332.605.022,1.641a.61.61,0,0,0,.438.741c.807.187,1.481-.29,2.219-.554A7.385,7.385,0,0,1,5.358,1.26c.489.02.685-.719.181-.864" transform="translate(56.29 72.723)" fill="#f5f5f5"/>
        <path id="패스_5775" data-name="패스 5775" d="M3.066.1C1.992.8.594,1.594.033,2.786A.471.471,0,0,0,.567,3.4c1.21-.348,2.1-1.51,3.091-2.254.6-.448.07-1.466-.592-1.038" transform="translate(49.901 65.174)" fill="#f5f5f5"/>
        <path id="패스_5776" data-name="패스 5776" d="M3.088.137C2.51.585,1.925,1.03,1.345,1.475A3.288,3.288,0,0,0,.027,2.926.546.546,0,0,0,.665,3.6,3.357,3.357,0,0,0,2.253,2.538C2.814,2.025,3.36,1.5,3.912.971S3.669-.311,3.088.137" transform="translate(48.363 62.43)" fill="#f5f5f5"/>
        <path id="패스_5777" data-name="패스 5777" d="M4.425.019A10.934,10.934,0,0,0,.317,2.175.867.867,0,0,0,1.372,3.551c1.253-.826,2.233-2,3.434-2.9.36-.268,0-.758-.381-.636" transform="translate(45.889 60.511)" fill="#f5f5f5"/>
        <path id="패스_5778" data-name="패스 5778" d="M3.958.031A12.071,12.071,0,0,0,.279,2.2c-.713.593.084,1.813.8,1.213A13.282,13.282,0,0,1,4.42,1.148C5.057.882,4.605-.2,3.958.031" transform="translate(43.328 58.774)" fill="#f5f5f5"/>
        <path id="패스_5779" data-name="패스 5779" d="M5.644.015A10.862,10.862,0,0,0,.223,2.707c-.72.785.468,1.708,1.241,1.219,1.522-.959,2.846-2.219,4.4-3.154.353-.212.257-.88-.221-.757" transform="translate(41.181 55.753)" fill="#f5f5f5"/>
        <path id="패스_5780" data-name="패스 5780" d="M4.122.005A7.131,7.131,0,0,0,1.5,1.068C.777,1.5-.113,2.211.012,3.13a.539.539,0,0,0,.4.409c.816.135,1.336-.493,1.914-.971A27.691,27.691,0,0,1,4.534.833c.426-.285.014-.9-.412-.828" transform="translate(40.355 53.503)" fill="#f5f5f5"/>
        <path id="패스_5781" data-name="패스 5781" d="M3.748.031a6.237,6.237,0,0,0-2.475,1.6C.657,2.294-.246,3.452.062,4.4a.559.559,0,0,0,.794.361c.687-.43.916-1.271,1.4-1.9a9.86,9.86,0,0,1,2.057-2c.5-.355-.082-1-.566-.824" transform="translate(32.875 49.269)" fill="#f5f5f5"/>
        <path id="패스_5782" data-name="패스 5782" d="M5.523.024A9.668,9.668,0,0,0,1.612,2.471C.853,3.261-.37,4.624.107,5.795A.337.337,0,0,0,.464,6c1.145-.21,1.781-1.668,2.491-2.5A17.117,17.117,0,0,1,5.969.73c.412-.293-.026-.854-.446-.706" transform="translate(28.624 48.495)" fill="#f5f5f5"/>
        <path id="패스_5783" data-name="패스 5783" d="M6.273.05A15.377,15.377,0,0,0,2.125,2.656C1.207,3.457-.031,4.637,0,5.949c.005.312.325.633.65.444.962-.557,1.5-1.65,2.242-2.459A17.354,17.354,0,0,1,6.744.971.517.517,0,0,0,6.273.05" transform="translate(23.177 48.946)" fill="#f5f5f5"/>
        <path id="패스_5784" data-name="패스 5784" d="M4.792.093A22.925,22.925,0,0,0,1.635,2.712,4.51,4.51,0,0,0,0,5.337a.438.438,0,0,0,.614.431c.971-.338,1.574-1.309,2.221-2.061A28.5,28.5,0,0,1,5.489,1.023c.49-.437-.153-1.309-.7-.93" transform="translate(19.546 49.967)" fill="#f5f5f5"/>
        <path id="패스_5785" data-name="패스 5785" d="M2.145.15A10.1,10.1,0,0,0,.019,3.2c-.1.3.213.683.533.5,1.073-.593,1.665-1.958,2.4-2.894C3.319.347,2.535-.3,2.145.15" transform="translate(15.86 54.03)" fill="#f5f5f5"/>
        <path id="패스_5786" data-name="패스 5786" d="M17.281,7.325C12.911,3.47,6.065.936.393.006-.031-.065-.145.538.216.7,2.568,1.786,4.974,2.767,7.349,3.8,10.516,5.19,13.466,7.171,16.7,8.372c.587.216,1.03-.653.585-1.046" transform="translate(113.675 72.209)" fill="#f5f5f5"/>
        <path id="패스_5787" data-name="패스 5787" d="M10.826,6.575C10.1,4.922,7.443,3.823,5.969,2.958S2.01-.008.265.082A.024.024,0,0,0,.273.034C.132-.012-.044-.043.01.16.287,1.209,1,1.643,1.873,2.258c1.38.973,2.86,1.855,4.314,2.711,1.266.744,2.733,1.965,4.217,2.2a.427.427,0,0,0,.422-.6" transform="translate(108.49 72.859)" fill="#f5f5f5"/>
        <path id="패스_5788" data-name="패스 5788" d="M17.129,7.588C12.794,4.051,6.084.314.462,0,.064-.021-.193.537.185.767c2.6,1.579,5.628,2.452,8.4,3.716s5.334,2.87,8.118,4.06c.6.258.846-.615.43-.955" transform="translate(95.754 72.262)" fill="#f5f5f5"/>
        <path id="패스_5789" data-name="패스 5789" d="M17.577,4.24C12.478,1.777,6.339-.423.6.069-.055.124-.27,1.13.449,1.27,6.2,2.38,11.667,2.8,17.166,5.1c.5.208.9-.623.411-.859" transform="translate(85.386 74.447)" fill="#f5f5f5"/>
        <path id="패스_5790" data-name="패스 5790" d="M18.163,49.42c-.5-2.029-1.545-3.84-1.951-5.911a11.671,11.671,0,0,1-.048-3.78.462.462,0,0,0,.291-.487c-.03-.188-.08-.37-.114-.556a20.767,20.767,0,0,1,.623-2.377.611.611,0,0,0-1.121-.449c-.033.067-.064.139-.095.2-.46-1.789-1-3.558-1.55-5.327.22-.374.446-.748.686-1.108.548-.828-.61-1.828-1.211-1-.027.037-.056.081-.083.117-.3-1.006-.587-2.014-.847-3.034q.777-.869,1.6-1.69a.5.5,0,0,0-.677-.748c-.412.35-.829.722-1.24,1.106-.216-.955-.413-1.921-.55-2.9-.02-.147-.034-.292-.052-.438q1.022-.856,2.1-1.633c.756-.55-.018-1.739-.8-1.214-.472.318-.968.669-1.474,1.043a29.859,29.859,0,0,1-.033-3.644,26.186,26.186,0,0,1,3.6-1.909c.6-.257.193-1.276-.418-1.058a29.58,29.58,0,0,0-3.038,1.268q.142-1.269.4-2.512c2.189-.788,4.452-1.36,6.678-2.068.5-.158.528-.971-.072-.973a24.258,24.258,0,0,0-6.056.864c.206-.679.446-1.345.709-2.006,3.084-.657,6.242-.748,9.337-1.3a.447.447,0,0,0-.043-.882,31.835,31.835,0,0,0-8.336.064,23.843,23.843,0,0,1,1.347-2.3,44.357,44.357,0,0,1,9.828.453c.652.108.981-.874.3-1.012a55.232,55.232,0,0,0-8.911-1.111c.1-.129.2-.259.3-.388.341-.409-.322-.973-.7-.613-.334.322-.653.647-.956.978A25.467,25.467,0,0,0,4.872,3.157a.425.425,0,0,0,.244.8C8.21,3.544,11.159,3.139,14.1,2.9a20.125,20.125,0,0,0-1.573,2.475C8.02,6.205,3.6,7.9.81,10.527c-.364.34-.044,1.057.476.9,1.607-.486,3.135-1.088,4.657-1.7-.213.829-.385,1.683-.522,2.554A13.894,13.894,0,0,0,.036,17.788c-.168.35.289.725.609.551A39.4,39.4,0,0,0,5.1,15.32c-.057,1.051-.069,2.111-.02,3.18a19.626,19.626,0,0,0-2.706,3.271,24.293,24.293,0,0,1-.641-2.928c-.087-.582-.917-.4-.876.156a33.094,33.094,0,0,0,.606,4.326c-.1.194-.216.38-.308.578-.21.445.236.984.642.848A20.994,20.994,0,0,0,3.3,28.759,9.394,9.394,0,0,0,2.515,32.8a.449.449,0,0,0,.814.282A19.081,19.081,0,0,0,4.559,30.9a14.7,14.7,0,0,0,1.1,1.387.575.575,0,0,0,.889-.013,12.344,12.344,0,0,0-1.08,6.54.436.436,0,0,0,.835.074c.839-2.134,1.251-4.387,2.119-6.516.09-.223.2-.44.3-.659a21.258,21.258,0,0,0,1.862,2.771c-1.055,3.03-1.334,6.3.107,9.077a.531.531,0,0,0,.995-.224c.212-1.97-.058-3.944.158-5.934a14.844,14.844,0,0,1,.856-3.531,28.476,28.476,0,0,0,2.141,4.453c-1.3,4.052-1.276,9.037,2.151,11.872a.732.732,0,0,0,1.168-.776M9.791,16.846c-.01.53-.013,1.063,0,1.6.014.7.05,1.431.1,2.172a33.205,33.205,0,0,0-2.492,2.3,28.378,28.378,0,0,1-.732-3.364,33.755,33.755,0,0,1,3.126-2.708M6.931,9.338c1.478-.588,2.962-1.167,4.52-1.628q-.4,1.019-.693,2.081a27.138,27.138,0,0,0-4.2,1.82c.093-.76.22-1.518.369-2.274m-.575,5.076A23.744,23.744,0,0,1,9.2,12.651q.51-.262,1.03-.49c-.155.889-.265,1.8-.337,2.728A25.743,25.743,0,0,0,6.421,17.3a28.416,28.416,0,0,1-.065-2.889M2.933,23.543c.782-.9,1.562-1.784,2.36-2.621a32.268,32.268,0,0,0,.646,3.609A19.755,19.755,0,0,0,4.3,26.824a34.891,34.891,0,0,1-1.365-3.281m3.838,8.252a.656.656,0,0,0-.071-.37c-.438-.794-.859-1.575-1.269-2.355a24.861,24.861,0,0,1,1.169-2.2,27.579,27.579,0,0,0,1.194,3.042,18.863,18.863,0,0,0-1.023,1.888m2.429-3.9c-.423-.989-.826-1.989-1.188-3a25.086,25.086,0,0,1,2.055-2.264c.13,1.18.308,2.389.531,3.605q-.727.8-1.4,1.663m2.068,4.892c-.427-1.1-.894-2.19-1.367-3.277.327-.534.67-1.059,1.039-1.567.267,1.2.585,2.4.948,3.571-.22.414-.426.844-.62,1.274" transform="translate(71.514 78.033)" fill="#f5f5f5"/>
        <path id="패스_5791" data-name="패스 5791" d="M4.373,12.919C4.022,11.073,2.932,9.43,2.436,7.609A16.024,16.024,0,0,1,2.156.886.8.8,0,0,0,.582.641c-.99,3.9-1.122,10.566,2.933,12.93a.591.591,0,0,0,.859-.652" transform="translate(91.99 118.777)" fill="#f5f5f5"/>
        <path id="패스_5792" data-name="패스 5792" d="M4.681,7.845c-.5-1.035-1.56-1.8-2.129-2.84A7.339,7.339,0,0,1,1.8.936.857.857,0,0,0,.1.724a9.735,9.735,0,0,0,.539,4.9C1.143,6.92,2.51,8.648,3.953,8.89a.7.7,0,0,0,.728-1.045" transform="translate(98.163 125.323)" fill="#f5f5f5"/>
        <path id="패스_5793" data-name="패스 5793" d="M5.761,7.669C5.258,6.5,4.2,5.742,3.471,4.728A7.433,7.433,0,0,1,2.162,1.046C2.043-.329-.126-.36.006,1.022.264,3.726,2.031,8.479,5.437,8.3a.447.447,0,0,0,.324-.627" transform="translate(104.2 129.767)" fill="#f5f5f5"/>
        <path id="패스_5794" data-name="패스 5794" d="M3.194,3.636a1.236,1.236,0,0,0-.248-.582c-.208-.239-.382-.5-.567-.747A5.71,5.71,0,0,1,1.572.51.812.812,0,0,0,.011.884C.239,2.212.858,4.557,2.516,4.623a.765.765,0,0,0,.7-.829c.06.487-.01-.07-.019-.158" transform="translate(110.573 134.161)" fill="#f5f5f5"/>
      </g>
    </g>
  </g>
</svg>
