<svg xmlns="http://www.w3.org/2000/svg" xmlns:xlink="http://www.w3.org/1999/xlink" width="743" height="114.069" viewBox="0 0 743 114.069">
  <defs>
    <clipPath id="clip-path">
      <rect id="사각형_2568" data-name="사각형 2568" width="743" height="114.069" fill="none"/>
    </clipPath>
  </defs>
  <g id="logo" transform="translate(-22.35)">
    <g id="그룹_5740" data-name="그룹 5740" transform="translate(22.35 0)" clip-path="url(#clip-path)">
      <path id="패스_4961" data-name="패스 4961" d="M97.587,89.384c-.249,0-.4-.249-.435-.748a7.026,7.026,0,0,1,.063-1.623,4.925,4.925,0,0,1,.557-1.682,1.633,1.633,0,0,1,1.062-.938q1.623-.374,2.938-.748a7.905,7.905,0,0,0,2.31-1.063,4.583,4.583,0,0,0,1.555-1.871,8.755,8.755,0,0,0,.691-3.184,243.992,243.992,0,0,0,0-31.207c-.173-2.579-1.082-4.266-2.745-5.056a13.281,13.281,0,0,0-5.748-1.186c-.249,0-.4-.269-.435-.811a8.191,8.191,0,0,1,.064-1.747,5.772,5.772,0,0,1,.556-1.811,1.645,1.645,0,0,1,1.063-1c.832-.167,2.105-.438,3.808-.813s3.494-.809,5.369-1.309,3.661-1.04,5.37-1.625a14.925,14.925,0,0,0,3.929-1.872,1.505,1.505,0,0,1,.813-.125,4.554,4.554,0,0,1,1.433.249,4.419,4.419,0,0,1,1.313.688,1.3,1.3,0,0,1,.563,1.06v.563c0,.126-.019.416-.063.874s-.083,1.145-.122,2.061-.109,2.246-.192,3.992l-.121,2.247q-.125,2-.186,3.433a12.92,12.92,0,0,1-.441,2.809l.249.249c1.165-1.331,2.272-2.515,3.309-3.558s2.105-2.016,3.187-2.934q2.622-2.246,5.427-4.431A44.881,44.881,0,0,1,138.6,32.4a33.046,33.046,0,0,1,6.367-2.685,23.843,23.843,0,0,1,6.931-1q14.725,0,15.1,15.855.249,8.237.186,16.48t-.436,16.475a5.586,5.586,0,0,0,.564,3.184,5.113,5.113,0,0,0,1.8,1.871,7.26,7.26,0,0,0,2.624.938,19.069,19.069,0,0,0,3.123.249c.25,0,.39.291.436.874a10.666,10.666,0,0,1-.064,1.936,5.891,5.891,0,0,1-.557,1.932c-.294.583-.646.874-1.062.874H170.8q-1.814,0-4.058-.061c-1.5-.041-3.02-.063-4.556-.063h-4.307q-3.994,0-7.865.063t-6.489.061c-.25,0-.4-.249-.442-.748a7.467,7.467,0,0,1,.064-1.623,4.937,4.937,0,0,1,.564-1.682,1.606,1.606,0,0,1,1.062-.938q1.623-.374,2.867-.748a5.648,5.648,0,0,0,2.06-1.063,4.8,4.8,0,0,0,1.313-1.871,10.165,10.165,0,0,0,.627-3.184q.489-6.24.556-12.3t-.435-12.293a38.968,38.968,0,0,0-1.184-7.305,11.3,11.3,0,0,0-2-4.182,5.233,5.233,0,0,0-2.809-1.747,8.813,8.813,0,0,0-3.622,0q-3.369.628-9.113,4.37A61.878,61.878,0,0,0,121.3,54.433a153.05,153.05,0,0,0,0,23.092q.25,4,2.253,5.12a10.638,10.638,0,0,0,5.241,1.123c.25,0,.39.291.435.874a10.037,10.037,0,0,1-.063,1.936,5.893,5.893,0,0,1-.557,1.932c-.294.583-.646.874-1.062.874H124.8q-1.756,0-3.808-.061t-4.307-.063H112.44q-3.994,0-8.108.063t-6.745.061" transform="translate(5.378 1.59)" fill="#fff"/>
      <path id="패스_4962" data-name="패스 4962" d="M238.821,54.075q-.375,2.994-2.5,3.369Q224.97,59.2,214.17,60.563t-21.911,2.375a24.837,24.837,0,0,0,2.559,8.175,21.334,21.334,0,0,0,4.871,6.244,20.3,20.3,0,0,0,6.617,3.868,21.132,21.132,0,0,0,7.8,1.187,25.393,25.393,0,0,0,7.238-1.247,23.674,23.674,0,0,0,5.932-2.874,19.5,19.5,0,0,0,4.37-4.057,14.633,14.633,0,0,0,2.56-4.806c.077-.414.39-.5.934-.25a5.362,5.362,0,0,1,1.683,1.376,9.06,9.06,0,0,1,1.44,2.246,3.433,3.433,0,0,1,.307,2.247,15.43,15.43,0,0,1-2.745,5.493,24.415,24.415,0,0,1-5.677,5.367,35.291,35.291,0,0,1-8.491,4.246,38.115,38.115,0,0,1-11.174,2,36.191,36.191,0,0,1-12.728-1.436,28.791,28.791,0,0,1-10.176-5.43,27.672,27.672,0,0,1-6.931-8.8,30.7,30.7,0,0,1-3.117-11.672,33.136,33.136,0,0,1,1.747-14.169,32.611,32.611,0,0,1,6.867-11.359,33.462,33.462,0,0,1,10.611-7.616,37.647,37.647,0,0,1,25.592-1.811,26.031,26.031,0,0,1,9.483,5.12,20.5,20.5,0,0,1,5.74,8.239,23.2,23.2,0,0,1,1.249,10.861M220.973,50.2q3.869-.494,3.373-4.493a7.718,7.718,0,0,0-2.061-4.37,11.271,11.271,0,0,0-4.121-2.682,17.033,17.033,0,0,0-5.427-1.063,21.782,21.782,0,0,0-5.746.5,19.316,19.316,0,0,0-9.485,5.37,19.882,19.882,0,0,0-5.12,10.236q6.739-.624,14.1-1.436T220.973,50.2" transform="translate(9.822 1.573)" fill="#fff"/>
      <path id="패스_4963" data-name="패스 4963" d="M293.633,77.934c-.5.919-.871,1.562-1.12,1.937s-.544.77-.877,1.184q-4.992,6.742-10.112,9.487a29.064,29.064,0,0,1-10.111,3.373,27.1,27.1,0,0,1-9.925-.564,20.508,20.508,0,0,1-8.3-4.243,22.016,22.016,0,0,1-5.8-7.866,31.778,31.778,0,0,1-2.56-11.422,37.781,37.781,0,0,1,1.94-13.919,43.086,43.086,0,0,1,6.674-12.8,35.793,35.793,0,0,1,10.611-9.362,26.9,26.9,0,0,1,13.734-3.619,18.791,18.791,0,0,1,5.241.688,30.229,30.229,0,0,1,4.493,1.683,12.167,12.167,0,0,1,3.373,2.435,27.522,27.522,0,0,1,2.745,3.433l.249-.249a31.859,31.859,0,0,1-.87-7.491V19.638a6.322,6.322,0,0,0-.691-3.183,5.05,5.05,0,0,0-1.869-1.872,8.021,8.021,0,0,0-2.745-.937,20.548,20.548,0,0,0-3.187-.25c-.249,0-.4-.2-.435-.624a5.617,5.617,0,0,1,.063-1.433,3.83,3.83,0,0,1,.564-1.5,1.642,1.642,0,0,1,1.056-.809c.832-.167,2.105-.439,3.807-.813s3.494-.811,5.37-1.309,3.66-1.041,5.37-1.626a14.942,14.942,0,0,0,3.929-1.871,1.5,1.5,0,0,1,.813-.126,4.532,4.532,0,0,1,1.433.25,4.411,4.411,0,0,1,1.312.688,1.3,1.3,0,0,1,.564,1.059,1.762,1.762,0,0,1-.064.564,5.213,5.213,0,0,0-.121.874c-.045.457-.083,1.145-.128,2.06s-.064,2.247-.064,3.994V78.06c0,2.166.756,3.433,2.252,3.808a16.508,16.508,0,0,0,6.24-.061c.249,0,.391.208.435.624a5.43,5.43,0,0,1-.121,1.559,9.617,9.617,0,0,1-.627,1.936,4.932,4.932,0,0,1-.935,1.5,7.324,7.324,0,0,1-2.373,1.312,31.975,31.975,0,0,1-4.058,1.248,41.494,41.494,0,0,1-4.992.873,45.976,45.976,0,0,1-5.305.313q-3.243,0-4.37-2.06a12.953,12.953,0,0,1-1.12-6.055,10.383,10.383,0,0,1,.249-2.435c.167-.707.372-1.517.621-2.435Zm-16.85,4.371a21.724,21.724,0,0,0,8.428-3.683q4.55-3.057,7.8-9.676V60.333q0-3.994-.25-8.614A10.053,10.053,0,0,0,291.2,47.1a17.053,17.053,0,0,0-3.686-4.246,17.438,17.438,0,0,0-5.055-2.931,11.975,11.975,0,0,0-5.8-.688,16.1,16.1,0,0,0-7.238,2.435A19.884,19.884,0,0,0,263.8,47.1a24.362,24.362,0,0,0-3.559,7.866,29.614,29.614,0,0,0-.812,9.737q.624,9.862,5.055,14.417t12.3,3.184" transform="translate(13.552 0.182)" fill="#fff"/>
      <path id="패스_4964" data-name="패스 4964" d="M384.275,80.809c.249,0,.4.208.435.624a5.4,5.4,0,0,1-.121,1.559,9.472,9.472,0,0,1-.627,1.936,4.812,4.812,0,0,1-.935,1.5,7.277,7.277,0,0,1-2.31,1.312,24.764,24.764,0,0,1-3.929,1.184,48.775,48.775,0,0,1-4.934.813,45.985,45.985,0,0,1-5.305.313q-3.244,0-4.243-1.686a10.635,10.635,0,0,1-1.126-4.931,30.672,30.672,0,0,1,.063-4.307,27.138,27.138,0,0,1,.685-4.307l-.249-.249a37.849,37.849,0,0,1-2.8,3.619,38.163,38.163,0,0,1-3.436,3.373A49.074,49.074,0,0,1,343.517,89.8a25.737,25.737,0,0,1-10.546,2.37,13.441,13.441,0,0,1-10.3-4.556,15.008,15.008,0,0,1-2.809-4.745,16.151,16.151,0,0,1-1-5.68,15.12,15.12,0,0,1,3.558-9.923,35.474,35.474,0,0,1,9.485-7.8A87.293,87.293,0,0,1,345.456,53.1q7.613-2.87,15.852-5.743a8.4,8.4,0,0,0-1-4.617,9,9,0,0,0-3.123-3.248,13.455,13.455,0,0,0-4.806-1.747,20.852,20.852,0,0,0-6.054-.125,19.366,19.366,0,0,0-5.305,1.187,13.408,13.408,0,0,0-4.121,2.432,7.638,7.638,0,0,0-2.3,3.622,9.012,9.012,0,0,0,0,4.742c.077.419-.564.771-1.94,1.063a12.766,12.766,0,0,1-4.556.06,9.458,9.458,0,0,1-4.493-1.932q-2-1.559-1.625-4.806a5.649,5.649,0,0,1,1.875-3.5,27.385,27.385,0,0,1,4.307-3.433,48.2,48.2,0,0,1,5.676-3.181q3.12-1.5,6.118-2.624t5.619-1.871a39.773,39.773,0,0,1,4.121-1,38.034,38.034,0,0,1,9.733,0,24.735,24.735,0,0,1,8.678,2.684,16.229,16.229,0,0,1,6.054,5.555,13.945,13.945,0,0,1,1.875,8.738q-.633,7.861-.691,15.855t.441,15.852q.25,3.248,2.368,3.808a15.813,15.813,0,0,0,6.118-.061m-44.438-.624a21.5,21.5,0,0,0,9.926-3.5,84.126,84.126,0,0,0,11.3-8.488l.121-14.979q-14.976,5.241-21.656,9.862t-6.682,9.861q0,3.992,2.189,5.74a6.459,6.459,0,0,0,4.806,1.5" transform="translate(17.654 1.554)" fill="#fff"/>
      <path id="패스_4965" data-name="패스 4965" d="M399.038,112.46q-5.241,0-8.242-2a7.873,7.873,0,0,1-3.616-4.869,5.961,5.961,0,0,1,1.312-5.305,14.041,14.041,0,0,1,4.556-3.619,13.446,13.446,0,0,1,4.743-1.5c1.414-.126,2.035.227,1.868,1.059-.083.416-.166.938-.249,1.562A3.782,3.782,0,0,0,399.6,99.6a3.231,3.231,0,0,0,1.12,1.5,3.966,3.966,0,0,0,2.438.624,13.122,13.122,0,0,0,3.3-.438,10.133,10.133,0,0,0,3.5-1.808,19.666,19.666,0,0,0,3.616-3.748,40.219,40.219,0,0,0,3.808-6.367q-7.238-12.479-13.477-24.216T391.673,41.553a17.162,17.162,0,0,0-3.744-5.43,5.824,5.824,0,0,0-3.743-1.433q-.375,0-.441-.749a7.429,7.429,0,0,1,.063-1.625,4.4,4.4,0,0,1,.564-1.622,1.239,1.239,0,0,1,1.062-.748q2,0,4.992.125t6.989.125q2.246,0,5.183-.061t5.741-.063c1.874,0,3.6-.019,5.183-.061s2.83-.063,3.745-.063q.249,0,.249.813a11.143,11.143,0,0,1-.186,1.871,10.647,10.647,0,0,1-.5,1.872c-.211.544-.479.813-.813.813a22.485,22.485,0,0,0-3.309.25,8.973,8.973,0,0,0-2.873.873,3.245,3.245,0,0,0-1.62,1.937,4.663,4.663,0,0,0,.436,3.305q3.244,7.866,7.43,15.918a169.393,169.393,0,0,0,9.42,15.916h.249q4.618-8.615,7.929-16.354T439.6,41.553a4.279,4.279,0,0,0-.057-3.305,5.294,5.294,0,0,0-2.125-2.124A10.133,10.133,0,0,0,434.115,35a21.685,21.685,0,0,0-3.494-.31q-.25,0-.25-.749a10.733,10.733,0,0,1,.129-1.625,5.087,5.087,0,0,1,.5-1.622c.249-.5.537-.748.87-.748q2,0,5.99.063t9.241.061a53.7,53.7,0,0,0,5.619-.25q2.371-.249,4.992-.748c.166,0,.268.249.313.748a13.336,13.336,0,0,1,0,1.748,7.057,7.057,0,0,1-.378,1.874c-.2.583-.48.916-.813,1a12.839,12.839,0,0,0-1.746.56,4.5,4.5,0,0,0-1.434,1,10.94,10.94,0,0,0-1.433,1.875c-.5.789-1.088,1.808-1.747,3.055q-3.628,7.242-6.995,13.983t-6.738,13.3q-3.37,6.551-6.745,13.107T423,94.733q-1,1.873-2,3.808a30.368,30.368,0,0,1-2.246,3.683,24.679,24.679,0,0,1-9.549,7.74,25.088,25.088,0,0,1-10.175,2.5" transform="translate(21.245 1.61)" fill="#fff"/>
      <path id="패스_4966" data-name="패스 4966" d="M488.524,92.152a35.306,35.306,0,0,1-12.607-1.436,27.705,27.705,0,0,1-9.926-5.43,27.024,27.024,0,0,1-6.674-8.8,32.223,32.223,0,0,1-3-11.672,35.629,35.629,0,0,1,1.556-14.233A33.068,33.068,0,0,1,464.308,39.1a30.851,30.851,0,0,1,10.175-7.676A32.536,32.536,0,0,1,487.4,28.362a41.649,41.649,0,0,1,10.047.874,33.894,33.894,0,0,1,7.865,2.745,20.857,20.857,0,0,1,5.741,4.182,22.845,22.845,0,0,1,3.685,5.055,4.012,4.012,0,0,1,.436,3.373,6.048,6.048,0,0,1-2,2.62,13.476,13.476,0,0,1-3.309,1.872,18.824,18.824,0,0,1-3.559,1.062,16.17,16.17,0,0,1-2.873.31c-.787,0-1.184-.163-1.184-.5a10.771,10.771,0,0,0-1.433-5.929,12.407,12.407,0,0,0-4.307-4.367,16.112,16.112,0,0,0-6.182-2.186,17.052,17.052,0,0,0-7.052.5A15.116,15.116,0,0,0,473.3,45.9q-3.253,6.182-1.874,16.044t6.931,15.167q5.549,5.3,14.168,5.055,7.861-.249,12.664-3.932a17.77,17.77,0,0,0,6.431-8.8c.083-.414.4-.5.935-.25a5.616,5.616,0,0,1,1.688,1.312,7.893,7.893,0,0,1,1.434,2.186,3.71,3.71,0,0,1,.314,2.371,15.872,15.872,0,0,1-2.688,5.493,24,24,0,0,1-5.491,5.367,33.507,33.507,0,0,1-8.236,4.246,36.82,36.82,0,0,1-11.052,2" transform="translate(25.256 1.569)" fill="#fff"/>
      <path id="패스_4967" data-name="패스 4967" d="M553.972,92.153a36.146,36.146,0,0,1-12.8-1.686,30.042,30.042,0,0,1-10.11-5.616,27.417,27.417,0,0,1-6.861-8.927,31.933,31.933,0,0,1-3.058-11.734A34.843,34.843,0,0,1,522.7,50.083a31.959,31.959,0,0,1,6.431-11.234A30.941,30.941,0,0,1,539.3,31.358a33.28,33.28,0,0,1,12.92-3,36.174,36.174,0,0,1,12.729,1.686A30.363,30.363,0,0,1,575.129,35.6,26.742,26.742,0,0,1,582,44.467,32.08,32.08,0,0,1,585.055,56.2a35.26,35.26,0,0,1-1.562,14.229,31.8,31.8,0,0,1-6.425,11.238,30.829,30.829,0,0,1-10.239,7.487,33.538,33.538,0,0,1-12.857,3m3.622-9.737a13.929,13.929,0,0,0,10.86-7.43q3.37-6.3,2-15.541a34.476,34.476,0,0,0-2.688-9.488,23.384,23.384,0,0,0-4.863-7.112,17.979,17.979,0,0,0-6.682-4.182,16.98,16.98,0,0,0-8.115-.688,15.125,15.125,0,0,0-6.431,2.56,13.668,13.668,0,0,0-4.243,5.055,21.985,21.985,0,0,0-2.061,7.116,30.34,30.34,0,0,0,.25,8.614,36.061,36.061,0,0,0,2.624,9.487,22.359,22.359,0,0,0,4.742,7.053,17.184,17.184,0,0,0,6.554,4.057,16.245,16.245,0,0,0,8.057.5" transform="translate(28.845 1.569)" fill="#fff"/>
      <path id="패스_4968" data-name="패스 4968" d="M627.889,39.083q-3.245.628-7.365,4.682a54.527,54.527,0,0,0-8.115,10.674,152.822,152.822,0,0,0,0,23.092,7.957,7.957,0,0,0,.749,3.184,4.333,4.333,0,0,0,2,1.872,11.073,11.073,0,0,0,3.744.937,58.955,58.955,0,0,0,5.99.249c.25,0,.4.291.435.874a10.525,10.525,0,0,1-.057,1.936,5.908,5.908,0,0,1-.563,1.933c-.294.582-.646.873-1.062.873l-18.725-.125h-4.243q-2.247,0-4.493.064c-1.5.041-2.918.06-4.249.06h-3.245c-.249,0-.4-.249-.435-.748a7.083,7.083,0,0,1,.064-1.622,4.9,4.9,0,0,1,.556-1.683,1.632,1.632,0,0,1,1.063-.937q1.623-.375,3-.749a6.892,6.892,0,0,0,2.31-1.062,4.734,4.734,0,0,0,1.5-1.872,8.752,8.752,0,0,0,.69-3.184,249.822,249.822,0,0,0,0-31.582c-.172-2.662-1.081-4.37-2.745-5.12a13.92,13.92,0,0,0-5.746-1.123c-.25,0-.4-.268-.436-.809a8.883,8.883,0,0,1,.064-1.811,5.207,5.207,0,0,1,.557-1.811,1.635,1.635,0,0,1,1.062-.934q1.623-.25,4.25-.813t5.3-1.312c1.786-.5,3.494-1.037,5.113-1.623a15.128,15.128,0,0,0,3.808-1.871,1.471,1.471,0,0,1,.813-.126,4.533,4.533,0,0,1,1.433.25,4.418,4.418,0,0,1,1.312.688,1.293,1.293,0,0,1,.562,1.059,1.816,1.816,0,0,1-.063.564,5.426,5.426,0,0,0-.121.934c-.046.5-.109,1.229-.193,2.186s-.122,2.352-.122,4.182q0,3.248-.128,4.745a13.332,13.332,0,0,1-.87,3.494l.37.249a11.6,11.6,0,0,1,1.063-2.246c.378-.583,1.062-1.5,2.06-2.748a46.124,46.124,0,0,1,7.8-7.488,28.649,28.649,0,0,1,9.178-4.871,17.929,17.929,0,0,1,5.183-.748,13.045,13.045,0,0,1,4.864.874,8.388,8.388,0,0,1,3.558,2.62,7.493,7.493,0,0,1,1.376,4.745,7.547,7.547,0,0,1-2.124,5.68A12.624,12.624,0,0,1,640,45.7a10.864,10.864,0,0,1-4.557.685c-1.369-.125-1.977-.518-1.8-1.184.41-2.164,0-3.827-1.247-5a4.648,4.648,0,0,0-4.5-1.123" transform="translate(32.568 1.583)" fill="#fff"/>
      <path id="패스_4969" data-name="패스 4969" d="M707.1,54.075q-.375,2.994-2.5,3.369-11.355,1.752-22.155,3.12t-21.912,2.375a24.814,24.814,0,0,0,2.559,8.175,21.33,21.33,0,0,0,4.87,6.244,20.3,20.3,0,0,0,6.617,3.868,21.132,21.132,0,0,0,7.8,1.187,25.392,25.392,0,0,0,7.238-1.247,23.672,23.672,0,0,0,5.932-2.874,19.5,19.5,0,0,0,4.37-4.057,14.632,14.632,0,0,0,2.56-4.806c.077-.414.391-.5.934-.25a5.365,5.365,0,0,1,1.683,1.376,9.054,9.054,0,0,1,1.44,2.246,3.434,3.434,0,0,1,.307,2.247,15.433,15.433,0,0,1-2.745,5.493,24.415,24.415,0,0,1-5.677,5.367,35.289,35.289,0,0,1-8.491,4.246,38.115,38.115,0,0,1-11.174,2,36.19,36.19,0,0,1-12.728-1.436,28.789,28.789,0,0,1-10.176-5.43,27.674,27.674,0,0,1-6.931-8.8,30.7,30.7,0,0,1-3.116-11.672,33.134,33.134,0,0,1,1.747-14.169,32.607,32.607,0,0,1,6.867-11.359,33.462,33.462,0,0,1,10.611-7.616,37.647,37.647,0,0,1,25.592-1.811,26.04,26.04,0,0,1,9.483,5.12,20.5,20.5,0,0,1,5.74,8.239A23.2,23.2,0,0,1,707.1,54.075M689.248,50.2q3.869-.494,3.373-4.493a7.718,7.718,0,0,0-2.061-4.37,11.272,11.272,0,0,0-4.121-2.682,17.033,17.033,0,0,0-5.427-1.063,21.781,21.781,0,0,0-5.746.5,19.317,19.317,0,0,0-9.485,5.37,19.883,19.883,0,0,0-5.12,10.236q6.739-.624,14.1-1.436T689.248,50.2" transform="translate(35.748 1.573)" fill="#fff"/>
      <path id="패스_4970" data-name="패스 4970" d="M87.709,49.5a45.846,45.846,0,0,0-.863-5.955A31.03,31.03,0,0,1,67.2,51.106c.194.927.371,1.868.511,2.841q1.879,12.652-2.734,21.28T50.108,85.4a22.242,22.242,0,0,1-11.033-.683A23.529,23.529,0,0,1,30.1,79.162,30.583,30.583,0,0,1,23.608,69.5a49.347,49.347,0,0,1-3.592-12.99,41.492,41.492,0,0,1-.342-11.8A30.052,30.052,0,0,1,22.5,34.975,18.74,18.74,0,0,1,28.3,28.052a20.7,20.7,0,0,1,8.807-3.506c.492-.07.967-.088,1.447-.125.615-5.351,3.811-9.883,7.217-12.93.035-.031.075-.058.11-.089-1.033-.027-2.066-.057-3.129-.018a45.554,45.554,0,0,0-17.693,4.1A42.394,42.394,0,0,0,11.13,25.743,43.773,43.773,0,0,0,2.323,41.126,47.742,47.742,0,0,0,.194,60.445,43.73,43.73,0,0,0,4.383,76.512a37.545,37.545,0,0,0,9.394,12.224,41.153,41.153,0,0,0,13.845,7.688,49.5,49.5,0,0,0,17.525,2.31,45.934,45.934,0,0,0,17.606-4.106A42.224,42.224,0,0,0,76.774,84.376a43.558,43.558,0,0,0,8.8-15.388A48.288,48.288,0,0,0,87.709,49.5" transform="translate(0 0.629)" fill="#fff"/>
      <path id="패스_4971" data-name="패스 4971" d="M90.2,4.831c-10,6.269-24.178,3.723-33.629,8.194C50.1,16.089,43.047,22.786,45.009,33.3c7.6-20.078,29.367-16.652,29.367-16.652a37.423,37.423,0,0,0-22.125,12.4,32.571,32.571,0,0,0-5.7,9.18,34.23,34.23,0,0,0-2.746,14.488l.033,0,.712.069v-.005l1.332.119A25.228,25.228,0,0,1,47.629,41.22a18.882,18.882,0,0,0,5.1,1.753,30.825,30.825,0,0,0,25.1-5.775C85.909,31.016,94.783,19.716,94.407,0c.039,2.045-2.771,3.933-4.2,4.831" transform="translate(2.424 0)" fill="#fff"/>
    </g>
  </g>
</svg>
