<svg xmlns="http://www.w3.org/2000/svg" width="343" height="1038" viewBox="0 0 343 1038">
  <g id="그룹_61391" data-name="그룹 61391" transform="translate(-279 -4084)">
    <g id="타원_625" data-name="타원 625" transform="translate(336 4084)" fill="none" stroke="#fff" stroke-width="2" opacity="0.5">
      <circle cx="115" cy="115" r="115" stroke="none"/>
      <circle cx="115" cy="115" r="114" fill="none"/>
    </g>
    <g id="그룹_7484" data-name="그룹 7484" transform="translate(263 5)">
      <g id="사각형_3413" data-name="사각형 3413" transform="translate(16 4375)" fill="none" stroke="#fff" stroke-width="1">
        <rect width="343" height="130" rx="65" stroke="none"/>
        <rect x="0.5" y="0.5" width="342" height="129" rx="64.5" fill="none"/>
      </g>
      <text id="까다로운_공정을_거친" data-name="까다로운
공정을 거친" transform="translate(108.5 4434)" fill="#fff" font-size="17" font-family="Pretendard-Medium, Pretendard" font-weight="500" letter-spacing="-0.03em"><tspan x="-28.611" y="0">까다로운</tspan><tspan x="-37.519" y="25">공정을 거친</tspan></text>
      <text id="Reliable" transform="translate(268.5 4446)" fill="#fff" font-size="17" font-family="Pretendard-Regular, Pretendard"><tspan x="-29.665" y="0">Reliable</tspan></text>
      <line id="선_891" data-name="선 891" y2="64" transform="translate(187.5 4408.5)" fill="none" stroke="#fff" stroke-width="1" opacity="0.2"/>
    </g>
    <g id="그룹_7483" data-name="그룹 7483" transform="translate(263 2)">
      <g id="사각형_3414" data-name="사각형 3414" transform="translate(16 4528)" fill="none" stroke="#fff" stroke-width="1">
        <rect width="343" height="130" rx="65" stroke="none"/>
        <rect x="0.5" y="0.5" width="342" height="129" rx="64.5" fill="none"/>
      </g>
      <text id="활력을_불어넣어주는" data-name="활력을
불어넣어주는" transform="translate(108.5 4587)" fill="#fff" font-size="17" font-family="Pretendard-Medium, Pretendard" font-weight="500" letter-spacing="-0.03em"><tspan x="-21.522" y="0">활력을</tspan><tspan x="-42.789" y="25">불어넣어주는</tspan></text>
      <text id="Energizing" transform="translate(268.5 4599)" fill="#fff" font-size="17" font-family="Pretendard-Regular, Pretendard"><tspan x="-39.738" y="0">Energizing</tspan></text>
      <line id="선_892" data-name="선 892" y2="64" transform="translate(187.5 4561.5)" fill="none" stroke="#fff" stroke-width="1" opacity="0.2"/>
    </g>
    <g id="그룹_7482" data-name="그룹 7482" transform="translate(263 5)">
      <g id="사각형_3415" data-name="사각형 3415" transform="translate(16 4675)" fill="none" stroke="#fff" stroke-width="1">
        <rect width="343" height="130" rx="65" stroke="none"/>
        <rect x="0.5" y="0.5" width="342" height="129" rx="64.5" fill="none"/>
      </g>
      <text id="좋은_원료를_사용하는" data-name="좋은 원료를
사용하는" transform="translate(108.5 4734)" fill="#fff" font-size="17" font-family="Pretendard-Medium, Pretendard" font-weight="500" letter-spacing="-0.03em"><tspan x="-37.519" y="0">좋은 원료를</tspan><tspan x="-28.611" y="25">사용하는</tspan></text>
      <text id="Good_Ingredient" data-name="Good Ingredient" transform="translate(268.5 4746)" fill="#fff" font-size="17" font-family="Pretendard-Regular, Pretendard"><tspan x="-61.243" y="0">Good Ingredient</tspan></text>
      <line id="선_893" data-name="선 893" y2="64" transform="translate(187.5 4708.5)" fill="none" stroke="#fff" stroke-width="1" opacity="0.2"/>
    </g>
    <g id="타원_626" data-name="타원 626" transform="translate(336 4892)" fill="#fff" stroke="#fff" stroke-width="2">
      <circle cx="115" cy="115" r="115" stroke="none"/>
      <circle cx="115" cy="115" r="114" fill="none"/>
    </g>
    <text id="원데이코어는_고객의_건강한_삶의_밸런스를_위해" data-name="원데이코어는
고객의 건강한
삶의 밸런스를 위해" transform="translate(451 4179)" fill="#fff" font-size="19" font-family="Pretendard-Light, Pretendard" font-weight="300" letter-spacing="-0.03em"><tspan x="-47.823" y="0">원데이코어는</tspan><tspan x="-49.837" y="27">고객의 </tspan><tspan y="27" font-family="Pretendard-Bold, Pretendard" font-weight="700">건강한</tspan><tspan font-family="Pretendard-Bold, Pretendard" font-weight="700"><tspan x="-67.469" y="54">삶의 밸런스를 위해</tspan></tspan></text>
    <path id="btn_prev" d="M0,0,6,6l6-6" transform="translate(444.5 4344.5)" fill="none" stroke="#fff" stroke-miterlimit="10" stroke-width="2"/>
    <path id="btn_prev-2" data-name="btn_prev" d="M0,0,6,6l6-6" transform="translate(444.5 4850.5)" fill="none" stroke="#fff" stroke-miterlimit="10" stroke-width="2"/>
    <text id="믿음직한_건강기능식품을_만듭니다." data-name="믿음직한
건강기능식품을
만듭니다." transform="translate(451 4987)" fill="#0b2817" font-size="19" font-family="Pretendard-Bold, Pretendard" font-weight="700" letter-spacing="-0.03em"><tspan x="-31.977" y="0">믿음직한</tspan><tspan x="-55.746" y="27">건강기능식품</tspan><tspan y="27" font-family="Pretendard-Light, Pretendard" font-weight="300">을</tspan><tspan font-family="Pretendard-Light, Pretendard" font-weight="300"><tspan x="-34.029" y="54">만듭니다.</tspan></tspan></text>
  </g>
</svg>
