<svg xmlns="http://www.w3.org/2000/svg" xmlns:xlink="http://www.w3.org/1999/xlink" width="343" height="597" viewBox="0 0 343 597">
  <defs>
    <clipPath id="clip-path">
      <rect id="사각형_3434" data-name="사각형 3434" width="164.763" height="25.295" fill="none"/>
    </clipPath>
  </defs>
  <g id="그룹_61390" data-name="그룹 61390" transform="translate(-16 -2375)">
    <g id="사각형_3430" data-name="사각형 3430" transform="translate(16 2536)" fill="none" stroke="#fff" stroke-width="1">
      <rect width="343" height="108" rx="19" stroke="none"/>
      <rect x="0.5" y="0.5" width="342" height="107" rx="18.5" fill="none"/>
    </g>
    <g id="사각형_3433" data-name="사각형 3433" transform="translate(16 2375)" fill="#fff" stroke="#fff" stroke-width="1">
      <rect width="343" height="108" rx="19" stroke="none"/>
      <rect x="0.5" y="0.5" width="342" height="107" rx="18.5" fill="none"/>
    </g>
    <g id="사각형_3431" data-name="사각형 3431" transform="translate(16 2697)" fill="none" stroke="#fff" stroke-width="1">
      <rect width="343" height="108" rx="19" stroke="none"/>
      <rect x="0.5" y="0.5" width="342" height="107" rx="18.5" fill="none"/>
    </g>
    <g id="사각형_3432" data-name="사각형 3432" transform="translate(16 2864)" fill="none" stroke="#fff" stroke-width="1">
      <rect width="343" height="108" rx="19" stroke="none"/>
      <rect x="0.5" y="0.5" width="342" height="107" rx="18.5" fill="none"/>
    </g>
    <path id="btn_prev" d="M0,0,6,6l6-6" transform="translate(181.5 2667.5)" fill="none" stroke="#fff" stroke-miterlimit="10" stroke-width="2"/>
    <path id="btn_prev-2" data-name="btn_prev" d="M0,0,6,6l6-6" transform="translate(181.5 2506.5)" fill="none" stroke="#fff" stroke-miterlimit="10" stroke-width="2"/>
    <text id="Brand_Definition" data-name="Brand Definition" transform="translate(188 2583)" fill="#fff" font-size="20" font-family="Pretendard-Bold, Pretendard" font-weight="700"><tspan x="-75.81" y="0">Brand Definition</tspan></text>
    <text id="브랜드_정의" data-name="브랜드 정의" transform="translate(156 2610)" fill="#fff" font-size="16" font-family="Pretendard-Light, Pretendard" font-weight="300" letter-spacing="-0.03em" opacity="0.5"><tspan x="0" y="0">브랜드 정의</tspan></text>
    <text id="Brand_Design_Essence" data-name="Brand Design Essence" transform="translate(188 2744)" fill="#fff" font-size="20" font-family="Pretendard-Bold, Pretendard" font-weight="700"><tspan x="-104.89" y="0">Brand Design Essence</tspan></text>
    <text id="브랜드_디자인_에센스" data-name="브랜드 디자인 에센스" transform="translate(125 2771)" fill="#fff" font-size="16" font-family="Pretendard-Light, Pretendard" font-weight="300" letter-spacing="-0.03em" opacity="0.5"><tspan x="0" y="0">브랜드 디자인 에센스</tspan></text>
    <text id="Brand_Design_Application" data-name="Brand Design Application" transform="translate(188 2911)" fill="#fff" font-size="20" font-family="Pretendard-Bold, Pretendard" font-weight="700"><tspan x="-119.03" y="0">Brand Design Application</tspan></text>
    <text id="브랜드_디자인_어플리케이션" data-name="브랜드 디자인 어플리케이션" transform="translate(105 2938)" fill="#fff" font-size="16" font-family="Pretendard-Light, Pretendard" font-weight="300" letter-spacing="-0.03em" opacity="0.5"><tspan x="0" y="0">브랜드 디자인 어플리케이션</tspan></text>
    <g id="그룹_5752" data-name="그룹 5752" transform="translate(-1080.25 -131.5)">
      <line id="선_856" data-name="선 856" x2="12.5" transform="translate(1261.5 2965.75)" fill="none" stroke="#fff" stroke-width="2"/>
      <line id="선_857" data-name="선 857" y1="12.5" transform="translate(1267.75 2959.5)" fill="none" stroke="#fff" stroke-width="2"/>
    </g>
    <g id="그룹_7493" data-name="그룹 7493" transform="translate(106 2416)" clip-path="url(#clip-path)">
      <path id="패스_8789" data-name="패스 8789" d="M97.231,42.169c-.055,0-.088-.055-.1-.166a1.558,1.558,0,0,1,.014-.36,1.093,1.093,0,0,1,.124-.373.362.362,0,0,1,.235-.208q.36-.083.652-.166a1.753,1.753,0,0,0,.512-.236,1.016,1.016,0,0,0,.345-.415,1.941,1.941,0,0,0,.153-.706,54.1,54.1,0,0,0,0-6.92,1.209,1.209,0,0,0-.609-1.121,2.945,2.945,0,0,0-1.275-.263c-.055,0-.088-.06-.1-.18a1.816,1.816,0,0,1,.014-.387,1.28,1.28,0,0,1,.123-.4.365.365,0,0,1,.236-.221c.184-.037.467-.1.844-.18s.775-.18,1.191-.29.812-.231,1.191-.36a3.31,3.31,0,0,0,.871-.415.334.334,0,0,1,.18-.028,1.01,1.01,0,0,1,.318.055.98.98,0,0,1,.291.153.288.288,0,0,1,.125.235v.125c0,.028,0,.092-.014.194s-.018.254-.027.457-.024.5-.043.885l-.027.5q-.028.444-.041.761a2.866,2.866,0,0,1-.1.623l.055.055c.258-.3.5-.558.734-.789s.467-.447.707-.651q.581-.5,1.2-.983a9.952,9.952,0,0,1,1.3-.858,7.328,7.328,0,0,1,1.412-.6,5.287,5.287,0,0,1,1.537-.221q3.265,0,3.349,3.516.055,1.826.041,3.654t-.1,3.653a1.239,1.239,0,0,0,.125.706,1.134,1.134,0,0,0,.4.415,1.61,1.61,0,0,0,.582.208,4.229,4.229,0,0,0,.692.055c.055,0,.087.065.1.194a2.368,2.368,0,0,1-.014.429,1.307,1.307,0,0,1-.124.429c-.065.129-.143.194-.235.194h-.623q-.4,0-.9-.014c-.332-.009-.67-.014-1.01-.014H110.6q-.886,0-1.744.014t-1.439.014c-.055,0-.088-.055-.1-.166a1.656,1.656,0,0,1,.014-.36,1.1,1.1,0,0,1,.125-.373.356.356,0,0,1,.235-.208q.36-.083.636-.166a1.252,1.252,0,0,0,.457-.236,1.064,1.064,0,0,0,.291-.415,2.254,2.254,0,0,0,.139-.706q.108-1.384.123-2.727t-.1-2.726a8.642,8.642,0,0,0-.263-1.62,2.505,2.505,0,0,0-.443-.927,1.16,1.16,0,0,0-.623-.387,1.954,1.954,0,0,0-.8,0,6.2,6.2,0,0,0-2.021.969,13.722,13.722,0,0,0-2.6,2.3,33.94,33.94,0,0,0,0,5.121q.055.886.5,1.135a2.359,2.359,0,0,0,1.162.249c.055,0,.087.065.1.194a2.226,2.226,0,0,1-.014.429,1.307,1.307,0,0,1-.124.429c-.065.129-.143.194-.235.194h-.609q-.389,0-.844-.014t-.955-.014h-.942q-.886,0-1.8.014t-1.5.014" transform="translate(-74.399 -21.996)" fill="#0b2817"/>
      <path id="패스_8790" data-name="패스 8790" d="M191.021,34.107q-.083.664-.553.747-2.518.389-4.913.692t-4.859.527a5.508,5.508,0,0,0,.568,1.813,4.731,4.731,0,0,0,1.08,1.385,4.5,4.5,0,0,0,1.467.858,4.686,4.686,0,0,0,1.73.263,5.631,5.631,0,0,0,1.6-.277,5.25,5.25,0,0,0,1.315-.637,4.323,4.323,0,0,0,.969-.9A3.245,3.245,0,0,0,190,37.511c.017-.092.087-.111.207-.055a1.189,1.189,0,0,1,.373.305,2.01,2.01,0,0,1,.319.5.761.761,0,0,1,.068.5,3.421,3.421,0,0,1-.609,1.218,5.415,5.415,0,0,1-1.259,1.19,7.826,7.826,0,0,1-1.883.942,8.452,8.452,0,0,1-2.478.443,8.025,8.025,0,0,1-2.822-.319,6.384,6.384,0,0,1-2.257-1.2,6.136,6.136,0,0,1-1.537-1.951,6.809,6.809,0,0,1-.691-2.588,7.349,7.349,0,0,1,.387-3.142,7.232,7.232,0,0,1,1.523-2.519,7.42,7.42,0,0,1,2.353-1.689,8.348,8.348,0,0,1,5.675-.4,5.773,5.773,0,0,1,2.1,1.135,4.547,4.547,0,0,1,1.273,1.827,5.145,5.145,0,0,1,.277,2.408m-3.958-.859a.781.781,0,0,0,.748-1,1.712,1.712,0,0,0-.457-.969,2.5,2.5,0,0,0-.914-.595,3.777,3.777,0,0,0-1.2-.236,4.83,4.83,0,0,0-1.274.111,4.284,4.284,0,0,0-2.1,1.191,4.409,4.409,0,0,0-1.135,2.27q1.494-.138,3.128-.319t3.211-.457" transform="translate(-135.883 -21.767)" fill="#0b2817"/>
      <path id="패스_8791" data-name="패스 8791" d="M255.607,19.838c-.111.2-.193.346-.248.429s-.121.171-.194.263a7.123,7.123,0,0,1-2.242,2.1,6.445,6.445,0,0,1-2.242.748,6.009,6.009,0,0,1-2.2-.125,4.548,4.548,0,0,1-1.841-.941,4.882,4.882,0,0,1-1.287-1.744,7.047,7.047,0,0,1-.568-2.533,8.378,8.378,0,0,1,.43-3.087,9.553,9.553,0,0,1,1.48-2.838,7.937,7.937,0,0,1,2.353-2.076,5.964,5.964,0,0,1,3.045-.8,4.167,4.167,0,0,1,1.162.153,6.7,6.7,0,0,1,1,.373,2.7,2.7,0,0,1,.748.54,6.1,6.1,0,0,1,.609.761l.055-.055a7.065,7.065,0,0,1-.193-1.661V6.911a1.4,1.4,0,0,0-.153-.706,1.12,1.12,0,0,0-.414-.415,1.779,1.779,0,0,0-.609-.208,4.556,4.556,0,0,0-.707-.055c-.055,0-.088-.045-.1-.138a1.245,1.245,0,0,1,.014-.318.849.849,0,0,1,.125-.333.364.364,0,0,1,.234-.18c.184-.037.467-.1.844-.18s.775-.18,1.191-.29.812-.231,1.191-.361a3.315,3.315,0,0,0,.871-.415.332.332,0,0,1,.18-.028,1,1,0,0,1,.318.055.979.979,0,0,1,.291.153.288.288,0,0,1,.125.235.391.391,0,0,1-.014.125,1.154,1.154,0,0,0-.027.194c-.01.1-.019.254-.028.457s-.014.5-.014.886V19.866c0,.48.168.761.5.844a3.661,3.661,0,0,0,1.384-.014c.055,0,.087.046.1.138a1.206,1.206,0,0,1-.027.346,2.136,2.136,0,0,1-.139.429,1.1,1.1,0,0,1-.207.332,1.625,1.625,0,0,1-.526.291,7.1,7.1,0,0,1-.9.277,9.2,9.2,0,0,1-1.107.194,10.2,10.2,0,0,1-1.177.07,1,1,0,0,1-.969-.457,2.872,2.872,0,0,1-.248-1.343,2.3,2.3,0,0,1,.055-.54c.037-.157.082-.336.138-.54Zm-3.737.969a4.818,4.818,0,0,0,1.869-.817,5.339,5.339,0,0,0,1.73-2.146v-1.91q0-.886-.055-1.91A2.229,2.229,0,0,0,255.068,13a3.781,3.781,0,0,0-.817-.942,3.867,3.867,0,0,0-1.121-.65,2.656,2.656,0,0,0-1.287-.153,3.57,3.57,0,0,0-1.6.54,4.41,4.41,0,0,0-1.246,1.2,5.4,5.4,0,0,0-.789,1.744,6.567,6.567,0,0,0-.18,2.159,4.923,4.923,0,0,0,1.121,3.2,2.884,2.884,0,0,0,2.728.706" transform="translate(-187.488 -2.515)" fill="#0b2817"/>
      <path id="패스_8792" data-name="패스 8792" d="M333.371,39.762c.055,0,.088.046.1.138a1.2,1.2,0,0,1-.027.346,2.1,2.1,0,0,1-.139.429,1.068,1.068,0,0,1-.207.332,1.614,1.614,0,0,1-.512.291,5.489,5.489,0,0,1-.871.263,10.816,10.816,0,0,1-1.094.18,10.2,10.2,0,0,1-1.176.069,1.009,1.009,0,0,1-.941-.374,2.358,2.358,0,0,1-.25-1.093,6.8,6.8,0,0,1,.014-.955,6.022,6.022,0,0,1,.152-.955l-.055-.055a7.681,7.681,0,0,1-1.384,1.55,10.882,10.882,0,0,1-2.644,1.827,5.707,5.707,0,0,1-2.339.526,2.98,2.98,0,0,1-2.283-1.01,3.327,3.327,0,0,1-.623-1.052,3.582,3.582,0,0,1-.221-1.26,3.353,3.353,0,0,1,.789-2.2,7.867,7.867,0,0,1,2.1-1.731,19.36,19.36,0,0,1,3-1.411q1.688-.636,3.515-1.274a1.864,1.864,0,0,0-.221-1.024,2,2,0,0,0-.693-.72,2.983,2.983,0,0,0-1.066-.387,4.624,4.624,0,0,0-1.342-.028,4.294,4.294,0,0,0-1.176.263,2.974,2.974,0,0,0-.914.539,1.694,1.694,0,0,0-.511.8,2,2,0,0,0,0,1.052c.017.093-.125.171-.43.236a2.831,2.831,0,0,1-1.01.013,2.1,2.1,0,0,1-1-.429,1.1,1.1,0,0,1-.36-1.066,1.252,1.252,0,0,1,.416-.776,6.071,6.071,0,0,1,.955-.761,10.686,10.686,0,0,1,1.259-.705q.692-.332,1.357-.582t1.246-.415a8.821,8.821,0,0,1,.914-.221,8.434,8.434,0,0,1,2.158,0,5.485,5.485,0,0,1,1.924.6,3.6,3.6,0,0,1,1.342,1.232,3.093,3.093,0,0,1,.416,1.938q-.14,1.743-.153,3.516t.1,3.515q.055.72.525.844a3.506,3.506,0,0,0,1.357-.014m-9.854-.138a4.767,4.767,0,0,0,2.2-.776,18.657,18.657,0,0,0,2.5-1.882l.027-3.322a21.367,21.367,0,0,0-4.8,2.187,2.793,2.793,0,0,0-1.482,2.187,1.535,1.535,0,0,0,.485,1.273,1.432,1.432,0,0,0,1.066.333" transform="translate(-244.242 -21.498)" fill="#0b2817"/>
      <path id="패스_8793" data-name="패스 8793" d="M387.12,47.563a3.276,3.276,0,0,1-1.828-.443,1.746,1.746,0,0,1-.8-1.08,1.322,1.322,0,0,1,.291-1.176,3.114,3.114,0,0,1,1.01-.8,2.982,2.982,0,0,1,1.052-.332c.314-.028.451.05.414.235-.018.092-.037.208-.055.346a.838.838,0,0,0,.043.4.717.717,0,0,0,.248.332.88.88,0,0,0,.541.138,2.91,2.91,0,0,0,.732-.1,2.247,2.247,0,0,0,.776-.4,4.362,4.362,0,0,0,.8-.831,8.916,8.916,0,0,0,.844-1.412q-1.6-2.767-2.989-5.37t-2.713-5.232a3.8,3.8,0,0,0-.83-1.2,1.291,1.291,0,0,0-.83-.318q-.083,0-.1-.166a1.649,1.649,0,0,1,.014-.36.976.976,0,0,1,.125-.36.275.275,0,0,1,.235-.166q.443,0,1.107.028t1.55.028q.5,0,1.149-.014t1.273-.014c.416,0,.8,0,1.149-.014s.627-.014.83-.014q.055,0,.055.18a2.477,2.477,0,0,1-.041.415,2.366,2.366,0,0,1-.111.415c-.047.121-.106.18-.18.18a4.987,4.987,0,0,0-.734.055,1.99,1.99,0,0,0-.637.194.72.72,0,0,0-.359.429,1.034,1.034,0,0,0,.1.733q.719,1.744,1.648,3.53a37.554,37.554,0,0,0,2.089,3.529h.055q1.024-1.91,1.758-3.627t1.314-3.461a.949.949,0,0,0-.013-.733,1.174,1.174,0,0,0-.471-.471,2.248,2.248,0,0,0-.734-.249,4.808,4.808,0,0,0-.775-.069q-.055,0-.055-.166a2.381,2.381,0,0,1,.029-.36,1.129,1.129,0,0,1,.111-.36c.055-.111.119-.166.193-.166q.443,0,1.328.014t2.049.014a11.909,11.909,0,0,0,1.246-.055q.526-.055,1.107-.166c.037,0,.059.055.07.166a2.95,2.95,0,0,1,0,.388,1.567,1.567,0,0,1-.084.416c-.045.129-.106.2-.18.221a2.847,2.847,0,0,0-.387.124,1,1,0,0,0-.318.221,2.428,2.428,0,0,0-.318.416c-.111.175-.241.4-.387.678q-.8,1.606-1.551,3.1T395.48,37.75q-.747,1.453-1.5,2.906t-1.55,2.976q-.221.415-.443.844a6.73,6.73,0,0,1-.5.817,5.472,5.472,0,0,1-2.117,1.716,5.563,5.563,0,0,1-2.256.553" transform="translate(-293.921 -22.267)" fill="#0b2817"/>
      <path id="패스_8794" data-name="패스 8794" d="M463.352,42.5a7.829,7.829,0,0,1-2.8-.319,6.144,6.144,0,0,1-2.2-1.2,5.993,5.993,0,0,1-1.48-1.951,7.147,7.147,0,0,1-.664-2.588,7.9,7.9,0,0,1,.345-3.156,7.333,7.333,0,0,1,1.426-2.547,6.841,6.841,0,0,1,2.256-1.7,7.215,7.215,0,0,1,2.865-.678,9.235,9.235,0,0,1,2.228.194,7.515,7.515,0,0,1,1.744.609,4.626,4.626,0,0,1,1.273.927,5.069,5.069,0,0,1,.817,1.121.89.89,0,0,1,.1.748,1.341,1.341,0,0,1-.443.581,2.987,2.987,0,0,1-.734.415,4.174,4.174,0,0,1-.789.235,3.585,3.585,0,0,1-.637.069c-.175,0-.263-.036-.263-.111a2.389,2.389,0,0,0-.318-1.315,2.751,2.751,0,0,0-.955-.968,3.573,3.573,0,0,0-1.371-.485,3.781,3.781,0,0,0-1.564.111,3.352,3.352,0,0,0-2.214,1.758,5.847,5.847,0,0,0-.416,3.558,5.54,5.54,0,0,0,1.537,3.363,4.176,4.176,0,0,0,3.142,1.121,4.75,4.75,0,0,0,2.808-.872,3.941,3.941,0,0,0,1.426-1.952c.018-.092.088-.111.207-.055a1.244,1.244,0,0,1,.374.291,1.749,1.749,0,0,1,.318.485.823.823,0,0,1,.07.526,3.519,3.519,0,0,1-.6,1.218,5.323,5.323,0,0,1-1.218,1.19,7.431,7.431,0,0,1-1.826.942,8.164,8.164,0,0,1-2.451.443" transform="translate(-349.42 -21.714)" fill="#0b2817"/>
      <path id="패스_8795" data-name="패스 8795" d="M528.313,42.486a8.017,8.017,0,0,1-2.838-.374,6.663,6.663,0,0,1-2.242-1.245,6.08,6.08,0,0,1-1.521-1.98,7.08,7.08,0,0,1-.678-2.6,7.727,7.727,0,0,1,.345-3.128,7.087,7.087,0,0,1,1.426-2.491A6.861,6.861,0,0,1,525.06,29a7.38,7.38,0,0,1,2.865-.664,8.023,8.023,0,0,1,2.823.374A6.734,6.734,0,0,1,533,29.946a5.929,5.929,0,0,1,1.523,1.966,7.114,7.114,0,0,1,.678,2.6,7.822,7.822,0,0,1-.346,3.155,7.055,7.055,0,0,1-1.425,2.492,6.837,6.837,0,0,1-2.271,1.66,7.437,7.437,0,0,1-2.851.665m.8-2.159a3.089,3.089,0,0,0,2.408-1.648,5.474,5.474,0,0,0,.443-3.446,7.645,7.645,0,0,0-.6-2.1,5.187,5.187,0,0,0-1.078-1.577,3.988,3.988,0,0,0-1.482-.927,3.766,3.766,0,0,0-1.8-.153,3.355,3.355,0,0,0-1.426.568,3.032,3.032,0,0,0-.941,1.121,4.871,4.871,0,0,0-.457,1.578,6.724,6.724,0,0,0,.055,1.91,7.993,7.993,0,0,0,.582,2.1,4.958,4.958,0,0,0,1.052,1.564,3.811,3.811,0,0,0,1.453.9,3.6,3.6,0,0,0,1.787.111" transform="translate(-399.071 -21.703)" fill="#0b2817"/>
      <path id="패스_8796" data-name="패스 8796" d="M597.029,30.922A3.484,3.484,0,0,0,595.4,31.96a12.092,12.092,0,0,0-1.8,2.367,33.888,33.888,0,0,0,0,5.121,1.765,1.765,0,0,0,.166.706.961.961,0,0,0,.444.415,2.455,2.455,0,0,0,.83.208,13.078,13.078,0,0,0,1.328.055c.055,0,.088.065.1.194a2.335,2.335,0,0,1-.013.429,1.308,1.308,0,0,1-.125.429c-.065.129-.143.194-.235.194l-4.152-.028h-.941q-.5,0-1,.014c-.332.009-.647.013-.942.013h-.72c-.055,0-.088-.055-.1-.166a1.569,1.569,0,0,1,.014-.36,1.087,1.087,0,0,1,.123-.373.362.362,0,0,1,.236-.208q.36-.083.664-.166a1.529,1.529,0,0,0,.512-.235,1.051,1.051,0,0,0,.332-.415,1.943,1.943,0,0,0,.153-.706,55.422,55.422,0,0,0,0-7,1.2,1.2,0,0,0-.609-1.135,3.087,3.087,0,0,0-1.274-.249c-.055,0-.088-.059-.1-.18a1.97,1.97,0,0,1,.014-.4,1.154,1.154,0,0,1,.124-.4.363.363,0,0,1,.235-.207q.36-.055.942-.18t1.176-.291c.4-.111.775-.23,1.134-.36a3.353,3.353,0,0,0,.844-.415.327.327,0,0,1,.18-.028,1,1,0,0,1,.318.055.979.979,0,0,1,.291.153.287.287,0,0,1,.125.235.4.4,0,0,1-.014.125,1.221,1.221,0,0,0-.027.207c-.01.111-.024.273-.043.485s-.027.522-.027.927q0,.72-.028,1.052a2.958,2.958,0,0,1-.193.775l.082.055a2.574,2.574,0,0,1,.236-.5c.084-.129.235-.332.457-.609a10.226,10.226,0,0,1,1.73-1.66,6.353,6.353,0,0,1,2.035-1.08,3.976,3.976,0,0,1,1.149-.166,2.893,2.893,0,0,1,1.079.194,1.86,1.86,0,0,1,.789.581,1.94,1.94,0,0,1-.166,2.312,2.8,2.8,0,0,1-1.025.651,2.409,2.409,0,0,1-1.011.152c-.3-.028-.438-.115-.4-.263a1.13,1.13,0,0,0-.277-1.108,1.031,1.031,0,0,0-1-.249" transform="translate(-450.57 -21.904)" fill="#0b2817"/>
      <path id="패스_8797" data-name="패스 8797" d="M659.3,34.107q-.083.664-.554.747-2.518.389-4.913.692t-4.859.527a5.5,5.5,0,0,0,.568,1.813,4.733,4.733,0,0,0,1.08,1.385,4.5,4.5,0,0,0,1.467.858,4.686,4.686,0,0,0,1.73.263,5.632,5.632,0,0,0,1.605-.277,5.252,5.252,0,0,0,1.315-.637,4.324,4.324,0,0,0,.969-.9,3.246,3.246,0,0,0,.568-1.066c.017-.092.087-.111.207-.055a1.189,1.189,0,0,1,.373.305,2.007,2.007,0,0,1,.319.5.761.761,0,0,1,.068.5,3.421,3.421,0,0,1-.609,1.218,5.415,5.415,0,0,1-1.259,1.19,7.825,7.825,0,0,1-1.883.942,8.452,8.452,0,0,1-2.478.443,8.025,8.025,0,0,1-2.822-.319,6.385,6.385,0,0,1-2.257-1.2,6.137,6.137,0,0,1-1.537-1.951,6.807,6.807,0,0,1-.691-2.588,7.346,7.346,0,0,1,.387-3.142,7.231,7.231,0,0,1,1.523-2.519,7.421,7.421,0,0,1,2.353-1.689,8.348,8.348,0,0,1,5.675-.4,5.775,5.775,0,0,1,2.1,1.135,4.546,4.546,0,0,1,1.273,1.827,5.144,5.144,0,0,1,.277,2.408m-3.958-.859a.781.781,0,0,0,.748-1,1.712,1.712,0,0,0-.457-.969,2.5,2.5,0,0,0-.914-.595,3.777,3.777,0,0,0-1.2-.236,4.831,4.831,0,0,0-1.274.111,4.283,4.283,0,0,0-2.1,1.191A4.409,4.409,0,0,0,649,34.024q1.494-.138,3.128-.319t3.211-.457" transform="translate(-494.568 -21.767)" fill="#0b2817"/>
      <path id="패스_8798" data-name="패스 8798" d="M19.45,19.823a10.167,10.167,0,0,0-.191-1.321A6.881,6.881,0,0,1,14.9,20.179c.043.205.082.414.113.63a7.5,7.5,0,0,1-.606,4.719,4.23,4.23,0,0,1-3.3,2.256,4.932,4.932,0,0,1-2.447-.151A5.218,5.218,0,0,1,6.676,26.4a6.782,6.782,0,0,1-1.44-2.141,10.943,10.943,0,0,1-.8-2.881,9.2,9.2,0,0,1-.076-2.616A6.664,6.664,0,0,1,4.989,16.6a4.156,4.156,0,0,1,1.288-1.535,4.591,4.591,0,0,1,1.953-.777c.109-.015.214-.019.321-.028a4.7,4.7,0,0,1,1.6-2.867l.024-.02c-.229-.006-.458-.013-.694,0a10.1,10.1,0,0,0-3.924.909,9.4,9.4,0,0,0-3.09,2.275A9.707,9.707,0,0,0,.515,17.966a10.587,10.587,0,0,0-.472,4.284,9.7,9.7,0,0,0,.929,3.563,8.326,8.326,0,0,0,2.083,2.711,9.126,9.126,0,0,0,3.07,1.7,10.978,10.978,0,0,0,3.886.512,10.186,10.186,0,0,0,3.9-.911,9.363,9.363,0,0,0,3.109-2.273,9.659,9.659,0,0,0,1.951-3.412,10.708,10.708,0,0,0,.474-4.321" transform="translate(0 -8.706)" fill="#0b2817"/>
      <path id="패스_8799" data-name="패스 8799" d="M54.077,1.071c-2.218,1.39-5.362.826-7.457,1.817a4.1,4.1,0,0,0-2.564,4.5c1.685-4.452,6.512-3.693,6.512-3.693A8.3,8.3,0,0,0,45.661,6.44,7.223,7.223,0,0,0,44.4,8.475a7.591,7.591,0,0,0-.609,3.213H43.8l.158.015h0l.3.026a5.594,5.594,0,0,1,.387-2.589,4.187,4.187,0,0,0,1.131.389,6.836,6.836,0,0,0,5.566-1.281A9.6,9.6,0,0,0,55.01,0c.009.454-.615.872-.932,1.071" transform="translate(-33.537 0)" fill="#0b2817"/>
    </g>
  </g>
</svg>
