<svg xmlns="http://www.w3.org/2000/svg" width="1025.354" height="656.176" viewBox="0 0 1025.354 656.176">
  <path id="s2_txt" d="M-212.839-146.652h54.692V0h30.25V-146.652h54.934v-26.136H-212.839ZM-50.457,0h27.588V-73.81c0-18.392,11.858-32.912,30.25-32.912,16.214,0,23.958,8.47,24.442,28.072V0H59.411V-85.91c0-28.072-17.182-42.592-44.286-42.592-16.456,0-30.734,8.47-37.51,19.844h-.484v-64.13H-50.457Zm258.7-55.418c4.6-37.51-19.6-73.084-59.048-73.084-37.268,0-60.5,30.492-60.5,66.066,0,38.478,22.022,65.824,61.226,65.824,27.346,0,50.578-15.246,56.628-42.592H180.411c-4.84,13.794-14.52,20.812-30.492,20.812-22.99,0-33.638-17.424-33.638-37.026Zm-91.96-18.15c.726-18.634,13.794-33.154,32.912-33.154,18.634,0,30.492,15.73,31.46,33.154ZM-511.225,240h126.082V213.864h-95.832V163.286h87.12V138.6h-87.12V93.348h94.138V67.212H-511.225Zm148.1-40.172c.484,29.524,23.958,43.56,55.418,43.56,25.894,0,55.9-10.89,55.9-40.656,0-24.684-20.328-31.944-40.414-36.542-20.328-4.6-40.656-6.534-40.656-20.086,0-10.89,14.762-12.826,22.748-12.826,12.1,0,22.99,3.63,25.41,16.7h28.8c-3.388-27.83-26.62-38.478-52.272-38.478-22.748,0-52.272,8.47-52.272,35.816,0,25.41,19.844,32.67,40.172,37.026,20.086,4.6,40.172,6.292,40.9,20.812.726,14.278-17.424,16.456-27.83,16.456-14.762,0-26.862-5.808-28.314-21.78Zm131.89,0c.484,29.524,23.958,43.56,55.418,43.56,25.894,0,55.9-10.89,55.9-40.656,0-24.684-20.328-31.944-40.414-36.542-20.328-4.6-40.656-6.534-40.656-20.086,0-10.89,14.762-12.826,22.748-12.826,12.1,0,22.99,3.63,25.41,16.7h28.8c-3.388-27.83-26.62-38.478-52.272-38.478-22.748,0-52.272,8.47-52.272,35.816,0,25.41,19.844,32.67,40.172,37.026,20.086,4.6,40.172,6.292,40.9,20.812.726,14.278-17.424,16.456-27.83,16.456-14.762,0-26.862-5.808-28.314-21.78ZM20.933,184.582c4.6-37.51-19.6-73.084-59.048-73.084-37.268,0-60.5,30.492-60.5,66.066,0,38.478,22.022,65.824,61.226,65.824,27.346,0,50.578-15.246,56.628-42.592H-6.9c-4.84,13.794-14.52,20.812-30.492,20.812-22.99,0-33.638-17.424-33.638-37.026Zm-91.96-18.15c.726-18.634,13.794-33.154,32.912-33.154,18.634,0,30.492,15.73,31.46,33.154ZM48.279,240H75.867V166.19c0-18.392,11.858-32.912,30.25-32.912,16.214,0,23.958,8.47,24.442,28.072V240h27.588V154.09c0-28.072-17.182-42.592-44.286-42.592A44.809,44.809,0,0,0,74.9,133.762l-.484-.484V114.886H48.279ZM180.9,135.456h20.812v73.81c.484,20.812,5.808,31.944,34.606,31.944,6.05,0,11.858-.968,17.908-1.452v-21.3a47.129,47.129,0,0,1-11.616.968c-12.342,0-13.31-5.808-13.31-17.182V135.456h24.926v-20.57H229.3V77.376H201.707v37.51H180.9ZM281.083,240h27.588V114.886H281.083Zm0-146.652h27.588V67.212H281.083ZM422.169,197.892c0,17.424-18.876,23.716-30.976,23.716-9.68,0-25.41-3.63-25.41-15.972,0-14.52,10.648-18.876,22.506-20.812,12.1-2.178,25.41-1.936,33.88-7.5ZM449.757,147.8c0-26.378-25.652-36.3-50.094-36.3-27.588,0-54.934,9.438-56.87,41.624h27.588c1.21-13.552,12.1-19.844,27.588-19.844,11.132,0,25.894,2.662,25.894,16.94,0,16.214-17.666,14.036-37.51,17.666-23.232,2.662-48.158,7.744-48.158,38.962,0,24.442,20.328,36.542,42.834,36.542,14.762,0,32.428-4.6,43.318-15.246,2.178,11.374,10.164,15.246,21.3,15.246a69.259,69.259,0,0,0,17.424-3.146V221.124a38.139,38.139,0,0,1-6.776.484c-5.082,0-6.534-2.662-6.534-9.438ZM486.541,240h27.588V67.212H486.541ZM-292.941,480h30.25V402.076h78.65V480h30.25V307.212h-30.25V375.94h-78.65V307.212h-30.25Zm255.068-42.108c0,17.424-18.876,23.716-30.976,23.716-9.68,0-25.41-3.63-25.41-15.972,0-14.52,10.648-18.876,22.506-20.812,12.1-2.178,25.41-1.936,33.88-7.5ZM-10.285,387.8c0-26.378-25.652-36.3-50.094-36.3-27.588,0-54.934,9.438-56.87,41.624h27.588c1.21-13.552,12.1-19.844,27.588-19.844,11.132,0,25.894,2.662,25.894,16.94,0,16.214-17.666,14.036-37.51,17.666-23.232,2.662-48.158,7.744-48.158,38.962,0,24.442,20.328,36.542,42.834,36.542,14.762,0,32.428-4.6,43.318-15.246,2.178,11.374,10.164,15.246,21.3,15.246a69.259,69.259,0,0,0,17.424-3.146V461.124a38.138,38.138,0,0,1-6.776.484c-5.082,0-6.534-2.662-6.534-9.438Zm133.1,29.766c0,21.78-9.438,44.044-34.606,44.044-22.264,0-35.09-18.876-35.09-44.044,0-26.62,11.858-44.286,35.09-44.286C110.957,373.278,122.815,394.816,122.815,417.564ZM26.5,480H52.635V462.818h.484c8.228,16.456,26.378,20.57,43.318,20.57,37.026,0,53.966-31.7,53.966-65.34,0-36.542-19.118-66.55-58.564-66.55-14.036,0-29.766,7.5-37.268,19.6h-.484V307.212H26.5Zm154.154,0h27.588V354.886H180.653Zm0-146.652h27.588V307.212H180.653Zm51.3,42.108h20.812v73.81c.484,20.812,5.808,31.944,34.606,31.944,6.05,0,11.858-.968,17.908-1.452v-21.3a47.129,47.129,0,0,1-11.616.968c-12.342,0-13.31-5.808-13.31-17.182V375.456h24.926v-20.57H280.357v-37.51H252.769v37.51H231.957Z" transform="translate(511.225 172.788)" fill="#fff"/>
</svg>
