<svg xmlns="http://www.w3.org/2000/svg" xmlns:xlink="http://www.w3.org/1999/xlink" width="302.778" height="193.139" viewBox="0 0 302.778 193.139">
  <defs>
    <clipPath id="clip-path">
      <rect id="사각형_2791" data-name="사각형 2791" width="302.778" height="193.139" fill="rgba(0,0,0,0)"/>
    </clipPath>
  </defs>
  <g id="s3_bg_text" transform="translate(0)" opacity="0.08">
    <path id="패스_5219" data-name="패스 5219" d="M35.669,0,26.953,28.83h-.268L17.968,0H0V47.872H11.062V15.488H11.4l9.588,32.384h9.319L39.96,15.555h.268V47.872H53.436V0Z" transform="translate(0 0)" fill="#fff"/>
    <rect id="사각형_2789" data-name="사각형 2789" width="13.476" height="47.872" transform="translate(62.755 0)" fill="#fff"/>
    <path id="패스_5220" data-name="패스 5220" d="M283.506,0V26.819h-.2L267.817,0H253.335V47.872H264.8V18.036h.268l17.1,29.836h12.806V0Z" transform="translate(-167.852 0)" fill="#fff"/>
    <rect id="사각형_2790" data-name="사각형 2790" width="13.476" height="47.872" transform="translate(136.437 0)" fill="#fff"/>
    <path id="패스_5221" data-name="패스 5221" d="M507.369,0l-8.716,28.83h-.268L489.668,0H471.7V47.872h11.063V15.488h.335l9.588,32.384H502l9.655-32.317h.269V47.872h13.208V0Z" transform="translate(-312.535 0)" fill="#fff"/>
    <path id="패스_5222" data-name="패스 5222" d="M668.883,13.879h.268l5.1,15.89H663.854ZM662.916,0,646.154,47.872h12.068l3.017-9.454h15.689l3.218,9.454h13.678L677.2,0Z" transform="translate(-428.123)" fill="#fff"/>
    <path id="패스_5223" data-name="패스 5223" d="M803.721,0V47.872H835.3V38.284H817.13V0Z" transform="translate(-532.522 0)" fill="#fff"/>
    <path id="패스_5224" data-name="패스 5224" d="M729.6,261.014H718.81v-9.387H729.6V239.894H739.93v11.733h10.794v9.387H739.93v11.733H729.6Z" transform="translate(-476.263 -158.947)" fill="#c69aff"/>
    <g id="그룹_6805" data-name="그룹 6805" transform="translate(0)">
      <g id="그룹_6804" data-name="그룹 6804" clip-path="url(#clip-path)">
        <path id="패스_5225" data-name="패스 5225" d="M.134,259.536v-9.789a39.369,39.369,0,0,0,14.147,2.682c5.363,0,7.442-1.609,7.442-4.492,0-2.749-1.207-3.621-5.833-4.559l-3.62-.67C4.693,241.232,0,237.879,0,227.822c0-9.052,5.632-14.951,17.767-14.951,7.644,0,11.4,1.14,14.214,2.481v9.655a38.664,38.664,0,0,0-12.94-2.279c-4.291,0-6.5,1.341-6.5,4.09,0,2.548,1.408,3.486,5.632,4.358l3.553.671c8.448,1.609,13.142,4.962,13.142,14.683,0,10.258-6.571,15.823-18.975,15.823-6.7,0-12.336-1.006-15.756-2.816" transform="translate(0 -141.042)" fill="#fff"/>
        <path id="패스_5226" data-name="패스 5226" d="M123.786,215.255H137.2v18.438h15.085V215.255h13.477v47.872H152.281V243.348H137.2v19.779H123.786Z" transform="translate(-82.017 -142.622)" fill="#fff"/>
        <path id="패스_5227" data-name="패스 5227" d="M281.025,215.255h14.281l16.628,47.872H298.256l-3.218-9.453H279.348l-3.017,9.453H264.263Zm.938,29.769h10.392l-5.1-15.89h-.268Z" transform="translate(-175.093 -142.622)" fill="#fff"/>
        <path id="패스_5228" data-name="패스 5228" d="M421.829,215.255h20.114c12.136,0,18.17,4.626,18.17,14.951,0,6.571-2.95,9.923-7.912,12.068v.268l10.66,20.583H448.916L440.2,245.694h-4.961v17.432H421.829Zm18.3,22.394c4.76,0,6.638-2.28,6.638-6.839,0-4.425-1.944-6.436-6.839-6.436H435.1v13.275Z" transform="translate(-279.492 -142.622)" fill="#fff"/>
        <path id="패스_5229" data-name="패스 5229" d="M560.122,215.255h19.846c12.806,0,18.974,5.565,18.974,15.555,0,10.862-6.5,16.427-18.572,16.427h-6.839v15.89H560.122Zm18.3,23.4c4.894,0,6.638-2.347,6.638-7.107,0-5.364-2.011-7.107-6.369-7.107h-5.163v14.214Z" transform="translate(-371.121 -142.622)" fill="#fff"/>
        <path id="패스_5230" data-name="패스 5230" d="M416.266,476.269H405.471v-9.387h10.794V455.149h10.326v11.733h10.794v9.387H426.591V488H416.266Z" transform="translate(-268.654 -301.569)" fill="#c69aff"/>
        <path id="패스_5231" data-name="패스 5231" d="M0,430.511H33.054V440.1H13.275v9.119H28.763v9.453H13.275v10.124H33.725v9.588H0Z" transform="translate(0 -285.244)" fill="#fff"/>
        <path id="패스_5232" data-name="패스 5232" d="M127.484,459.676,112.264,430.51h14.214l8.582,17.433h.2l8.448-17.433h12.27l-15.086,29.166v18.706H127.484Z" transform="translate(-74.383 -285.244)" fill="#fff"/>
        <path id="패스_5233" data-name="패스 5233" d="M258.5,430.511h33.054V440.1H271.78v9.119h15.488v9.453H271.78v10.124H292.23v9.588H258.5Z" transform="translate(-171.278 -285.244)" fill="#fff"/>
      </g>
    </g>
  </g>
</svg>
