<svg xmlns="http://www.w3.org/2000/svg" xmlns:xlink="http://www.w3.org/1999/xlink" width="834.99" height="123.864" viewBox="0 0 834.99 123.864">
  <defs>
    <clipPath id="clip-path">
      <rect id="사각형_2695" data-name="사각형 2695" width="834.99" height="123.864" fill="none"/>
    </clipPath>
  </defs>
  <g id="s3_logo" transform="translate(0 204)">
    <g id="그룹_6687" data-name="그룹 6687" transform="translate(0 -204)" clip-path="url(#clip-path)">
      <path id="패스_5107" data-name="패스 5107" d="M54.59,60.573,2.371,33.719A1.626,1.626,0,0,0,.014,35.368L7.4,94.293a8.132,8.132,0,0,0,4.076,6.074l36.375,20.5a23.241,23.241,0,0,0,21.406.737l75.889-36.138a17.727,17.727,0,0,0,9.733-12.389L169.28,3.925A3.253,3.253,0,0,0,164.453.453L62.015,60.371a7.718,7.718,0,0,1-7.425.2m-35.2,1.266L45.635,78.7a1.642,1.642,0,0,1,.037,2.722c-20.182,14.369-27.594-6.4-29.969-17a2.429,2.429,0,0,1,3.684-2.581M69.451,78.232l57.124-33.247a3.253,3.253,0,0,1,4.57,4.22c-8.609,17.71-30.6,52.93-61.771,31.8a1.638,1.638,0,0,1,.077-2.772" transform="translate(0 0)" fill="#6900da"/>
      <path id="패스_5108" data-name="패스 5108" d="M417.865,2.98l-51.9,113.057h-35.1L298.773,2.98h38.549l15.289,65.9,26.7-65.9Z" transform="translate(-105.767 -1.055)" fill="#fff"/>
      <path id="패스_5109" data-name="패스 5109" d="M601.164,2.98l-11.63,113.057h-35.1L566.274,2.98Z" transform="translate(-196.272 -1.055)" fill="#fff"/>
      <path id="패스_5110" data-name="패스 5110" d="M676.866,2.98l-11.63,113.057h-35.1L641.976,2.98Z" transform="translate(-223.07 -1.055)" fill="#fff"/>
      <path id="패스_5111" data-name="패스 5111" d="M811.7,40.662l-6.676,75.375h-35.1l1.075-10.763q-11.413,10.763-29.068,10.763-14.434,0-24.015-7.853T709.4,89.118l4.306-48.456q1.292-15.5,16.583-26.587,15.289-11.1,35.532-11.095,20.456,0,33.809,11.095T811.7,40.662m-35.1,0a8.367,8.367,0,0,0-3.445-7.638,14.97,14.97,0,0,0-9.694-3.125,16.95,16.95,0,0,0-10.014,3.125c-2.94,2.079-4.555,4.632-4.841,7.638l-3.231,37.694a8.344,8.344,0,0,0,3.445,7.638,14.561,14.561,0,0,0,9.474,3.124,17.185,17.185,0,0,0,10.228-3.124q4.42-3.118,4.847-7.638Z" transform="translate(-251.094 -1.055)" fill="#fff"/>
      <path id="패스_5112" data-name="패스 5112" d="M1060.341,29.9l-7.538,86.138h-35.1l6.676-75.375a8.387,8.387,0,0,0-3.422-7.639,14.827,14.827,0,0,0-9.634-3.124,16.753,16.753,0,0,0-9.949,3.124c-2.928,2.079-4.532,4.633-4.817,7.639l-6.634,75.375h-35.1L964.724,2.98h34.889l-.861,10.762q11.4-10.763,28.855-10.762,14.639,0,24.228,7.864t8.506,19.055" transform="translate(-338.01 -1.055)" fill="#fff"/>
      <path id="패스_5113" data-name="패스 5113" d="M1234.228,40.048h-36.561a8.963,8.963,0,0,0-3.588-8.111,15.392,15.392,0,0,0-10.093-3.317q-14.581,0-15.028,5.714-.671,8.931,15.922,13.271,26.239,7.077,30.72,9.6,16.368,8.912,14.574,28.584-1.126,14.191-16.989,24.245t-37.249,10.054q-21.155,0-35.109-11.769-13.956-11.788-12.6-28.244h36.555a8.94,8.94,0,0,0,3.594,8.111,14.977,14.977,0,0,0,9.869,3.318q14.572,0,15.245-5.714.68-8.912-15.915-13.258-26.237-7.095-30.72-9.612-16.378-8.913-14.574-28.585,1.117-14.172,16.989-24.232T1186.289.035q21.378,0,35.331,11.782t12.607,28.231" transform="translate(-399.356 -0.012)" fill="#fff"/>
      <path id="패스_5114" data-name="패스 5114" d="M888.719,2.98l-2.187,24.95h23l-.8,9.34H885.715l-6.9,78.767h35.1L923.6,2.98Z" transform="translate(-311.104 -1.055)" fill="#fff"/>
      <path id="패스_5115" data-name="패스 5115" d="M490.573,2.98l-2.614,24.95h22.468l-.8,9.34H486.981l-8.251,78.767h35.1L525.464,2.98Z" transform="translate(-169.473 -1.055)" fill="#fff"/>
    </g>
  </g>
</svg>
