<svg xmlns="http://www.w3.org/2000/svg" width="188.93" height="32.165" viewBox="0 0 188.93 32.165">
  <path id="s4_typo" d="M-94.4-21.21h7.91V0h4.375V-21.21h7.945v-3.78H-94.4ZM-70.84-.07l-.455,1.4c-.49,1.54-.945,2.52-2.8,2.52a11.646,11.646,0,0,1-1.89-.245v3.36a18.044,18.044,0,0,0,2.765.21c4.165,0,5.11-2.94,6.4-6.2L-59.78-18.1h-4.165L-68.53-4.585h-.07L-73.325-18.1H-77.7ZM-43.5-9.03c0,3.15-1.365,6.37-5.005,6.37-3.22,0-5.075-2.73-5.075-6.37,0-3.85,1.715-6.4,5.075-6.4C-45.22-15.435-43.5-12.32-43.5-9.03ZM-57.435,6.685h3.99v-9.03h.07C-52.115-.35-49.63.49-47.32.49c5.355,0,7.805-4.585,7.805-9.45,0-5.285-2.765-9.625-8.47-9.625a6.045,6.045,0,0,0-5.6,2.94h-.07V-18.1h-3.78ZM-27.86-2.66C-31.43-2.66-33-5.915-33-9.065c0-3.115,1.575-6.37,5.145-6.37s5.145,3.255,5.145,6.37C-22.715-5.915-24.29-2.66-27.86-2.66Zm0,3.15c5.81,0,9.135-3.99,9.135-9.555,0-5.53-3.325-9.52-9.135-9.52s-9.135,3.99-9.135,9.52C-36.995-3.5-33.67.49-27.86.49ZM-7.525-3.15c-3.325,0-4.76-3.01-4.76-5.985,0-3.01,1.225-6.3,4.76-6.3,3.465,0,4.865,2.87,4.865,5.985C-2.66-6.37-3.99-3.15-7.525-3.15ZM1.33-18.1H-2.66v2.485h-.07a5.688,5.688,0,0,0-5.355-2.975c-5.145,0-8.19,4.2-8.19,9.065,0,5.18,2.38,9.52,8.12,9.52A6.2,6.2,0,0,0-2.73-3.185h.07V-.42c0,2.975-1.435,4.62-4.655,4.62-2.03,0-3.85-.385-4.34-2.66h-3.99C-15.3,5.775-11.2,7.175-7.56,7.175c5.7,0,8.89-2.7,8.89-8.12ZM5.355,0h3.99V-8.61c0-3.99,2.17-6.195,4.9-6.195a14.238,14.238,0,0,1,1.715.175v-3.85a9.5,9.5,0,0,0-1.5-.105A5.841,5.841,0,0,0,9.17-14.6H9.1v-3.5H5.355ZM28.84-6.09c0,2.52-2.73,3.43-4.48,3.43-1.4,0-3.675-.525-3.675-2.31,0-2.1,1.54-2.73,3.255-3.01,1.75-.315,3.675-.28,4.9-1.085Zm3.99-7.245c0-3.815-3.71-5.25-7.245-5.25-3.99,0-7.945,1.365-8.225,6.02h3.99c.175-1.96,1.75-2.87,3.99-2.87,1.61,0,3.745.385,3.745,2.45,0,2.345-2.555,2.03-5.425,2.555-3.36.385-6.965,1.12-6.965,5.635C16.695-1.26,19.635.49,22.89.49a9.281,9.281,0,0,0,6.265-2.205C29.47-.07,30.625.49,32.235.49a10.017,10.017,0,0,0,2.52-.455V-2.73a5.516,5.516,0,0,1-.98.07c-.735,0-.945-.385-.945-1.365Zm18.34,4.3c0,3.15-1.365,6.37-5.005,6.37-3.22,0-5.075-2.73-5.075-6.37,0-3.85,1.715-6.4,5.075-6.4C49.455-15.435,51.17-12.32,51.17-9.03ZM37.24,6.685h3.99v-9.03h.07C42.56-.35,45.045.49,47.355.49,52.71.49,55.16-4.1,55.16-8.96c0-5.285-2.765-9.625-8.47-9.625a6.045,6.045,0,0,0-5.6,2.94h-.07V-18.1H37.24ZM58.52,0h3.99V-10.675c0-2.66,1.715-4.76,4.375-4.76,2.345,0,3.465,1.225,3.535,4.06V0h3.99V-12.425c0-4.06-2.485-6.16-6.4-6.16a6.333,6.333,0,0,0-5.425,2.87h-.07V-24.99H58.52ZM83.475-.07l-.455,1.4c-.49,1.54-.945,2.52-2.8,2.52a11.646,11.646,0,0,1-1.89-.245v3.36a18.044,18.044,0,0,0,2.765.21c4.165,0,5.11-2.94,6.4-6.2L94.535-18.1H90.37L85.785-4.585h-.07L80.99-18.1H76.615Z" transform="translate(94.395 24.99)" fill="#fff"/>
</svg>
