<svg xmlns="http://www.w3.org/2000/svg" width="465.39" height="167.79" viewBox="0 0 465.39 167.79">
  <path id="s7_txt" d="M29.79-53.19h.27l9.63,27.63H20.07ZM-.63,0H10.98l6.03-17.01H42.66L48.69,0H60.75L36-64.26H24.03ZM101.52-23.22c0,8.1-3.51,16.38-12.87,16.38-8.28,0-13.05-7.02-13.05-16.38,0-9.9,4.41-16.47,13.05-16.47C97.11-39.69,101.52-31.68,101.52-23.22ZM65.7,17.19H75.96V-6.03h.18C79.38-.9,85.77,1.26,91.71,1.26c13.77,0,20.07-11.79,20.07-24.3,0-13.59-7.11-24.75-21.78-24.75-5.94,0-11.52,2.25-14.4,7.56h-.18v-6.3H65.7Zm90.81-40.41c0,8.1-3.51,16.38-12.87,16.38-8.28,0-13.05-7.02-13.05-16.38,0-9.9,4.41-16.47,13.05-16.47C152.1-39.69,156.51-31.68,156.51-23.22ZM120.69,17.19h10.26V-6.03h.18c3.24,5.13,9.63,7.29,15.57,7.29,13.77,0,20.07-11.79,20.07-24.3,0-13.59-7.11-24.75-21.78-24.75-5.94,0-11.52,2.25-14.4,7.56h-.18v-6.3h-9.72ZM175.68,0h10.26V-64.26H175.68Zm21.69,0h10.26V-46.53H197.37Zm0-54.54h10.26v-9.72H197.37Zm63.09,23.58c-.99-11.43-10.17-16.83-20.97-16.83-15.3,0-22.95,10.98-22.95,25.02,0,13.68,8.01,24.03,22.59,24.03,11.97,0,19.44-6.66,21.33-18.72H250.2c-.99,6.66-5.13,10.62-11.07,10.62-8.91,0-12.33-8.19-12.33-15.93,0-14.13,7.47-16.92,12.78-16.92,5.67,0,9.81,3.06,10.62,8.73Zm37.08,15.3c0,6.48-7.02,8.82-11.52,8.82-3.6,0-9.45-1.35-9.45-5.94,0-5.4,3.96-7.02,8.37-7.74,4.5-.81,9.45-.72,12.6-2.79ZM307.8-34.29c0-9.81-9.54-13.5-18.63-13.5-10.26,0-20.43,3.51-21.15,15.48h10.26c.45-5.04,4.5-7.38,10.26-7.38,4.14,0,9.63.99,9.63,6.3,0,6.03-6.57,5.22-13.95,6.57-8.64.99-17.91,2.88-17.91,14.49,0,9.09,7.56,13.59,15.93,13.59,5.49,0,12.06-1.71,16.11-5.67.81,4.23,3.78,5.67,7.92,5.67A25.757,25.757,0,0,0,312.75.09V-7.02a14.184,14.184,0,0,1-2.52.18c-1.89,0-2.43-.99-2.43-3.51Zm6.39-4.59h7.74v27.45C322.11-3.69,324.09.45,334.8.45c2.25,0,4.41-.36,6.66-.54V-8.01a17.527,17.527,0,0,1-4.32.36c-4.59,0-4.95-2.16-4.95-6.39V-38.88h9.27v-7.65h-9.27V-60.48H321.93v13.95h-7.74ZM349.11,0h10.26V-46.53H349.11Zm0-54.54h10.26v-9.72H349.11Zm42.75,47.7c-9.18,0-13.23-8.37-13.23-16.47,0-8.01,4.05-16.38,13.23-16.38s13.23,8.37,13.23,16.38C405.09-15.21,401.04-6.84,391.86-6.84Zm0,8.1c14.94,0,23.49-10.26,23.49-24.57,0-14.22-8.55-24.48-23.49-24.48s-23.49,10.26-23.49,24.48C368.37-9,376.92,1.26,391.86,1.26ZM423.9,0h10.26V-27.45c0-6.84,4.41-12.24,11.25-12.24,6.03,0,8.91,3.15,9.09,10.44V0h10.26V-31.95c0-10.44-6.39-15.84-16.47-15.84a16.665,16.665,0,0,0-14.49,8.28l-.18-.18v-6.84H423.9ZM2.97,80.58c.27,15.93,12.15,22.95,26.82,22.95,12.78,0,25.56-5.76,25.56-20.16A17.008,17.008,0,0,0,42.84,66.99C39.51,66,25.29,62.31,24.3,62.04c-4.59-1.26-7.65-3.78-7.65-8.28,0-6.48,6.57-8.37,11.79-8.37,7.74,0,13.32,3.06,13.86,11.34H53.55c0-13.41-11.25-20.52-24.66-20.52-11.61,0-23.49,6.03-23.49,18.9,0,6.66,3.24,13.32,14.22,16.29,8.82,2.43,14.67,3.6,19.17,5.31,2.61.99,5.31,2.97,5.31,7.92,0,4.86-3.69,9.72-13.59,9.72-9,0-16.29-3.87-16.29-13.77ZM59.04,63.12h7.74V90.57c.18,7.74,2.16,11.88,12.87,11.88,2.25,0,4.41-.36,6.66-.54V93.99a17.527,17.527,0,0,1-4.32.36c-4.59,0-4.95-2.16-4.95-6.39V63.12h9.27V55.47H77.04V41.52H66.78V55.47H59.04ZM93.69,102h10.26V79.86c0-10.26,5.58-15.93,12.6-15.93a36.612,36.612,0,0,1,4.41.45v-9.9a24.425,24.425,0,0,0-3.87-.27c-6.3,0-12.42,5.31-13.59,10.26h-.18v-9H93.69Zm72.54-46.53H155.97v27c0,7.2-2.88,12.69-11.43,12.69-5.58,0-8.91-2.97-8.91-11.16V55.47H125.37V84.99c0,12.15,5.22,18.27,17.37,18.27a15.622,15.622,0,0,0,13.23-7.74h.18V102h10.08ZM218.7,71.04c-.99-11.43-10.17-16.83-20.97-16.83-15.3,0-22.95,10.98-22.95,25.02,0,13.68,8.01,24.03,22.59,24.03,11.97,0,19.44-6.66,21.33-18.72H208.44c-.99,6.66-5.13,10.62-11.07,10.62-8.91,0-12.33-8.19-12.33-15.93,0-14.13,7.47-16.92,12.78-16.92,5.67,0,9.81,3.06,10.62,8.73Zm3.69-7.92h7.74V90.57c.18,7.74,2.16,11.88,12.87,11.88,2.25,0,4.41-.36,6.66-.54V93.99a17.527,17.527,0,0,1-4.32.36c-4.59,0-4.95-2.16-4.95-6.39V63.12h9.27V55.47h-9.27V41.52H230.13V55.47h-7.74Zm75.51-7.65H287.64v27c0,7.2-2.88,12.69-11.43,12.69-5.58,0-8.91-2.97-8.91-11.16V55.47H257.04V84.99c0,12.15,5.22,18.27,17.37,18.27a15.622,15.622,0,0,0,13.23-7.74h.18V102H297.9ZM308.7,102h10.26V79.86c0-10.26,5.58-15.93,12.6-15.93a36.612,36.612,0,0,1,4.41.45v-9.9a24.425,24.425,0,0,0-3.87-.27c-6.3,0-12.42,5.31-13.59,10.26h-.18v-9H308.7Zm72.27-20.61c1.71-13.95-7.29-27.18-21.96-27.18-13.86,0-22.5,11.34-22.5,24.57,0,14.31,8.19,24.48,22.77,24.48,10.17,0,18.81-5.67,21.06-15.84h-9.72c-1.8,5.13-5.4,7.74-11.34,7.74-8.55,0-12.51-6.48-12.51-13.77Zm-34.2-6.75c.27-6.93,5.13-12.33,12.24-12.33,6.93,0,11.34,5.85,11.7,12.33Z" transform="translate(0.63 64.26)" fill="#fff"/>
</svg>
