<svg xmlns="http://www.w3.org/2000/svg" xmlns:xlink="http://www.w3.org/1999/xlink" width="1122" height="1122" viewBox="0 0 1122 1122">
  <defs>
    <linearGradient id="linear-gradient" x1="0.923" y1="0.089" x2="0" y2="1.21" gradientUnits="objectBoundingBox">
      <stop offset="0" stop-color="#fff"/>
      <stop offset="1" stop-color="#fff" stop-opacity="0"/>
    </linearGradient>
  </defs>
  <g id="cat-0-all-wh" transform="translate(0.452 0.487)" opacity="0.1">
    <rect id="사각형_866" data-name="사각형 866" width="1122" height="1122" transform="translate(-0.452 -0.487)" fill="#fff" opacity="0"/>
    <path id="s8_bg_logo" d="M-22347.045,10184.7a146.684,146.684,0,0,1-36.928-4.729,146.563,146.563,0,0,1-35-14.142l-229.193-129.186a51.288,51.288,0,0,1-9.7-7.079,51.2,51.2,0,0,1-7.7-9.011,51.213,51.213,0,0,1-5.424-10.537,51.255,51.255,0,0,1-2.879-11.653l-46.51-371.289a10.043,10.043,0,0,1,2.439-8.015,10.311,10.311,0,0,1,7.721-3.519,10.184,10.184,0,0,1,4.693,1.155l329.035,169.2a48.71,48.71,0,0,0,10.883,4.038,48.76,48.76,0,0,0,11.354,1.343,48.647,48.647,0,0,0,24.541-6.647l631.629-369.452,0,226.258-46.516,223.267a111.65,111.65,0,0,1-8.154,24.5,111.821,111.821,0,0,1-13.361,21.717,111.956,111.956,0,0,1-17.934,18.123,111.821,111.821,0,0,1-21.875,13.724l-478.184,227.711a146.611,146.611,0,0,1-30.9,10.674A146.7,146.7,0,0,1-22347.045,10184.7Zm434.5-499.9a20.374,20.374,0,0,0-10.354,2.882l-359.947,209.485a10.071,10.071,0,0,0-3.709,3.715,10.347,10.347,0,0,0-1.348,4.785,10.364,10.364,0,0,0,4.578,8.973,286.794,286.794,0,0,0,31.721,18.743,229.708,229.708,0,0,0,30.66,12.822,194.112,194.112,0,0,0,29.566,7.358,175.718,175.718,0,0,0,28.447,2.353h.012c58.113,0,114.725-29.651,168.26-88.131,45.705-49.929,79.91-111.04,100.557-153.514a19.851,19.851,0,0,0-.926-19.566A20.937,20.937,0,0,0-21912.543,9684.794Zm-694.006,106.59a15.612,15.612,0,0,0-12.057,5.861,14.934,14.934,0,0,0-2.879,5.841,15.333,15.333,0,0,0-.025,7.041c5.467,24.4,15.686,59.471,33.326,87.986,20.535,33.19,46.289,50.022,76.545,50.026h.01a90.386,90.386,0,0,0,17.3-1.738,117.037,117.037,0,0,0,18.887-5.473,161.612,161.612,0,0,0,20.529-9.588,230.146,230.146,0,0,0,22.238-14.084,10.483,10.483,0,0,0,3.391-3.987,10.552,10.552,0,0,0,1.051-4.844,10.287,10.287,0,0,0-1.223-4.628,10.028,10.028,0,0,0-3.447-3.683l-165.385-106.251A15.316,15.316,0,0,0-22606.549,9791.384Z" transform="translate(22768.121 -9228)" stroke="rgba(0,0,0,0)" stroke-miterlimit="10" stroke-width="1" fill="url(#linear-gradient)"/>
  </g>
</svg>
