<svg xmlns="http://www.w3.org/2000/svg" xmlns:xlink="http://www.w3.org/1999/xlink" width="1493" height="198" viewBox="0 0 1493 198">
  <defs>
    <clipPath id="clip-path">
      <rect id="사각형_29449" data-name="사각형 29449" width="1493" height="198" transform="translate(0 15395)" fill="#fff" stroke="#707070" stroke-width="1"/>
    </clipPath>
  </defs>
  <g id="s9_bg_txt" transform="translate(0 -15395)" clip-path="url(#clip-path)">
    <path id="s9_bg_txt-2" data-name="s9_bg_txt" d="M148.458-155.652H107.91v93.74c0,20.056-7.412,30.3-27.25,30.3s-27.25-10.246-27.25-30.3v-93.74H12.862V-64.31c0,45.126,20.71,67.58,67.8,67.58s67.8-22.454,67.8-67.58ZM159.794,0h46.652l31.828-51.884L267.486,0h49.268L261.818-81.75l50.358-73.9H265.96l-27.686,48.4-26.16-48.4H164.372l50.794,73.9ZM399.376-37.932c-5.886,5.45-13.734,11.118-20.71,11.118-10.028,0-20.492-6.976-20.492-17.876,0-9.374,10.464-17,18.094-20.492ZM429.9,0h45.126l-32.7-37.932a65.445,65.445,0,0,0,17.222-37.932H427.716a35.1,35.1,0,0,1-5.668,15.26l-16.132-19.4c15.478-7.848,26.6-20.492,26.6-38.586,0-24.852-20.71-40.33-44.036-40.33-22.454,0-44.472,15.26-44.472,39.458,0,11.772,6.1,21.364,13.734,29.866-18.748,8.72-35.316,23.108-35.316,45.344,0,28.994,24.2,47.524,51.884,47.524,17.44,0,31.174-5.232,44.69-16.35ZM387.822-101.588c-4.8-6.1-10.9-11.118-10.9-19.62,0-6.54,5.45-11.554,12.208-11.554,7.63,0,13.08,4.578,13.08,11.99C402.21-111.4,395.452-106.166,387.822-101.588Zm233.042-54.064H580.316v93.74c0,20.056-7.412,30.3-27.25,30.3s-27.25-10.246-27.25-30.3v-93.74H485.268V-64.31c0,45.126,20.71,67.58,67.8,67.58s67.8-22.454,67.8-67.58ZM647.9,0h40.548V-155.652H647.9Zm137.34,0h66.926c47.306,0,76.3-27.468,76.3-78.48,0-48.178-28.558-77.172-76.3-77.172H785.236Zm40.548-120.772h19.184c27.686,0,42.946,13.734,42.946,42.074,0,31.174-12.208,43.164-42.946,43.818H825.784Zm155,52.538c2.18-13.734,10.9-23.108,23.98-23.108,12.426,0,21.364,10.464,22.018,23.108Zm83.058,20.71c1.744-38.368-18.53-68.888-59.078-68.888-33.354,0-61.04,24.852-61.04,59.514,0,37.932,25.07,60.168,61.912,60.168,25.288,0,49.486-11.336,56.244-37.5h-34.662c-3.488,8.284-12.208,12.426-21.146,12.426-15.7,0-24.634-10.246-25.288-25.724Zm11.99,10.246c1.09,31.61,28.558,40.548,55.372,40.548,25.506,0,54.282-10.028,54.282-40.33,0-9.374-5.886-25.942-28.776-30.52-17-3.706-41.856-5.668-41.856-16.35,0-7.848,9.81-8.5,15.914-8.5,4.578,0,8.72.872,11.772,2.834s4.8,5.014,4.8,9.81h34.226c-1.308-29.43-27.25-36.624-52.1-36.624-22.236,0-51.666,7.412-51.666,34.662,0,30.52,29.212,31.174,52.538,37.06,6.54,1.526,18.094,3.27,18.094,11.99,0,8.938-10.246,11.99-17.44,11.99-5.232,0-10.246-1.308-13.734-3.924a15.2,15.2,0,0,1-6.1-12.644ZM1204.886,0h37.06V-113.142h-37.06Zm37.06-155.652h-37.06v28.34h37.06Zm100.5,96.138c0,14.17-6.758,26.378-22.454,26.378-15.26,0-21.364-13.3-21.364-26.6,0-13.952,5.232-28.34,21.582-28.34C1336.776-88.072,1342.444-73.9,1342.444-59.514Zm35.1-53.628h-35.534v14.17h-.436c-6.54-11.554-16.786-17.44-30.3-17.44-32.046,0-49.7,25.288-49.7,55.372,0,31.828,15.478,56.244,49.7,56.244a35.823,35.823,0,0,0,30.084-16.568h.436v10.682c0,13.952-1.744,26.378-19.4,26.378-5.668,0-10.246-.654-13.516-2.4-3.488-1.744-5.45-4.8-6.322-9.81h-37.06c4.36,30.3,29.212,36.188,55.59,36.188,52.974,0,56.462-34.88,56.462-53.41ZM1401.3,0h37.06V-61.694c0-12.426,6.1-24.2,20.056-24.2,20.274,0,18.53,15.7,18.53,31.174V0h37.06V-72.594c0-16.35-3.052-43.818-40.766-43.818-13.516,0-28.776,7.194-35.534,18.748h-.436v-15.478H1401.3Z" transform="translate(-21 15553.624)" fill="#fff" opacity="0.08"/>
  </g>
</svg>
