<svg xmlns="http://www.w3.org/2000/svg" xmlns:xlink="http://www.w3.org/1999/xlink" width="432.791" height="203.361" viewBox="0 0 432.791 203.361">
  <defs>
    <linearGradient id="linear-gradient" x1="-0.034" y1="0.186" x2="1" y2="1" gradientUnits="objectBoundingBox">
      <stop offset="0" stop-color="#44cffb"/>
      <stop offset="1" stop-color="#6d06dc"/>
    </linearGradient>
  </defs>
  <g id="그룹_61415" data-name="그룹 61415" transform="translate(-297.209 -14211.568)">
    <rect id="사각형_3395" data-name="사각형 3395" width="196.996" height="88.142" transform="translate(297.209 14211.568)" fill="url(#linear-gradient)"/>
    <g id="그룹_61414" data-name="그룹 61414">
      <text id="빌런즈_포인트" data-name="빌런즈 포인트" transform="translate(300 14395.93)" fill="#fff" font-size="82" font-family="Pretendard-Bold, Pretendard" font-weight="700" letter-spacing="-0.03em"><tspan x="0" y="0">빌런즈 포인트</tspan></text>
      <g id="그룹_7443" data-name="그룹 7443" transform="translate(302.182 14223.316)">
        <g id="그룹_7388" data-name="그룹 7388" transform="translate(194.509 0.684)">
          <g id="그룹_7385" data-name="그룹 7385" transform="translate(0 0)">
            <path id="패스_6717" data-name="패스 6717" d="M340.691,40.617H273.957v-7.61h66.734Zm-59.123,3.606h51.112V61.446H291.822v4.166h43.021v6.97H281.648V54.957h40.937V51.272H281.567ZM282.128,1.6H332.6V18.746H292.463v3.926h41.418v6.889H282.289v-17.3h40.056V8.572H282.128Z" transform="translate(-273.957 -0.241)" fill="#fff"/>
            <path id="패스_6718" data-name="패스 6718" d="M405.831,36.131l.64,7.53A156.38,156.38,0,0,1,388.206,46.1V71.06H378.031V46.705c-6.409.28-12.457.32-17.7.4l-1.282-8.333c12.939-.04,31.243-.28,46.786-2.643m-3.926-17.3c0,9.093-8.091,15.542-19.227,15.462-11.1.08-19.187-6.369-19.147-15.462-.04-9.173,8.051-15.542,19.147-15.462,11.136-.08,19.227,6.289,19.227,15.462m-19.227,7.13c5.607.08,9.533-2.564,9.533-7.13,0-4.647-3.926-7.33-9.533-7.29-5.447-.04-9.333,2.643-9.293,7.29-.04,4.566,3.846,7.21,9.293,7.13M410.237.4h10.094V73.223H410.237Z" transform="translate(-273.921 -0.24)" fill="#fff"/>
            <path id="패스_6719" data-name="패스 6719" d="M427.294,8.011h16.583V.24h10.174V8.011h16.5V16.1H427.294Zm21.63,10.655c10.575,0,17.945,5.648,17.945,14.1,0,8.412-7.37,13.939-17.945,13.939-10.616,0-18.106-5.527-18.106-13.939,0-8.452,7.49-14.1,18.106-14.1M437.868,50.631h10.174V63.77h39.736v8.172H437.868Zm11.056-11.7c4.926,0,8.251-2.163,8.251-6.169,0-4.046-3.325-6.289-8.251-6.329-4.887.04-8.132,2.283-8.092,6.329-.04,4.006,3.2,6.169,8.092,6.169m36.211-16.183h9.854v8.332h-9.854V54.8H474.88V.4h10.254Z" transform="translate(-273.891 -0.24)" fill="#fff"/>
          </g>
        </g>
        <g id="그룹_7391" data-name="그룹 7391" transform="translate(0 0)">
          <path id="패스_6720" data-name="패스 6720" d="M12.353,30.379v-11.8h9.284V30.124c6.652-.256,13.414-.695,19.664-1.461l.512,6.506C27.961,37.543,12.793,37.945.8,37.945L0,30.49c3.8,0,7.968-.037,12.353-.11M38.3,8.048A84.715,84.715,0,0,1,36.7,25.518l-9.138-.658a75.264,75.264,0,0,0,1.427-13.669H3.947V3.735H38.3ZM31.8,41.454c14.254,0,23.1,4.715,23.1,12.354,0,8.041-8.845,12.683-23.1,12.647C17.544,66.49,8.625,61.849,8.625,53.807c0-7.639,8.918-12.354,23.172-12.354m0,17.763c8.736,0,13.523-1.645,13.523-5.41,0-3.362-4.787-5.226-13.523-5.19-8.734-.037-13.705,1.828-13.67,5.19-.036,3.765,4.936,5.41,13.67,5.41M44.883.08h9.576V16.454h8.114V24.2H54.458V40.65H44.883Z" transform="translate(0 -0.08)" fill="#fff"/>
          <path id="패스_6721" data-name="패스 6721" d="M69.371,51.435H91.082V28.555h9.284v22.88h29.677v7.6H69.371ZM124.2,12.693a156.571,156.571,0,0,1-2.7,31.8l-9.357-.95a141.154,141.154,0,0,0,2.7-29.751H75.658V6.406H124.2Z" transform="translate(-6.046 -0.632)" fill="#fff"/>
          <path id="패스_6722" data-name="패스 6722" d="M198.451,44.568H172.575V66.936h-9.211V44.568H137.779V37.111h60.672ZM162.67,11.234H143.262V3.924h49.78v7.31H173.635c.95,6.542,8.3,13.048,21.965,14.693l-3.362,7.31c-11.7-1.572-20.065-6.542-24.085-13.378C164.1,26.695,155.8,31.665,144.212,33.237l-3.435-7.31c13.45-1.645,20.906-8.151,21.894-14.693" transform="translate(-12.009 -0.415)" fill="#fff"/>
        </g>
      </g>
    </g>
  </g>
</svg>
