<svg xmlns="http://www.w3.org/2000/svg" xmlns:xlink="http://www.w3.org/1999/xlink" width="175" height="79.998" viewBox="0 0 175 79.998">
  <defs>
    <linearGradient id="linear-gradient" x1="-0.034" y1="0.186" x2="1" y2="1" gradientUnits="objectBoundingBox">
      <stop offset="0" stop-color="#44cffb"/>
      <stop offset="1" stop-color="#6d06dc"/>
    </linearGradient>
  </defs>
  <g id="그룹_61404" data-name="그룹 61404" transform="translate(-14 -7018.757)">
    <rect id="사각형_3329" data-name="사각형 3329" width="79.228" height="35.449" transform="translate(14 7018.757)" fill="url(#linear-gradient)"/>
    <g id="그룹_61403" data-name="그룹 61403">
      <text id="빌런즈_포인트" data-name="빌런즈 포인트" transform="translate(16 7090.755)" fill="#fff" font-size="33" font-family="Pretendard-Bold, Pretendard" font-weight="700" letter-spacing="-0.03em"><tspan x="0" y="0">빌런즈 포인트</tspan></text>
      <g id="그룹_7392" data-name="그룹 7392" transform="translate(0 -174.246)">
        <g id="그룹_7388" data-name="그룹 7388" transform="translate(-36 -7033.998)">
          <g id="그룹_7385" data-name="그룹 7385" transform="translate(3109 23199.875)">
            <path id="패스_6717" data-name="패스 6717" d="M300.8,17.293H273.957V14.232H300.8Zm-23.778,1.45h20.556V25.67H281.142v1.675h17.3v2.8H277.05V23.06h16.464V21.578h-16.5ZM277.243,1.6h20.3V8.5H281.4v1.579h16.658v2.771H277.308V5.887h16.11V4.405H277.243Z" transform="translate(-3252.729 -8968.93)" fill="#fff"/>
            <path id="패스_6718" data-name="패스 6718" d="M377.862,14.77l.258,3.029a62.892,62.892,0,0,1-7.346.983V28.818h-4.092V19.023c-2.578.113-5.01.129-7.12.161l-.515-3.351a135.418,135.418,0,0,0,18.817-1.063m-1.579-6.96c0,3.657-3.254,6.251-7.733,6.218-4.463.032-7.717-2.561-7.7-6.218-.016-3.689,3.238-6.251,7.7-6.218,4.479-.032,7.733,2.529,7.733,6.218m-7.733,2.868c2.255.032,3.834-1.031,3.834-2.868,0-1.869-1.579-2.948-3.834-2.932-2.191-.016-3.754,1.063-3.738,2.932-.016,1.836,1.547,2.9,3.738,2.868M379.634.4h4.06V29.688h-4.06Z" transform="translate(-3303.581 -8968.211)" fill="#fff"/>
            <path id="패스_6719" data-name="패스 6719" d="M427.294,3.365h6.669V.24h4.092V3.365h6.637V6.62h-17.4Zm8.7,4.285c4.253,0,7.217,2.272,7.217,5.671,0,3.383-2.964,5.606-7.217,5.606-4.269,0-7.282-2.223-7.282-5.606,0-3.4,3.012-5.671,7.282-5.671m-4.446,12.856h4.092V25.79H451.62v3.286H431.547Zm4.446-4.7c1.981,0,3.319-.87,3.319-2.481,0-1.627-1.337-2.529-3.319-2.545-1.966.016-3.27.918-3.254,2.545-.016,1.611,1.289,2.481,3.254,2.481m14.563-6.509h3.963v3.351h-3.963v9.537h-4.124V.3h4.124Z" transform="translate(-3344.37 -8968.115)" fill="#fff"/>
          </g>
        </g>
        <g id="그룹_7391" data-name="그룹 7391" transform="translate(3116 23199.664)">
          <path id="패스_6720" data-name="패스 6720" d="M4.968,12.266V7.518H8.7v4.645c2.675-.1,5.395-.279,7.908-.588l.206,2.617A100.965,100.965,0,0,1,.323,15.308L0,12.31c1.529,0,3.2-.015,4.968-.044M15.405,3.285a34.071,34.071,0,0,1-.647,7.026l-3.675-.265a30.27,30.27,0,0,0,.574-5.5H1.587v-3H15.405ZM12.789,16.72c5.733,0,9.29,1.9,9.29,4.968,0,3.234-3.557,5.1-9.29,5.086-5.733.015-9.32-1.852-9.32-5.086,0-3.072,3.587-4.968,9.32-4.968m0,7.144c3.513,0,5.439-.662,5.439-2.176,0-1.352-1.925-2.1-5.439-2.087-3.513-.015-5.512.735-5.5,2.087-.014,1.514,1.985,2.176,5.5,2.176M18.051.08H21.9V6.665h3.263V9.782H21.9V16.4H18.051Z" transform="translate(-3100 -16002.018)" fill="#fff"/>
          <path id="패스_6721" data-name="패스 6721" d="M69.371,24.516H78.1v-9.2h3.734v9.2H93.772v3.058h-24.4ZM91.42,8.934a62.97,62.97,0,0,1-1.088,12.789l-3.763-.382A56.769,56.769,0,0,0,87.657,9.375H71.9V6.406H91.42Z" transform="translate(-3143.903 -16006.021)" fill="#fff"/>
          <path id="패스_6722" data-name="패스 6722" d="M162.18,20.27H151.773v9h-3.7v-9h-10.29v-3h24.4ZM147.79,6.864h-7.806V3.924H160v2.94h-7.8c.382,2.631,3.336,5.248,8.834,5.909l-1.352,2.94c-4.7-.632-8.07-2.631-9.687-5.38-1.632,2.749-4.968,4.748-9.629,5.38l-1.382-2.94c5.409-.662,8.408-3.278,8.805-5.909" transform="translate(-3187.197 -16004.45)" fill="#fff"/>
        </g>
      </g>
    </g>
  </g>
</svg>
