<svg xmlns="http://www.w3.org/2000/svg" xmlns:xlink="http://www.w3.org/1999/xlink" width="205.15" height="79.998" viewBox="0 0 205.15 79.998">
  <defs>
    <linearGradient id="linear-gradient" x1="-0.034" y1="0.186" x2="1" y2="1" gradientUnits="objectBoundingBox">
      <stop offset="0" stop-color="#fb44ef"/>
      <stop offset="1" stop-color="#6d06dc"/>
    </linearGradient>
  </defs>
  <g id="그룹_61408" data-name="그룹 61408" transform="translate(-14 -14028)">
    <rect id="사각형_3011" data-name="사각형 3011" width="115.228" height="35.449" transform="translate(14 14028)" fill="url(#linear-gradient)"/>
    <g id="그룹_61407" data-name="그룹 61407">
      <text id="빌런즈_포인트" data-name="빌런즈 포인트" transform="translate(16 14099.998)" fill="#fff" font-size="33" font-family="Pretendard-Bold, Pretendard" font-weight="700" letter-spacing="-0.03em"><tspan x="0" y="0">빌런즈 포인트</tspan></text>
      <g id="그룹_7386" data-name="그룹 7386" transform="translate(0 -199)">
        <g id="그룹_7384" data-name="그룹 7384" transform="translate(3106 23199.973)">
          <path id="패스_6713" data-name="패스 6713" d="M10.729,25.3h5.316V19.338h4.092V25.3h6.7v3.319H0V25.3H6.669V19.338h4.06ZM11.052,6.45V4.324h4.382V6.45c-.016,4,3.77,8.232,10.439,9.215l-1.643,3.416c-5.22-.9-9.07-3.56-10.987-7.1-1.949,3.544-5.8,6.235-10.955,7.1L.645,15.665C7.25,14.65,11.019,10.4,11.052,6.45" transform="translate(-3089 -8970.556)" fill="#fff"/>
          <path id="패스_6714" data-name="패스 6714" d="M68.543,22.747H79.852V19.38c-4.994-.451-8.023-2.5-7.99-5.719-.032-3.56,3.818-5.687,10.02-5.671,6.09-.016,10,2.11,9.988,5.671.016,3.222-3.045,5.268-7.958,5.7v3.383h11.47v3.286H68.543ZM94.093,6.7H69.7V3.415H79.852V0h4.06V3.415H94.093ZM81.882,16.174c3.721.016,5.767-.773,5.767-2.513,0-1.675-2.046-2.465-5.767-2.481-3.8.016-5.816.806-5.8,2.481-.016,1.74,2,2.529,5.8,2.513" transform="translate(-3129.964 -8967.972)" fill="#fff"/>
          <path id="패스_6715" data-name="패스 6715" d="M137.085,25.713h26.839V29.1H137.085Zm25.873-8.441-1.8,3.415c-5.123-1.015-8.909-3.9-10.81-7.652a15.285,15.285,0,0,1-10.81,7.652l-1.772-3.415c6.525-1.16,10.343-5.767,10.375-10.02V5.125h4.382V7.251c-.016,4.3,3.8,8.892,10.439,10.02" transform="translate(-3170.928 -8971.035)" fill="#fff"/>
          <path id="패스_6716" data-name="패스 6716" d="M205.628,26.081h26.839v3.351H205.628Zm23.907-4.156H208.786V5.686h20.524V9H212.974V12.1h15.659V15.32H212.974V18.67h16.561Z" transform="translate(-3211.892 -8971.37)" fill="#fff"/>
        </g>
        <g id="그룹_7385" data-name="그룹 7385" transform="translate(3109 23199.875)">
          <path id="패스_6717" data-name="패스 6717" d="M300.8,17.293H273.957V14.232H300.8Zm-23.778,1.45h20.556V25.67H281.142v1.675h17.3v2.8H277.05V23.06h16.464V21.578h-16.5ZM277.243,1.6h20.3V8.5H281.4v1.579h16.658v2.771H277.308V5.887h16.11V4.405H277.243Z" transform="translate(-3252.729 -8968.93)" fill="#fff"/>
          <path id="패스_6718" data-name="패스 6718" d="M377.862,14.77l.258,3.029a62.892,62.892,0,0,1-7.346.983V28.818h-4.092V19.023c-2.578.113-5.01.129-7.12.161l-.515-3.351a135.418,135.418,0,0,0,18.817-1.063m-1.579-6.96c0,3.657-3.254,6.251-7.733,6.218-4.463.032-7.717-2.561-7.7-6.218-.016-3.689,3.238-6.251,7.7-6.218,4.479-.032,7.733,2.529,7.733,6.218m-7.733,2.868c2.255.032,3.834-1.031,3.834-2.868,0-1.869-1.579-2.948-3.834-2.932-2.191-.016-3.754,1.063-3.738,2.932-.016,1.836,1.547,2.9,3.738,2.868M379.634.4h4.06V29.688h-4.06Z" transform="translate(-3303.581 -8968.211)" fill="#fff"/>
          <path id="패스_6719" data-name="패스 6719" d="M427.294,3.365h6.669V.24h4.092V3.365h6.637V6.62h-17.4Zm8.7,4.285c4.253,0,7.217,2.272,7.217,5.671,0,3.383-2.964,5.606-7.217,5.606-4.269,0-7.282-2.223-7.282-5.606,0-3.4,3.012-5.671,7.282-5.671m-4.446,12.856h4.092V25.79H451.62v3.286H431.547Zm4.446-4.7c1.981,0,3.319-.87,3.319-2.481,0-1.627-1.337-2.529-3.319-2.545-1.966.016-3.27.918-3.254,2.545-.016,1.611,1.289,2.481,3.254,2.481m14.563-6.509h3.963v3.351h-3.963v9.537h-4.124V.3h4.124Z" transform="translate(-3344.37 -8968.115)" fill="#fff"/>
        </g>
      </g>
    </g>
  </g>
</svg>
