<svg xmlns="http://www.w3.org/2000/svg" width="344.3" height="45.55" viewBox="0 0 344.3 45.55">
  <path id="패스_17108" data-name="패스 17108" d="M34.05-35.7h-9.3v21.5c0,4.6-1.7,6.95-6.25,6.95S12.25-9.6,12.25-14.2V-35.7H2.95v20.95C2.95-4.4,7.7.75,18.5.75S34.05-4.4,34.05-14.75ZM36.65,0h10.7l7.3-11.9L61.35,0h11.3L60.05-18.75,71.6-35.7H61L54.65-24.6l-6-11.1H37.7L49.35-18.75ZM91.6-8.7c-1.35,1.25-3.15,2.55-4.75,2.55-2.3,0-4.7-1.6-4.7-4.1,0-2.15,2.4-3.9,4.15-4.7Zm7,8.7h10.35l-7.5-8.7a15.01,15.01,0,0,0,3.95-8.7H98.1a8.05,8.05,0,0,1-1.3,3.5l-3.7-4.45c3.55-1.8,6.1-4.7,6.1-8.85,0-5.7-4.75-9.25-10.1-9.25-5.15,0-10.2,3.5-10.2,9.05,0,2.7,1.4,4.9,3.15,6.85-4.3,2-8.1,5.3-8.1,10.4C73.95-3.5,79.5.75,85.85.75A15.192,15.192,0,0,0,96.1-3ZM88.95-23.3c-1.1-1.4-2.5-2.55-2.5-4.5a2.7,2.7,0,0,1,2.8-2.65,2.722,2.722,0,0,1,3,2.75C92.25-25.55,90.7-24.35,88.95-23.3ZM142.4-35.7h-9.3v21.5c0,4.6-1.7,6.95-6.25,6.95S120.6-9.6,120.6-14.2V-35.7h-9.3v20.95c0,10.35,4.75,15.5,15.55,15.5S142.4-4.4,142.4-14.75ZM148.6,0h9.3V-35.7h-9.3Zm31.5,0h15.35c10.85,0,17.5-6.3,17.5-18,0-11.05-6.55-17.7-17.5-17.7H180.1Zm9.3-27.7h4.4c6.35,0,9.85,3.15,9.85,9.65,0,7.15-2.8,9.9-9.85,10.05h-4.4Zm35.55,12.05c.5-3.15,2.5-5.3,5.5-5.3,2.85,0,4.9,2.4,5.05,5.3ZM244-10.9c.4-8.8-4.25-15.8-13.55-15.8-7.65,0-14,5.7-14,13.65,0,8.7,5.75,13.8,14.2,13.8,5.8,0,11.35-2.6,12.9-8.6H235.6A5.069,5.069,0,0,1,230.75-5c-3.6,0-5.65-2.35-5.8-5.9Zm2.75,2.35C247-1.3,253.3.75,259.45.75c5.85,0,12.45-2.3,12.45-9.25,0-2.15-1.35-5.95-6.6-7-3.9-.85-9.6-1.3-9.6-3.75,0-1.8,2.25-1.95,3.65-1.95a5.028,5.028,0,0,1,2.7.65,2.445,2.445,0,0,1,1.1,2.25H271c-.3-6.75-6.25-8.4-11.95-8.4-5.1,0-11.85,1.7-11.85,7.95,0,7,6.7,7.15,12.05,8.5,1.5.35,4.15.75,4.15,2.75,0,2.05-2.35,2.75-4,2.75a5.325,5.325,0,0,1-3.15-.9,3.487,3.487,0,0,1-1.4-2.9ZM276.35,0h8.5V-25.95h-8.5Zm8.5-35.7h-8.5v6.5h8.5ZM307.9-13.65c0,3.25-1.55,6.05-5.15,6.05-3.5,0-4.9-3.05-4.9-6.1,0-3.2,1.2-6.5,4.95-6.5C306.6-20.2,307.9-16.95,307.9-13.65Zm8.05-12.3H307.8v3.25h-.1a7.506,7.506,0,0,0-6.95-4c-7.35,0-11.4,5.8-11.4,12.7,0,7.3,3.55,12.9,11.4,12.9a8.216,8.216,0,0,0,6.9-3.8h.1v2.45c0,3.2-.4,6.05-4.45,6.05a6.753,6.753,0,0,1-3.1-.55A2.777,2.777,0,0,1,298.75.8h-8.5c1,6.95,6.7,8.3,12.75,8.3,12.15,0,12.95-8,12.95-12.25ZM321.4,0h8.5V-14.15c0-2.85,1.4-5.55,4.6-5.55,4.65,0,4.25,3.6,4.25,7.15V0h8.5V-16.65c0-3.75-.7-10.05-9.35-10.05-3.1,0-6.6,1.65-8.15,4.3h-.1v-3.55H321.4Z" transform="translate(-2.95 36.45)" fill="#fff" opacity="0.08"/>
</svg>
