<svg id="logo_wh" xmlns="http://www.w3.org/2000/svg" xmlns:xlink="http://www.w3.org/1999/xlink" width="550.396" height="309.721" viewBox="0 0 550.396 309.721">
  <defs>
    <clipPath id="clip-path">
      <rect id="사각형_2549" data-name="사각형 2549" width="550.396" height="309.721" fill="none"/>
    </clipPath>
  </defs>
  <g id="그룹_5732" data-name="그룹 5732" clip-path="url(#clip-path)">
    <path id="패스_4960" data-name="패스 4960" d="M809.025,325.268c-1.45-12.336-12.961-17.525-19.769-24.741h-.011c-6.812,7.216-18.323,12.405-19.763,24.741-1.68,14.265,12.227,17.3,18.113,10.734a15.789,15.789,0,0,1-7,8.322H797.9A15.871,15.871,0,0,1,790.884,336c5.9,6.571,19.8,3.531,18.141-10.734" transform="translate(-514.074 -200.812)" fill="#fff"/>
    <path id="패스_4961" data-name="패스 4961" d="M833.489,539.991l-2.55-10.075,4.007,8.336Z" transform="translate(-555.233 -354.09)" fill="#fff"/>
    <path id="패스_4962" data-name="패스 4962" d="M815.889,539.708l2.49-10.338-3.954,8.592Z" transform="translate(-544.199 -353.725)" fill="#fff"/>
    <path id="패스_4963" data-name="패스 4963" d="M825.319,548.207l1.059-9.645,1.382,9.645Z" transform="translate(-551.478 -359.867)" fill="#fff"/>
    <path id="패스_4964" data-name="패스 4964" d="M770.461,218.43s-29.3,10.549-29.3,20.159v42.958c0,23.9,29.3,39.136,29.3,39.136s29.1-15.019,29.1-39.136V238.589c0-9.563-29.1-20.159-29.1-20.159m14.3,88.962a1.861,1.861,0,0,0-2.947-.563,1.884,1.884,0,0,0-.125,2.639,1.518,1.518,0,0,0,.455.381c-1.26,1.116-2.511,2.14-3.663,3.038a2.123,2.123,0,0,0-.3-.591,1.873,1.873,0,1,0-3.051,2.172,1.741,1.741,0,0,0,.513.509c-1.329.914-2.46,1.657-3.351,2.2a2.083,2.083,0,0,0-.326-.693,1.92,1.92,0,0,0-2.622-.445,1.845,1.845,0,0,0-.748,1.248c-.884-.554-2.072-1.309-3.443-2.259a1.89,1.89,0,1,0-2.455-2.752,1.794,1.794,0,0,0-.333.707c-1.2-.918-2.448-1.937-3.74-3.076a2.008,2.008,0,0,0,.551-.445,1.921,1.921,0,0,0-.13-2.653,1.9,1.9,0,0,0-2.644.139,1.578,1.578,0,0,0-.367.54c-1.107-1.081-2.2-2.238-3.271-3.474a1.5,1.5,0,0,0,.491-.309,1.886,1.886,0,0,0,.236-2.628,1.9,1.9,0,0,0-2.63-.257,1.567,1.567,0,0,0-.368.393,46.036,46.036,0,0,1-2.6-3.913,1.452,1.452,0,0,0,.411-.192,1.879,1.879,0,0,0-1.809-3.293,1.819,1.819,0,0,0-.339.225,33.056,33.056,0,0,1-1.684-4.322,1.787,1.787,0,0,0,.341-.067,1.875,1.875,0,0,0-.94-3.631,1.214,1.214,0,0,0-.288.077,28.259,28.259,0,0,1-.473-4.582.913.913,0,0,0,.281.027,1.875,1.875,0,1,0-.04-3.75,1.106,1.106,0,0,0-.271.031v-4.568a1.248,1.248,0,0,0,.271.029,1.876,1.876,0,1,0,0-3.753,1.725,1.725,0,0,0-.271.025v-4.563a1.836,1.836,0,0,0,.271.037,1.882,1.882,0,1,0,0-3.765c-.09,0-.18.018-.271.025V256.73a1.41,1.41,0,0,0,.271.03,1.876,1.876,0,1,0,0-3.753,1.646,1.646,0,0,0-.271.028v-4.56a2.446,2.446,0,0,0,.271.025,1.88,1.88,0,1,0,0-3.759,1.1,1.1,0,0,0-.271.029v-4.6a1.164,1.164,0,0,0,.313.072,2.876,2.876,0,0,0,1.383-.288,1.6,1.6,0,0,0,.848-.74,1.783,1.783,0,0,0,.011-1.214,2.124,2.124,0,0,0-.793-1.176,1.755,1.755,0,0,0-.682-.3,16.668,16.668,0,0,1,3.408-3.777,1.889,1.889,0,1,0,3.4-1.381,1.665,1.665,0,0,0-.767-.654c1.366-.968,2.859-1.9,4.375-2.778a1.93,1.93,0,0,0,2.784,1.846,1.912,1.912,0,0,0-.033-3.361c1.625-.859,3.225-1.65,4.735-2.354a1.827,1.827,0,0,0,.118,1.2,1.878,1.878,0,1,0,3.432-1.525,1.787,1.787,0,0,0-.819-.9c1.367-.613,2.563-1.1,3.5-1.484a1.674,1.674,0,0,0,.106.356,1.921,1.921,0,0,0,2.485.967,1.85,1.85,0,0,0,1.084-1.494c1,.4,2.4.979,4.044,1.7a1.886,1.886,0,1,0,2.67,2.4,1.878,1.878,0,0,0,.154-1.1c1.464.7,3.033,1.482,4.593,2.318a1.915,1.915,0,0,0,.042,3.308,1.916,1.916,0,0,0,2.792-1.726c1.475.876,2.919,1.785,4.227,2.742a1.877,1.877,0,0,0-.655.587,1.922,1.922,0,0,0,.39,2.617,1.942,1.942,0,0,0,2.607-.367,1.636,1.636,0,0,0,.373-.717,16.122,16.122,0,0,1,3.236,3.709,1.61,1.61,0,0,0-.5.241,2.154,2.154,0,0,0-.824,2.38,1.537,1.537,0,0,0,.831.747,2.842,2.842,0,0,0,1.382.3c.032,0,.067-.012.11-.015v4.52c-.025,0-.055,0-.083,0a1.876,1.876,0,1,0,0,3.752.211.211,0,0,0,.083-.021v4.521c-.025,0-.055-.015-.083-.015a1.876,1.876,0,1,0,0,3.752h.083v4.5h-.083a1.869,1.869,0,1,0,0,3.738h.083v4.508h-.083a1.868,1.868,0,1,0,0,3.735h.083v4.507c-.025,0-.055-.008-.083-.008a1.874,1.874,0,1,0-.027,3.748c.027,0,.056-.007.093-.007a30.289,30.289,0,0,1-.449,4.506c-.042,0-.081-.028-.127-.028a1.872,1.872,0,0,0-.916,3.631.8.8,0,0,1,.165.033,33.577,33.577,0,0,1-1.625,4.252c-.065-.031-.121-.082-.2-.121a1.874,1.874,0,0,0-1.785,3.3,1.777,1.777,0,0,0,.272.128,45.419,45.419,0,0,1-2.533,3.851,1.531,1.531,0,0,0-.268-.27,1.92,1.92,0,0,0-2.634.27,1.885,1.885,0,0,0,.262,2.629,1.675,1.675,0,0,0,.351.255c-1.031,1.217-2.091,2.351-3.175,3.419" transform="translate(-495.242 -145.955)" fill="#fff"/>
    <path id="패스_4965" data-name="패스 4965" d="M748.31,174.3s-40.423,13.534-40.423,25.886v4.493a.093.093,0,0,1-.043-.005s0,.083-.006.249v.335c.006.278.006.633.01.992.006.723.006,1.432.006,1.432h.033v1.168l-.052-.008.02,2.889h.033v1.157l-.052-.014.02,2.891.033,0v1.169l-.052-.014.02,2.889.033-.008v1.163h-.052l.02,2.877h.033V225h-.052l.02,2.874h.033v1.167l-.052,0,.02,2.878h.033v1.163l-.052-.011.02,2.887.033-.014v1.181l-.052-.008.02,2.875h.033v1.166l-.052-.009.02,2.881h.033v1.16l-.052-.007.02,2.884h.033v1.16h-.052l.02,2.876h.033v1.163a.181.181,0,0,0-.052-.015c-.01-.021.01.569.052,1.278v.832c0,30.663,40.423,50.231,40.423,50.231s40.145-19.283,40.145-50.231V200.19c0-12.291-40.145-25.886-40.145-25.886m20.91,113.111c-.765-.622-1.845-1.493-2.916-2.382-2-1.632-3.955-3.319-3.955-3.319s1.474,2.133,2.889,4.3c.775,1.179,1.529,2.354,2.079,3.195-.4.352-.8.693-1.185,1.039-.744-.668-1.819-1.612-2.9-2.583-1.883-1.753-3.777-3.507-3.777-3.507s1.338,2.215,2.667,4.429c.733,1.257,1.471,2.513,1.958,3.37-.392.335-.793.662-1.193.974-.716-.7-1.765-1.735-2.83-2.795-1.819-1.834-3.631-3.67-3.631-3.67s1.234,2.268,2.476,4.541c.7,1.348,1.4,2.665,1.863,3.557-.423.306-.826.606-1.226.9-.675-.716-1.727-1.851-2.784-2.977-1.714-1.924-3.442-3.83-3.442-3.83s1.13,2.316,2.261,4.644c.663,1.413,1.321,2.82,1.75,3.714q-.643.438-1.233.832c-.648-.749-1.673-1.953-2.712-3.17-1.657-1.987-3.292-3.988-3.292-3.988s1.039,2.375,2.07,4.753c.62,1.491,1.231,2.979,1.612,3.888-3.367,2.091-5.6,3.2-5.6,3.2s-2.33-1.157-5.83-3.346c.372-.921.959-2.359,1.529-3.8,1.012-2.384,2.017-4.758,2.017-4.758s-1.631,2.006-3.255,4.032c-.956,1.149-1.912,2.29-2.555,3.051-.414-.267-.842-.55-1.271-.849.415-.9,1.026-2.258,1.656-3.616,1.1-2.335,2.208-4.671,2.208-4.671s-1.724,1.942-3.435,3.882c-.956,1.08-1.937,2.139-2.607,2.872-.409-.289-.826-.608-1.249-.927.453-.885,1.1-2.159,1.75-3.45,1.2-2.273,2.4-4.566,2.4-4.566s-1.778,1.874-3.562,3.734c-1,.993-1.964,1.988-2.664,2.692-.42-.323-.826-.66-1.234-1.005.473-.854,1.155-2.061,1.833-3.278,1.308-2.225,2.621-4.455,2.621-4.455s-1.873,1.783-3.76,3.568c-.981.922-1.962,1.821-2.683,2.485-.414-.343-.809-.7-1.228-1.067.525-.839,1.232-1.959,1.945-3.09,1.39-2.188,2.819-4.327,2.819-4.327l-3.908,3.382c-1,.829-1.985,1.653-2.727,2.279-.407-.384-.8-.765-1.2-1.167.555-.789,1.3-1.848,2.043-2.9,1.491-2.1,3.042-4.16,3.042-4.16s-2.013,1.6-4.082,3.171c-.995.751-1.985,1.5-2.771,2.073-.385-.415-.766-.845-1.145-1.273.6-.757,1.361-1.729,2.142-2.685,1.615-2.012,3.289-3.971,3.289-3.971s-2.118,1.479-4.286,2.912c-.985.671-1.987,1.32-2.778,1.832-.374-.461-.738-.919-1.1-1.38.629-.694,1.413-1.577,2.228-2.447,1.772-1.9,3.564-3.742,3.564-3.742s-2.21,1.337-4.473,2.618c-.991.575-1.985,1.134-2.794,1.575-.352-.491-.7-.986-1.019-1.483.663-.638,1.478-1.427,2.3-2.206,1.884-1.751,3.845-3.446,3.845-3.446s-2.29,1.155-4.643,2.264c-1,.475-2.017.922-2.831,1.288-.32-.521-.61-1.066-.906-1.608.7-.568,1.547-1.25,2.405-1.915,2.032-1.59,4.111-3.108,4.111-3.108s-2.406.981-4.835,1.86c-.973.363-1.952.7-2.8.982-.258-.571-.513-1.146-.756-1.732.722-.484,1.591-1.05,2.456-1.6,2.188-1.383,4.411-2.677,4.411-2.677s-2.478.729-4.992,1.358c-.964.246-1.928.481-2.746.665-.212-.6-.419-1.233-.612-1.859.743-.385,1.624-.829,2.5-1.249,2.3-1.143,4.686-2.166,4.686-2.166s-2.544.445-5.109.787c-.935.116-1.876.237-2.69.33-.142-.651-.261-1.3-.378-1.967.754-.28,1.633-.6,2.51-.9,2.423-.848,4.891-1.572,4.891-1.572s-2.578.142-5.154.153c-.89.02-1.77.007-2.56-.008-.068-.664-.1-1.351-.128-2.031.747-.173,1.6-.359,2.443-.537,2.527-.539,5.086-.946,5.086-.946s-2.583-.178-5.173-.5c-.831-.092-1.668-.214-2.413-.313v-1.921l7.539-1.113-7.539-1.018v-1.9l7.539-1.116-7.539-1.016v-1.914l7.539-1.113-7.539-1.01v-1.917l7.539-1.106-7.539-1.007v-1.922l7.539-1.115-7.539-1.01v-1.91l7.539-1.11-7.539-1.009v-1.915l7.539-1.108-7.539-1.014v-1.91l7.539-1.113-7.539-1.017v-1.91L718.1,218.3l-7.539-1.01v-1.9l7.539-1.117-7.539-1.016v-1.914l7.539-1.115-7.539-1V207.3l7.539-1.115s-2.565-.346-5.135-.681c-.838-.117-1.666-.235-2.4-.33v-2.614a19.2,19.2,0,0,1,2.8.394,29.353,29.353,0,0,1,4.924,1.519s-.567-.292-1.4-.8a33.589,33.589,0,0,1-2.929-2.02c-1.081-.835-2.112-1.746-2.844-2.418a9.606,9.606,0,0,1,.949-1.736c.87.47,2.182,1.23,3.452,2.077,2.19,1.411,4.2,2.995,4.2,2.995s-1.693-1.97-3.213-4.044c-.972-1.3-1.892-2.634-2.445-3.453.36-.382.758-.74,1.164-1.114.748.619,2,1.711,3.233,2.855,1.9,1.762,3.713,3.593,3.713,3.593s-1.339-2.212-2.587-4.486c-.829-1.5-1.622-2.994-2.067-3.855.394-.3.811-.591,1.215-.879.655.693,1.823,1.964,2.986,3.265,1.746,1.936,3.4,3.889,3.4,3.889s-1.122-2.335-2.19-4.674c-.726-1.608-1.422-3.215-1.793-4.09.389-.251.791-.5,1.2-.757.594.718,1.723,2.1,2.83,3.517,1.595,2.031,3.169,4.079,3.169,4.079s-.964-2.393-1.921-4.8c-.64-1.69-1.28-3.362-1.608-4.219.407-.235.794-.448,1.21-.682.537.728,1.612,2.2,2.7,3.693,1.5,2.11,2.99,4.209,2.99,4.209s-.854-2.439-1.717-4.884c-.588-1.749-1.165-3.472-1.451-4.332.392-.207.785-.411,1.2-.614.5.739,1.539,2.275,2.59,3.833,1.419,2.155,2.849,4.307,2.849,4.307s-.774-2.475-1.551-4.946c-.54-1.782-1.084-3.571-1.346-4.428.409-.188.819-.377,1.217-.555.462.729,1.475,2.33,2.514,3.951,1.348,2.18,2.716,4.378,2.716,4.378s-.711-2.493-1.416-4.982c-.5-1.842-1-3.678-1.242-4.517.412-.175.817-.354,1.212-.52.427.716,1.44,2.386,2.431,4.049,1.32,2.229,2.63,4.451,2.63,4.451s-.642-2.51-1.3-5.01c-.47-1.882-.95-3.778-1.152-4.6.411-.169.821-.335,1.211-.487.392.7,1.369,2.417,2.355,4.153,1.266,2.248,2.529,4.5,2.529,4.5s-.6-2.519-1.183-5.04c-.426-1.932-.861-3.881-1.051-4.667.525-.21,1.014-.395,1.472-.565.137.242.385.623.661,1.124a18.694,18.694,0,0,1,1.365,3.243,17.091,17.091,0,0,1,.685,3.479c.076.7.1,1.234.1,1.49a21.923,21.923,0,0,1,.562-5.079,19.113,19.113,0,0,1,1.734-4.545c.5.186,1.074.4,1.723.644-.156.695-.595,2.753-1.036,4.813-.557,2.518-1.123,5.042-1.123,5.042s1.243-2.269,2.478-4.548c1.012-1.792,2-3.568,2.365-4.229.376.147.77.311,1.174.474-.168.728-.656,2.73-1.131,4.737-.611,2.512-1.234,5.01-1.234,5.01s1.289-2.245,2.581-4.495c1.015-1.725,2.031-3.449,2.428-4.137.386.164.777.343,1.182.512-.2.764-.707,2.708-1.22,4.66-.7,2.5-1.369,4.982-1.369,4.982s1.34-2.211,2.7-4.416c1.022-1.663,2.05-3.341,2.5-4.048.394.189.787.363,1.187.556-.234.775-.789,2.674-1.35,4.574l-1.481,4.95,2.8-4.35c1.056-1.607,2.112-3.21,2.593-3.929.393.188.787.39,1.183.594-.259.8-.852,2.653-1.456,4.5-.834,2.433-1.655,4.882-1.655,4.882s1.472-2.119,2.951-4.245c1.1-1.551,2.194-3.084,2.711-3.81.386.22.782.438,1.169.661-.291.816-.946,2.592-1.6,4.4-.935,2.4-1.863,4.8-1.863,4.8s1.558-2.056,3.114-4.113c1.173-1.471,2.3-2.931,2.865-3.634.394.249.778.491,1.176.736-.343.815-1.064,2.539-1.826,4.251-1.025,2.363-2.127,4.694-2.127,4.694s1.645-1.985,3.353-3.928c1.206-1.379,2.417-2.72,3.036-3.4.395.285.795.562,1.18.847-.4.81-1.236,2.433-2.093,4.047-1.232,2.286-2.543,4.5-2.543,4.5s1.814-1.849,3.685-3.638c1.278-1.212,2.581-2.382,3.3-3.005.4.353.77.715,1.143,1.072-.528.8-1.469,2.253-2.51,3.673-.748,1.05-1.529,2.063-2.13,2.813l-1.038,1.249s2.021-1.6,4.179-3.046c1.072-.716,2.184-1.418,3.019-1.909.209-.127.392-.228.568-.326a9.5,9.5,0,0,1,.952,1.638,38.617,38.617,0,0,1-3.016,2.693,27.832,27.832,0,0,1-2.866,2.052c-.822.519-1.389.811-1.389.811a32.437,32.437,0,0,1,4.916-1.589,23.255,23.255,0,0,1,3.056-.492v2.649c-.808.126-1.74.245-2.683.4-2.557.38-5.1.761-5.1.761l7.779,1.038v1.845l-7.779,1.142,7.779,1.042v1.851l-7.779,1.144,7.779,1.048v1.84l-7.779,1.152,7.779,1.042V221.2l-7.779,1.141,7.779,1.053v1.839l-7.779,1.145,7.779,1.044v1.844l-7.779,1.151,7.779,1.046V233.3l-7.779,1.149,7.779,1.047v1.838l-7.779,1.145,7.779,1.052v1.841l-7.779,1.152,7.779,1.042v1.846l-7.779,1.143,7.779,1.047v1.846l-7.779,1.145,7.779,1.045v1.843c-.808.125-1.749.254-2.7.4-2.563.348-5.127.577-5.127.577s2.541.366,5.092.86c.933.182,1.876.382,2.687.544-.028.67-.065,1.323-.128,1.974-.851.039-1.839.057-2.83.064-2.57.022-5.138-.071-5.138-.071s2.474.7,4.927,1.494c.969.317,1.918.647,2.749.924-.123.648-.246,1.281-.387,1.9-.858-.073-1.913-.181-2.951-.3-2.573-.278-5.1-.687-5.1-.687s2.387.988,4.753,2.091c.955.438,1.9.9,2.692,1.288-.178.611-.375,1.209-.582,1.8-.874-.165-1.935-.391-3-.652-2.527-.572-5.015-1.254-5.015-1.254s2.261,1.248,4.47,2.593c.954.575,1.91,1.165,2.661,1.66-.235.566-.458,1.119-.727,1.679-.88-.275-1.972-.629-3.06-1-2.435-.831-4.849-1.758-4.849-1.758s2.107,1.475,4.179,3.029c.939.7,1.861,1.418,2.6,1.984-.282.534-.576,1.049-.878,1.562-.871-.368-1.968-.833-3.065-1.328-2.376-1.055-4.683-2.179-4.683-2.179s1.992,1.671,3.906,3.4c.911.81,1.8,1.636,2.5,2.28-.325.489-.66.966-.987,1.447-.853-.446-1.939-1.028-3.046-1.637-2.268-1.233-4.5-2.528-4.5-2.528s1.84,1.811,3.634,3.684c.885.923,1.736,1.829,2.4,2.538-.354.45-.7.91-1.063,1.345-.821-.513-1.918-1.191-3.013-1.9-2.155-1.385-4.3-2.845-4.3-2.845s1.7,1.941,3.363,3.926c.844,1.01,1.682,2.03,2.292,2.784-.375.417-.737.84-1.119,1.235-.8-.57-1.887-1.344-2.973-2.147-2.087-1.528-4.114-3.091-4.114-3.091s1.562,2.039,3.1,4.117c.816,1.1,1.617,2.194,2.192,3.006-.392.38-.778.753-1.177,1.133" transform="translate(-472.973 -116.47)" fill="#fff"/>
    <path id="패스_4966" data-name="패스 4966" d="M828.971,213.886v0Z" transform="translate(-553.918 -142.919)" fill="#fff"/>
    <path id="패스_4967" data-name="패스 4967" d="M728,135.278s-50.622,16.285-50.622,31.144v66.356c0,36.9,50.622,60.432,50.622,60.432s50.264-23.188,50.264-60.432V166.422c0-14.782-50.264-31.144-50.264-31.144m38.835,24.688a2.54,2.54,0,0,1,3.728-.309,2.508,2.508,0,0,1,.189,3.749,2.7,2.7,0,0,1-3.581.152,2.665,2.665,0,0,1-.336-3.592M757.1,153.9a2.612,2.612,0,1,1,4.547,2.571A2.613,2.613,0,0,1,757.1,153.9m-10.342-4.983a2.608,2.608,0,1,1,1.306,3.421,2.587,2.587,0,0,1-1.306-3.421m-10.641-4.334a2.611,2.611,0,1,1,1.5,3.349,2.6,2.6,0,0,1-1.5-3.349m-8.251-5.645a2.784,2.784,0,1,1-2.779,2.788,2.795,2.795,0,0,1,2.779-2.788m-11.843,4.3a2.586,2.586,0,1,1,1.888,4.815,2.586,2.586,0,1,1-1.888-4.815m-10.716,4.5a2.584,2.584,0,0,1,3.45,1.285,2.606,2.606,0,1,1-3.45-1.285M694.847,153a2.592,2.592,0,0,1,3.578,1,2.61,2.61,0,0,1-4.542,2.569,2.576,2.576,0,0,1,.965-3.568m-9.9,6.761a2.537,2.537,0,0,1,3.726.308,2.668,2.668,0,0,1-.306,3.588,2.734,2.734,0,0,1-3.6-.136,2.533,2.533,0,0,1,.182-3.76m-6.014,10.607a3.339,3.339,0,0,1,.651-1.06,1.962,1.962,0,0,1,1.953-.512,4.215,4.215,0,0,1,1.686.99,2.284,2.284,0,0,1,.474.593,2.5,2.5,0,0,1,.207,1.01,2.584,2.584,0,1,1-5.168,0,2.731,2.731,0,0,1,.2-1.021m2.386,9.9a2.606,2.606,0,1,1-2.582,2.612,2.594,2.594,0,0,1,2.582-2.612m0,11.475a2.618,2.618,0,1,1-2.582,2.614,2.6,2.6,0,0,1,2.582-2.614m0,11.488a2.61,2.61,0,1,1-2.582,2.6,2.592,2.592,0,0,1,2.582-2.6m0,11.484a2.609,2.609,0,1,1-2.582,2.614,2.6,2.6,0,0,1,2.582-2.614M678.741,228.8a2.584,2.584,0,1,1,2.582,2.624,2.6,2.6,0,0,1-2.582-2.624m1.1,12a2.535,2.535,0,0,1,1.99-3.152,2.618,2.618,0,0,1,1.216,5.087,2.545,2.545,0,0,1-3.206-1.934m7.9,12.366a2.544,2.544,0,0,1-3.574-1.05,2.687,2.687,0,0,1-.2-2.045,2.451,2.451,0,0,1,1.313-1.5,2.67,2.67,0,0,1,1.963-.1,2.516,2.516,0,0,1,1.5,1.219,2.673,2.673,0,0,1-1.006,3.483m6.8,9.239a2.613,2.613,0,1,1-3.294-4.056,2.613,2.613,0,0,1,3.294,4.056m8.145,8.076a2.606,2.606,0,1,1-3.827-3.538,2.607,2.607,0,0,1,3.827,3.538m9.04,7.082a2.611,2.611,0,1,1-4.195-3.11,2.611,2.611,0,0,1,4.195,3.11m9.673,6.18a2.594,2.594,0,0,1-3.6.888,2.566,2.566,0,0,1-.867-3.586,2.608,2.608,0,0,1,4.462,2.7m7.815,5.723a2.569,2.569,0,0,1-3.589-.877,2.612,2.612,0,0,1,4.464-2.711,2.58,2.58,0,0,1-.875,3.588m8.947-4.815a2.589,2.589,0,1,1,.879-3.588,2.6,2.6,0,0,1-.879,3.588m9.724-6.537a2.552,2.552,0,0,1-3.641-.543,2.61,2.61,0,0,1,4.188-3.117,2.571,2.571,0,0,1-.547,3.66m9.075-7.5a2.567,2.567,0,0,1-3.7-.141,2.6,2.6,0,0,1,.167-3.642,2.63,2.63,0,0,1,3.643.077,2.591,2.591,0,0,1-.114,3.706m-29,11.594s-42.087-20.311-42.087-52.158v-57.28c0-12.828,42.087-26.893,42.087-26.893s41.81,14.129,41.81,26.893v57.28c0,32.146-41.81,52.158-41.81,52.158m37.092-20.24a2.544,2.544,0,0,1-3.681.381,2.607,2.607,0,0,1,3.254-4.071,2.56,2.56,0,0,1,.428,3.69m6.589-9.989a2.539,2.539,0,0,1-3.556,1.084,2.609,2.609,0,0,1,2.416-4.623,2.531,2.531,0,0,1,1.14,3.539m4.23-11.349a2.548,2.548,0,0,1-1.207,1.7,2.5,2.5,0,0,1-1.979.248,2.678,2.678,0,0,1-1.556-1.217,2.743,2.743,0,0,1-.3-1.873,2.7,2.7,0,0,1,3.021-1.992,2.524,2.524,0,0,1,2.024,3.137m-1.552-9.371a2.613,2.613,0,1,1,2.595-2.618,2.6,2.6,0,0,1-2.595,2.618m0-11.483a2.61,2.61,0,1,1,2.595-2.615,2.6,2.6,0,0,1-2.595,2.615m0-11.485a2.612,2.612,0,1,1,2.595-2.61,2.6,2.6,0,0,1-2.595,2.61m0-11.483a2.61,2.61,0,1,1,2.595-2.613,2.6,2.6,0,0,1-2.595,2.613m0-11.486a2.611,2.611,0,1,1,2.595-2.609,2.6,2.6,0,0,1-2.595,2.609m0-11.488a2.6,2.6,0,0,1-2.578-2.611,3.148,3.148,0,0,1,.043-.527,1.524,1.524,0,0,1,.14-.415,2.525,2.525,0,0,1,.482-.612,4.038,4.038,0,0,1,1.649-1.024,1.981,1.981,0,0,1,1.972.458,3.1,3.1,0,0,1,.663,1.039,4.361,4.361,0,0,1,.175.554,2.5,2.5,0,0,1,.048.527,2.6,2.6,0,0,1-2.595,2.611" transform="translate(-452.627 -90.393)" fill="#fff"/>
    <path id="패스_4968" data-name="패스 4968" d="M29.99,653.084c2.063,0,6.824-.476,7.061-.476.319,0,.795.714.795,1.111,0,2.46.4,5.553.4,8.411,0,1.348-.238,2.3-.872,2.3-.4,0-.873-.238-1.508-2.46-.874-3.094-2.618-5.475-5.553-5.87a72.966,72.966,0,0,0-11.506-.239c-.714.079-1.032,1.428-1.109,1.745-.239,2.777-.16,8.728-.16,18.249,0,.237.237.794.634.794,5.634,0,8.49-.159,10.076-.477,2.3-.4,2.857-2.22,3.492-4.2.474-1.27.873-1.745,1.27-1.745.554,0,.871.872.871,1.587,0,1.031-.4,4.125-.4,5.473-.081,2.38.236,5.633.236,6.427,0,2.063-.554,2.539-1.19,2.539-.158,0-.715-.318-1.031-1.587-.714-2.935-1.747-4.443-3.094-4.443-1.906,0-3.174-.318-10.315-.318-.239,0-.555.557-.555,1.111,0,7.379.079,11.267.16,14.122.236,4.6,1.188,5.157,4.76,6.109,1.348.318,1.983.714,1.983,1.27,0,.238-.477.873-2.061.873-4.128,0-7.38-.4-10.315-.4-2.856,0-5.157.4-9.76.4-1.429,0-2.3-.4-2.3-.953,0-.476.317-.872,1.983-1.269,3.014-.635,4.127-1.745,4.365-4.681.317-3.254.475-10.79.475-19.677,0-9.837-.158-14.915-.4-17.217-.238-2.7-.793-4.125-4.2-4.76C.237,654.512,0,654.036,0,653.64c0-.635.795-.952,2.3-.952,3.649,0,6.744.4,10.315.4Z" transform="translate(0 -436.073)" fill="#fff"/>
    <path id="패스_4969" data-name="패스 4969" d="M177.879,661.417c-.318-4.2-.318-5.237-3.967-6.189-1.587-.4-1.984-.952-1.984-1.348,0-.318.635-.794,1.825-.794,1.9,0,7.141.317,9.84.317,4.045,0,6.584-.317,9.281-.317.793,0,2.064.238,2.064.873s-.713.952-1.9,1.269c-2.7.635-3.571,1.031-3.808,5.157-.317,3.253-.4,7.538-.4,13.092,0,12.773.16,18.645.318,20.628.4,5.236.794,6.268,4.919,7.3.873.237,1.587.556,1.587,1.27,0,.635-.873.952-1.985.952-3.013,0-8.567-.317-10-.317-2.3,0-7.22.317-10.314.317-.874,0-1.906-.238-1.906-1.111,0-.4.794-.874,1.826-1.112,4.285-1.269,4.522-1.746,4.681-6.9.078-3.175.078-12.774.078-18.17,0-5.633.081-12.3-.157-14.915" transform="translate(-114.564 -436.393)" fill="#fff"/>
    <path id="패스_4970" data-name="패스 4970" d="M296.109,652.849c1.824,0,9.6.4,13.883.4a2.733,2.733,0,0,1,1.35.793c1.349,1.508,3.49,3.333,6.9,7.378,3.968,4.761,15.948,17.773,21.1,23.644.636.714.716,0,.8-.476.236-3.014.236-14.519.317-18.724a51.63,51.63,0,0,0-.477-6.269c-.239-2.141-1.269-3.569-5.4-4.442-1.825-.317-2.063-.715-2.063-1.348s1.03-.873,1.746-.873c2.3,0,4.6.317,7.3.317s5.078-.317,7.3-.317c1.27,0,1.826.317,1.826.952,0,.4-.8.953-1.746,1.19-4.365,1.112-4.683,2.46-5.157,5.4-.239,1.587-.714,12.377-.635,28.324,0,2.3.158,5.633.158,13.012,0,.475-.714,2.934-1.11,2.934a4.433,4.433,0,0,1-2.937-1.745l-6.187-7.775c-7.221-8.966-22.851-27.055-27.214-31.1-.158-.318-.636-.318-.715.555-.159,2.3-.079,5.237-.159,11.425-.237,14.757.159,17.218.319,19.438.316,4.047,3.254,4.521,6.585,5.792,1.031.4,1.507.635,1.507.952,0,.635-.873,1.19-1.9,1.19-2.461,0-6.27-.317-9.125-.317-1.506,0-4.363.317-6.428.317-.634,0-1.825-.238-1.825-.953,0-.872,1.27-1.111,1.667-1.19,3.889-1.19,5.315-1.508,5.634-7.458.157-1.984.952-16.9.952-31.737,0-3.967-.715-5.475-3.492-6.347a22.765,22.765,0,0,0-3.252-.872c-.556-.079-1.428-.4-1.428-1.11,0-.4.475-.952,1.9-.952" transform="translate(-196.534 -436.234)" fill="#fff"/>
    <path id="패스_4971" data-name="패스 4971" d="M533.194,652.155a25.561,25.561,0,0,0,.872,2.7c5.315,15.312,12.615,32.609,14.123,36.734,3.016,6.744,3.888,7.616,7.379,8.728,1.27.158,1.9.793,1.9,1.111,0,.4-.4,1.11-1.984,1.11-2.062,0-11.027-.474-12.774-.474-2.459,0-5.156.317-7.377.317-1.429,0-2.064-.556-2.064-.873,0-.634.554-.952,1.587-1.27,3.411-1.111,3.491-1.9,3.491-3.332,0-1.032-3.491-10.157-4.206-12.457-.318-.555-.713-1.507-1.35-1.507-1.823-.159-8.409-.159-12.852,0a2.806,2.806,0,0,0-1.032,1.428c-1.269,3.333-3.331,10.394-3.331,11.981,0,1.824,1.032,3.015,4.442,4.124,1.665.477,1.9.715,1.9,1.191.081.4-.555.794-1.666.794-3.174,0-5.157-.4-8.173-.4-2.618,0-4.84.4-6.9.4-.872,0-1.745-.158-1.826-.873,0-.556.635-.793,1.667-1.031,4.206-1.112,5.316-2.777,7.616-7.856,2.222-4.918,10.87-29.831,13.251-37.051a9.146,9.146,0,0,0,.474-2.3c0-.4.081-.238.081-.793a1.521,1.521,0,0,1,.953-1.111,18.1,18.1,0,0,1,5.077-.08,1.421,1.421,0,0,1,.715.794m-1.43,25.944c-1.269-3.888-3.886-11.187-5.077-14.283-.319-.792-.793-.792-.951-.316-.557,1.509-4.049,10.87-4.763,14.679-.078.4,0,.873.4.952,2.3,0,9.442.08,10.235,0a.815.815,0,0,0,.158-1.031" transform="translate(-336.345 -435.144)" fill="#fff"/>
    <path id="패스_4972" data-name="패스 4972" d="M714.174,653.324c2.143,0,7.3.238,9.362.238,2.936,0,8.889-.238,10.633-.238.714,0,1.9.317,1.9,1.031,0,.477-.4.873-1.983,1.111-4.048.634-4.125,2.142-4.442,6.426-.16,2.54-.318,4.919-.318,15.472,0,8.965.239,16.66.474,19.517.081,1.348,1.429,3.332,2.859,3.49a65.152,65.152,0,0,0,9.043.159c3.412-.238,5.712-2.38,8.252-7.141,1.111-1.9,1.665-2.619,2.14-2.619a1.443,1.443,0,0,1,.794,1.429,42.5,42.5,0,0,1-2.3,9.918c-.079.237-.873,1.666-1.9,1.666-5.315,0-12.853-.317-22.929-.317-8.094,0-10.712.475-13.171.475-1.349,0-1.9-.236-1.9-.951,0-.4.556-.793,1.745-1.031,4.444-.872,5.554-1.826,5.872-5.713.159-1.587.317-8.013.317-20.788,0-9.838,0-11.9-.081-14.519-.078-3.569-.872-4.919-4.441-5.554-1.429-.237-1.9-.793-1.9-1.19s.793-.873,1.982-.873" transform="translate(-474.878 -436.551)" fill="#fff"/>
    <path id="패스_4973" data-name="패스 4973" d="M974.031,652.849c1.826,0,9.6.4,13.886.4a2.732,2.732,0,0,1,1.347.793c1.351,1.508,3.493,3.333,6.9,7.378,3.968,4.761,15.948,17.773,21.106,23.644.633.714.714,0,.792-.476.238-3.014.238-14.519.319-18.724a51.629,51.629,0,0,0-.478-6.269c-.237-2.141-1.269-3.569-5.395-4.442-1.825-.317-2.063-.715-2.063-1.348s1.033-.873,1.747-.873c2.3,0,4.6.317,7.3.317s5.077-.317,7.3-.317c1.27,0,1.824.317,1.824.952,0,.4-.792.953-1.744,1.19-4.365,1.112-4.682,2.46-5.158,5.4-.238,1.587-.715,12.377-.634,28.324,0,2.3.157,5.633.157,13.012,0,.475-.713,2.934-1.109,2.934a4.425,4.425,0,0,1-2.936-1.745l-6.188-7.775c-7.22-8.966-22.85-27.055-27.214-31.1-.158-.318-.635-.318-.713.555-.16,2.3-.079,5.237-.16,11.425-.238,14.757.16,17.218.318,19.438.318,4.047,3.253,4.521,6.585,5.792,1.031.4,1.507.635,1.507.952,0,.635-.873,1.19-1.9,1.19-2.46,0-6.268-.317-9.124-.317-1.508,0-4.365.317-6.427.317-.635,0-1.824-.238-1.824-.953,0-.872,1.27-1.111,1.665-1.19,3.888-1.19,5.316-1.508,5.633-7.458.16-1.984.953-16.9.953-31.737,0-3.967-.714-5.475-3.493-6.347a22.692,22.692,0,0,0-3.251-.872c-.555-.079-1.428-.4-1.428-1.11,0-.4.476-.952,1.9-.952" transform="translate(-649.523 -436.234)" fill="#fff"/>
    <path id="패스_4974" data-name="패스 4974" d="M1196.561,661.417c-.317-4.2-.317-5.237-3.966-6.189-1.588-.4-1.985-.952-1.985-1.348,0-.318.637-.794,1.826-.794,1.9,0,7.14.317,9.838.317,4.047,0,6.586-.317,9.283-.317.793,0,2.063.238,2.063.873s-.714.952-1.9,1.269c-2.7.635-3.572,1.031-3.807,5.157-.318,3.253-.4,7.538-.4,13.092,0,12.773.159,18.645.318,20.628.4,5.236.792,6.268,4.919,7.3.872.237,1.588.556,1.588,1.27,0,.635-.873.952-1.985.952-3.014,0-8.568-.317-10-.317-2.3,0-7.221.317-10.314.317-.873,0-1.9-.238-1.9-1.111,0-.4.792-.874,1.825-1.112,4.284-1.269,4.522-1.746,4.681-6.9.079-3.175.079-12.774.079-18.17,0-5.633.079-12.3-.159-14.915" transform="translate(-795.248 -436.393)" fill="#fff"/>
    <path id="패스_4975" data-name="패스 4975" d="M1314.791,652.849c1.825,0,9.6.4,13.885.4a2.74,2.74,0,0,1,1.347.793c1.349,1.508,3.493,3.333,6.9,7.378,3.966,4.761,15.947,17.773,21.1,23.644.635.714.714,0,.794-.476.236-3.014.236-14.519.316-18.724a51.618,51.618,0,0,0-.476-6.269c-.239-2.141-1.269-3.569-5.4-4.442-1.825-.317-2.063-.715-2.063-1.348s1.033-.873,1.746-.873c2.3,0,4.6.317,7.3.317s5.078-.317,7.3-.317c1.27,0,1.826.317,1.826.952,0,.4-.795.953-1.744,1.19-4.364,1.112-4.684,2.46-5.159,5.4-.239,1.587-.714,12.377-.635,28.324,0,2.3.157,5.633.157,13.012,0,.475-.714,2.934-1.108,2.934a4.427,4.427,0,0,1-2.937-1.745l-6.187-7.775c-7.222-8.966-22.851-27.055-27.216-31.1-.158-.318-.633-.318-.714.555-.158,2.3-.079,5.237-.158,11.425-.239,14.757.158,17.218.318,19.438.316,4.047,3.253,4.521,6.583,5.792,1.032.4,1.51.635,1.51.952,0,.635-.873,1.19-1.906,1.19-2.459,0-6.266-.317-9.124-.317-1.505,0-4.365.317-6.427.317-.635,0-1.824-.238-1.824-.953,0-.872,1.269-1.111,1.666-1.19,3.888-1.19,5.317-1.508,5.634-7.458.158-1.984.951-16.9.951-31.737,0-3.967-.713-5.475-3.491-6.347a22.759,22.759,0,0,0-3.252-.872c-.556-.079-1.426-.4-1.426-1.11,0-.4.474-.952,1.9-.952" transform="translate(-877.218 -436.234)" fill="#fff"/>
    <path id="패스_4976" data-name="패스 4976" d="M1529.6,652.149c4.206,0,5.871.238,9.68.238,1.35,0,12.378.079,13.725,0a55.5,55.5,0,0,0,11.029-.794c.477-.159.794.4.873.555.159.079.635,7.379.635,9.6,0,.873-.317,1.825-.952,1.825-.556,0-1.192-1.11-1.429-1.984-1.109-4.2-2.776-6.109-7.774-6.426-1.745-.079-5.317-.159-8.568-.159-.4,0-.795.636-.874.953-.476,2.538-.4,12.615-.4,18.724,0,.317.475.634.792.634h5.634c3.888,0,4.68-.475,6.506-4.681.317-.793.953-1.586,1.348-1.586.635,0,.874.634.874,1.586,0,1.983-.4,3.65-.4,5.633.08,2.38.319,5.315.4,7.22.158,1.19-.239,1.9-.874,1.9-.555,0-1.111-1.031-1.269-1.507-1.347-3.809-2.221-4.84-4.76-5.078a63.875,63.875,0,0,0-7.616-.238c-.159,0-.634.238-.634,1.269l.159,14.519a7.729,7.729,0,0,0,.951,3.253c1.031,1.19,1.744,1.745,6.823,1.745,8.57,0,9.44-.476,10.87-2.38.952-1.35,2.538-3.809,3.175-5,.793-1.191,1.584-1.9,2.062-1.9.4,0,.714.635.714,1.19,0,1.349-2.7,10.076-3.172,10.631a3.692,3.692,0,0,1-1.827,1.111c-.4,0-14.042-.714-24.993-.714-2.379,0-10.075.475-11.661.475-1.825,0-2.3-.475-2.3-1.031,0-.318.476-.793,1.666-1.032,5.633-1.189,6.188-1.665,6.506-6.743.237-3.491.316-8.013.316-17.693,0-9.361-.08-14.6-.239-16.819-.315-3.016-.792-4.364-4.76-5.158-1.666-.317-2.14-.794-2.14-1.27,0-.4.474-.873,1.9-.873" transform="translate(-1019.906 -435.376)" fill="#fff"/>
    <path id="패스_4977" data-name="패스 4977" d="M760.641,0a18.059,18.059,0,0,1,3.675,6.109c.6,1.982-1,4.672-1.624,6.9a27.389,27.389,0,0,0-.791,5.751c.475-1.551,1.686-6.364,4.945-8.051,2.765-1.43,5.524.155,6.485,2.936.981,2.834.129,6.6-5.363,7.226,3.113-4.492,1.033-5.883.333-6.022-1.5-.3-3.689.814-5.14,5.591h-5.043c-1.452-4.778-3.656-5.888-5.144-5.591-.7.138-2.779,1.6.337,6.095-5.495-.621-6.347-4.429-5.366-7.262.961-2.781,3.72-4.384,6.49-2.954,3.254,1.687,4.462,6.491,4.939,8.042a26.814,26.814,0,0,0-.788-5.756c-.623-2.229-2.224-4.922-1.62-6.9A17.874,17.874,0,0,1,760.641,0M740.635,38.236a99.678,99.678,0,0,1,40.005,0l-.6,1.639a99,99,0,0,0-38.8.006Zm38.115-5.763a1.508,1.508,0,1,1-1.5,1.507,1.509,1.509,0,0,1,1.5-1.507m-6.028-.942a1.508,1.508,0,1,1-1.509,1.506,1.506,1.506,0,0,1,1.509-1.506m-6.028-.432a1.507,1.507,0,1,1-1.509,1.508,1.5,1.5,0,0,1,1.509-1.508m-6.035-.355a1.507,1.507,0,1,1-1.5,1.508,1.507,1.507,0,0,1,1.5-1.508m-6.035.3a1.508,1.508,0,1,1-1.5,1.51,1.509,1.509,0,0,1,1.5-1.51m-6.024.546a1.507,1.507,0,1,1-1.512,1.506,1.507,1.507,0,0,1,1.512-1.506m-6.034.856a1.507,1.507,0,1,1-1.5,1.508,1.509,1.509,0,0,1,1.5-1.508M760.641,4.709a2.178,2.178,0,1,1-2.18,2.18,2.18,2.18,0,0,1,2.18-2.18m-3.076,16.329h6.256a1.2,1.2,0,1,1,0,2.389h-6.256a1.2,1.2,0,1,1,0-2.389m-10.54.4-1.913,1.913-1.917,1.913,1.917,2.063,1.324,1.473h-4.268c-2.036,0-3.734-3.2-4.387-4.3l-2.276-.071,4.659,12.56a98.834,98.834,0,0,1,40.948-.028l4.66-12.6L783.5,24.5c-.655,1.1-2.347,4.3-4.384,4.3h-4.271l1.322-1.473,1.917-1.989-1.917-1.95-1.912-1.932-1.912,1.9-1.914,1.909,1.914,2.06,1.322,1.47h-7.643c-1.584,0-2.884-1.739-2.932-4.153l-1.114-.029h-1.1l-2.674.029c-.05,2.414-1.352,4.153-2.941,4.153H747.62l1.323-1.473,1.914-1.989-1.914-1.95Zm-8.655,1.986h-3.163l-.893-2.389h2.974a1.888,1.888,0,0,1,1.91,1.62.751.751,0,0,1-.829.769m44.541,0h3.16l.9-2.389h-2.98a1.88,1.88,0,0,0-1.9,1.62.748.748,0,0,0,.828.769M726.488.022c2.38,1.574,6,5.152,6.8,7.024.513,1.214.115,3.579.295,5.889a28.367,28.367,0,0,0,1.113,5.631c-.3-4.594.686-8.041,3.313-8.442,3.95-.614,8.993,5.023,7.252,8.934-.534,1.2-1.839,1.914-3.915,1.875,1.652-4.558-1.134-6.124-1.828-6.266s-3.24.675-2.662,5.389l-2.864.254Zm68.3,0c-2.379,1.574-6,5.152-6.8,7.024-.517,1.214-.118,3.579-.3,5.889a28.24,28.24,0,0,1-1.111,5.631c.3-4.594-.688-8.041-3.309-8.442-3.955-.614-8.993,5.023-7.259,8.934.535,1.2,1.844,1.914,3.918,1.875-1.646-4.558,1.14-6.124,1.827-6.266s3.235.675,2.666,5.389l2.859.254Z" transform="translate(-485.439)" fill="#fff" fill-rule="evenodd"/>
    <path id="패스_4978" data-name="패스 4978" d="M1116.509,289.5c4.568-4.269,1.432-9.55,1.432-9.55a3.541,3.541,0,0,1-1.4,2.4c-1.016-3.287,1.52-13.481,1.52-13.481-8.046,5.147-6.836,14.847-6.836,14.847-1.559-1.539-1.235-5.456-1.235-5.456-3.681,3-4.829,9.045-4.6,11.573.207,2.3,1.258,5.066,3.09,6.44-1.886,3.654-5.613,5.65-8.422,5.425-2.44-.2-4.059-2.012-4.566-5.107-1.062-6.49,3.373-11.775,6.943-16.02,2.673-3.189,4.985-5.942,4.55-8.6a6.8,6.8,0,0,0-1.455-3.416,4.818,4.818,0,0,0-4.7-1.453c-4.256.7-7.069,5.474-9.791,10.095-2.388,4.057-4.857,8.235-8.029,9.034a2.291,2.291,0,0,0-.324-.528c-1.582-1.82-16.549-10.011-16.226-14.68s4.119-6.37,5.071-8.705.593-6.765.593-6.765,1.976,3.2,1.779,5.263c0,0,3.562-2.308,5.828-9.694a61.248,61.248,0,0,0,1.691-7.6s1.938,1.9,4.055,1.364c0,0-2.578-3.013-2.106-6.5s.8-6.278-.1-7.861a4.441,4.441,0,0,0,4.111,2.169s-2.038-2.354-2.019-3.759,1.338-4.688-3.936-8.065-10.656-6.806-13.345-5.961a17.548,17.548,0,0,0-4.936,2.611s-7.911-1.424-9.14-.831-1.227,3.482-1.227,3.482-6.383-1.1-6.807-.884-.711,1.319-.711,1.319-3.72-.74-4.011-.159a12.456,12.456,0,0,0-.634,3.3,4.6,4.6,0,0,0,2.56,0c.345-.159-.235,1.266-1.4,1.873s-.689,2.1-.392,2.587,1.89.938,2.055,1.131-.274,2.588,1.788,2.846c.359.043-.833-1.385-.282-2.608s3.575-1.846,3.873-1.787,4.171,4.484,4.081,4.886-.46,1.951-1.548,2.071-1.771-1.221-1.951-2.056-.917.982-.777,1.55c.031.119-3.478,2.155-2.571,4.411s2.809,4.431,3.482,4.076,3.113-3.418,4.693-3.785,4.511.237,4.775,1.134.6-.733.105-1.781c0,0,3.7.145,3.4,1.7s-14.083,1.028-20.97,9.021a15.535,15.535,0,0,1,4.353-.5,21.278,21.278,0,0,0-3.349,2.672,19,19,0,0,1-7.017-3.041c-2.6-1.818-4.112-6.985-4.112-6.985a3.255,3.255,0,0,0-1.1,2.895s-3.244-5.789-2.5-10.431a3.751,3.751,0,0,0-1.322,1.669s.355-1.851-2.046-3.529a2.988,2.988,0,0,0-4.136.4c-4.141-1.449-6.264,1.115-5.731,1.169a10.59,10.59,0,0,1,4.559,1.846,2.752,2.752,0,0,0,1.094,1.524c1.229.861,3.077,1.265,3,2.849a26.556,26.556,0,0,0-2.693-2.2c-1.045-.731-2.713.109-3.553,1.5-4.242.785-4.834,4.012-4.346,3.8a9.884,9.884,0,0,1,4.114-.658,2.9,2.9,0,0,0,2.715,1.88c.866-.22,2.114-.6,2.877.738,0,0-3.949-.829-4.939,1.486a4.117,4.117,0,0,0-.344,1.566c-2.85,3.665-.932,6.579-.721,6.073a9.851,9.851,0,0,1,2.486-3.322,3.726,3.726,0,0,0,1.512.234c.874-.036,1.277-2.725,3.071-1.807,0,0-1.546,1.04-1.543,2.337a8.37,8.37,0,0,1,5.932,1.354,5.512,5.512,0,0,0-1.886,2.412,12.959,12.959,0,0,1,9.338,2.118c.877.6,1.7,1.145,2.5,1.637a13.1,13.1,0,0,0-.447,2.26,18.994,18.994,0,0,1-7.342,1.463c-3.174,0-7.372-3.37-7.372-3.37a3.252,3.252,0,0,0,.758,3s-5.979-2.887-8.025-7.117a3.752,3.752,0,0,0-.13,2.126s-.767-1.723-3.7-1.723a2.989,2.989,0,0,0-3.16,2.7c-4.224,1.184-4.493,4.5-4.028,4.243a10.566,10.566,0,0,1,4.8-1.1,2.753,2.753,0,0,0,1.769.624c1.5,0,3.248-.727,4.092.617a26.5,26.5,0,0,0-3.468-.256c-1.273,0-2.159,1.641-2.052,3.26-3.028,3.073-1.666,6.058-1.388,5.606a9.889,9.889,0,0,1,3-2.9,2.9,2.9,0,0,0,3.3-.013c.585-.677,1.391-1.7,2.784-1.045,0,0-3.712,1.581-3.2,4.048a4.185,4.185,0,0,0,.616,1.48c-.238,4.637,3.005,5.927,2.889,5.392a9.891,9.891,0,0,1,.136-4.15,3.67,3.67,0,0,0,1.371-.672c.7-.53-.513-2.965,1.482-3.241,0,0-.671,1.74.073,2.8a8.376,8.376,0,0,1,5.64-2.288,5.53,5.53,0,0,0-.165,3.056,12.964,12.964,0,0,1,8.867-3.612c1.489-.013,2.827-.056,4.088-.17l.039,0a21.781,21.781,0,0,0,9.558-3.091,19.485,19.485,0,0,1-9.1,4.078c2.824,5.706,7.63,8.053,13.987,11.015,1.493.694,2.95,1.706,4.333,2.243h0a44.111,44.111,0,0,1,3.888,2.671c.1.074.194.176.295.255.231.179.467.382.7.576.218.175.434.364.648.55.081.067.159.14.236.21.27.235.526.475.779.712.2.194.4.394.6.595.04.039.08.079.117.118a12.91,12.91,0,0,1,3.18,4.8c.026.083.056.163.078.244-.01-.029-.029-.06-.041-.09-1.517-3.751-10.945-9.778-11.433-10.089a12.143,12.143,0,0,0-1.808,1.138c-3.381,2.44-11.916,1.537-15.477,6.321a4.515,4.515,0,0,1,3.7.457s-5.715,1.213-5.652,5.58c0,0,2.054-1.579,3.493-1.3a4.427,4.427,0,0,0,.661,4.337c1.665,1.811,6.957,5.311,6.97,5.9s-12.053,1.923-12.407,1.467-.814-2.544-2.211-4.333a1.564,1.564,0,0,0-1.592-.546c-2.051-2.624-4.34-1.71-4.029-1.5a6.846,6.846,0,0,1,2.025,2.394,9.815,9.815,0,0,0-.994.761s-2.672-1.785-4.2-.773c-2.89-1.28-4.46.48-4.1.528a6.977,6.977,0,0,1,3.007,1.338,2.111,2.111,0,0,0,.416,2.01,4.1,4.1,0,0,0-.2.473c-2.82-.39-3.859,1.5-3.512,1.475a6.935,6.935,0,0,1,3.2.638,4.441,4.441,0,0,0,.949,2.524c1.867,2.391,9.318,1.562,9.318,1.562s-2.274,1.463-1.222,3a5.886,5.886,0,0,1-1.937.463c-.354.014.97,1.823,3.809.974,1.238.538,2.636.6,3.338-.058,1.105-1.029,1.655-3.668,2.53-4.348s5.986-3.115,8.577-2.175,1.625,4.2,1.625,4.2a4.468,4.468,0,0,0,2.049-4.512,7.046,7.046,0,0,1,3.761,6.3s4.2-4.331,1.979-7.819c0,0,2.668.075,3.44,1.129a10.827,10.827,0,0,0-4.827-4.513c-.845-.443-3.713-7.14-3.058-8.1s5.1.238,8.723-1.234c1.635-.666,3.782-1.069,5.2-2.118-.432,4.158-6.038,10.159-4.5,15.762a4.5,4.5,0,0,1,2.637-2.636s-2.557,5.247.925,7.886c0,0,.019-2.589,1.123-3.558a4.417,4.417,0,0,0,3.823,2.146c2.454-.2,8.467-2.216,8.944-1.858s-5.9,10.682-6.481,10.682-2.5-.923-4.77-.923a1.569,1.569,0,0,0-1.413.919c-3.329,0-4.015,2.368-3.66,2.253a6.868,6.868,0,0,1,3.134-.125,9.292,9.292,0,0,0-.013,1.255s-3.053,1.008-3.2,2.835c-2.787,1.49-2.363,3.811-2.1,3.555a6.979,6.979,0,0,1,2.9-1.549,2.1,2.1,0,0,0,1.841.909,3.9,3.9,0,0,0,.254.448c-2.042,1.98-1.189,3.965-1,3.672a6.976,6.976,0,0,1,2.468-2.13,4.437,4.437,0,0,0,2.576.807c3.031,0,6.963-6.384,6.963-6.384s-.245,2.691,1.617,2.81a5.749,5.749,0,0,1-.829,1.811c-.2.29,2.032.361,3.108-2.4,1.19-.646,2.1-1.713,2.012-2.671-.132-1.505-1.872-3.563-1.872-4.669s1.227-6.634,3.561-8.1,4.312,1.3,4.312,1.3a4.466,4.466,0,0,0-2.294-4.391,7.037,7.037,0,0,1,7.282.911s-.831-5.976-4.946-6.371c0,0,1.7-2.058,3.008-2.018a10.848,10.848,0,0,0-6.531,1.029c-.867.4-7.914-1.465-8.268-2.574s4.391-5.025,4.391-7.636c0-1.968.519-6.455.093-9.326,3.832-.981,6.478-5.456,9.035-9.8,2.526-4.288,5.134-8.719,8.614-9.289a3.18,3.18,0,0,1,3.164.9,5.349,5.349,0,0,1,1.066,2.585c.312,1.894-1.768,4.372-4.178,7.244-3.786,4.51-8.5,10.123-7.313,17.372.634,3.874,2.855,6.247,6.09,6.507.2.019.391.026.587.026,3.65,0,7.526-2.667,9.471-6.385a4.148,4.148,0,0,0,1.889.037c6.749-1.385,7.747-8.986,7.747-8.986-.757,1.175-3.1,1.439-3.1,1.439m-57.988-68.586c-1.526.047-3.088-1.413-2.74-1.424s3.452-.216,3.835-.229.459.094.466.309-.036,1.3-1.561,1.344" transform="translate(-670.953 -143.523)" fill="#fff"/>
    <path id="패스_4979" data-name="패스 4979" d="M306.624,288.063s1,7.6,7.746,8.985a4.142,4.142,0,0,0,1.887-.036c1.948,3.719,5.824,6.385,9.473,6.385.2,0,.394-.007.588-.026,3.233-.26,5.454-2.633,6.088-6.508,1.185-7.25-3.524-12.862-7.313-17.372-2.41-2.871-4.49-5.35-4.18-7.244a5.367,5.367,0,0,1,1.065-2.585,3.189,3.189,0,0,1,3.168-.9c3.479.57,6.087,5,8.613,9.289,2.556,4.347,5.2,8.822,9.035,9.8-.427,2.87.09,7.357.09,9.326,0,2.61,4.748,6.529,4.392,7.635s-7.4,2.969-8.269,2.574a10.841,10.841,0,0,0-6.529-1.029c1.309-.04,3.007,2.018,3.007,2.018-4.116.4-4.947,6.371-4.947,6.371a7.038,7.038,0,0,1,7.282-.911,4.466,4.466,0,0,0-2.295,4.391s1.977-2.77,4.313-1.305,3.561,6.99,3.561,8.1-1.741,3.164-1.874,4.669c-.084.958.826,2.025,2.013,2.671,1.077,2.759,3.313,2.688,3.105,2.4a5.823,5.823,0,0,1-.825-1.811c1.865-.119,1.618-2.81,1.618-2.81s3.93,6.384,6.962,6.384a4.428,4.428,0,0,0,2.574-.806,6.946,6.946,0,0,1,2.468,2.13c.191.293,1.046-1.692-1-3.672a4.253,4.253,0,0,0,.254-.448,2.1,2.1,0,0,0,1.84-.91,6.976,6.976,0,0,1,2.9,1.55c.263.256.684-2.065-2.1-3.555-.142-1.827-3.194-2.835-3.194-2.835a9.5,9.5,0,0,0-.012-1.255,6.887,6.887,0,0,1,3.135.125c.352.115-.335-2.248-3.664-2.253a1.566,1.566,0,0,0-1.413-.918c-2.268,0-4.192.923-4.774.923s-6.953-10.326-6.475-10.682,6.487,1.662,8.941,1.858a4.415,4.415,0,0,0,3.824-2.146c1.1.969,1.122,3.558,1.122,3.558,3.482-2.638.924-7.886.924-7.886a4.5,4.5,0,0,1,2.636,2.636c1.545-5.6-4.063-11.6-4.5-15.762,1.42,1.049,3.569,1.452,5.2,2.118,3.619,1.472,8.068.273,8.722,1.234s-2.213,7.661-3.06,8.1a10.808,10.808,0,0,0-4.826,4.513c.771-1.054,3.439-1.129,3.439-1.129-2.22,3.488,1.98,7.819,1.98,7.819a7.039,7.039,0,0,1,3.762-6.3,4.466,4.466,0,0,0,2.05,4.511s-.967-3.261,1.624-4.2,7.7,1.492,8.577,2.175,1.423,3.319,2.529,4.348c.7.656,2.1.6,3.34.058,2.84.849,4.164-.96,3.808-.974a5.9,5.9,0,0,1-1.938-.463c1.051-1.542-1.222-3-1.222-3s7.45.829,9.316-1.562a4.415,4.415,0,0,0,.947-2.524,6.982,6.982,0,0,1,3.2-.637c.347.029-.692-1.865-3.512-1.475a4.083,4.083,0,0,0-.194-.473,2.107,2.107,0,0,0,.416-2.01,6.975,6.975,0,0,1,3.008-1.338c.361-.047-1.209-1.807-4.1-.528-1.526-1.011-4.2.773-4.2.773a9.8,9.8,0,0,0-1-.761,6.865,6.865,0,0,1,2.026-2.394c.309-.208-1.978-1.121-4.028,1.5a1.56,1.56,0,0,0-1.591.546c-1.4,1.789-1.854,3.874-2.211,4.333s-12.419-.874-12.408-1.467,5.3-4.094,6.969-5.9a4.432,4.432,0,0,0,.658-4.337c1.442-.275,3.5,1.3,3.5,1.3.061-4.368-5.651-5.581-5.651-5.581a4.5,4.5,0,0,1,3.7-.457c-3.559-4.785-12.094-3.882-15.476-6.321a12.154,12.154,0,0,0-1.807-1.139c-.488.311-9.917,6.338-11.434,10.089-.012.031-.031.061-.04.09.022-.081.053-.162.076-.245a12.93,12.93,0,0,1,3.18-4.8l.119-.118c.2-.2.4-.4.6-.593.252-.238.509-.476.779-.711.077-.07.155-.137.235-.2.216-.187.43-.369.648-.544.237-.2.471-.382.7-.563.1-.077.2-.207.295-.281a44.131,44.131,0,0,1,3.888-2.671h0c1.383,0,2.84-1.548,4.333-2.243,6.357-2.962,11.161-5.336,13.987-11.043a19.385,19.385,0,0,1-9.1-4.064,21.8,21.8,0,0,0,9.558,3.1l.035.005c1.263.113,2.6.159,4.091.171a12.967,12.967,0,0,1,8.868,3.614,5.549,5.549,0,0,0-.166-3.057,8.364,8.364,0,0,1,5.637,2.288c.746-1.061.075-2.8.075-2.8,2,.275.788,2.71,1.484,3.241a3.644,3.644,0,0,0,1.371.672,9.918,9.918,0,0,1,.135,4.15c-.115.534,3.127-.756,2.886-5.392a4.059,4.059,0,0,0,.619-1.48c.511-2.466-3.2-4.047-3.2-4.047,1.391-.658,2.2.368,2.783,1.045a2.9,2.9,0,0,0,3.3.012,9.907,9.907,0,0,1,3,2.9c.278.451,1.64-2.533-1.387-5.606.106-1.62-.78-3.261-2.053-3.261a26.491,26.491,0,0,0-3.467.256c.84-1.343,2.588-.616,4.089-.616a2.757,2.757,0,0,0,1.771-.624,10.57,10.57,0,0,1,4.794,1.1c.466.258.2-3.06-4.028-4.243a2.987,2.987,0,0,0-3.159-2.7c-2.932,0-3.7,1.723-3.7,1.723a3.753,3.753,0,0,0-.129-2.125c-2.051,4.23-8.025,7.117-8.025,7.117a3.253,3.253,0,0,0,.757-3s-4.2,3.369-7.373,3.369a18.98,18.98,0,0,1-7.34-1.463,13.07,13.07,0,0,0-.449-2.26c.8-.492,1.618-1.036,2.5-1.637a12.957,12.957,0,0,1,9.337-2.118,5.528,5.528,0,0,0-1.887-2.412,8.37,8.37,0,0,1,5.933-1.354c0-1.3-1.542-2.338-1.542-2.338,1.792-.918,2.195,1.771,3.069,1.807a3.727,3.727,0,0,0,1.513-.234,9.874,9.874,0,0,1,2.487,3.322c.209.506,2.128-2.408-.725-6.073a4.032,4.032,0,0,0-.341-1.566c-.99-2.315-4.939-1.485-4.939-1.485.763-1.337,2.01-.958,2.879-.738a2.907,2.907,0,0,0,2.714-1.88,9.872,9.872,0,0,1,4.112.659c.489.211-.1-3.016-4.346-3.8-.84-1.387-2.508-2.227-3.552-1.5a26.466,26.466,0,0,0-2.692,2.2c-.079-1.584,1.766-1.987,3-2.849a2.743,2.743,0,0,0,1.093-1.524,10.567,10.567,0,0,1,4.56-1.845c.531-.054-1.592-2.618-5.731-1.17a2.987,2.987,0,0,0-4.135-.4c-2.4,1.679-2.046,3.529-2.046,3.529a3.752,3.752,0,0,0-1.322-1.668c.742,4.642-2.5,10.431-2.5,10.431a3.26,3.26,0,0,0-1.1-2.894s-1.514,5.166-4.114,6.984A19,19,0,0,1,383.7,251.2a21.413,21.413,0,0,0-3.347-2.672,15.543,15.543,0,0,1,4.352.5c-6.888-7.993-20.681-7.465-20.971-9.022s3.4-1.7,3.4-1.7c-.494,1.048-.159,2.677.106,1.78s3.191-1.5,4.773-1.133,4.026,3.428,4.7,3.785,2.574-1.82,3.482-4.076-2.6-4.291-2.571-4.41c.14-.568-.6-2.384-.777-1.55s-.864,2.175-1.952,2.056-1.457-1.668-1.547-2.071,3.785-4.826,4.081-4.886,3.322.566,3.873,1.787-.64,2.651-.282,2.608c2.062-.258,1.624-2.653,1.786-2.846s1.757-.64,2.056-1.131.768-1.981-.393-2.587-1.744-2.033-1.4-1.873a4.6,4.6,0,0,0,2.559,0,12.337,12.337,0,0,0-.632-3.3c-.292-.58-4.012.159-4.012.159s-.291-1.109-.711-1.319-6.807.884-6.807.884,0-2.89-1.227-3.482-9.14.831-9.14.831a17.582,17.582,0,0,0-4.934-2.612c-2.689-.845-8.073,2.585-13.347,5.96s-3.957,6.662-3.938,8.065-2.018,3.759-2.018,3.759a4.441,4.441,0,0,0,4.11-2.17c-.9,1.583-.58,4.378-.106,7.861s-2.1,6.5-2.1,6.5c2.116.535,4.056-1.364,4.056-1.364a61.4,61.4,0,0,0,1.688,7.6c2.27,7.386,5.831,9.694,5.831,9.694-.2-2.058,1.78-5.263,1.78-5.263s-.356,4.432.592,6.765,4.749,4.036,5.07,8.7-14.646,12.861-16.227,14.681a2.292,2.292,0,0,0-.324.529c-3.171-.8-5.639-4.978-8.027-9.034-2.722-4.621-5.536-9.4-9.791-10.095a4.82,4.82,0,0,0-4.706,1.453,6.794,6.794,0,0,0-1.453,3.416c-.435,2.654,1.874,5.406,4.55,8.6,3.566,4.246,8,9.531,6.942,16.02-.507,3.095-2.128,4.909-4.566,5.107-2.809.225-6.537-1.77-8.424-5.425,1.829-1.374,2.884-4.14,3.091-6.439.228-2.528-.92-8.578-4.6-11.573,0,0,.324,3.917-1.234,5.456,0,0,1.208-9.7-6.837-14.847,0,0,2.538,10.195,1.52,13.482a3.54,3.54,0,0,1-1.4-2.4s-3.141,5.281,1.429,9.55c0,0-2.347-.264-3.1-1.439m59.53-68.492c0-.214.083-.319.466-.308s3.487.22,3.835.229-1.214,1.471-2.743,1.424-1.566-1.131-1.559-1.345" transform="translate(-204.886 -143.523)" fill="#fff"/>
    <path id="패스_4980" data-name="패스 4980" d="M430.429,875.924a5.027,5.027,0,0,0,2.179-.344c.144-.086.317-.258.488-.258.087,0,.285.286.23.574a17.33,17.33,0,0,0-.487,3.268c-.029.573-.315.8-.459.8s-.229-.258-.4-.8c-.43-1.29-.544-1.978-2.065-2.064-.859-.057-1.89-.086-3.266-.086-.173,0-.372.372-.4.517a31.634,31.634,0,0,0-.113,4.241c0,3.525.113,9.085.143,9.372.056,1.806.83,1.806,2.063,2.121.4.086.687.23.687.43,0,.257-.343.4-.773.4-.087,0-3.986-.115-4.356-.115-.487,0-3.525.143-4.011.143-.518,0-.719-.172-.719-.373,0-.229.487-.372.633-.4,1.977-.373,1.977-.8,2.178-2.9.141-1.777.285-8,.285-10,0-1.72-.029-1.863-.029-2.952,0-.2-.115-.487-.231-.487-.342,0-2.779.029-3.237.057-1.2.116-1.575.575-2.408,2.035-.228.458-.459.689-.629.689-.231,0-.289-.231-.289-.517a18.943,18.943,0,0,0,.545-3.669.575.575,0,0,1,.373-.458c.086,0,.115.029.286.115a2.23,2.23,0,0,0,1.521.6c.458.028,1.547.085,3.612.085Z" transform="translate(-277.596 -584.775)" fill="#fff"/>
    <path id="패스_4981" data-name="패스 4981" d="M486.233,876.885c1.521,0,2.121.085,3.5.085.485,0,4.47.03,4.958,0a20.106,20.106,0,0,0,3.982-.286c.174-.058.287.143.315.2.06.029.23,2.665.23,3.468,0,.316-.114.658-.345.658-.2,0-.428-.4-.513-.716a2.607,2.607,0,0,0-2.81-2.321c-.631-.029-1.921-.058-3.1-.058-.142,0-.285.229-.315.344-.173.917-.143,4.558-.143,6.764,0,.115.172.229.286.229h2.034c1.4,0,1.692-.172,2.352-1.691.115-.287.342-.574.487-.574.228,0,.316.229.316.574,0,.717-.144,1.319-.144,2.036.029.859.113,1.92.144,2.608.056.43-.088.687-.316.687-.2,0-.4-.372-.461-.544-.485-1.375-.8-1.748-1.718-1.835a23.208,23.208,0,0,0-2.752-.085c-.055,0-.227.085-.227.458l.056,5.245a2.778,2.778,0,0,0,.344,1.176c.373.429.63.631,2.465.631,3.1,0,3.409-.173,3.926-.86.345-.487.917-1.376,1.147-1.806.286-.43.573-.688.744-.688.144,0,.259.23.259.43a21.781,21.781,0,0,1-1.147,3.841,1.31,1.31,0,0,1-.659.4c-.145,0-5.073-.258-9.029-.258-.86,0-3.64.172-4.215.172-.658,0-.828-.172-.828-.372,0-.114.17-.286.6-.373,2.035-.43,2.237-.6,2.351-2.436.084-1.259.114-2.894.114-6.391,0-3.382-.029-5.275-.086-6.077-.114-1.089-.284-1.576-1.719-1.863-.6-.114-.774-.286-.774-.458,0-.144.171-.315.688-.315" transform="translate(-324.116 -585.793)" fill="#fff"/>
    <path id="패스_4982" data-name="패스 4982" d="M548.1,877.131c.6-.028,2.809.143,3.869.143,1.234,0,3.21-.114,4.07-.114.174,0,.717.085.717.344.03.171-.343.372-.573.43-1.032.228-1.375.544-1.059,1.2a36.589,36.589,0,0,0,2.921,4.471.271.271,0,0,0,.373.029,37.983,37.983,0,0,0,3.039-4.157c.458-.775.458-1.261-.719-1.547-.429-.086-.746-.23-.746-.43,0-.116.231-.316.8-.316.918,0,1.548.085,2.265.085.66,0,2.494-.114,3.181-.114.2,0,.575.143.575.314.027.2-.374.373-.544.4a5.549,5.549,0,0,0-3.47,1.891c-1.4,1.606-2.751,3.124-3.869,4.672a.447.447,0,0,0-.029.459c.346.659,3.584,5.733,4.845,7.452,1.231,1.69,1.834,1.948,3.152,2.264a.88.88,0,0,1,.572.4c0,.2-.229.372-.773.372-1.347,0-3.24-.086-4.356-.086-.8,0-3.326.086-3.756.086-.514,0-.687-.286-.687-.344,0-.172.2-.344.546-.429,1.375-.344,1.49-.6,1.117-1.32-.486-1-3.009-4.987-3.325-5.359-.143-.2-.2-.143-.258-.085a39.282,39.282,0,0,0-2.809,3.9c-1.346,1.977-.944,2.408.316,2.867.373.142.573.287.573.515,0,.114-.259.258-.63.258-.889,0-1.719-.086-2.638-.086-1.291,0-2.779.143-3.467.143-.43,0-.6-.143-.6-.343s.285-.4.916-.516a4.941,4.941,0,0,0,2.982-1.491c.431-.458,3.469-4.213,4.786-6.105a.288.288,0,0,0,.058-.257,79.3,79.3,0,0,0-5.016-7.509,3.423,3.423,0,0,0-2.351-1.289c-.4-.086-.687-.23-.687-.488,0-.143.257-.316.687-.316" transform="translate(-365.32 -586.096)" fill="#fff"/>
    <path id="패스_4983" data-name="패스 4983" d="M631.775,876.886a9.153,9.153,0,0,0,.315.975c1.921,5.532,4.557,11.78,5.1,13.271,1.091,2.435,1.4,2.751,2.666,3.152.457.057.688.286.688.4,0,.144-.143.4-.716.4-.745,0-3.985-.172-4.614-.172-.89,0-1.865.115-2.667.115-.516,0-.745-.2-.745-.316,0-.229.2-.344.574-.458,1.232-.4,1.261-.689,1.261-1.2,0-.372-1.261-3.669-1.519-4.5-.116-.2-.259-.544-.488-.544-.66-.057-3.038-.057-4.645,0a1.017,1.017,0,0,0-.371.516,24.365,24.365,0,0,0-1.2,4.327c0,.66.374,1.089,1.605,1.491.6.173.687.259.687.43.03.143-.2.287-.6.287-1.148,0-1.864-.143-2.953-.143-.944,0-1.747.143-2.493.143-.315,0-.63-.057-.658-.316,0-.2.231-.286.6-.373,1.52-.4,1.92-1,2.751-2.837.8-1.777,3.928-10.776,4.786-13.385a3.294,3.294,0,0,0,.172-.832c0-.143.03-.086.03-.286a.543.543,0,0,1,.341-.4,6.493,6.493,0,0,1,1.835-.029.518.518,0,0,1,.259.286m-.516,9.372c-.458-1.4-1.4-4.041-1.832-5.158-.116-.286-.288-.286-.346-.115a50.318,50.318,0,0,0-1.718,5.3c-.029.143,0,.315.142.344.831,0,3.412.029,3.7,0a.294.294,0,0,0,.056-.373" transform="translate(-414.952 -585.709)" fill="#fff"/>
    <path id="패스_4984" data-name="패스 4984" d="M707.351,876.243a.707.707,0,0,1,.4.544c.028.516.316,2.752.316,3.182,0,.2-.087.488-.23.488-.229,0-.459-.317-.575-.66a4.043,4.043,0,0,0-4.125-3.037,2.761,2.761,0,0,0-2.523,2.607c0,1.605.916,2.752,3.812,4.615,4.212,2.751,4.271,4.93,4.271,5.991a5.028,5.028,0,0,1-2.553,4.155,8.9,8.9,0,0,1-4.01.946,12.352,12.352,0,0,1-4.673-.888c-.114-.028-.315-.516-.315-.6a30.073,30.073,0,0,1-.486-3.324c0-.372.084-.63.343-.63.228,0,.515.459,1.519,2.493a3.852,3.852,0,0,0,3.668,2.093A3.044,3.044,0,0,0,705,891.347c0-.917-.544-2.379-3.066-4.07-3.325-2.207-4.53-3.813-4.53-5.962a4.685,4.685,0,0,1,1.722-3.869,6.8,6.8,0,0,1,4.642-1.434c1.347,0,2.982.23,3.583.23" transform="translate(-465.509 -585.352)" fill="#fff"/>
    <path id="패스_4985" data-name="패스 4985" d="M781.493,877.167c.745,0,2.837.114,3.611.114,1.317,0,2.58-.085,3.21-.085.344,0,.774.085.774.316s-.2.343-.746.457c-1.118.23-1.144.688-1.233,2.008-.027.973-.112,3.812-.027,4.7.027.43.057.659.228.687,1.491.03,7.225-.028,7.8-.056.289-.029.43-.086.43-.287,0-2.293.03-3.7-.056-5.3-.085-1.031-.143-1.518-1.4-1.834-.258-.057-.745-.143-.745-.43,0-.258.429-.315.745-.315.286,0,2.665.143,3.411.143.946,0,3.066-.114,3.266-.114.689,0,.861.172.861.344s-.231.314-.658.43c-1.263.315-1.463.458-1.521,1.575-.086,1.921-.115,3.841-.115,7.28,0,2.379-.028,4.672.115,6.02.144,1.146.372,1.546,1.545,1.835.49.172.663.287.663.429,0,.26-.26.373-.687.373-.461,0-3.011-.143-3.813-.143-.574,0-2.58.057-3.1.057-.285,0-.744-.116-.744-.315,0-.228.315-.344.659-.4,1.262-.345,1.434-.545,1.547-2.838.027-1.06.057-3.21,0-4.385-.059-.717-.2-.745-.43-.745-.659,0-7.452,0-7.768.028-.112.029-.2.4-.228.63a38.31,38.31,0,0,0,.086,5.3c.084,1.261.258,1.6,1.547,1.949.571.114.717.287.717.458,0,.144-.145.344-.717.344-.171,0-2.551-.086-3.525-.086-.661,0-2.638.172-3.641.172-.4,0-.773-.086-.773-.372,0-.229.4-.373.632-.4,1.375-.258,1.577-.6,1.661-2.35.059-.975.086-3.067.086-6.392,0-2.723,0-4.9-.115-6.364-.087-1-.257-1.375-1.375-1.661-.66-.143-.83-.287-.83-.487,0-.115.256-.286.659-.286" transform="translate(-521.714 -586.103)" fill="#fff"/>
    <path id="패스_4986" data-name="패스 4986" d="M882.086,885.5a9.657,9.657,0,0,1-3.3,7.281,9.834,9.834,0,0,1-6.476,2.293c-5.5,0-10-3.9-10-9.659a8.613,8.613,0,0,1,3.181-7.108,10.771,10.771,0,0,1,6.623-2.294c7.307,0,9.972,5.676,9.972,9.486m-13.441-7.365c-.975.946-2.036,2.837-2.036,6.878a11.511,11.511,0,0,0,2.148,6.65,5.726,5.726,0,0,0,4.416,2.494,3.866,3.866,0,0,0,2.493-1.061c1.261-1.2,2.007-3.84,2.007-6.965,0-1.948-.888-9.258-6.221-9.258a4.676,4.676,0,0,0-2.807,1.262" transform="translate(-576.196 -585.351)" fill="#fff"/>
    <path id="패스_4987" data-name="패스 4987" d="M940.095,877.31c.774,0,2.634.085,3.382.085,1.06,0,3.208-.085,3.841-.085.257,0,.687.115.687.372,0,.172-.142.315-.717.4-1.463.23-1.491.775-1.6,2.323-.058.917-.115,1.777-.115,5.589,0,3.239.087,6.018.173,7.05a1.481,1.481,0,0,0,1.031,1.262,23.807,23.807,0,0,0,3.268.057c1.232-.086,2.064-.86,2.98-2.58.4-.688.6-.946.774-.946a.519.519,0,0,1,.286.515,15.321,15.321,0,0,1-.831,3.583c-.027.086-.316.6-.687.6-1.92,0-4.644-.115-8.282-.115-2.924,0-3.871.172-4.759.172-.486,0-.687-.086-.687-.344,0-.142.2-.286.628-.373,1.608-.315,2.007-.659,2.123-2.064.058-.573.114-2.894.114-7.509,0-3.554,0-4.3-.027-5.245-.029-1.29-.316-1.777-1.605-2.006-.517-.086-.689-.287-.689-.43s.286-.316.718-.316" transform="translate(-627.328 -586.219)" fill="#fff"/>
    <path id="패스_4988" data-name="패스 4988" d="M1017.118,879.4a9.434,9.434,0,0,1-2.838,14.7,12.393,12.393,0,0,1-5.216,1.09c-1,0-5.39-.115-6.279-.115h-2.263c-.63,0-.717-.287-.717-.373,0-.172.4-.344.687-.4,1.551-.173,1.979-.545,2.036-2.151.086-1.719.057-4.786.057-6.306,0-1.117.028-2.723-.028-5.531-.059-2.149-.087-2.35-1.805-2.752-.261-.057-.661-.172-.661-.4,0-.2.345-.316.716-.316h1.777c1.375,0,4.987-.23,6.879-.23a10.449,10.449,0,0,1,7.653,2.781m-10.033-1.719a.939.939,0,0,0-.514.744c-.058.374-.116,2.408-.116,4.874v3.152c0,1.834.143,4.873.26,5.962a2.349,2.349,0,0,0,.714,1.2,3.84,3.84,0,0,0,2.122.8,5.181,5.181,0,0,0,3.182-1.318c1.747-1.4,2.408-4.185,2.408-7.136a10.08,10.08,0,0,0-2.179-6.363,6.18,6.18,0,0,0-4.556-2.178,6.1,6.1,0,0,0-1.32.258" transform="translate(-668.07 -585.755)" fill="#fff"/>
    <path id="패스_4989" data-name="패스 4989" d="M1082.442,874.243a3.989,3.989,0,0,1-3.467,3.813c-.315,0-.546-.087-.546-.259,0-.229.345-.4.461-.458,1.231-.572,1.691-1.262,1.691-1.92,0-.6-.289-.947-1.177-1.2a1.364,1.364,0,0,1-1-1.29,1.717,1.717,0,0,1,1.751-1.663c.973,0,2.291.86,2.291,2.981" transform="translate(-720.587 -582.177)" fill="#fff"/>
    <path id="패스_4990" data-name="패스 4990" d="M1108.944,876.885c1.518,0,2.119.085,3.5.085.488,0,4.472.03,4.959,0a20.109,20.109,0,0,0,3.984-.286c.172-.058.287.143.316.2.057.029.229,2.665.229,3.468,0,.316-.114.658-.343.658-.2,0-.432-.4-.516-.716a2.606,2.606,0,0,0-2.811-2.321c-.629-.029-1.918-.058-3.094-.058-.145,0-.286.229-.315.344-.173.917-.145,4.558-.145,6.764,0,.115.174.229.286.229h2.037c1.4,0,1.692-.172,2.348-1.691.116-.287.346-.574.489-.574.229,0,.317.229.317.574,0,.717-.144,1.319-.144,2.036.028.859.114,1.92.144,2.608.057.43-.088.687-.317.687-.2,0-.4-.372-.459-.544-.487-1.375-.8-1.748-1.719-1.835a23.241,23.241,0,0,0-2.752-.085c-.057,0-.23.085-.23.458l.058,5.245a2.814,2.814,0,0,0,.343,1.176c.373.429.633.631,2.466.631,3.1,0,3.411-.173,3.926-.86.343-.487.919-1.376,1.146-1.806.286-.43.572-.688.747-.688.142,0,.257.23.257.43a21.8,21.8,0,0,1-1.145,3.841,1.332,1.332,0,0,1-.662.4c-.141,0-5.072-.258-9.027-.258-.86,0-3.64.172-4.213.172-.659,0-.832-.172-.832-.372,0-.114.173-.286.6-.373,2.037-.43,2.237-.6,2.351-2.436.087-1.259.114-2.894.114-6.391,0-3.382-.028-5.275-.086-6.077-.114-1.089-.287-1.576-1.719-1.863-.6-.114-.773-.286-.773-.458,0-.144.171-.315.688-.315" transform="translate(-740.211 -585.793)" fill="#fff"/>
    <path id="패스_4991" data-name="패스 4991" d="M1172.623,877.167c2.036,0,4.787.114,4.989.114.028,0,.285.086.314.258a23.655,23.655,0,0,0,1.317,3.125c1.551,3.239,3.068,6.392,4.214,8.54.058.144.258,0,.316-.114,1.261-2.436,2.9-6.362,4.243-9.4.344-.8.43-1.089.715-1.891.116-.316.229-.516.373-.516,1.748,0,3.669-.114,4.958-.143.286,0,.659.086.659.257,0,.2-.057.4-.688.516-1.748.374-1.862.745-1.834,3.068,0,3.238.058,7.767.2,9.946.227,3.151.343,3.3,2.15,3.782.344.086.515.287.515.43,0,.172-.287.344-.688.344-.2,0-3.152-.172-4.1-.172-.458,0-2.522.115-3.153.115-.371,0-.717-.115-.717-.373,0-.172.259-.315.717-.4,1.32-.345,1.32-.889,1.347-2.637.058-4.385.2-8.685.03-10.375-.03-.086-.2-.459-.287-.229-.058.142-3.1,6.906-3.755,8.684-.746,1.891-1.2,3.037-1.719,4.414-.316.859-.546,1.032-.774,1.032-.173,0-.459-.488-.545-.63-.115-.287-.545-1.577-1.091-2.809-1.431-3.21-3.5-7.682-4.583-10.032-.115-.287-.314.143-.314.344-.174,2.608-.26,7.136-.26,9.8,0,1.547.658,2.063,2.092,2.465.716.172.688.372.688.43,0,.142-.258.372-.687.372-1,0-1.576-.172-2.465-.172-1.519,0-2.349.172-3.066.172-.286,0-.659-.142-.659-.4,0-.142.372-.286.516-.315,1.547-.4,2.149-1.2,2.32-3.153.345-3.64.6-8.025.746-11.435,0-.315-.315-1.662-1.033-1.92a8.258,8.258,0,0,0-1.2-.4c-.086-.029-.457-.172-.457-.373s.171-.314.658-.314" transform="translate(-782.513 -586.103)" fill="#fff"/>
  </g>
</svg>
